%TF.GenerationSoftware,KiCad,Pcbnew,(7.0.0-0)*%
%TF.CreationDate,2023-04-20T13:26:23-06:00*%
%TF.ProjectId,Phase B - PCB,50686173-6520-4422-902d-205043422e6b,rev?*%
%TF.SameCoordinates,Original*%
%TF.FileFunction,Copper,L1,Top*%
%TF.FilePolarity,Positive*%
%FSLAX46Y46*%
G04 Gerber Fmt 4.6, Leading zero omitted, Abs format (unit mm)*
G04 Created by KiCad (PCBNEW (7.0.0-0)) date 2023-04-20 13:26:23*
%MOMM*%
%LPD*%
G01*
G04 APERTURE LIST*
G04 Aperture macros list*
%AMRoundRect*
0 Rectangle with rounded corners*
0 $1 Rounding radius*
0 $2 $3 $4 $5 $6 $7 $8 $9 X,Y pos of 4 corners*
0 Add a 4 corners polygon primitive as box body*
4,1,4,$2,$3,$4,$5,$6,$7,$8,$9,$2,$3,0*
0 Add four circle primitives for the rounded corners*
1,1,$1+$1,$2,$3*
1,1,$1+$1,$4,$5*
1,1,$1+$1,$6,$7*
1,1,$1+$1,$8,$9*
0 Add four rect primitives between the rounded corners*
20,1,$1+$1,$2,$3,$4,$5,0*
20,1,$1+$1,$4,$5,$6,$7,0*
20,1,$1+$1,$6,$7,$8,$9,0*
20,1,$1+$1,$8,$9,$2,$3,0*%
G04 Aperture macros list end*
%ADD10C,0.300000*%
%TA.AperFunction,NonConductor*%
%ADD11C,0.300000*%
%TD*%
%TA.AperFunction,NonConductor*%
%ADD12C,0.200000*%
%TD*%
%TA.AperFunction,SMDPad,CuDef*%
%ADD13RoundRect,0.250000X0.450000X-0.262500X0.450000X0.262500X-0.450000X0.262500X-0.450000X-0.262500X0*%
%TD*%
%TA.AperFunction,SMDPad,CuDef*%
%ADD14RoundRect,0.200000X0.200000X0.275000X-0.200000X0.275000X-0.200000X-0.275000X0.200000X-0.275000X0*%
%TD*%
%TA.AperFunction,SMDPad,CuDef*%
%ADD15RoundRect,0.225000X-0.250000X0.225000X-0.250000X-0.225000X0.250000X-0.225000X0.250000X0.225000X0*%
%TD*%
%TA.AperFunction,SMDPad,CuDef*%
%ADD16R,2.000000X0.500000*%
%TD*%
%TA.AperFunction,SMDPad,CuDef*%
%ADD17R,1.700000X2.000000*%
%TD*%
%TA.AperFunction,SMDPad,CuDef*%
%ADD18RoundRect,0.225000X0.225000X0.250000X-0.225000X0.250000X-0.225000X-0.250000X0.225000X-0.250000X0*%
%TD*%
%TA.AperFunction,SMDPad,CuDef*%
%ADD19R,1.000000X0.700000*%
%TD*%
%TA.AperFunction,ComponentPad*%
%ADD20R,1.700000X1.700000*%
%TD*%
%TA.AperFunction,ComponentPad*%
%ADD21O,1.700000X1.700000*%
%TD*%
%TA.AperFunction,SMDPad,CuDef*%
%ADD22RoundRect,0.100000X-0.637500X-0.100000X0.637500X-0.100000X0.637500X0.100000X-0.637500X0.100000X0*%
%TD*%
%TA.AperFunction,SMDPad,CuDef*%
%ADD23RoundRect,0.250000X0.250000X0.475000X-0.250000X0.475000X-0.250000X-0.475000X0.250000X-0.475000X0*%
%TD*%
%TA.AperFunction,SMDPad,CuDef*%
%ADD24R,1.500000X0.550000*%
%TD*%
%TA.AperFunction,SMDPad,CuDef*%
%ADD25R,0.550000X1.500000*%
%TD*%
%TA.AperFunction,SMDPad,CuDef*%
%ADD26RoundRect,0.200000X-0.275000X0.200000X-0.275000X-0.200000X0.275000X-0.200000X0.275000X0.200000X0*%
%TD*%
%TA.AperFunction,SMDPad,CuDef*%
%ADD27RoundRect,0.225000X0.250000X-0.225000X0.250000X0.225000X-0.250000X0.225000X-0.250000X-0.225000X0*%
%TD*%
%TA.AperFunction,SMDPad,CuDef*%
%ADD28RoundRect,0.250000X-0.262500X-0.450000X0.262500X-0.450000X0.262500X0.450000X-0.262500X0.450000X0*%
%TD*%
%TA.AperFunction,SMDPad,CuDef*%
%ADD29RoundRect,0.225000X-0.225000X-0.250000X0.225000X-0.250000X0.225000X0.250000X-0.225000X0.250000X0*%
%TD*%
%TA.AperFunction,SMDPad,CuDef*%
%ADD30RoundRect,0.250000X0.262500X0.450000X-0.262500X0.450000X-0.262500X-0.450000X0.262500X-0.450000X0*%
%TD*%
%TA.AperFunction,SMDPad,CuDef*%
%ADD31RoundRect,0.150000X0.512500X0.150000X-0.512500X0.150000X-0.512500X-0.150000X0.512500X-0.150000X0*%
%TD*%
%TA.AperFunction,SMDPad,CuDef*%
%ADD32R,1.400000X1.200000*%
%TD*%
%TA.AperFunction,SMDPad,CuDef*%
%ADD33RoundRect,0.243750X-0.243750X-0.456250X0.243750X-0.456250X0.243750X0.456250X-0.243750X0.456250X0*%
%TD*%
%TA.AperFunction,ComponentPad*%
%ADD34R,2.000000X2.000000*%
%TD*%
%TA.AperFunction,ComponentPad*%
%ADD35C,2.000000*%
%TD*%
%TA.AperFunction,SMDPad,CuDef*%
%ADD36RoundRect,0.200000X0.275000X-0.200000X0.275000X0.200000X-0.275000X0.200000X-0.275000X-0.200000X0*%
%TD*%
%TA.AperFunction,SMDPad,CuDef*%
%ADD37R,2.000000X1.500000*%
%TD*%
%TA.AperFunction,SMDPad,CuDef*%
%ADD38RoundRect,0.150000X-0.512500X-0.150000X0.512500X-0.150000X0.512500X0.150000X-0.512500X0.150000X0*%
%TD*%
%TA.AperFunction,SMDPad,CuDef*%
%ADD39RoundRect,0.243750X-0.456250X0.243750X-0.456250X-0.243750X0.456250X-0.243750X0.456250X0.243750X0*%
%TD*%
%TA.AperFunction,ComponentPad*%
%ADD40R,1.500000X1.500000*%
%TD*%
%TA.AperFunction,ComponentPad*%
%ADD41C,1.500000*%
%TD*%
%TA.AperFunction,SMDPad,CuDef*%
%ADD42RoundRect,0.250000X-0.312500X-1.450000X0.312500X-1.450000X0.312500X1.450000X-0.312500X1.450000X0*%
%TD*%
%TA.AperFunction,ViaPad*%
%ADD43C,0.600000*%
%TD*%
%TA.AperFunction,Conductor*%
%ADD44C,0.200000*%
%TD*%
G04 APERTURE END LIST*
D10*
D11*
X99593928Y-101521427D02*
X99522500Y-101664284D01*
X99522500Y-101664284D02*
X99451071Y-101735713D01*
X99451071Y-101735713D02*
X99308214Y-101807141D01*
X99308214Y-101807141D02*
X99236785Y-101807141D01*
X99236785Y-101807141D02*
X99093928Y-101735713D01*
X99093928Y-101735713D02*
X99022500Y-101664284D01*
X99022500Y-101664284D02*
X98951071Y-101521427D01*
X98951071Y-101521427D02*
X98951071Y-101235713D01*
X98951071Y-101235713D02*
X99022500Y-101092856D01*
X99022500Y-101092856D02*
X99093928Y-101021427D01*
X99093928Y-101021427D02*
X99236785Y-100949998D01*
X99236785Y-100949998D02*
X99308214Y-100949998D01*
X99308214Y-100949998D02*
X99451071Y-101021427D01*
X99451071Y-101021427D02*
X99522500Y-101092856D01*
X99522500Y-101092856D02*
X99593928Y-101235713D01*
X99593928Y-101235713D02*
X99593928Y-101521427D01*
X99593928Y-101521427D02*
X99665357Y-101664284D01*
X99665357Y-101664284D02*
X99736785Y-101735713D01*
X99736785Y-101735713D02*
X99879642Y-101807141D01*
X99879642Y-101807141D02*
X100165357Y-101807141D01*
X100165357Y-101807141D02*
X100308214Y-101735713D01*
X100308214Y-101735713D02*
X100379642Y-101664284D01*
X100379642Y-101664284D02*
X100451071Y-101521427D01*
X100451071Y-101521427D02*
X100451071Y-101235713D01*
X100451071Y-101235713D02*
X100379642Y-101092856D01*
X100379642Y-101092856D02*
X100308214Y-101021427D01*
X100308214Y-101021427D02*
X100165357Y-100949998D01*
X100165357Y-100949998D02*
X99879642Y-100949998D01*
X99879642Y-100949998D02*
X99736785Y-101021427D01*
X99736785Y-101021427D02*
X99665357Y-101092856D01*
X99665357Y-101092856D02*
X99593928Y-101235713D01*
X98951071Y-100021427D02*
X98951071Y-99878570D01*
X98951071Y-99878570D02*
X99022500Y-99735713D01*
X99022500Y-99735713D02*
X99093928Y-99664285D01*
X99093928Y-99664285D02*
X99236785Y-99592856D01*
X99236785Y-99592856D02*
X99522500Y-99521427D01*
X99522500Y-99521427D02*
X99879642Y-99521427D01*
X99879642Y-99521427D02*
X100165357Y-99592856D01*
X100165357Y-99592856D02*
X100308214Y-99664285D01*
X100308214Y-99664285D02*
X100379642Y-99735713D01*
X100379642Y-99735713D02*
X100451071Y-99878570D01*
X100451071Y-99878570D02*
X100451071Y-100021427D01*
X100451071Y-100021427D02*
X100379642Y-100164285D01*
X100379642Y-100164285D02*
X100308214Y-100235713D01*
X100308214Y-100235713D02*
X100165357Y-100307142D01*
X100165357Y-100307142D02*
X99879642Y-100378570D01*
X99879642Y-100378570D02*
X99522500Y-100378570D01*
X99522500Y-100378570D02*
X99236785Y-100307142D01*
X99236785Y-100307142D02*
X99093928Y-100235713D01*
X99093928Y-100235713D02*
X99022500Y-100164285D01*
X99022500Y-100164285D02*
X98951071Y-100021427D01*
X100308214Y-98878571D02*
X100379642Y-98807142D01*
X100379642Y-98807142D02*
X100451071Y-98878571D01*
X100451071Y-98878571D02*
X100379642Y-98949999D01*
X100379642Y-98949999D02*
X100308214Y-98878571D01*
X100308214Y-98878571D02*
X100451071Y-98878571D01*
X98951071Y-97878570D02*
X98951071Y-97735713D01*
X98951071Y-97735713D02*
X99022500Y-97592856D01*
X99022500Y-97592856D02*
X99093928Y-97521428D01*
X99093928Y-97521428D02*
X99236785Y-97449999D01*
X99236785Y-97449999D02*
X99522500Y-97378570D01*
X99522500Y-97378570D02*
X99879642Y-97378570D01*
X99879642Y-97378570D02*
X100165357Y-97449999D01*
X100165357Y-97449999D02*
X100308214Y-97521428D01*
X100308214Y-97521428D02*
X100379642Y-97592856D01*
X100379642Y-97592856D02*
X100451071Y-97735713D01*
X100451071Y-97735713D02*
X100451071Y-97878570D01*
X100451071Y-97878570D02*
X100379642Y-98021428D01*
X100379642Y-98021428D02*
X100308214Y-98092856D01*
X100308214Y-98092856D02*
X100165357Y-98164285D01*
X100165357Y-98164285D02*
X99879642Y-98235713D01*
X99879642Y-98235713D02*
X99522500Y-98235713D01*
X99522500Y-98235713D02*
X99236785Y-98164285D01*
X99236785Y-98164285D02*
X99093928Y-98092856D01*
X99093928Y-98092856D02*
X99022500Y-98021428D01*
X99022500Y-98021428D02*
X98951071Y-97878570D01*
X98951071Y-96449999D02*
X98951071Y-96307142D01*
X98951071Y-96307142D02*
X99022500Y-96164285D01*
X99022500Y-96164285D02*
X99093928Y-96092857D01*
X99093928Y-96092857D02*
X99236785Y-96021428D01*
X99236785Y-96021428D02*
X99522500Y-95949999D01*
X99522500Y-95949999D02*
X99879642Y-95949999D01*
X99879642Y-95949999D02*
X100165357Y-96021428D01*
X100165357Y-96021428D02*
X100308214Y-96092857D01*
X100308214Y-96092857D02*
X100379642Y-96164285D01*
X100379642Y-96164285D02*
X100451071Y-96307142D01*
X100451071Y-96307142D02*
X100451071Y-96449999D01*
X100451071Y-96449999D02*
X100379642Y-96592857D01*
X100379642Y-96592857D02*
X100308214Y-96664285D01*
X100308214Y-96664285D02*
X100165357Y-96735714D01*
X100165357Y-96735714D02*
X99879642Y-96807142D01*
X99879642Y-96807142D02*
X99522500Y-96807142D01*
X99522500Y-96807142D02*
X99236785Y-96735714D01*
X99236785Y-96735714D02*
X99093928Y-96664285D01*
X99093928Y-96664285D02*
X99022500Y-96592857D01*
X99022500Y-96592857D02*
X98951071Y-96449999D01*
X98951071Y-95021428D02*
X98951071Y-94878571D01*
X98951071Y-94878571D02*
X99022500Y-94735714D01*
X99022500Y-94735714D02*
X99093928Y-94664286D01*
X99093928Y-94664286D02*
X99236785Y-94592857D01*
X99236785Y-94592857D02*
X99522500Y-94521428D01*
X99522500Y-94521428D02*
X99879642Y-94521428D01*
X99879642Y-94521428D02*
X100165357Y-94592857D01*
X100165357Y-94592857D02*
X100308214Y-94664286D01*
X100308214Y-94664286D02*
X100379642Y-94735714D01*
X100379642Y-94735714D02*
X100451071Y-94878571D01*
X100451071Y-94878571D02*
X100451071Y-95021428D01*
X100451071Y-95021428D02*
X100379642Y-95164286D01*
X100379642Y-95164286D02*
X100308214Y-95235714D01*
X100308214Y-95235714D02*
X100165357Y-95307143D01*
X100165357Y-95307143D02*
X99879642Y-95378571D01*
X99879642Y-95378571D02*
X99522500Y-95378571D01*
X99522500Y-95378571D02*
X99236785Y-95307143D01*
X99236785Y-95307143D02*
X99093928Y-95235714D01*
X99093928Y-95235714D02*
X99022500Y-95164286D01*
X99022500Y-95164286D02*
X98951071Y-95021428D01*
X98951071Y-93592857D02*
X98951071Y-93450000D01*
X98951071Y-93450000D02*
X99022500Y-93307143D01*
X99022500Y-93307143D02*
X99093928Y-93235715D01*
X99093928Y-93235715D02*
X99236785Y-93164286D01*
X99236785Y-93164286D02*
X99522500Y-93092857D01*
X99522500Y-93092857D02*
X99879642Y-93092857D01*
X99879642Y-93092857D02*
X100165357Y-93164286D01*
X100165357Y-93164286D02*
X100308214Y-93235715D01*
X100308214Y-93235715D02*
X100379642Y-93307143D01*
X100379642Y-93307143D02*
X100451071Y-93450000D01*
X100451071Y-93450000D02*
X100451071Y-93592857D01*
X100451071Y-93592857D02*
X100379642Y-93735715D01*
X100379642Y-93735715D02*
X100308214Y-93807143D01*
X100308214Y-93807143D02*
X100165357Y-93878572D01*
X100165357Y-93878572D02*
X99879642Y-93950000D01*
X99879642Y-93950000D02*
X99522500Y-93950000D01*
X99522500Y-93950000D02*
X99236785Y-93878572D01*
X99236785Y-93878572D02*
X99093928Y-93807143D01*
X99093928Y-93807143D02*
X99022500Y-93735715D01*
X99022500Y-93735715D02*
X98951071Y-93592857D01*
X100451071Y-91550001D02*
X99451071Y-91550001D01*
X99593928Y-91550001D02*
X99522500Y-91478572D01*
X99522500Y-91478572D02*
X99451071Y-91335715D01*
X99451071Y-91335715D02*
X99451071Y-91121429D01*
X99451071Y-91121429D02*
X99522500Y-90978572D01*
X99522500Y-90978572D02*
X99665357Y-90907144D01*
X99665357Y-90907144D02*
X100451071Y-90907144D01*
X99665357Y-90907144D02*
X99522500Y-90835715D01*
X99522500Y-90835715D02*
X99451071Y-90692858D01*
X99451071Y-90692858D02*
X99451071Y-90478572D01*
X99451071Y-90478572D02*
X99522500Y-90335715D01*
X99522500Y-90335715D02*
X99665357Y-90264286D01*
X99665357Y-90264286D02*
X100451071Y-90264286D01*
X100451071Y-89550001D02*
X99451071Y-89550001D01*
X99593928Y-89550001D02*
X99522500Y-89478572D01*
X99522500Y-89478572D02*
X99451071Y-89335715D01*
X99451071Y-89335715D02*
X99451071Y-89121429D01*
X99451071Y-89121429D02*
X99522500Y-88978572D01*
X99522500Y-88978572D02*
X99665357Y-88907144D01*
X99665357Y-88907144D02*
X100451071Y-88907144D01*
X99665357Y-88907144D02*
X99522500Y-88835715D01*
X99522500Y-88835715D02*
X99451071Y-88692858D01*
X99451071Y-88692858D02*
X99451071Y-88478572D01*
X99451071Y-88478572D02*
X99522500Y-88335715D01*
X99522500Y-88335715D02*
X99665357Y-88264286D01*
X99665357Y-88264286D02*
X100451071Y-88264286D01*
D12*
X109100000Y-135000000D02*
X101113580Y-135000000D01*
X109100000Y-55000000D02*
X101113580Y-55000000D01*
X101700000Y-135000000D02*
X101700000Y-55000000D01*
X101700000Y-135000000D02*
X101700000Y-55000000D01*
X101700000Y-135000000D02*
X101113579Y-133873496D01*
X101700000Y-135000000D02*
X102286421Y-133873496D01*
X101700000Y-55000000D02*
X102286421Y-56126504D01*
X101700000Y-55000000D02*
X101113579Y-56126504D01*
D10*
D11*
X136857144Y-139551070D02*
X136571429Y-139551070D01*
X136571429Y-139551070D02*
X136428572Y-139622499D01*
X136428572Y-139622499D02*
X136357144Y-139693927D01*
X136357144Y-139693927D02*
X136214286Y-139908213D01*
X136214286Y-139908213D02*
X136142858Y-140193927D01*
X136142858Y-140193927D02*
X136142858Y-140765356D01*
X136142858Y-140765356D02*
X136214286Y-140908213D01*
X136214286Y-140908213D02*
X136285715Y-140979641D01*
X136285715Y-140979641D02*
X136428572Y-141051070D01*
X136428572Y-141051070D02*
X136714286Y-141051070D01*
X136714286Y-141051070D02*
X136857144Y-140979641D01*
X136857144Y-140979641D02*
X136928572Y-140908213D01*
X136928572Y-140908213D02*
X137000001Y-140765356D01*
X137000001Y-140765356D02*
X137000001Y-140408213D01*
X137000001Y-140408213D02*
X136928572Y-140265356D01*
X136928572Y-140265356D02*
X136857144Y-140193927D01*
X136857144Y-140193927D02*
X136714286Y-140122499D01*
X136714286Y-140122499D02*
X136428572Y-140122499D01*
X136428572Y-140122499D02*
X136285715Y-140193927D01*
X136285715Y-140193927D02*
X136214286Y-140265356D01*
X136214286Y-140265356D02*
X136142858Y-140408213D01*
X138357143Y-139551070D02*
X137642857Y-139551070D01*
X137642857Y-139551070D02*
X137571429Y-140265356D01*
X137571429Y-140265356D02*
X137642857Y-140193927D01*
X137642857Y-140193927D02*
X137785715Y-140122499D01*
X137785715Y-140122499D02*
X138142857Y-140122499D01*
X138142857Y-140122499D02*
X138285715Y-140193927D01*
X138285715Y-140193927D02*
X138357143Y-140265356D01*
X138357143Y-140265356D02*
X138428572Y-140408213D01*
X138428572Y-140408213D02*
X138428572Y-140765356D01*
X138428572Y-140765356D02*
X138357143Y-140908213D01*
X138357143Y-140908213D02*
X138285715Y-140979641D01*
X138285715Y-140979641D02*
X138142857Y-141051070D01*
X138142857Y-141051070D02*
X137785715Y-141051070D01*
X137785715Y-141051070D02*
X137642857Y-140979641D01*
X137642857Y-140979641D02*
X137571429Y-140908213D01*
X139071428Y-140908213D02*
X139142857Y-140979641D01*
X139142857Y-140979641D02*
X139071428Y-141051070D01*
X139071428Y-141051070D02*
X139000000Y-140979641D01*
X139000000Y-140979641D02*
X139071428Y-140908213D01*
X139071428Y-140908213D02*
X139071428Y-141051070D01*
X140500000Y-139551070D02*
X139785714Y-139551070D01*
X139785714Y-139551070D02*
X139714286Y-140265356D01*
X139714286Y-140265356D02*
X139785714Y-140193927D01*
X139785714Y-140193927D02*
X139928572Y-140122499D01*
X139928572Y-140122499D02*
X140285714Y-140122499D01*
X140285714Y-140122499D02*
X140428572Y-140193927D01*
X140428572Y-140193927D02*
X140500000Y-140265356D01*
X140500000Y-140265356D02*
X140571429Y-140408213D01*
X140571429Y-140408213D02*
X140571429Y-140765356D01*
X140571429Y-140765356D02*
X140500000Y-140908213D01*
X140500000Y-140908213D02*
X140428572Y-140979641D01*
X140428572Y-140979641D02*
X140285714Y-141051070D01*
X140285714Y-141051070D02*
X139928572Y-141051070D01*
X139928572Y-141051070D02*
X139785714Y-140979641D01*
X139785714Y-140979641D02*
X139714286Y-140908213D01*
X141500000Y-139551070D02*
X141642857Y-139551070D01*
X141642857Y-139551070D02*
X141785714Y-139622499D01*
X141785714Y-139622499D02*
X141857143Y-139693927D01*
X141857143Y-139693927D02*
X141928571Y-139836784D01*
X141928571Y-139836784D02*
X142000000Y-140122499D01*
X142000000Y-140122499D02*
X142000000Y-140479641D01*
X142000000Y-140479641D02*
X141928571Y-140765356D01*
X141928571Y-140765356D02*
X141857143Y-140908213D01*
X141857143Y-140908213D02*
X141785714Y-140979641D01*
X141785714Y-140979641D02*
X141642857Y-141051070D01*
X141642857Y-141051070D02*
X141500000Y-141051070D01*
X141500000Y-141051070D02*
X141357143Y-140979641D01*
X141357143Y-140979641D02*
X141285714Y-140908213D01*
X141285714Y-140908213D02*
X141214285Y-140765356D01*
X141214285Y-140765356D02*
X141142857Y-140479641D01*
X141142857Y-140479641D02*
X141142857Y-140122499D01*
X141142857Y-140122499D02*
X141214285Y-139836784D01*
X141214285Y-139836784D02*
X141285714Y-139693927D01*
X141285714Y-139693927D02*
X141357143Y-139622499D01*
X141357143Y-139622499D02*
X141500000Y-139551070D01*
X142928571Y-139551070D02*
X143071428Y-139551070D01*
X143071428Y-139551070D02*
X143214285Y-139622499D01*
X143214285Y-139622499D02*
X143285714Y-139693927D01*
X143285714Y-139693927D02*
X143357142Y-139836784D01*
X143357142Y-139836784D02*
X143428571Y-140122499D01*
X143428571Y-140122499D02*
X143428571Y-140479641D01*
X143428571Y-140479641D02*
X143357142Y-140765356D01*
X143357142Y-140765356D02*
X143285714Y-140908213D01*
X143285714Y-140908213D02*
X143214285Y-140979641D01*
X143214285Y-140979641D02*
X143071428Y-141051070D01*
X143071428Y-141051070D02*
X142928571Y-141051070D01*
X142928571Y-141051070D02*
X142785714Y-140979641D01*
X142785714Y-140979641D02*
X142714285Y-140908213D01*
X142714285Y-140908213D02*
X142642856Y-140765356D01*
X142642856Y-140765356D02*
X142571428Y-140479641D01*
X142571428Y-140479641D02*
X142571428Y-140122499D01*
X142571428Y-140122499D02*
X142642856Y-139836784D01*
X142642856Y-139836784D02*
X142714285Y-139693927D01*
X142714285Y-139693927D02*
X142785714Y-139622499D01*
X142785714Y-139622499D02*
X142928571Y-139551070D01*
X144357142Y-139551070D02*
X144499999Y-139551070D01*
X144499999Y-139551070D02*
X144642856Y-139622499D01*
X144642856Y-139622499D02*
X144714285Y-139693927D01*
X144714285Y-139693927D02*
X144785713Y-139836784D01*
X144785713Y-139836784D02*
X144857142Y-140122499D01*
X144857142Y-140122499D02*
X144857142Y-140479641D01*
X144857142Y-140479641D02*
X144785713Y-140765356D01*
X144785713Y-140765356D02*
X144714285Y-140908213D01*
X144714285Y-140908213D02*
X144642856Y-140979641D01*
X144642856Y-140979641D02*
X144499999Y-141051070D01*
X144499999Y-141051070D02*
X144357142Y-141051070D01*
X144357142Y-141051070D02*
X144214285Y-140979641D01*
X144214285Y-140979641D02*
X144142856Y-140908213D01*
X144142856Y-140908213D02*
X144071427Y-140765356D01*
X144071427Y-140765356D02*
X143999999Y-140479641D01*
X143999999Y-140479641D02*
X143999999Y-140122499D01*
X143999999Y-140122499D02*
X144071427Y-139836784D01*
X144071427Y-139836784D02*
X144142856Y-139693927D01*
X144142856Y-139693927D02*
X144214285Y-139622499D01*
X144214285Y-139622499D02*
X144357142Y-139551070D01*
X146399998Y-141051070D02*
X146399998Y-140051070D01*
X146399998Y-140193927D02*
X146471427Y-140122499D01*
X146471427Y-140122499D02*
X146614284Y-140051070D01*
X146614284Y-140051070D02*
X146828570Y-140051070D01*
X146828570Y-140051070D02*
X146971427Y-140122499D01*
X146971427Y-140122499D02*
X147042856Y-140265356D01*
X147042856Y-140265356D02*
X147042856Y-141051070D01*
X147042856Y-140265356D02*
X147114284Y-140122499D01*
X147114284Y-140122499D02*
X147257141Y-140051070D01*
X147257141Y-140051070D02*
X147471427Y-140051070D01*
X147471427Y-140051070D02*
X147614284Y-140122499D01*
X147614284Y-140122499D02*
X147685713Y-140265356D01*
X147685713Y-140265356D02*
X147685713Y-141051070D01*
X148399998Y-141051070D02*
X148399998Y-140051070D01*
X148399998Y-140193927D02*
X148471427Y-140122499D01*
X148471427Y-140122499D02*
X148614284Y-140051070D01*
X148614284Y-140051070D02*
X148828570Y-140051070D01*
X148828570Y-140051070D02*
X148971427Y-140122499D01*
X148971427Y-140122499D02*
X149042856Y-140265356D01*
X149042856Y-140265356D02*
X149042856Y-141051070D01*
X149042856Y-140265356D02*
X149114284Y-140122499D01*
X149114284Y-140122499D02*
X149257141Y-140051070D01*
X149257141Y-140051070D02*
X149471427Y-140051070D01*
X149471427Y-140051070D02*
X149614284Y-140122499D01*
X149614284Y-140122499D02*
X149685713Y-140265356D01*
X149685713Y-140265356D02*
X149685713Y-141051070D01*
D12*
X110200000Y-135500000D02*
X110200000Y-142886419D01*
X175700000Y-135500000D02*
X175700000Y-142886419D01*
X110200000Y-142299999D02*
X175700000Y-142299999D01*
X110200000Y-142299999D02*
X175700000Y-142299999D01*
X110200000Y-142299999D02*
X111326504Y-141713578D01*
X110200000Y-142299999D02*
X111326504Y-142886420D01*
X175700000Y-142299999D02*
X174573496Y-142886420D01*
X175700000Y-142299999D02*
X174573496Y-141713578D01*
D13*
%TO.P,R9,1*%
%TO.N,e*%
X146000000Y-78812500D03*
%TO.P,R9,2*%
%TO.N,Net-(U2-e)*%
X146000000Y-76987500D03*
%TD*%
%TO.P,R11,1*%
%TO.N,g*%
X142600000Y-78812500D03*
%TO.P,R11,2*%
%TO.N,Net-(U2-g)*%
X142600000Y-76987500D03*
%TD*%
D14*
%TO.P,R16,1*%
%TO.N,USB_CONN_D-*%
X124840000Y-93980000D03*
%TO.P,R16,2*%
%TO.N,Net-(J1-D-)*%
X123190000Y-93980000D03*
%TD*%
D15*
%TO.P,C9,1*%
%TO.N,VCC*%
X149944000Y-105638000D03*
%TO.P,C9,2*%
%TO.N,GND*%
X149944000Y-107188000D03*
%TD*%
D16*
%TO.P,J1,1,VBUS*%
%TO.N,Net-(J1-VBUS)*%
X119582499Y-93649999D03*
%TO.P,J1,2,D-*%
%TO.N,Net-(J1-D-)*%
X119582499Y-94449999D03*
%TO.P,J1,3,D+*%
%TO.N,Net-(J1-D+)*%
X119582499Y-95249999D03*
%TO.P,J1,4,ID*%
%TO.N,unconnected-(J1-ID-Pad4)*%
X119582499Y-96049999D03*
%TO.P,J1,5,GND*%
%TO.N,GND*%
X119582499Y-96849999D03*
D17*
%TO.P,J1,6,Shield*%
%TO.N,unconnected-(J1-Shield-Pad6)*%
X119482499Y-90799999D03*
X114032499Y-90799999D03*
X119482499Y-99699999D03*
X114032499Y-99699999D03*
%TD*%
D18*
%TO.P,C4,1*%
%TO.N,VCC*%
X144725000Y-98900000D03*
%TO.P,C4,2*%
%TO.N,GND*%
X143175000Y-98900000D03*
%TD*%
D19*
%TO.P,S3,1*%
%TO.N,GND*%
X134599999Y-114599999D03*
%TO.P,S3,2*%
%TO.N,N/C*%
X128599999Y-114599999D03*
%TO.P,S3,3*%
%TO.N,RESET*%
X134599999Y-110899999D03*
%TO.P,S3,4*%
%TO.N,N/C*%
X128599999Y-110899999D03*
%TD*%
D20*
%TO.P,J4,1,Pin_1*%
%TO.N,GND*%
X163499999Y-111519999D03*
D21*
%TO.P,J4,2,Pin_2*%
%TO.N,TX*%
X166039999Y-111519999D03*
%TO.P,J4,3,Pin_3*%
%TO.N,unconnected-(J4-Pin_3-Pad3)*%
X163499999Y-108979999D03*
%TO.P,J4,4,Pin_4*%
%TO.N,VCC*%
X166039999Y-108979999D03*
%TO.P,J4,5,Pin_5*%
%TO.N,Net-(J4-Pin_5)*%
X163499999Y-106439999D03*
%TO.P,J4,6,Pin_6*%
%TO.N,VCC*%
X166039999Y-106439999D03*
%TO.P,J4,7,Pin_7*%
%TO.N,RX*%
X163499999Y-103899999D03*
%TO.P,J4,8,Pin_8*%
%TO.N,VCC*%
X166039999Y-103899999D03*
%TD*%
D13*
%TO.P,R5,1*%
%TO.N,a*%
X165400000Y-81712500D03*
%TO.P,R5,2*%
%TO.N,Net-(U2-a)*%
X165400000Y-79887500D03*
%TD*%
D22*
%TO.P,U1,1,QB*%
%TO.N,b*%
X157300000Y-81400000D03*
%TO.P,U1,2,QC*%
%TO.N,c*%
X157300000Y-82050000D03*
%TO.P,U1,3,QD*%
%TO.N,d*%
X157300000Y-82700000D03*
%TO.P,U1,4,QE*%
%TO.N,e*%
X157300000Y-83350000D03*
%TO.P,U1,5,QF*%
%TO.N,f*%
X157300000Y-84000000D03*
%TO.P,U1,6,QG*%
%TO.N,g*%
X157300000Y-84650000D03*
%TO.P,U1,7,QH*%
%TO.N,dp*%
X157300000Y-85300000D03*
%TO.P,U1,8,GND*%
%TO.N,GND*%
X157300000Y-85950000D03*
%TO.P,U1,9,QH'*%
%TO.N,unconnected-(U1-QH'-Pad9)*%
X163025000Y-85950000D03*
%TO.P,U1,10,~{SRCLR}*%
%TO.N,VCC*%
X163025000Y-85300000D03*
%TO.P,U1,11,SRCLK*%
%TO.N,SH_CP*%
X163025000Y-84650000D03*
%TO.P,U1,12,RCLK*%
%TO.N,ST_CP*%
X163025000Y-84000000D03*
%TO.P,U1,13,~{OE}*%
%TO.N,GND*%
X163025000Y-83350000D03*
%TO.P,U1,14,SER*%
%TO.N,DS*%
X163025000Y-82700000D03*
%TO.P,U1,15,QA*%
%TO.N,a*%
X163025000Y-82050000D03*
%TO.P,U1,16,VCC*%
%TO.N,VCC*%
X163025000Y-81400000D03*
%TD*%
D13*
%TO.P,R6,1*%
%TO.N,b*%
X157200000Y-78612500D03*
%TO.P,R6,2*%
%TO.N,Net-(U2-b)*%
X157200000Y-76787500D03*
%TD*%
D23*
%TO.P,C5,1*%
%TO.N,VCC*%
X144737000Y-91850000D03*
%TO.P,C5,2*%
%TO.N,GND*%
X142837000Y-91850000D03*
%TD*%
D24*
%TO.P,U3,1,PE6*%
%TO.N,SH_CP*%
X146656999Y-93776999D03*
%TO.P,U3,2,UVCC*%
%TO.N,VCC*%
X146656999Y-94576999D03*
%TO.P,U3,3,D-*%
%TO.N,USB_D-*%
X146656999Y-95376999D03*
%TO.P,U3,4,D+*%
%TO.N,USB_D+*%
X146656999Y-96176999D03*
%TO.P,U3,5,UGND*%
%TO.N,GND*%
X146656999Y-96976999D03*
%TO.P,U3,6,UCAP*%
%TO.N,/UCAP*%
X146656999Y-97776999D03*
%TO.P,U3,7,VBUS*%
%TO.N,VCC*%
X146656999Y-98576999D03*
%TO.P,U3,8,PB0*%
%TO.N,unconnected-(U3-PB0-Pad8)*%
X146656999Y-99376999D03*
%TO.P,U3,9,PB1*%
%TO.N,SCK*%
X146656999Y-100176999D03*
%TO.P,U3,10,PB2*%
%TO.N,MOSI*%
X146656999Y-100976999D03*
%TO.P,U3,11,PB3*%
%TO.N,MISO*%
X146656999Y-101776999D03*
D25*
%TO.P,U3,12,PB7*%
%TO.N,Dig3*%
X148356999Y-103476999D03*
%TO.P,U3,13,~{RESET}*%
%TO.N,RESET*%
X149156999Y-103476999D03*
%TO.P,U3,14,VCC*%
%TO.N,VCC*%
X149956999Y-103476999D03*
%TO.P,U3,15,GND*%
%TO.N,GND*%
X150756999Y-103476999D03*
%TO.P,U3,16,XTAL2*%
%TO.N,XTAL2*%
X151556999Y-103476999D03*
%TO.P,U3,17,XTAL1*%
%TO.N,XTAL1*%
X152356999Y-103476999D03*
%TO.P,U3,18,PD0*%
%TO.N,BUTTON_2*%
X153156999Y-103476999D03*
%TO.P,U3,19,PD1*%
%TO.N,BUTTON_1*%
X153956999Y-103476999D03*
%TO.P,U3,20,PD2*%
%TO.N,TX*%
X154756999Y-103476999D03*
%TO.P,U3,21,PD3*%
%TO.N,RX*%
X155556999Y-103476999D03*
%TO.P,U3,22,PD5*%
%TO.N,unconnected-(U3-PD5-Pad22)*%
X156356999Y-103476999D03*
D24*
%TO.P,U3,23,GND*%
%TO.N,GND*%
X158056999Y-101776999D03*
%TO.P,U3,24,AVCC*%
%TO.N,VCC*%
X158056999Y-100976999D03*
%TO.P,U3,25,PD4*%
%TO.N,GREEN_LED*%
X158056999Y-100176999D03*
%TO.P,U3,26,PD6*%
%TO.N,Dig2*%
X158056999Y-99376999D03*
%TO.P,U3,27,PD7*%
%TO.N,BUZZER*%
X158056999Y-98576999D03*
%TO.P,U3,28,PB4*%
%TO.N,ST_CP*%
X158056999Y-97776999D03*
%TO.P,U3,29,PB5*%
%TO.N,DS*%
X158056999Y-96976999D03*
%TO.P,U3,30,PB6*%
%TO.N,Dig4*%
X158056999Y-96176999D03*
%TO.P,U3,31,PC6*%
%TO.N,RED_LED*%
X158056999Y-95376999D03*
%TO.P,U3,32,PC7*%
%TO.N,Dig1*%
X158056999Y-94576999D03*
%TO.P,U3,33,~{HWB}/PE2*%
%TO.N,GND*%
X158056999Y-93776999D03*
D25*
%TO.P,U3,34,VCC*%
%TO.N,VCC*%
X156356999Y-92076999D03*
%TO.P,U3,35,GND*%
%TO.N,GND*%
X155556999Y-92076999D03*
%TO.P,U3,36,PF7*%
%TO.N,unconnected-(U3-PF7-Pad36)*%
X154756999Y-92076999D03*
%TO.P,U3,37,PF6*%
%TO.N,unconnected-(U3-PF6-Pad37)*%
X153956999Y-92076999D03*
%TO.P,U3,38,PF5*%
%TO.N,unconnected-(U3-PF5-Pad38)*%
X153156999Y-92076999D03*
%TO.P,U3,39,PF4*%
%TO.N,unconnected-(U3-PF4-Pad39)*%
X152356999Y-92076999D03*
%TO.P,U3,40,PF1*%
%TO.N,unconnected-(U3-PF1-Pad40)*%
X151556999Y-92076999D03*
%TO.P,U3,41,PF0*%
%TO.N,unconnected-(U3-PF0-Pad41)*%
X150756999Y-92076999D03*
%TO.P,U3,42,AREF*%
%TO.N,/AREF*%
X149956999Y-92076999D03*
%TO.P,U3,43,GND*%
%TO.N,GND*%
X149156999Y-92076999D03*
%TO.P,U3,44,AVCC*%
%TO.N,VCC*%
X148356999Y-92076999D03*
%TD*%
D26*
%TO.P,R4,1*%
%TO.N,BUTTON_2*%
X153400000Y-122575000D03*
%TO.P,R4,2*%
%TO.N,GND*%
X153400000Y-124225000D03*
%TD*%
D27*
%TO.P,C1,1*%
%TO.N,XTAL2*%
X149860000Y-111252000D03*
%TO.P,C1,2*%
%TO.N,GND*%
X149860000Y-109702000D03*
%TD*%
%TO.P,C11,1*%
%TO.N,/AREF*%
X150200000Y-90150000D03*
%TO.P,C11,2*%
%TO.N,GND*%
X150200000Y-88600000D03*
%TD*%
D28*
%TO.P,R2,1*%
%TO.N,RED_LED*%
X171522000Y-95946000D03*
%TO.P,R2,2*%
%TO.N,Net-(D2-A)*%
X173347000Y-95946000D03*
%TD*%
D27*
%TO.P,C14,1*%
%TO.N,VCC*%
X117144000Y-111071000D03*
%TO.P,C14,2*%
%TO.N,GND*%
X117144000Y-109521000D03*
%TD*%
D14*
%TO.P,R15,1*%
%TO.N,USB_CONN_D+*%
X124875000Y-96850000D03*
%TO.P,R15,2*%
%TO.N,Net-(J1-D+)*%
X123225000Y-96850000D03*
%TD*%
D13*
%TO.P,R10,1*%
%TO.N,f*%
X139000000Y-78912500D03*
%TO.P,R10,2*%
%TO.N,Net-(U2-f)*%
X139000000Y-77087500D03*
%TD*%
D27*
%TO.P,C6,1*%
%TO.N,VCC*%
X148300000Y-90125000D03*
%TO.P,C6,2*%
%TO.N,GND*%
X148300000Y-88575000D03*
%TD*%
D29*
%TO.P,C13,1*%
%TO.N,Net-(U5-BP)*%
X118925000Y-107700000D03*
%TO.P,C13,2*%
%TO.N,GND*%
X120475000Y-107700000D03*
%TD*%
D30*
%TO.P,R14,1*%
%TO.N,VCC*%
X119312500Y-87500000D03*
%TO.P,R14,2*%
%TO.N,Net-(D3-A)*%
X117487500Y-87500000D03*
%TD*%
D29*
%TO.P,C7,1*%
%TO.N,VCC*%
X156789000Y-90157000D03*
%TO.P,C7,2*%
%TO.N,GND*%
X158339000Y-90157000D03*
%TD*%
D31*
%TO.P,U5,1,VIN*%
%TO.N,VCC*%
X121329500Y-111246000D03*
%TO.P,U5,2,GND*%
%TO.N,GND*%
X121329500Y-110296000D03*
%TO.P,U5,3,ON/~{OFF}*%
%TO.N,VCC*%
X121329500Y-109346000D03*
%TO.P,U5,4,BP*%
%TO.N,Net-(U5-BP)*%
X119054500Y-109346000D03*
%TO.P,U5,5,VOUT*%
%TO.N,VCC*%
X119054500Y-111246000D03*
%TD*%
D32*
%TO.P,Y1,1,1*%
%TO.N,XTAL2*%
X151891999Y-110984999D03*
%TO.P,Y1,2,2*%
%TO.N,GND*%
X154091999Y-110984999D03*
%TO.P,Y1,3,3*%
%TO.N,XTAL1*%
X154091999Y-109284999D03*
%TO.P,Y1,4,4*%
%TO.N,GND*%
X151891999Y-109284999D03*
%TD*%
D15*
%TO.P,C12,1*%
%TO.N,VCC*%
X124100000Y-109013000D03*
%TO.P,C12,2*%
%TO.N,GND*%
X124100000Y-110563000D03*
%TD*%
D33*
%TO.P,D2,1,K*%
%TO.N,GND*%
X171500000Y-92300000D03*
%TO.P,D2,2,A*%
%TO.N,Net-(D2-A)*%
X173375000Y-92300000D03*
%TD*%
D20*
%TO.P,J2,1,MISO*%
%TO.N,MISO*%
X136549999Y-102279999D03*
D21*
%TO.P,J2,2,VCC*%
%TO.N,VCC*%
X139089999Y-102279999D03*
%TO.P,J2,3,SCK*%
%TO.N,SCK*%
X136549999Y-99739999D03*
%TO.P,J2,4,MOSI*%
%TO.N,MOSI*%
X139089999Y-99739999D03*
%TO.P,J2,5,~{RST}*%
%TO.N,RESET*%
X136549999Y-97199999D03*
%TO.P,J2,6,GND*%
%TO.N,GND*%
X139089999Y-97199999D03*
%TD*%
D34*
%TO.P,LS1,1,1*%
%TO.N,BUZZER*%
X168699999Y-121099999D03*
D35*
%TO.P,LS1,2,2*%
%TO.N,GND*%
X161100000Y-121100000D03*
%TD*%
D28*
%TO.P,R1,1*%
%TO.N,GREEN_LED*%
X166575500Y-95946000D03*
%TO.P,R1,2*%
%TO.N,Net-(D1-A)*%
X168400500Y-95946000D03*
%TD*%
D13*
%TO.P,R8,1*%
%TO.N,d*%
X149700000Y-78712500D03*
%TO.P,R8,2*%
%TO.N,Net-(U2-d)*%
X149700000Y-76887500D03*
%TD*%
D29*
%TO.P,C8,1*%
%TO.N,VCC*%
X160345000Y-100825000D03*
%TO.P,C8,2*%
%TO.N,GND*%
X161895000Y-100825000D03*
%TD*%
D36*
%TO.P,R17,1*%
%TO.N,VCC*%
X160742000Y-108561000D03*
%TO.P,R17,2*%
%TO.N,Net-(J4-Pin_5)*%
X160742000Y-106911000D03*
%TD*%
D18*
%TO.P,C10,1*%
%TO.N,/UCAP*%
X144727000Y-97091000D03*
%TO.P,C10,2*%
%TO.N,GND*%
X143177000Y-97091000D03*
%TD*%
D26*
%TO.P,R13,1*%
%TO.N,VCC*%
X144700000Y-103475000D03*
%TO.P,R13,2*%
%TO.N,RESET*%
X144700000Y-105125000D03*
%TD*%
D37*
%TO.P,S1,A1,NO_1*%
%TO.N,unconnected-(S1-NO_1-PadA1)*%
X113849999Y-122499999D03*
%TO.P,S1,B1,NO_2*%
%TO.N,BUTTON_1*%
X128149999Y-122499999D03*
%TO.P,S1,C1,COM_1*%
%TO.N,VCC*%
X113849999Y-127499999D03*
%TO.P,S1,D1,COM_2*%
%TO.N,unconnected-(S1-COM_2-PadD1)*%
X128149999Y-127499999D03*
%TD*%
D15*
%TO.P,C2,1*%
%TO.N,XTAL1*%
X155956000Y-109702000D03*
%TO.P,C2,2*%
%TO.N,GND*%
X155956000Y-111252000D03*
%TD*%
D38*
%TO.P,U4,1,I/O1*%
%TO.N,USB_CONN_D-*%
X127612500Y-93000000D03*
%TO.P,U4,2,GND*%
%TO.N,GND*%
X127612500Y-93950000D03*
%TO.P,U4,3,I/O2*%
%TO.N,USB_CONN_D+*%
X127612500Y-94900000D03*
%TO.P,U4,4,I/O2*%
%TO.N,USB_D+*%
X129887500Y-94900000D03*
%TO.P,U4,5,VBUS*%
%TO.N,VCC*%
X129887500Y-93950000D03*
%TO.P,U4,6,I/O1*%
%TO.N,USB_D-*%
X129887500Y-93000000D03*
%TD*%
D18*
%TO.P,C3,1*%
%TO.N,VCC*%
X144737000Y-93755000D03*
%TO.P,C3,2*%
%TO.N,GND*%
X143187000Y-93755000D03*
%TD*%
D13*
%TO.P,R12,1*%
%TO.N,dp*%
X135300000Y-79012500D03*
%TO.P,R12,2*%
%TO.N,Net-(U2-DPX)*%
X135300000Y-77187500D03*
%TD*%
D33*
%TO.P,D1,1,K*%
%TO.N,GND*%
X166500000Y-92300000D03*
%TO.P,D1,2,A*%
%TO.N,Net-(D1-A)*%
X168375000Y-92300000D03*
%TD*%
D26*
%TO.P,R3,1*%
%TO.N,BUTTON_1*%
X131300000Y-122475000D03*
%TO.P,R3,2*%
%TO.N,GND*%
X131300000Y-124125000D03*
%TD*%
D37*
%TO.P,S2,A1,NO_1*%
%TO.N,unconnected-(S2-NO_1-PadA1)*%
X135849999Y-122499999D03*
%TO.P,S2,B1,NO_2*%
%TO.N,BUTTON_2*%
X150149999Y-122499999D03*
%TO.P,S2,C1,COM_1*%
%TO.N,VCC*%
X135849999Y-127499999D03*
%TO.P,S2,D1,COM_2*%
%TO.N,unconnected-(S2-COM_2-PadD1)*%
X150149999Y-127499999D03*
%TD*%
D39*
%TO.P,D3,1,K*%
%TO.N,GND*%
X113792000Y-85422500D03*
%TO.P,D3,2,A*%
%TO.N,Net-(D3-A)*%
X113792000Y-87297500D03*
%TD*%
D40*
%TO.P,U2,1,e*%
%TO.N,Net-(U2-e)*%
X134619999Y-73659999D03*
D41*
%TO.P,U2,2,d*%
%TO.N,Net-(U2-d)*%
X137160000Y-73660000D03*
%TO.P,U2,3,DPX*%
%TO.N,Net-(U2-DPX)*%
X139700000Y-73660000D03*
%TO.P,U2,4,c*%
%TO.N,Net-(U2-c)*%
X142240000Y-73660000D03*
%TO.P,U2,5,g*%
%TO.N,Net-(U2-g)*%
X144780000Y-73660000D03*
%TO.P,U2,6,CA4*%
%TO.N,Dig4*%
X147320000Y-73660000D03*
%TO.P,U2,7,b*%
%TO.N,Net-(U2-b)*%
X147320000Y-58420000D03*
%TO.P,U2,8,CA3*%
%TO.N,Dig3*%
X144780000Y-58420000D03*
%TO.P,U2,9,CA2*%
%TO.N,Dig2*%
X142240000Y-58420000D03*
%TO.P,U2,10,f*%
%TO.N,Net-(U2-f)*%
X139700000Y-58420000D03*
%TO.P,U2,11,a*%
%TO.N,Net-(U2-a)*%
X137160000Y-58420000D03*
%TO.P,U2,12,CA1*%
%TO.N,Dig1*%
X134620000Y-58420000D03*
%TD*%
D13*
%TO.P,R7,1*%
%TO.N,c*%
X153500000Y-78712500D03*
%TO.P,R7,2*%
%TO.N,Net-(U2-c)*%
X153500000Y-76887500D03*
%TD*%
D42*
%TO.P,F1,1*%
%TO.N,Net-(J1-VBUS)*%
X122830500Y-89916000D03*
%TO.P,F1,2*%
%TO.N,VCC*%
X127105500Y-89916000D03*
%TD*%
D43*
%TO.N,GND*%
X142100000Y-93800000D03*
X151900000Y-108200000D03*
X147900000Y-97000000D03*
X154100000Y-112200000D03*
X141500000Y-91900000D03*
X156900000Y-101800000D03*
X121200000Y-96900000D03*
X162900000Y-100900000D03*
X150800000Y-102300000D03*
X122600000Y-110300000D03*
X156000000Y-112300000D03*
X125160000Y-110600000D03*
X163542000Y-113236000D03*
X142200000Y-98900000D03*
X121800000Y-107800000D03*
X150200000Y-87600000D03*
X159400000Y-121200000D03*
X161900000Y-83400000D03*
X131300000Y-125300000D03*
X149200000Y-93300000D03*
X117100000Y-108500000D03*
X153400000Y-125500000D03*
X126500000Y-94000000D03*
X149900000Y-108700000D03*
X115200000Y-85400000D03*
X159400000Y-90300000D03*
X171500000Y-91000000D03*
X142200000Y-97100000D03*
X135612500Y-114700000D03*
X148300000Y-87600000D03*
X156900000Y-93800000D03*
X139100000Y-95800000D03*
X149000000Y-107300000D03*
X166500000Y-91000000D03*
X155974500Y-85955000D03*
X155600000Y-90700000D03*
%TO.N,VCC*%
X135700000Y-105700000D03*
X139100000Y-104300000D03*
X161700000Y-81400000D03*
X146000000Y-103500000D03*
X148800000Y-105700000D03*
X160500000Y-85300000D03*
%TO.N,BUZZER*%
X161100000Y-98600000D03*
X165400000Y-99300000D03*
%TO.N,RED_LED*%
X169650000Y-94200000D03*
X163523000Y-95223000D03*
%TO.N,BUTTON_1*%
X152400000Y-112500000D03*
X154000000Y-105300000D03*
%TO.N,Net-(U2-a)*%
X141800000Y-63800000D03*
X137100000Y-59800000D03*
%TO.N,Net-(U2-b)*%
X157200000Y-70600000D03*
X157200000Y-72800000D03*
%TO.N,Net-(U2-d)*%
X137200000Y-75100000D03*
X148300000Y-76900000D03*
%TO.N,Net-(U2-e)*%
X134600000Y-75100000D03*
X144200000Y-79800000D03*
%TO.N,g*%
X145000000Y-83300000D03*
X147300000Y-84700000D03*
%TO.N,ST_CP*%
X159400000Y-97800000D03*
X160100000Y-94700000D03*
%TO.N,Dig4*%
X148700000Y-73700000D03*
X151800000Y-96200000D03*
%TO.N,Dig3*%
X143600000Y-102400000D03*
X135900000Y-92100000D03*
%TO.N,Dig2*%
X154900000Y-66800000D03*
X156700000Y-99400000D03*
%TO.N,Dig1*%
X145200000Y-89600000D03*
X149200000Y-94600000D03*
%TD*%
D44*
%TO.N,XTAL2*%
X151892000Y-110985000D02*
X151692000Y-110985000D01*
X150127000Y-110985000D02*
X151892000Y-110985000D01*
X150892000Y-104808000D02*
X151557000Y-104143000D01*
X151692000Y-110985000D02*
X150892000Y-110185000D01*
X149860000Y-111252000D02*
X150127000Y-110985000D01*
X151557000Y-104143000D02*
X151557000Y-103477000D01*
X150892000Y-110185000D02*
X150892000Y-104808000D01*
%TO.N,GND*%
X149860000Y-109702000D02*
X149860000Y-108740000D01*
X150200000Y-88600000D02*
X150200000Y-87600000D01*
X159500000Y-121100000D02*
X159400000Y-121200000D01*
X121150000Y-96850000D02*
X121200000Y-96900000D01*
X149860000Y-108740000D02*
X149900000Y-108700000D01*
X158339000Y-90157000D02*
X159257000Y-90157000D01*
X139090000Y-95810000D02*
X139100000Y-95800000D01*
X154092000Y-112192000D02*
X154100000Y-112200000D01*
X121700000Y-107700000D02*
X121800000Y-107800000D01*
X161950000Y-83350000D02*
X161900000Y-83400000D01*
X161895000Y-100825000D02*
X162825000Y-100825000D01*
X149944000Y-107188000D02*
X149112000Y-107188000D01*
X150757000Y-102343000D02*
X150800000Y-102300000D01*
X155979500Y-85950000D02*
X155974500Y-85955000D01*
X149112000Y-107188000D02*
X149000000Y-107300000D01*
X148300000Y-88575000D02*
X148300000Y-87600000D01*
X141550000Y-91850000D02*
X141500000Y-91900000D01*
X159257000Y-90157000D02*
X159400000Y-90300000D01*
X149157000Y-92077000D02*
X149157000Y-93257000D01*
X119582500Y-96850000D02*
X121150000Y-96850000D01*
X149157000Y-93257000D02*
X149200000Y-93300000D01*
X122600000Y-110300000D02*
X121333500Y-110300000D01*
X124137000Y-110600000D02*
X124100000Y-110563000D01*
X142145000Y-93755000D02*
X142100000Y-93800000D01*
X162825000Y-100825000D02*
X162900000Y-100900000D01*
X155956000Y-112256000D02*
X156000000Y-112300000D01*
X155956000Y-111252000D02*
X155956000Y-112256000D01*
X121333500Y-110300000D02*
X121329500Y-110296000D01*
X143187000Y-93755000D02*
X142145000Y-93755000D01*
X117144000Y-109521000D02*
X117144000Y-108544000D01*
X153400000Y-124225000D02*
X153400000Y-125500000D01*
X147877000Y-96977000D02*
X147900000Y-97000000D01*
X131300000Y-124125000D02*
X131300000Y-125300000D01*
X146657000Y-96977000D02*
X147877000Y-96977000D01*
X150757000Y-103477000D02*
X150757000Y-102343000D01*
X166500000Y-92300000D02*
X166500000Y-91000000D01*
X135512500Y-114600000D02*
X135612500Y-114700000D01*
X155557000Y-92077000D02*
X155557000Y-90743000D01*
X163025000Y-83350000D02*
X161950000Y-83350000D01*
X156923000Y-101777000D02*
X156900000Y-101800000D01*
X143177000Y-97091000D02*
X142209000Y-97091000D01*
X117144000Y-108544000D02*
X117100000Y-108500000D01*
X120475000Y-107700000D02*
X121700000Y-107700000D01*
X139090000Y-97200000D02*
X139090000Y-95810000D01*
X163500000Y-113194000D02*
X163542000Y-113236000D01*
X134600000Y-114600000D02*
X135512500Y-114600000D01*
X125160000Y-110600000D02*
X124137000Y-110600000D01*
X151892000Y-109285000D02*
X151892000Y-108208000D01*
X171500000Y-92300000D02*
X171500000Y-91000000D01*
X142209000Y-97091000D02*
X142200000Y-97100000D01*
X143175000Y-98900000D02*
X142200000Y-98900000D01*
X156923000Y-93777000D02*
X156900000Y-93800000D01*
X161100000Y-121100000D02*
X159500000Y-121100000D01*
X126550000Y-93950000D02*
X126500000Y-94000000D01*
X151892000Y-108208000D02*
X151900000Y-108200000D01*
X154092000Y-110985000D02*
X154092000Y-112192000D01*
X158057000Y-101777000D02*
X156923000Y-101777000D01*
X115200000Y-85400000D02*
X113814500Y-85400000D01*
X113814500Y-85400000D02*
X113792000Y-85422500D01*
X158057000Y-93777000D02*
X156923000Y-93777000D01*
X163500000Y-111520000D02*
X163500000Y-113194000D01*
X155557000Y-90743000D02*
X155600000Y-90700000D01*
X142837000Y-91850000D02*
X141550000Y-91850000D01*
X127612500Y-93950000D02*
X126550000Y-93950000D01*
X157300000Y-85950000D02*
X155979500Y-85950000D01*
%TO.N,XTAL1*%
X155956000Y-109702000D02*
X155539000Y-109285000D01*
X152357000Y-107550000D02*
X152357000Y-103477000D01*
X154092000Y-109285000D02*
X152357000Y-107550000D01*
X155539000Y-109285000D02*
X154092000Y-109285000D01*
%TO.N,VCC*%
X128925000Y-93725000D02*
X129150000Y-93950000D01*
X124689500Y-87500000D02*
X127105500Y-89916000D01*
X121662500Y-109013000D02*
X121329500Y-109346000D01*
X161120000Y-101600000D02*
X160345000Y-100825000D01*
X149957000Y-102294471D02*
X151274471Y-100977000D01*
X161646000Y-85300000D02*
X160500000Y-85300000D01*
X144737000Y-91850000D02*
X144737000Y-93755000D01*
X145559000Y-94577000D02*
X146657000Y-94577000D01*
X161700000Y-81400000D02*
X163025000Y-81400000D01*
X156357000Y-90589000D02*
X156357000Y-92077000D01*
X139090000Y-102280000D02*
X140285000Y-103475000D01*
X148700000Y-95200000D02*
X148077000Y-94577000D01*
X147923000Y-98577000D02*
X148700000Y-97800000D01*
X148077000Y-94577000D02*
X146657000Y-94577000D01*
X166040000Y-106440000D02*
X166040000Y-108980000D01*
X148951471Y-93900000D02*
X148357000Y-93305529D01*
X163740000Y-101600000D02*
X161120000Y-101600000D01*
X129538604Y-93950000D02*
X128700000Y-94788604D01*
X148700000Y-97800000D02*
X148700000Y-98402529D01*
X120954500Y-109346000D02*
X119054500Y-111246000D01*
X129887500Y-93950000D02*
X129538604Y-93950000D01*
X148357000Y-93305529D02*
X148357000Y-93300000D01*
X124100000Y-109013000D02*
X121662500Y-109013000D01*
X160742000Y-108561000D02*
X161473000Y-107830000D01*
X166040000Y-103900000D02*
X163740000Y-101600000D01*
X117144000Y-111071000D02*
X118879500Y-111071000D01*
X140285000Y-103475000D02*
X144700000Y-103475000D01*
X164890000Y-107830000D02*
X166040000Y-108980000D01*
X148077000Y-94577000D02*
X148357000Y-94297000D01*
X113850000Y-131850000D02*
X113850000Y-127500000D01*
X124100000Y-109013000D02*
X124100000Y-108153000D01*
X149957000Y-103477000D02*
X149957000Y-102294471D01*
X133900000Y-133400000D02*
X115300000Y-133400000D01*
X160345000Y-100825000D02*
X160193000Y-100977000D01*
X135850000Y-131450000D02*
X133900000Y-133400000D01*
X145048000Y-98577000D02*
X146657000Y-98577000D01*
X156789000Y-90157000D02*
X161646000Y-85300000D01*
X124100000Y-108153000D02*
X126553000Y-105700000D01*
X145975000Y-103475000D02*
X146000000Y-103500000D01*
X135700000Y-105700000D02*
X128700000Y-105700000D01*
X148700000Y-97800000D02*
X148700000Y-95200000D01*
X156789000Y-90157000D02*
X156357000Y-90589000D01*
X127105500Y-89916000D02*
X128925000Y-91735500D01*
X121329500Y-109346000D02*
X120954500Y-109346000D01*
X128700000Y-105700000D02*
X126553000Y-105700000D01*
X166040000Y-103900000D02*
X166040000Y-106440000D01*
X113850000Y-127500000D02*
X111800000Y-125450000D01*
X119312500Y-87500000D02*
X124689500Y-87500000D01*
X148800000Y-105700000D02*
X149882000Y-105700000D01*
X119054500Y-111246000D02*
X120200000Y-111246000D01*
X148357000Y-94297000D02*
X148357000Y-93300000D01*
X149944000Y-105638000D02*
X149957000Y-105625000D01*
X139090000Y-104290000D02*
X139090000Y-102280000D01*
X155484000Y-93900000D02*
X148951471Y-93900000D01*
X148357000Y-93300000D02*
X148357000Y-92077000D01*
X148300000Y-90125000D02*
X148300000Y-92020000D01*
X149957000Y-105625000D02*
X149957000Y-103477000D01*
X144737000Y-93755000D02*
X145559000Y-94577000D01*
X113800000Y-131900000D02*
X113850000Y-131850000D01*
X111800000Y-116415000D02*
X117144000Y-111071000D01*
X161646000Y-85300000D02*
X163025000Y-85300000D01*
X146657000Y-98577000D02*
X147923000Y-98577000D01*
X120200000Y-111246000D02*
X121329500Y-111246000D01*
X111800000Y-125450000D02*
X111800000Y-116415000D01*
X139100000Y-104300000D02*
X139090000Y-104290000D01*
X148300000Y-92020000D02*
X148357000Y-92077000D01*
X149882000Y-105700000D02*
X149944000Y-105638000D01*
X128700000Y-103553000D02*
X126553000Y-105700000D01*
X160193000Y-100977000D02*
X158057000Y-100977000D01*
X148700000Y-98402529D02*
X151274471Y-100977000D01*
X129150000Y-93950000D02*
X129887500Y-93950000D01*
X144700000Y-103475000D02*
X145975000Y-103475000D01*
X135850000Y-127500000D02*
X135850000Y-131450000D01*
X128925000Y-91735500D02*
X128925000Y-93725000D01*
X118879500Y-111071000D02*
X119054500Y-111246000D01*
X151274471Y-100977000D02*
X158057000Y-100977000D01*
X128700000Y-94788604D02*
X128700000Y-103553000D01*
X156357000Y-93027000D02*
X155484000Y-93900000D01*
X115300000Y-133400000D02*
X113800000Y-131900000D01*
X156357000Y-92077000D02*
X156357000Y-93027000D01*
X144725000Y-98900000D02*
X145048000Y-98577000D01*
X161473000Y-107830000D02*
X164890000Y-107830000D01*
%TO.N,Net-(D1-A)*%
X168400500Y-92325500D02*
X168375000Y-92300000D01*
X168400500Y-95946000D02*
X168400500Y-92325500D01*
%TO.N,Net-(D2-A)*%
X173347000Y-92328000D02*
X173375000Y-92300000D01*
X173347000Y-95946000D02*
X173347000Y-92328000D01*
%TO.N,Net-(D3-A)*%
X117487500Y-87500000D02*
X113994500Y-87500000D01*
X113994500Y-87500000D02*
X113792000Y-87297500D01*
%TO.N,Net-(J1-VBUS)*%
X122830500Y-89916000D02*
X119582500Y-93164000D01*
X119582500Y-93164000D02*
X119582500Y-93650000D01*
%TO.N,Net-(U5-BP)*%
X118925000Y-107700000D02*
X118925000Y-109216500D01*
X118925000Y-109216500D02*
X119054500Y-109346000D01*
%TO.N,Net-(J1-D-)*%
X122720000Y-94450000D02*
X119582500Y-94450000D01*
X123190000Y-93980000D02*
X122720000Y-94450000D01*
%TO.N,unconnected-(J1-Shield-Pad6)*%
X114032500Y-90800000D02*
X114032500Y-99700000D01*
X114032500Y-99700000D02*
X119482500Y-99700000D01*
X119482500Y-90800000D02*
X114032500Y-90800000D01*
%TO.N,BUZZER*%
X161100000Y-98600000D02*
X161077000Y-98577000D01*
X168700000Y-121100000D02*
X168700000Y-102600000D01*
X168700000Y-102600000D02*
X165400000Y-99300000D01*
X161077000Y-98577000D02*
X158057000Y-98577000D01*
%TO.N,GREEN_LED*%
X159007000Y-100177000D02*
X158057000Y-100177000D01*
X163221500Y-99300000D02*
X159884000Y-99300000D01*
X159884000Y-99300000D02*
X159007000Y-100177000D01*
X166575500Y-95946000D02*
X163221500Y-99300000D01*
%TO.N,RED_LED*%
X163523000Y-95223000D02*
X163369000Y-95377000D01*
X163369000Y-95377000D02*
X158057000Y-95377000D01*
X171396000Y-95946000D02*
X169650000Y-94200000D01*
X171522000Y-95946000D02*
X171396000Y-95946000D01*
%TO.N,BUTTON_1*%
X154000000Y-103520000D02*
X153957000Y-103477000D01*
X154000000Y-105300000D02*
X154000000Y-103520000D01*
X131275000Y-122500000D02*
X128150000Y-122500000D01*
X131300000Y-122475000D02*
X141275000Y-112500000D01*
X141275000Y-112500000D02*
X152400000Y-112500000D01*
X131300000Y-122475000D02*
X131275000Y-122500000D01*
%TO.N,BUTTON_2*%
X153300000Y-116400000D02*
X157000000Y-112700000D01*
X153400000Y-122575000D02*
X153325000Y-122500000D01*
X157000000Y-112700000D02*
X157000000Y-109528538D01*
X153400000Y-122575000D02*
X153300000Y-122475000D01*
X153157000Y-105685538D02*
X153157000Y-103477000D01*
X153300000Y-122475000D02*
X153300000Y-116400000D01*
X157000000Y-109528538D02*
X153157000Y-105685538D01*
X153325000Y-122500000D02*
X150150000Y-122500000D01*
%TO.N,a*%
X165062500Y-82050000D02*
X163025000Y-82050000D01*
X165400000Y-81712500D02*
X165062500Y-82050000D01*
%TO.N,Net-(U2-a)*%
X149312500Y-63800000D02*
X141800000Y-63800000D01*
X137100000Y-58480000D02*
X137160000Y-58420000D01*
X137100000Y-59800000D02*
X137100000Y-58480000D01*
X165400000Y-79887500D02*
X149312500Y-63800000D01*
%TO.N,b*%
X157200000Y-78612500D02*
X157200000Y-81300000D01*
X157200000Y-81300000D02*
X157300000Y-81400000D01*
%TO.N,Net-(U2-b)*%
X157200000Y-70600000D02*
X157200000Y-60900000D01*
X157200000Y-76787500D02*
X157200000Y-72800000D01*
X154720000Y-58420000D02*
X147320000Y-58420000D01*
X157200000Y-60900000D02*
X154720000Y-58420000D01*
%TO.N,c*%
X153500000Y-78903185D02*
X156646815Y-82050000D01*
X153500000Y-78712500D02*
X153500000Y-78903185D01*
X156646815Y-82050000D02*
X157300000Y-82050000D01*
%TO.N,Net-(U2-c)*%
X143290000Y-72610000D02*
X149222500Y-72610000D01*
X142240000Y-73660000D02*
X143290000Y-72610000D01*
X149222500Y-72610000D02*
X153500000Y-76887500D01*
%TO.N,d*%
X153687500Y-82700000D02*
X149700000Y-78712500D01*
X157300000Y-82700000D02*
X153687500Y-82700000D01*
%TO.N,Net-(U2-d)*%
X149700000Y-76887500D02*
X148312500Y-76887500D01*
X137200000Y-73700000D02*
X137160000Y-73660000D01*
X148312500Y-76887500D02*
X148300000Y-76900000D01*
X137200000Y-75100000D02*
X137200000Y-73700000D01*
%TO.N,e*%
X150537500Y-83350000D02*
X146000000Y-78812500D01*
X157300000Y-83350000D02*
X150537500Y-83350000D01*
%TO.N,Net-(U2-e)*%
X134600000Y-75100000D02*
X134600000Y-73680000D01*
X134600000Y-73680000D02*
X134620000Y-73660000D01*
X144200000Y-78787500D02*
X144200000Y-79800000D01*
X146000000Y-76987500D02*
X144200000Y-78787500D01*
%TO.N,f*%
X144087500Y-84000000D02*
X139000000Y-78912500D01*
X157300000Y-84000000D02*
X144087500Y-84000000D01*
%TO.N,Net-(U2-f)*%
X141190000Y-74897500D02*
X141190000Y-59910000D01*
X139000000Y-77087500D02*
X141190000Y-74897500D01*
X141190000Y-59910000D02*
X139700000Y-58420000D01*
%TO.N,g*%
X142600000Y-80900000D02*
X142600000Y-78812500D01*
X157300000Y-84650000D02*
X147350000Y-84650000D01*
X147350000Y-84650000D02*
X147300000Y-84700000D01*
X145000000Y-83300000D02*
X142600000Y-80900000D01*
%TO.N,Net-(U2-g)*%
X144780000Y-74807500D02*
X142600000Y-76987500D01*
X144780000Y-73660000D02*
X144780000Y-74807500D01*
%TO.N,dp*%
X157300000Y-85300000D02*
X141587500Y-85300000D01*
X141587500Y-85300000D02*
X135300000Y-79012500D01*
%TO.N,Net-(U2-DPX)*%
X139700000Y-73660000D02*
X136172500Y-77187500D01*
X136172500Y-77187500D02*
X135300000Y-77187500D01*
%TO.N,RESET*%
X135400000Y-98350000D02*
X136550000Y-97200000D01*
X144700000Y-105125000D02*
X137095000Y-105125000D01*
X138925000Y-110900000D02*
X144700000Y-105125000D01*
X144700000Y-105125000D02*
X148459000Y-105125000D01*
X149157000Y-104427000D02*
X149157000Y-103477000D01*
X137095000Y-105125000D02*
X135400000Y-103430000D01*
X134600000Y-110900000D02*
X138925000Y-110900000D01*
X135400000Y-103430000D02*
X135400000Y-98350000D01*
X148459000Y-105125000D02*
X149157000Y-104427000D01*
%TO.N,SH_CP*%
X159903185Y-84650000D02*
X157953185Y-86600000D01*
X157953185Y-86600000D02*
X148451471Y-86600000D01*
X163025000Y-84650000D02*
X159903185Y-84650000D01*
X146657000Y-88394471D02*
X146657000Y-93777000D01*
X148451471Y-86600000D02*
X146657000Y-88394471D01*
%TO.N,ST_CP*%
X164300000Y-90500000D02*
X164300000Y-84600000D01*
X164300000Y-84600000D02*
X164278185Y-84600000D01*
X164278185Y-84600000D02*
X163678185Y-84000000D01*
X159400000Y-97800000D02*
X158080000Y-97800000D01*
X158080000Y-97800000D02*
X158057000Y-97777000D01*
X163678185Y-84000000D02*
X163025000Y-84000000D01*
X160100000Y-94700000D02*
X164300000Y-90500000D01*
%TO.N,DS*%
X164568029Y-82700000D02*
X164974500Y-83106471D01*
X162623000Y-96977000D02*
X158057000Y-96977000D01*
X164974500Y-83106471D02*
X164974500Y-94625500D01*
X164974500Y-94625500D02*
X162623000Y-96977000D01*
X163025000Y-82700000D02*
X164568029Y-82700000D01*
%TO.N,Dig4*%
X147360000Y-73700000D02*
X147320000Y-73660000D01*
X148700000Y-73700000D02*
X147360000Y-73700000D01*
X158057000Y-96177000D02*
X151823000Y-96177000D01*
X151823000Y-96177000D02*
X151800000Y-96200000D01*
%TO.N,Dig3*%
X142660000Y-56300000D02*
X132100000Y-56300000D01*
X129600000Y-58800000D02*
X129600000Y-87100000D01*
X134600000Y-92100000D02*
X135900000Y-92100000D01*
X148357000Y-103477000D02*
X147280000Y-102400000D01*
X147280000Y-102400000D02*
X143600000Y-102400000D01*
X144780000Y-58420000D02*
X142660000Y-56300000D01*
X132100000Y-56300000D02*
X129600000Y-58800000D01*
X129600000Y-87100000D02*
X134600000Y-92100000D01*
%TO.N,Dig2*%
X158057000Y-99377000D02*
X156723000Y-99377000D01*
X154900000Y-66800000D02*
X154900000Y-64400000D01*
X154900000Y-64400000D02*
X151700000Y-61200000D01*
X151700000Y-61200000D02*
X145020000Y-61200000D01*
X145020000Y-61200000D02*
X142240000Y-58420000D01*
X156723000Y-99377000D02*
X156700000Y-99400000D01*
%TO.N,Dig1*%
X131400000Y-81900000D02*
X131400000Y-61640000D01*
X145200000Y-89600000D02*
X139100000Y-89600000D01*
X158057000Y-94577000D02*
X149223000Y-94577000D01*
X149223000Y-94577000D02*
X149200000Y-94600000D01*
X131400000Y-61640000D02*
X134620000Y-58420000D01*
X139100000Y-89600000D02*
X131400000Y-81900000D01*
%TO.N,Net-(J1-D+)*%
X123225000Y-96850000D02*
X121625000Y-95250000D01*
X121625000Y-95250000D02*
X119582500Y-95250000D01*
%TO.N,MISO*%
X137700000Y-101130000D02*
X139630000Y-101130000D01*
X136550000Y-102280000D02*
X137700000Y-101130000D01*
X140277000Y-101777000D02*
X146657000Y-101777000D01*
X139630000Y-101130000D02*
X140277000Y-101777000D01*
%TO.N,SCK*%
X137700000Y-98590000D02*
X136550000Y-99740000D01*
X139566346Y-98590000D02*
X137700000Y-98590000D01*
X141153346Y-100177000D02*
X139566346Y-98590000D01*
X146657000Y-100177000D02*
X141153346Y-100177000D01*
%TO.N,/UCAP*%
X144727000Y-97091000D02*
X145413000Y-97777000D01*
X145413000Y-97777000D02*
X146657000Y-97777000D01*
%TO.N,/AREF*%
X149957000Y-90393000D02*
X149957000Y-92077000D01*
X150200000Y-90150000D02*
X149957000Y-90393000D01*
%TO.N,MOSI*%
X139090000Y-99740000D02*
X140350000Y-101000000D01*
X141300000Y-101000000D02*
X141323000Y-100977000D01*
X140350000Y-101000000D02*
X141300000Y-101000000D01*
X141323000Y-100977000D02*
X146657000Y-100977000D01*
%TO.N,TX*%
X164800000Y-114300000D02*
X161100000Y-114300000D01*
X166040000Y-111520000D02*
X166040000Y-113060000D01*
X154757000Y-105757000D02*
X154757000Y-103477000D01*
X159800000Y-113000000D02*
X159800000Y-110800000D01*
X159800000Y-110800000D02*
X154757000Y-105757000D01*
X161100000Y-114300000D02*
X159800000Y-113000000D01*
X166040000Y-113060000D02*
X164800000Y-114300000D01*
%TO.N,Net-(J4-Pin_5)*%
X160742000Y-106911000D02*
X161213000Y-106440000D01*
X161213000Y-106440000D02*
X163500000Y-106440000D01*
%TO.N,RX*%
X161900000Y-105500000D02*
X156630000Y-105500000D01*
X156630000Y-105500000D02*
X155557000Y-104427000D01*
X163500000Y-103900000D02*
X161900000Y-105500000D01*
X155557000Y-104427000D02*
X155557000Y-103477000D01*
%TO.N,USB_CONN_D-*%
X124840000Y-93980000D02*
X125820000Y-93000000D01*
X125820000Y-93000000D02*
X127612500Y-93000000D01*
%TO.N,USB_D-*%
X145531999Y-95377000D02*
X146657000Y-95377000D01*
X129887500Y-93000000D02*
X130237500Y-93350000D01*
X131986415Y-94750019D02*
X144905018Y-94750019D01*
X130237500Y-93350000D02*
X130586396Y-93350000D01*
X144905018Y-94750019D02*
X145531999Y-95377000D01*
X130586396Y-93350000D02*
X131986415Y-94750019D01*
%TO.N,USB_D+*%
X131151103Y-94900000D02*
X131451103Y-95200000D01*
X145531999Y-96177000D02*
X146657000Y-96177000D01*
X144554999Y-95200000D02*
X145531999Y-96177000D01*
X129887500Y-94900000D02*
X131151103Y-94900000D01*
X131451103Y-95200000D02*
X144554999Y-95200000D01*
%TO.N,USB_CONN_D+*%
X124875000Y-96850000D02*
X125662500Y-96850000D01*
X125662500Y-96850000D02*
X127612500Y-94900000D01*
%TD*%
M02*
