M48
; DRILL file {KiCad (7.0.0-0)} date Thursday, April 20, 2023 at 01:26:38 PM
; FORMAT={-:-/ absolute / inch / decimal}
; #@! TF.CreationDate,2023-04-20T13:26:38-06:00
; #@! TF.GenerationSoftware,Kicad,Pcbnew,(7.0.0-0)
; #@! TF.FileFunction,Plated,1,2,PTH
FMAT,2
INCH
; #@! TA.AperFunction,Plated,PTH,ViaDrill
T1C0.0118
; #@! TA.AperFunction,Plated,PTH,ComponentDrill
T2C0.0394
%
G90
G05
T1
X4.5354Y-3.3622
X4.6102Y-4.2717
X4.7717Y-3.815
X4.7953Y-4.2441
X4.8268Y-4.3425
X4.9276Y-4.3543
X4.9803Y-3.7008
X5.1693Y-4.9331
X5.2992Y-2.9567
X5.3391Y-4.5157
X5.3425Y-4.1614
X5.3504Y-3.626
X5.3976Y-2.3543
X5.4016Y-2.9567
X5.4764Y-3.7717
X5.4764Y-4.1063
X5.5709Y-3.6181
X5.5827Y-2.5118
X5.5945Y-3.6929
X5.5984Y-3.8228
X5.5984Y-3.8937
X5.6535Y-4.0315
X5.6772Y-3.1417
X5.7087Y-3.2795
X5.7165Y-3.5276
X5.748Y-4.0748
X5.7992Y-3.3346
X5.8228Y-3.8189
X5.8386Y-3.0276
X5.8386Y-3.4488
X5.8543Y-2.9016
X5.8583Y-4.1614
X5.8661Y-4.2244
X5.874Y-3.6732
X5.874Y-3.7244
X5.9016Y-4.2795
X5.9134Y-3.4488
X5.937Y-4.0276
X5.9764Y-3.7874
X5.9803Y-4.2598
X6.0Y-4.4291
X6.0394Y-4.9409
X6.063Y-4.1457
X6.0669Y-4.4173
X6.0984Y-2.6299
X6.126Y-3.5709
X6.1407Y-3.3841
X6.1417Y-4.4213
X6.1693Y-3.9134
X6.1772Y-3.6929
X6.1772Y-4.0079
X6.189Y-2.7795
X6.189Y-2.8661
X6.2756Y-3.5551
X6.2756Y-3.8504
X6.2756Y-4.7717
X6.3031Y-3.7283
X6.3189Y-3.3583
X6.3425Y-3.8819
X6.3661Y-3.2047
X6.374Y-3.2835
X6.4134Y-3.9724
X6.4379Y-3.7489
X6.4387Y-4.4581
X6.5118Y-3.9094
X6.5551Y-3.5827
X6.6791Y-3.7087
X6.752Y-3.5827
T2
X5.3Y-2.3
X5.3Y-2.9
X5.376Y-3.8268
X5.376Y-3.9268
X5.376Y-4.0268
X5.4Y-2.3
X5.4Y-2.9
X5.476Y-3.8268
X5.476Y-3.9268
X5.476Y-4.0268
X5.5Y-2.3
X5.5Y-2.9
X5.6Y-2.3
X5.6Y-2.9
X5.7Y-2.3
X5.7Y-2.9
X5.8Y-2.3
X5.8Y-2.9
X6.3425Y-4.7677
X6.437Y-4.0906
X6.437Y-4.1906
X6.437Y-4.2906
X6.437Y-4.3906
X6.537Y-4.0906
X6.537Y-4.1906
X6.537Y-4.2906
X6.537Y-4.3906
X6.6417Y-4.7677
T0
M30
