%TF.GenerationSoftware,KiCad,Pcbnew,(7.0.0-0)*%
%TF.CreationDate,2023-04-20T13:26:23-06:00*%
%TF.ProjectId,Phase B - PCB,50686173-6520-4422-902d-205043422e6b,rev?*%
%TF.SameCoordinates,Original*%
%TF.FileFunction,Paste,Top*%
%TF.FilePolarity,Positive*%
%FSLAX46Y46*%
G04 Gerber Fmt 4.6, Leading zero omitted, Abs format (unit mm)*
G04 Created by KiCad (PCBNEW (7.0.0-0)) date 2023-04-20 13:26:23*
%MOMM*%
%LPD*%
G01*
G04 APERTURE LIST*
G04 Aperture macros list*
%AMRoundRect*
0 Rectangle with rounded corners*
0 $1 Rounding radius*
0 $2 $3 $4 $5 $6 $7 $8 $9 X,Y pos of 4 corners*
0 Add a 4 corners polygon primitive as box body*
4,1,4,$2,$3,$4,$5,$6,$7,$8,$9,$2,$3,0*
0 Add four circle primitives for the rounded corners*
1,1,$1+$1,$2,$3*
1,1,$1+$1,$4,$5*
1,1,$1+$1,$6,$7*
1,1,$1+$1,$8,$9*
0 Add four rect primitives between the rounded corners*
20,1,$1+$1,$2,$3,$4,$5,0*
20,1,$1+$1,$4,$5,$6,$7,0*
20,1,$1+$1,$6,$7,$8,$9,0*
20,1,$1+$1,$8,$9,$2,$3,0*%
G04 Aperture macros list end*
%ADD10RoundRect,0.250000X0.450000X-0.262500X0.450000X0.262500X-0.450000X0.262500X-0.450000X-0.262500X0*%
%ADD11RoundRect,0.200000X0.200000X0.275000X-0.200000X0.275000X-0.200000X-0.275000X0.200000X-0.275000X0*%
%ADD12RoundRect,0.225000X-0.250000X0.225000X-0.250000X-0.225000X0.250000X-0.225000X0.250000X0.225000X0*%
%ADD13R,2.000000X0.500000*%
%ADD14R,1.700000X2.000000*%
%ADD15RoundRect,0.225000X0.225000X0.250000X-0.225000X0.250000X-0.225000X-0.250000X0.225000X-0.250000X0*%
%ADD16R,1.000000X0.700000*%
%ADD17RoundRect,0.100000X-0.637500X-0.100000X0.637500X-0.100000X0.637500X0.100000X-0.637500X0.100000X0*%
%ADD18RoundRect,0.250000X0.250000X0.475000X-0.250000X0.475000X-0.250000X-0.475000X0.250000X-0.475000X0*%
%ADD19R,1.500000X0.550000*%
%ADD20R,0.550000X1.500000*%
%ADD21RoundRect,0.200000X-0.275000X0.200000X-0.275000X-0.200000X0.275000X-0.200000X0.275000X0.200000X0*%
%ADD22RoundRect,0.225000X0.250000X-0.225000X0.250000X0.225000X-0.250000X0.225000X-0.250000X-0.225000X0*%
%ADD23RoundRect,0.250000X-0.262500X-0.450000X0.262500X-0.450000X0.262500X0.450000X-0.262500X0.450000X0*%
%ADD24RoundRect,0.225000X-0.225000X-0.250000X0.225000X-0.250000X0.225000X0.250000X-0.225000X0.250000X0*%
%ADD25RoundRect,0.250000X0.262500X0.450000X-0.262500X0.450000X-0.262500X-0.450000X0.262500X-0.450000X0*%
%ADD26RoundRect,0.150000X0.512500X0.150000X-0.512500X0.150000X-0.512500X-0.150000X0.512500X-0.150000X0*%
%ADD27R,1.400000X1.200000*%
%ADD28RoundRect,0.243750X-0.243750X-0.456250X0.243750X-0.456250X0.243750X0.456250X-0.243750X0.456250X0*%
%ADD29RoundRect,0.200000X0.275000X-0.200000X0.275000X0.200000X-0.275000X0.200000X-0.275000X-0.200000X0*%
%ADD30R,2.000000X1.500000*%
%ADD31RoundRect,0.150000X-0.512500X-0.150000X0.512500X-0.150000X0.512500X0.150000X-0.512500X0.150000X0*%
%ADD32RoundRect,0.243750X-0.456250X0.243750X-0.456250X-0.243750X0.456250X-0.243750X0.456250X0.243750X0*%
%ADD33RoundRect,0.250000X-0.312500X-1.450000X0.312500X-1.450000X0.312500X1.450000X-0.312500X1.450000X0*%
G04 APERTURE END LIST*
D10*
%TO.C,R9*%
X146000000Y-78812500D03*
X146000000Y-76987500D03*
%TD*%
%TO.C,R11*%
X142600000Y-78812500D03*
X142600000Y-76987500D03*
%TD*%
D11*
%TO.C,R16*%
X124840000Y-93980000D03*
X123190000Y-93980000D03*
%TD*%
D12*
%TO.C,C9*%
X149944000Y-105638000D03*
X149944000Y-107188000D03*
%TD*%
D13*
%TO.C,J1*%
X119582499Y-93649999D03*
X119582499Y-94449999D03*
X119582499Y-95249999D03*
X119582499Y-96049999D03*
X119582499Y-96849999D03*
D14*
X119482499Y-90799999D03*
X114032499Y-90799999D03*
X119482499Y-99699999D03*
X114032499Y-99699999D03*
%TD*%
D15*
%TO.C,C4*%
X144725000Y-98900000D03*
X143175000Y-98900000D03*
%TD*%
D16*
%TO.C,S3*%
X134599999Y-114599999D03*
X128599999Y-114599999D03*
X134599999Y-110899999D03*
X128599999Y-110899999D03*
%TD*%
D10*
%TO.C,R5*%
X165400000Y-81712500D03*
X165400000Y-79887500D03*
%TD*%
D17*
%TO.C,U1*%
X157300000Y-81400000D03*
X157300000Y-82050000D03*
X157300000Y-82700000D03*
X157300000Y-83350000D03*
X157300000Y-84000000D03*
X157300000Y-84650000D03*
X157300000Y-85300000D03*
X157300000Y-85950000D03*
X163025000Y-85950000D03*
X163025000Y-85300000D03*
X163025000Y-84650000D03*
X163025000Y-84000000D03*
X163025000Y-83350000D03*
X163025000Y-82700000D03*
X163025000Y-82050000D03*
X163025000Y-81400000D03*
%TD*%
D10*
%TO.C,R6*%
X157200000Y-78612500D03*
X157200000Y-76787500D03*
%TD*%
D18*
%TO.C,C5*%
X144737000Y-91850000D03*
X142837000Y-91850000D03*
%TD*%
D19*
%TO.C,U3*%
X146656999Y-93776999D03*
X146656999Y-94576999D03*
X146656999Y-95376999D03*
X146656999Y-96176999D03*
X146656999Y-96976999D03*
X146656999Y-97776999D03*
X146656999Y-98576999D03*
X146656999Y-99376999D03*
X146656999Y-100176999D03*
X146656999Y-100976999D03*
X146656999Y-101776999D03*
D20*
X148356999Y-103476999D03*
X149156999Y-103476999D03*
X149956999Y-103476999D03*
X150756999Y-103476999D03*
X151556999Y-103476999D03*
X152356999Y-103476999D03*
X153156999Y-103476999D03*
X153956999Y-103476999D03*
X154756999Y-103476999D03*
X155556999Y-103476999D03*
X156356999Y-103476999D03*
D19*
X158056999Y-101776999D03*
X158056999Y-100976999D03*
X158056999Y-100176999D03*
X158056999Y-99376999D03*
X158056999Y-98576999D03*
X158056999Y-97776999D03*
X158056999Y-96976999D03*
X158056999Y-96176999D03*
X158056999Y-95376999D03*
X158056999Y-94576999D03*
X158056999Y-93776999D03*
D20*
X156356999Y-92076999D03*
X155556999Y-92076999D03*
X154756999Y-92076999D03*
X153956999Y-92076999D03*
X153156999Y-92076999D03*
X152356999Y-92076999D03*
X151556999Y-92076999D03*
X150756999Y-92076999D03*
X149956999Y-92076999D03*
X149156999Y-92076999D03*
X148356999Y-92076999D03*
%TD*%
D21*
%TO.C,R4*%
X153400000Y-122575000D03*
X153400000Y-124225000D03*
%TD*%
D22*
%TO.C,C1*%
X149860000Y-111252000D03*
X149860000Y-109702000D03*
%TD*%
%TO.C,C11*%
X150200000Y-90150000D03*
X150200000Y-88600000D03*
%TD*%
D23*
%TO.C,R2*%
X171522000Y-95946000D03*
X173347000Y-95946000D03*
%TD*%
D22*
%TO.C,C14*%
X117144000Y-111071000D03*
X117144000Y-109521000D03*
%TD*%
D11*
%TO.C,R15*%
X124875000Y-96850000D03*
X123225000Y-96850000D03*
%TD*%
D10*
%TO.C,R10*%
X139000000Y-78912500D03*
X139000000Y-77087500D03*
%TD*%
D22*
%TO.C,C6*%
X148300000Y-90125000D03*
X148300000Y-88575000D03*
%TD*%
D24*
%TO.C,C13*%
X118925000Y-107700000D03*
X120475000Y-107700000D03*
%TD*%
D25*
%TO.C,R14*%
X119312500Y-87500000D03*
X117487500Y-87500000D03*
%TD*%
D24*
%TO.C,C7*%
X156789000Y-90157000D03*
X158339000Y-90157000D03*
%TD*%
D26*
%TO.C,U5*%
X121329500Y-111246000D03*
X121329500Y-110296000D03*
X121329500Y-109346000D03*
X119054500Y-109346000D03*
X119054500Y-111246000D03*
%TD*%
D27*
%TO.C,Y1*%
X151891999Y-110984999D03*
X154091999Y-110984999D03*
X154091999Y-109284999D03*
X151891999Y-109284999D03*
%TD*%
D12*
%TO.C,C12*%
X124100000Y-109013000D03*
X124100000Y-110563000D03*
%TD*%
D28*
%TO.C,D2*%
X171500000Y-92300000D03*
X173375000Y-92300000D03*
%TD*%
D23*
%TO.C,R1*%
X166575500Y-95946000D03*
X168400500Y-95946000D03*
%TD*%
D10*
%TO.C,R8*%
X149700000Y-78712500D03*
X149700000Y-76887500D03*
%TD*%
D24*
%TO.C,C8*%
X160345000Y-100825000D03*
X161895000Y-100825000D03*
%TD*%
D29*
%TO.C,R17*%
X160742000Y-108561000D03*
X160742000Y-106911000D03*
%TD*%
D15*
%TO.C,C10*%
X144727000Y-97091000D03*
X143177000Y-97091000D03*
%TD*%
D21*
%TO.C,R13*%
X144700000Y-103475000D03*
X144700000Y-105125000D03*
%TD*%
D30*
%TO.C,S1*%
X113849999Y-122499999D03*
X128149999Y-122499999D03*
X113849999Y-127499999D03*
X128149999Y-127499999D03*
%TD*%
D12*
%TO.C,C2*%
X155956000Y-109702000D03*
X155956000Y-111252000D03*
%TD*%
D31*
%TO.C,U4*%
X127612500Y-93000000D03*
X127612500Y-93950000D03*
X127612500Y-94900000D03*
X129887500Y-94900000D03*
X129887500Y-93950000D03*
X129887500Y-93000000D03*
%TD*%
D15*
%TO.C,C3*%
X144737000Y-93755000D03*
X143187000Y-93755000D03*
%TD*%
D10*
%TO.C,R12*%
X135300000Y-79012500D03*
X135300000Y-77187500D03*
%TD*%
D28*
%TO.C,D1*%
X166500000Y-92300000D03*
X168375000Y-92300000D03*
%TD*%
D21*
%TO.C,R3*%
X131300000Y-122475000D03*
X131300000Y-124125000D03*
%TD*%
D30*
%TO.C,S2*%
X135849999Y-122499999D03*
X150149999Y-122499999D03*
X135849999Y-127499999D03*
X150149999Y-127499999D03*
%TD*%
D32*
%TO.C,D3*%
X113792000Y-85422500D03*
X113792000Y-87297500D03*
%TD*%
D10*
%TO.C,R7*%
X153500000Y-78712500D03*
X153500000Y-76887500D03*
%TD*%
D33*
%TO.C,F1*%
X122830500Y-89916000D03*
X127105500Y-89916000D03*
%TD*%
M02*
