M48
; DRILL file {KiCad (7.0.0-0)} date Tuesday, May 30, 2023 at 09:52:04 PM
; FORMAT={-:-/ absolute / inch / decimal}
; #@! TF.CreationDate,2023-05-30T21:52:04-06:00
; #@! TF.GenerationSoftware,Kicad,Pcbnew,(7.0.0-0)
; #@! TF.FileFunction,Plated,1,2,PTH
FMAT,2
INCH
; #@! TA.AperFunction,Plated,PTH,ViaDrill
T1C0.0157
; #@! TA.AperFunction,Plated,PTH,ComponentDrill
T2C0.0315
; #@! TA.AperFunction,Plated,PTH,ComponentDrill
T3C0.0354
; #@! TA.AperFunction,Plated,PTH,ComponentDrill
T4C0.0394
; #@! TA.AperFunction,Plated,PTH,ComponentDrill
T5C0.0433
%
G90
G05
T1
X4.8031Y-3.4843
X4.9213Y-3.626
X5.5118Y-2.9094
X5.5197Y-2.4843
X5.5197Y-3.3465
X5.7756Y-3.8661
X5.8307Y-4.5079
X5.9882Y-3.7244
X6.4134Y-4.6654
T2
X5.3559Y-2.689
X5.3677Y-3.1181
X5.3709Y-3.5551
X5.4307Y-4.6142
X5.7559Y-2.689
X5.7677Y-3.1181
X5.7709Y-3.5551
X5.8307Y-4.6142
X6.0134Y-4.7677
X6.4134Y-4.7677
T3
X5.627Y-2.9055
X5.6283Y-2.4803
X5.6323Y-3.3425
X5.727Y-2.9055
X5.7283Y-2.4803
X5.7323Y-3.3425
X6.2307Y-3.9764
X6.3307Y-3.9764
T4
X4.5993Y-2.3274
X4.5993Y-2.4274
X4.5993Y-2.5274
X4.5993Y-2.6274
X4.5993Y-2.7274
X4.5993Y-2.8274
X4.5993Y-2.9274
X4.5993Y-3.0274
X4.5993Y-3.1274
X4.5993Y-3.2274
X4.5993Y-3.3274
X4.5993Y-3.4274
X4.5993Y-3.5274
X4.5993Y-3.6274
X4.5993Y-3.7274
X4.5993Y-3.8274
X4.5993Y-3.9274
X4.5993Y-4.0274
X4.5993Y-4.1274
X4.5993Y-4.2274
X4.5993Y-4.3274
X4.5993Y-4.4274
X4.5993Y-4.5274
X4.5993Y-4.6274
X4.5993Y-4.7274
X4.6993Y-2.3274
X4.6993Y-2.4274
X4.6993Y-2.5274
X4.6993Y-2.6274
X4.6993Y-2.7274
X4.6993Y-2.8274
X4.6993Y-2.9274
X4.6993Y-3.0274
X4.6993Y-3.1274
X4.6993Y-3.2274
X4.6993Y-3.3274
X4.6993Y-3.4274
X4.6993Y-3.5274
X4.6993Y-3.6274
X4.6993Y-3.7274
X4.6993Y-3.8274
X4.6993Y-3.9274
X4.6993Y-4.0274
X4.6993Y-4.1274
X4.6993Y-4.2274
X4.6993Y-4.3274
X4.6993Y-4.4274
X4.6993Y-4.5274
X4.6993Y-4.6274
X4.6993Y-4.7274
X6.0236Y-4.4331
X6.3228Y-4.4331
X6.5989Y-2.3282
X6.5989Y-2.4282
X6.5989Y-2.5282
X6.5989Y-2.6282
X6.5989Y-2.7282
X6.5989Y-2.8282
X6.5989Y-2.9282
X6.5989Y-3.0282
X6.5989Y-3.1282
X6.5989Y-3.2282
X6.5989Y-3.3282
X6.5989Y-3.4282
X6.5989Y-3.5282
X6.5989Y-3.6282
X6.5989Y-3.7282
X6.5989Y-3.8282
X6.5989Y-3.9282
X6.5989Y-4.0282
X6.5989Y-4.1282
X6.5989Y-4.2282
X6.5989Y-4.3282
X6.5989Y-4.4282
X6.5989Y-4.5282
X6.5989Y-4.6282
X6.5989Y-4.7282
X6.6989Y-2.3282
X6.6989Y-2.4282
X6.6989Y-2.5282
X6.6989Y-2.6282
X6.6989Y-2.7282
X6.6989Y-2.8282
X6.6989Y-2.9282
X6.6989Y-3.0282
X6.6989Y-3.1282
X6.6989Y-3.2282
X6.6989Y-3.3282
X6.6989Y-3.4282
X6.6989Y-3.5282
X6.6989Y-3.6282
X6.6989Y-3.7282
X6.6989Y-3.8282
X6.6989Y-3.9282
X6.6989Y-4.0282
X6.6989Y-4.1282
X6.6989Y-4.2282
X6.6989Y-4.3282
X6.6989Y-4.4282
X6.6989Y-4.5282
X6.6989Y-4.6282
X6.6989Y-4.7282
T5
X5.0531Y-4.4429
X5.0531Y-4.6201
X5.3091Y-4.4429
X5.3091Y-4.6201
T0
M30
