%TF.GenerationSoftware,KiCad,Pcbnew,(7.0.0-0)*%
%TF.CreationDate,2023-05-30T21:51:57-06:00*%
%TF.ProjectId,Phase D PCB,50686173-6520-4442-9050-43422e6b6963,rev?*%
%TF.SameCoordinates,Original*%
%TF.FileFunction,Legend,Top*%
%TF.FilePolarity,Positive*%
%FSLAX46Y46*%
G04 Gerber Fmt 4.6, Leading zero omitted, Abs format (unit mm)*
G04 Created by KiCad (PCBNEW (7.0.0-0)) date 2023-05-30 21:51:57*
%MOMM*%
%LPD*%
G01*
G04 APERTURE LIST*
%ADD10C,0.120000*%
%ADD11C,0.150000*%
G04 APERTURE END LIST*
D10*
X129525000Y-57900000D02*
X128775000Y-57900000D01*
X130775000Y-57900000D02*
X129775000Y-56650000D01*
X130775000Y-57900000D02*
X130025000Y-57900000D01*
X129525000Y-60150000D02*
X130025000Y-60150000D01*
X130025000Y-60150000D02*
X130025000Y-57900000D01*
X129525000Y-57900000D02*
X129525000Y-60150000D01*
X129775000Y-56650000D02*
X128775000Y-57900000D01*
D11*
X128352380Y-120191809D02*
X128466666Y-120229904D01*
X128466666Y-120229904D02*
X128657142Y-120229904D01*
X128657142Y-120229904D02*
X128733333Y-120191809D01*
X128733333Y-120191809D02*
X128771428Y-120153714D01*
X128771428Y-120153714D02*
X128809523Y-120077523D01*
X128809523Y-120077523D02*
X128809523Y-120001333D01*
X128809523Y-120001333D02*
X128771428Y-119925142D01*
X128771428Y-119925142D02*
X128733333Y-119887047D01*
X128733333Y-119887047D02*
X128657142Y-119848952D01*
X128657142Y-119848952D02*
X128504761Y-119810857D01*
X128504761Y-119810857D02*
X128428571Y-119772761D01*
X128428571Y-119772761D02*
X128390476Y-119734666D01*
X128390476Y-119734666D02*
X128352380Y-119658476D01*
X128352380Y-119658476D02*
X128352380Y-119582285D01*
X128352380Y-119582285D02*
X128390476Y-119506095D01*
X128390476Y-119506095D02*
X128428571Y-119468000D01*
X128428571Y-119468000D02*
X128504761Y-119429904D01*
X128504761Y-119429904D02*
X128695238Y-119429904D01*
X128695238Y-119429904D02*
X128809523Y-119468000D01*
X129038095Y-119696571D02*
X129342857Y-119696571D01*
X129152381Y-119429904D02*
X129152381Y-120115619D01*
X129152381Y-120115619D02*
X129190476Y-120191809D01*
X129190476Y-120191809D02*
X129266666Y-120229904D01*
X129266666Y-120229904D02*
X129342857Y-120229904D01*
X129723809Y-120229904D02*
X129647619Y-120191809D01*
X129647619Y-120191809D02*
X129609524Y-120153714D01*
X129609524Y-120153714D02*
X129571428Y-120077523D01*
X129571428Y-120077523D02*
X129571428Y-119848952D01*
X129571428Y-119848952D02*
X129609524Y-119772761D01*
X129609524Y-119772761D02*
X129647619Y-119734666D01*
X129647619Y-119734666D02*
X129723809Y-119696571D01*
X129723809Y-119696571D02*
X129838095Y-119696571D01*
X129838095Y-119696571D02*
X129914286Y-119734666D01*
X129914286Y-119734666D02*
X129952381Y-119772761D01*
X129952381Y-119772761D02*
X129990476Y-119848952D01*
X129990476Y-119848952D02*
X129990476Y-120077523D01*
X129990476Y-120077523D02*
X129952381Y-120153714D01*
X129952381Y-120153714D02*
X129914286Y-120191809D01*
X129914286Y-120191809D02*
X129838095Y-120229904D01*
X129838095Y-120229904D02*
X129723809Y-120229904D01*
X130333334Y-119696571D02*
X130333334Y-120496571D01*
X130333334Y-119734666D02*
X130409524Y-119696571D01*
X130409524Y-119696571D02*
X130561905Y-119696571D01*
X130561905Y-119696571D02*
X130638096Y-119734666D01*
X130638096Y-119734666D02*
X130676191Y-119772761D01*
X130676191Y-119772761D02*
X130714286Y-119848952D01*
X130714286Y-119848952D02*
X130714286Y-120077523D01*
X130714286Y-120077523D02*
X130676191Y-120153714D01*
X130676191Y-120153714D02*
X130638096Y-120191809D01*
X130638096Y-120191809D02*
X130561905Y-120229904D01*
X130561905Y-120229904D02*
X130409524Y-120229904D01*
X130409524Y-120229904D02*
X130333334Y-120191809D01*
X131422858Y-119429904D02*
X131880001Y-119429904D01*
X131651429Y-120229904D02*
X131651429Y-119429904D01*
X132146668Y-120229904D02*
X132146668Y-119696571D01*
X132146668Y-119848952D02*
X132184763Y-119772761D01*
X132184763Y-119772761D02*
X132222858Y-119734666D01*
X132222858Y-119734666D02*
X132299049Y-119696571D01*
X132299049Y-119696571D02*
X132375239Y-119696571D01*
X132984763Y-120229904D02*
X132984763Y-119810857D01*
X132984763Y-119810857D02*
X132946668Y-119734666D01*
X132946668Y-119734666D02*
X132870477Y-119696571D01*
X132870477Y-119696571D02*
X132718096Y-119696571D01*
X132718096Y-119696571D02*
X132641906Y-119734666D01*
X132984763Y-120191809D02*
X132908572Y-120229904D01*
X132908572Y-120229904D02*
X132718096Y-120229904D01*
X132718096Y-120229904D02*
X132641906Y-120191809D01*
X132641906Y-120191809D02*
X132603810Y-120115619D01*
X132603810Y-120115619D02*
X132603810Y-120039428D01*
X132603810Y-120039428D02*
X132641906Y-119963238D01*
X132641906Y-119963238D02*
X132718096Y-119925142D01*
X132718096Y-119925142D02*
X132908572Y-119925142D01*
X132908572Y-119925142D02*
X132984763Y-119887047D01*
X133251430Y-119696571D02*
X133556192Y-119696571D01*
X133365716Y-120229904D02*
X133365716Y-119544190D01*
X133365716Y-119544190D02*
X133403811Y-119468000D01*
X133403811Y-119468000D02*
X133480001Y-119429904D01*
X133480001Y-119429904D02*
X133556192Y-119429904D01*
X133708573Y-119696571D02*
X134013335Y-119696571D01*
X133822859Y-120229904D02*
X133822859Y-119544190D01*
X133822859Y-119544190D02*
X133860954Y-119468000D01*
X133860954Y-119468000D02*
X133937144Y-119429904D01*
X133937144Y-119429904D02*
X134013335Y-119429904D01*
X134280002Y-120229904D02*
X134280002Y-119696571D01*
X134280002Y-119429904D02*
X134241906Y-119468000D01*
X134241906Y-119468000D02*
X134280002Y-119506095D01*
X134280002Y-119506095D02*
X134318097Y-119468000D01*
X134318097Y-119468000D02*
X134280002Y-119429904D01*
X134280002Y-119429904D02*
X134280002Y-119506095D01*
X135003811Y-120191809D02*
X134927620Y-120229904D01*
X134927620Y-120229904D02*
X134775239Y-120229904D01*
X134775239Y-120229904D02*
X134699049Y-120191809D01*
X134699049Y-120191809D02*
X134660954Y-120153714D01*
X134660954Y-120153714D02*
X134622858Y-120077523D01*
X134622858Y-120077523D02*
X134622858Y-119848952D01*
X134622858Y-119848952D02*
X134660954Y-119772761D01*
X134660954Y-119772761D02*
X134699049Y-119734666D01*
X134699049Y-119734666D02*
X134775239Y-119696571D01*
X134775239Y-119696571D02*
X134927620Y-119696571D01*
X134927620Y-119696571D02*
X135003811Y-119734666D01*
X122843808Y-61507809D02*
X122958094Y-61545904D01*
X122958094Y-61545904D02*
X123148570Y-61545904D01*
X123148570Y-61545904D02*
X123224761Y-61507809D01*
X123224761Y-61507809D02*
X123262856Y-61469714D01*
X123262856Y-61469714D02*
X123300951Y-61393523D01*
X123300951Y-61393523D02*
X123300951Y-61317333D01*
X123300951Y-61317333D02*
X123262856Y-61241142D01*
X123262856Y-61241142D02*
X123224761Y-61203047D01*
X123224761Y-61203047D02*
X123148570Y-61164952D01*
X123148570Y-61164952D02*
X122996189Y-61126857D01*
X122996189Y-61126857D02*
X122919999Y-61088761D01*
X122919999Y-61088761D02*
X122881904Y-61050666D01*
X122881904Y-61050666D02*
X122843808Y-60974476D01*
X122843808Y-60974476D02*
X122843808Y-60898285D01*
X122843808Y-60898285D02*
X122881904Y-60822095D01*
X122881904Y-60822095D02*
X122919999Y-60784000D01*
X122919999Y-60784000D02*
X122996189Y-60745904D01*
X122996189Y-60745904D02*
X123186666Y-60745904D01*
X123186666Y-60745904D02*
X123300951Y-60784000D01*
X123529523Y-60745904D02*
X123986666Y-60745904D01*
X123758094Y-61545904D02*
X123758094Y-60745904D01*
X124253333Y-61545904D02*
X124253333Y-60745904D01*
X124253333Y-60745904D02*
X124519999Y-61317333D01*
X124519999Y-61317333D02*
X124786666Y-60745904D01*
X124786666Y-60745904D02*
X124786666Y-61545904D01*
X125091428Y-60745904D02*
X125586666Y-60745904D01*
X125586666Y-60745904D02*
X125320000Y-61050666D01*
X125320000Y-61050666D02*
X125434285Y-61050666D01*
X125434285Y-61050666D02*
X125510476Y-61088761D01*
X125510476Y-61088761D02*
X125548571Y-61126857D01*
X125548571Y-61126857D02*
X125586666Y-61203047D01*
X125586666Y-61203047D02*
X125586666Y-61393523D01*
X125586666Y-61393523D02*
X125548571Y-61469714D01*
X125548571Y-61469714D02*
X125510476Y-61507809D01*
X125510476Y-61507809D02*
X125434285Y-61545904D01*
X125434285Y-61545904D02*
X125205714Y-61545904D01*
X125205714Y-61545904D02*
X125129523Y-61507809D01*
X125129523Y-61507809D02*
X125091428Y-61469714D01*
X125891428Y-60822095D02*
X125929524Y-60784000D01*
X125929524Y-60784000D02*
X126005714Y-60745904D01*
X126005714Y-60745904D02*
X126196190Y-60745904D01*
X126196190Y-60745904D02*
X126272381Y-60784000D01*
X126272381Y-60784000D02*
X126310476Y-60822095D01*
X126310476Y-60822095D02*
X126348571Y-60898285D01*
X126348571Y-60898285D02*
X126348571Y-60974476D01*
X126348571Y-60974476D02*
X126310476Y-61088761D01*
X126310476Y-61088761D02*
X125853333Y-61545904D01*
X125853333Y-61545904D02*
X126348571Y-61545904D01*
X126958095Y-61126857D02*
X126691429Y-61126857D01*
X126691429Y-61545904D02*
X126691429Y-60745904D01*
X126691429Y-60745904D02*
X127072381Y-60745904D01*
X127720000Y-61012571D02*
X127720000Y-61545904D01*
X127529524Y-60707809D02*
X127339047Y-61279238D01*
X127339047Y-61279238D02*
X127834286Y-61279238D01*
X128885714Y-61126857D02*
X129000000Y-61164952D01*
X129000000Y-61164952D02*
X129038095Y-61203047D01*
X129038095Y-61203047D02*
X129076191Y-61279238D01*
X129076191Y-61279238D02*
X129076191Y-61393523D01*
X129076191Y-61393523D02*
X129038095Y-61469714D01*
X129038095Y-61469714D02*
X129000000Y-61507809D01*
X129000000Y-61507809D02*
X128923810Y-61545904D01*
X128923810Y-61545904D02*
X128619048Y-61545904D01*
X128619048Y-61545904D02*
X128619048Y-60745904D01*
X128619048Y-60745904D02*
X128885714Y-60745904D01*
X128885714Y-60745904D02*
X128961905Y-60784000D01*
X128961905Y-60784000D02*
X129000000Y-60822095D01*
X129000000Y-60822095D02*
X129038095Y-60898285D01*
X129038095Y-60898285D02*
X129038095Y-60974476D01*
X129038095Y-60974476D02*
X129000000Y-61050666D01*
X129000000Y-61050666D02*
X128961905Y-61088761D01*
X128961905Y-61088761D02*
X128885714Y-61126857D01*
X128885714Y-61126857D02*
X128619048Y-61126857D01*
X129533333Y-61545904D02*
X129457143Y-61507809D01*
X129457143Y-61507809D02*
X129419048Y-61469714D01*
X129419048Y-61469714D02*
X129380952Y-61393523D01*
X129380952Y-61393523D02*
X129380952Y-61164952D01*
X129380952Y-61164952D02*
X129419048Y-61088761D01*
X129419048Y-61088761D02*
X129457143Y-61050666D01*
X129457143Y-61050666D02*
X129533333Y-61012571D01*
X129533333Y-61012571D02*
X129647619Y-61012571D01*
X129647619Y-61012571D02*
X129723810Y-61050666D01*
X129723810Y-61050666D02*
X129761905Y-61088761D01*
X129761905Y-61088761D02*
X129800000Y-61164952D01*
X129800000Y-61164952D02*
X129800000Y-61393523D01*
X129800000Y-61393523D02*
X129761905Y-61469714D01*
X129761905Y-61469714D02*
X129723810Y-61507809D01*
X129723810Y-61507809D02*
X129647619Y-61545904D01*
X129647619Y-61545904D02*
X129533333Y-61545904D01*
X130485715Y-61545904D02*
X130485715Y-61126857D01*
X130485715Y-61126857D02*
X130447620Y-61050666D01*
X130447620Y-61050666D02*
X130371429Y-61012571D01*
X130371429Y-61012571D02*
X130219048Y-61012571D01*
X130219048Y-61012571D02*
X130142858Y-61050666D01*
X130485715Y-61507809D02*
X130409524Y-61545904D01*
X130409524Y-61545904D02*
X130219048Y-61545904D01*
X130219048Y-61545904D02*
X130142858Y-61507809D01*
X130142858Y-61507809D02*
X130104762Y-61431619D01*
X130104762Y-61431619D02*
X130104762Y-61355428D01*
X130104762Y-61355428D02*
X130142858Y-61279238D01*
X130142858Y-61279238D02*
X130219048Y-61241142D01*
X130219048Y-61241142D02*
X130409524Y-61241142D01*
X130409524Y-61241142D02*
X130485715Y-61203047D01*
X130866668Y-61545904D02*
X130866668Y-61012571D01*
X130866668Y-61164952D02*
X130904763Y-61088761D01*
X130904763Y-61088761D02*
X130942858Y-61050666D01*
X130942858Y-61050666D02*
X131019049Y-61012571D01*
X131019049Y-61012571D02*
X131095239Y-61012571D01*
X131704763Y-61545904D02*
X131704763Y-60745904D01*
X131704763Y-61507809D02*
X131628572Y-61545904D01*
X131628572Y-61545904D02*
X131476191Y-61545904D01*
X131476191Y-61545904D02*
X131400001Y-61507809D01*
X131400001Y-61507809D02*
X131361906Y-61469714D01*
X131361906Y-61469714D02*
X131323810Y-61393523D01*
X131323810Y-61393523D02*
X131323810Y-61164952D01*
X131323810Y-61164952D02*
X131361906Y-61088761D01*
X131361906Y-61088761D02*
X131400001Y-61050666D01*
X131400001Y-61050666D02*
X131476191Y-61012571D01*
X131476191Y-61012571D02*
X131628572Y-61012571D01*
X131628572Y-61012571D02*
X131704763Y-61050666D01*
X132565716Y-61545904D02*
X132565716Y-60745904D01*
X132565716Y-60745904D02*
X132756192Y-60745904D01*
X132756192Y-60745904D02*
X132870478Y-60784000D01*
X132870478Y-60784000D02*
X132946668Y-60860190D01*
X132946668Y-60860190D02*
X132984763Y-60936380D01*
X132984763Y-60936380D02*
X133022859Y-61088761D01*
X133022859Y-61088761D02*
X133022859Y-61203047D01*
X133022859Y-61203047D02*
X132984763Y-61355428D01*
X132984763Y-61355428D02*
X132946668Y-61431619D01*
X132946668Y-61431619D02*
X132870478Y-61507809D01*
X132870478Y-61507809D02*
X132756192Y-61545904D01*
X132756192Y-61545904D02*
X132565716Y-61545904D01*
X133365716Y-61545904D02*
X133365716Y-61012571D01*
X133365716Y-60745904D02*
X133327620Y-60784000D01*
X133327620Y-60784000D02*
X133365716Y-60822095D01*
X133365716Y-60822095D02*
X133403811Y-60784000D01*
X133403811Y-60784000D02*
X133365716Y-60745904D01*
X133365716Y-60745904D02*
X133365716Y-60822095D01*
X133746668Y-61545904D02*
X133746668Y-61012571D01*
X133746668Y-61164952D02*
X133784763Y-61088761D01*
X133784763Y-61088761D02*
X133822858Y-61050666D01*
X133822858Y-61050666D02*
X133899049Y-61012571D01*
X133899049Y-61012571D02*
X133975239Y-61012571D01*
X134546668Y-61507809D02*
X134470477Y-61545904D01*
X134470477Y-61545904D02*
X134318096Y-61545904D01*
X134318096Y-61545904D02*
X134241906Y-61507809D01*
X134241906Y-61507809D02*
X134203810Y-61431619D01*
X134203810Y-61431619D02*
X134203810Y-61126857D01*
X134203810Y-61126857D02*
X134241906Y-61050666D01*
X134241906Y-61050666D02*
X134318096Y-61012571D01*
X134318096Y-61012571D02*
X134470477Y-61012571D01*
X134470477Y-61012571D02*
X134546668Y-61050666D01*
X134546668Y-61050666D02*
X134584763Y-61126857D01*
X134584763Y-61126857D02*
X134584763Y-61203047D01*
X134584763Y-61203047D02*
X134203810Y-61279238D01*
X135270477Y-61507809D02*
X135194286Y-61545904D01*
X135194286Y-61545904D02*
X135041905Y-61545904D01*
X135041905Y-61545904D02*
X134965715Y-61507809D01*
X134965715Y-61507809D02*
X134927620Y-61469714D01*
X134927620Y-61469714D02*
X134889524Y-61393523D01*
X134889524Y-61393523D02*
X134889524Y-61164952D01*
X134889524Y-61164952D02*
X134927620Y-61088761D01*
X134927620Y-61088761D02*
X134965715Y-61050666D01*
X134965715Y-61050666D02*
X135041905Y-61012571D01*
X135041905Y-61012571D02*
X135194286Y-61012571D01*
X135194286Y-61012571D02*
X135270477Y-61050666D01*
X135499048Y-61012571D02*
X135803810Y-61012571D01*
X135613334Y-60745904D02*
X135613334Y-61431619D01*
X135613334Y-61431619D02*
X135651429Y-61507809D01*
X135651429Y-61507809D02*
X135727619Y-61545904D01*
X135727619Y-61545904D02*
X135803810Y-61545904D01*
X136070477Y-61545904D02*
X136070477Y-61012571D01*
X136070477Y-60745904D02*
X136032381Y-60784000D01*
X136032381Y-60784000D02*
X136070477Y-60822095D01*
X136070477Y-60822095D02*
X136108572Y-60784000D01*
X136108572Y-60784000D02*
X136070477Y-60745904D01*
X136070477Y-60745904D02*
X136070477Y-60822095D01*
X136565714Y-61545904D02*
X136489524Y-61507809D01*
X136489524Y-61507809D02*
X136451429Y-61469714D01*
X136451429Y-61469714D02*
X136413333Y-61393523D01*
X136413333Y-61393523D02*
X136413333Y-61164952D01*
X136413333Y-61164952D02*
X136451429Y-61088761D01*
X136451429Y-61088761D02*
X136489524Y-61050666D01*
X136489524Y-61050666D02*
X136565714Y-61012571D01*
X136565714Y-61012571D02*
X136680000Y-61012571D01*
X136680000Y-61012571D02*
X136756191Y-61050666D01*
X136756191Y-61050666D02*
X136794286Y-61088761D01*
X136794286Y-61088761D02*
X136832381Y-61164952D01*
X136832381Y-61164952D02*
X136832381Y-61393523D01*
X136832381Y-61393523D02*
X136794286Y-61469714D01*
X136794286Y-61469714D02*
X136756191Y-61507809D01*
X136756191Y-61507809D02*
X136680000Y-61545904D01*
X136680000Y-61545904D02*
X136565714Y-61545904D01*
X137175239Y-61012571D02*
X137175239Y-61545904D01*
X137175239Y-61088761D02*
X137213334Y-61050666D01*
X137213334Y-61050666D02*
X137289524Y-61012571D01*
X137289524Y-61012571D02*
X137403810Y-61012571D01*
X137403810Y-61012571D02*
X137480001Y-61050666D01*
X137480001Y-61050666D02*
X137518096Y-61126857D01*
X137518096Y-61126857D02*
X137518096Y-61545904D01*
X123834285Y-62041904D02*
X123834285Y-62689523D01*
X123834285Y-62689523D02*
X123872380Y-62765714D01*
X123872380Y-62765714D02*
X123910475Y-62803809D01*
X123910475Y-62803809D02*
X123986666Y-62841904D01*
X123986666Y-62841904D02*
X124139047Y-62841904D01*
X124139047Y-62841904D02*
X124215237Y-62803809D01*
X124215237Y-62803809D02*
X124253332Y-62765714D01*
X124253332Y-62765714D02*
X124291428Y-62689523D01*
X124291428Y-62689523D02*
X124291428Y-62041904D01*
X124634284Y-62803809D02*
X124748570Y-62841904D01*
X124748570Y-62841904D02*
X124939046Y-62841904D01*
X124939046Y-62841904D02*
X125015237Y-62803809D01*
X125015237Y-62803809D02*
X125053332Y-62765714D01*
X125053332Y-62765714D02*
X125091427Y-62689523D01*
X125091427Y-62689523D02*
X125091427Y-62613333D01*
X125091427Y-62613333D02*
X125053332Y-62537142D01*
X125053332Y-62537142D02*
X125015237Y-62499047D01*
X125015237Y-62499047D02*
X124939046Y-62460952D01*
X124939046Y-62460952D02*
X124786665Y-62422857D01*
X124786665Y-62422857D02*
X124710475Y-62384761D01*
X124710475Y-62384761D02*
X124672380Y-62346666D01*
X124672380Y-62346666D02*
X124634284Y-62270476D01*
X124634284Y-62270476D02*
X124634284Y-62194285D01*
X124634284Y-62194285D02*
X124672380Y-62118095D01*
X124672380Y-62118095D02*
X124710475Y-62080000D01*
X124710475Y-62080000D02*
X124786665Y-62041904D01*
X124786665Y-62041904D02*
X124977142Y-62041904D01*
X124977142Y-62041904D02*
X125091427Y-62080000D01*
X125700951Y-62422857D02*
X125815237Y-62460952D01*
X125815237Y-62460952D02*
X125853332Y-62499047D01*
X125853332Y-62499047D02*
X125891428Y-62575238D01*
X125891428Y-62575238D02*
X125891428Y-62689523D01*
X125891428Y-62689523D02*
X125853332Y-62765714D01*
X125853332Y-62765714D02*
X125815237Y-62803809D01*
X125815237Y-62803809D02*
X125739047Y-62841904D01*
X125739047Y-62841904D02*
X125434285Y-62841904D01*
X125434285Y-62841904D02*
X125434285Y-62041904D01*
X125434285Y-62041904D02*
X125700951Y-62041904D01*
X125700951Y-62041904D02*
X125777142Y-62080000D01*
X125777142Y-62080000D02*
X125815237Y-62118095D01*
X125815237Y-62118095D02*
X125853332Y-62194285D01*
X125853332Y-62194285D02*
X125853332Y-62270476D01*
X125853332Y-62270476D02*
X125815237Y-62346666D01*
X125815237Y-62346666D02*
X125777142Y-62384761D01*
X125777142Y-62384761D02*
X125700951Y-62422857D01*
X125700951Y-62422857D02*
X125434285Y-62422857D01*
X126714285Y-62841904D02*
X126714285Y-62041904D01*
X126714285Y-62041904D02*
X127019047Y-62041904D01*
X127019047Y-62041904D02*
X127095237Y-62080000D01*
X127095237Y-62080000D02*
X127133332Y-62118095D01*
X127133332Y-62118095D02*
X127171428Y-62194285D01*
X127171428Y-62194285D02*
X127171428Y-62308571D01*
X127171428Y-62308571D02*
X127133332Y-62384761D01*
X127133332Y-62384761D02*
X127095237Y-62422857D01*
X127095237Y-62422857D02*
X127019047Y-62460952D01*
X127019047Y-62460952D02*
X126714285Y-62460952D01*
X127514285Y-62841904D02*
X127514285Y-62308571D01*
X127514285Y-62460952D02*
X127552380Y-62384761D01*
X127552380Y-62384761D02*
X127590475Y-62346666D01*
X127590475Y-62346666D02*
X127666666Y-62308571D01*
X127666666Y-62308571D02*
X127742856Y-62308571D01*
X128123808Y-62841904D02*
X128047618Y-62803809D01*
X128047618Y-62803809D02*
X128009523Y-62765714D01*
X128009523Y-62765714D02*
X127971427Y-62689523D01*
X127971427Y-62689523D02*
X127971427Y-62460952D01*
X127971427Y-62460952D02*
X128009523Y-62384761D01*
X128009523Y-62384761D02*
X128047618Y-62346666D01*
X128047618Y-62346666D02*
X128123808Y-62308571D01*
X128123808Y-62308571D02*
X128238094Y-62308571D01*
X128238094Y-62308571D02*
X128314285Y-62346666D01*
X128314285Y-62346666D02*
X128352380Y-62384761D01*
X128352380Y-62384761D02*
X128390475Y-62460952D01*
X128390475Y-62460952D02*
X128390475Y-62689523D01*
X128390475Y-62689523D02*
X128352380Y-62765714D01*
X128352380Y-62765714D02*
X128314285Y-62803809D01*
X128314285Y-62803809D02*
X128238094Y-62841904D01*
X128238094Y-62841904D02*
X128123808Y-62841904D01*
X129076190Y-62308571D02*
X129076190Y-62956190D01*
X129076190Y-62956190D02*
X129038095Y-63032380D01*
X129038095Y-63032380D02*
X128999999Y-63070476D01*
X128999999Y-63070476D02*
X128923809Y-63108571D01*
X128923809Y-63108571D02*
X128809523Y-63108571D01*
X128809523Y-63108571D02*
X128733333Y-63070476D01*
X129076190Y-62803809D02*
X128999999Y-62841904D01*
X128999999Y-62841904D02*
X128847618Y-62841904D01*
X128847618Y-62841904D02*
X128771428Y-62803809D01*
X128771428Y-62803809D02*
X128733333Y-62765714D01*
X128733333Y-62765714D02*
X128695237Y-62689523D01*
X128695237Y-62689523D02*
X128695237Y-62460952D01*
X128695237Y-62460952D02*
X128733333Y-62384761D01*
X128733333Y-62384761D02*
X128771428Y-62346666D01*
X128771428Y-62346666D02*
X128847618Y-62308571D01*
X128847618Y-62308571D02*
X128999999Y-62308571D01*
X128999999Y-62308571D02*
X129076190Y-62346666D01*
X129457143Y-62841904D02*
X129457143Y-62308571D01*
X129457143Y-62460952D02*
X129495238Y-62384761D01*
X129495238Y-62384761D02*
X129533333Y-62346666D01*
X129533333Y-62346666D02*
X129609524Y-62308571D01*
X129609524Y-62308571D02*
X129685714Y-62308571D01*
X130295238Y-62841904D02*
X130295238Y-62422857D01*
X130295238Y-62422857D02*
X130257143Y-62346666D01*
X130257143Y-62346666D02*
X130180952Y-62308571D01*
X130180952Y-62308571D02*
X130028571Y-62308571D01*
X130028571Y-62308571D02*
X129952381Y-62346666D01*
X130295238Y-62803809D02*
X130219047Y-62841904D01*
X130219047Y-62841904D02*
X130028571Y-62841904D01*
X130028571Y-62841904D02*
X129952381Y-62803809D01*
X129952381Y-62803809D02*
X129914285Y-62727619D01*
X129914285Y-62727619D02*
X129914285Y-62651428D01*
X129914285Y-62651428D02*
X129952381Y-62575238D01*
X129952381Y-62575238D02*
X130028571Y-62537142D01*
X130028571Y-62537142D02*
X130219047Y-62537142D01*
X130219047Y-62537142D02*
X130295238Y-62499047D01*
X130676191Y-62841904D02*
X130676191Y-62308571D01*
X130676191Y-62384761D02*
X130714286Y-62346666D01*
X130714286Y-62346666D02*
X130790476Y-62308571D01*
X130790476Y-62308571D02*
X130904762Y-62308571D01*
X130904762Y-62308571D02*
X130980953Y-62346666D01*
X130980953Y-62346666D02*
X131019048Y-62422857D01*
X131019048Y-62422857D02*
X131019048Y-62841904D01*
X131019048Y-62422857D02*
X131057143Y-62346666D01*
X131057143Y-62346666D02*
X131133334Y-62308571D01*
X131133334Y-62308571D02*
X131247619Y-62308571D01*
X131247619Y-62308571D02*
X131323810Y-62346666D01*
X131323810Y-62346666D02*
X131361905Y-62422857D01*
X131361905Y-62422857D02*
X131361905Y-62841904D01*
X131742858Y-62841904D02*
X131742858Y-62308571D01*
X131742858Y-62384761D02*
X131780953Y-62346666D01*
X131780953Y-62346666D02*
X131857143Y-62308571D01*
X131857143Y-62308571D02*
X131971429Y-62308571D01*
X131971429Y-62308571D02*
X132047620Y-62346666D01*
X132047620Y-62346666D02*
X132085715Y-62422857D01*
X132085715Y-62422857D02*
X132085715Y-62841904D01*
X132085715Y-62422857D02*
X132123810Y-62346666D01*
X132123810Y-62346666D02*
X132200001Y-62308571D01*
X132200001Y-62308571D02*
X132314286Y-62308571D01*
X132314286Y-62308571D02*
X132390477Y-62346666D01*
X132390477Y-62346666D02*
X132428572Y-62422857D01*
X132428572Y-62422857D02*
X132428572Y-62841904D01*
X133114287Y-62803809D02*
X133038096Y-62841904D01*
X133038096Y-62841904D02*
X132885715Y-62841904D01*
X132885715Y-62841904D02*
X132809525Y-62803809D01*
X132809525Y-62803809D02*
X132771429Y-62727619D01*
X132771429Y-62727619D02*
X132771429Y-62422857D01*
X132771429Y-62422857D02*
X132809525Y-62346666D01*
X132809525Y-62346666D02*
X132885715Y-62308571D01*
X132885715Y-62308571D02*
X133038096Y-62308571D01*
X133038096Y-62308571D02*
X133114287Y-62346666D01*
X133114287Y-62346666D02*
X133152382Y-62422857D01*
X133152382Y-62422857D02*
X133152382Y-62499047D01*
X133152382Y-62499047D02*
X132771429Y-62575238D01*
X133495239Y-62841904D02*
X133495239Y-62308571D01*
X133495239Y-62460952D02*
X133533334Y-62384761D01*
X133533334Y-62384761D02*
X133571429Y-62346666D01*
X133571429Y-62346666D02*
X133647620Y-62308571D01*
X133647620Y-62308571D02*
X133723810Y-62308571D01*
X134470477Y-62841904D02*
X134470477Y-62041904D01*
X134470477Y-62041904D02*
X134775239Y-62041904D01*
X134775239Y-62041904D02*
X134851429Y-62080000D01*
X134851429Y-62080000D02*
X134889524Y-62118095D01*
X134889524Y-62118095D02*
X134927620Y-62194285D01*
X134927620Y-62194285D02*
X134927620Y-62308571D01*
X134927620Y-62308571D02*
X134889524Y-62384761D01*
X134889524Y-62384761D02*
X134851429Y-62422857D01*
X134851429Y-62422857D02*
X134775239Y-62460952D01*
X134775239Y-62460952D02*
X134470477Y-62460952D01*
X135384762Y-62841904D02*
X135308572Y-62803809D01*
X135308572Y-62803809D02*
X135270477Y-62765714D01*
X135270477Y-62765714D02*
X135232381Y-62689523D01*
X135232381Y-62689523D02*
X135232381Y-62460952D01*
X135232381Y-62460952D02*
X135270477Y-62384761D01*
X135270477Y-62384761D02*
X135308572Y-62346666D01*
X135308572Y-62346666D02*
X135384762Y-62308571D01*
X135384762Y-62308571D02*
X135499048Y-62308571D01*
X135499048Y-62308571D02*
X135575239Y-62346666D01*
X135575239Y-62346666D02*
X135613334Y-62384761D01*
X135613334Y-62384761D02*
X135651429Y-62460952D01*
X135651429Y-62460952D02*
X135651429Y-62689523D01*
X135651429Y-62689523D02*
X135613334Y-62765714D01*
X135613334Y-62765714D02*
X135575239Y-62803809D01*
X135575239Y-62803809D02*
X135499048Y-62841904D01*
X135499048Y-62841904D02*
X135384762Y-62841904D01*
X135994287Y-62841904D02*
X135994287Y-62308571D01*
X135994287Y-62460952D02*
X136032382Y-62384761D01*
X136032382Y-62384761D02*
X136070477Y-62346666D01*
X136070477Y-62346666D02*
X136146668Y-62308571D01*
X136146668Y-62308571D02*
X136222858Y-62308571D01*
X136375239Y-62308571D02*
X136680001Y-62308571D01*
X136489525Y-62041904D02*
X136489525Y-62727619D01*
X136489525Y-62727619D02*
X136527620Y-62803809D01*
X136527620Y-62803809D02*
X136603810Y-62841904D01*
X136603810Y-62841904D02*
X136680001Y-62841904D01*
X152196190Y-56433904D02*
X152196190Y-57005333D01*
X152196190Y-57005333D02*
X152158095Y-57119619D01*
X152158095Y-57119619D02*
X152081904Y-57195809D01*
X152081904Y-57195809D02*
X151967619Y-57233904D01*
X151967619Y-57233904D02*
X151891428Y-57233904D01*
X152691428Y-57233904D02*
X152615238Y-57195809D01*
X152615238Y-57195809D02*
X152577143Y-57157714D01*
X152577143Y-57157714D02*
X152539047Y-57081523D01*
X152539047Y-57081523D02*
X152539047Y-56852952D01*
X152539047Y-56852952D02*
X152577143Y-56776761D01*
X152577143Y-56776761D02*
X152615238Y-56738666D01*
X152615238Y-56738666D02*
X152691428Y-56700571D01*
X152691428Y-56700571D02*
X152805714Y-56700571D01*
X152805714Y-56700571D02*
X152881905Y-56738666D01*
X152881905Y-56738666D02*
X152920000Y-56776761D01*
X152920000Y-56776761D02*
X152958095Y-56852952D01*
X152958095Y-56852952D02*
X152958095Y-57081523D01*
X152958095Y-57081523D02*
X152920000Y-57157714D01*
X152920000Y-57157714D02*
X152881905Y-57195809D01*
X152881905Y-57195809D02*
X152805714Y-57233904D01*
X152805714Y-57233904D02*
X152691428Y-57233904D01*
X153300953Y-57233904D02*
X153300953Y-56433904D01*
X153643810Y-57233904D02*
X153643810Y-56814857D01*
X153643810Y-56814857D02*
X153605715Y-56738666D01*
X153605715Y-56738666D02*
X153529524Y-56700571D01*
X153529524Y-56700571D02*
X153415238Y-56700571D01*
X153415238Y-56700571D02*
X153339048Y-56738666D01*
X153339048Y-56738666D02*
X153300953Y-56776761D01*
X154024763Y-56700571D02*
X154024763Y-57233904D01*
X154024763Y-56776761D02*
X154062858Y-56738666D01*
X154062858Y-56738666D02*
X154139048Y-56700571D01*
X154139048Y-56700571D02*
X154253334Y-56700571D01*
X154253334Y-56700571D02*
X154329525Y-56738666D01*
X154329525Y-56738666D02*
X154367620Y-56814857D01*
X154367620Y-56814857D02*
X154367620Y-57233904D01*
X155228573Y-57233904D02*
X155228573Y-56433904D01*
X155228573Y-56814857D02*
X155685716Y-56814857D01*
X155685716Y-57233904D02*
X155685716Y-56433904D01*
X156066668Y-57157714D02*
X156104763Y-57195809D01*
X156104763Y-57195809D02*
X156066668Y-57233904D01*
X156066668Y-57233904D02*
X156028572Y-57195809D01*
X156028572Y-57195809D02*
X156066668Y-57157714D01*
X156066668Y-57157714D02*
X156066668Y-57233904D01*
X157308572Y-57233904D02*
X156927620Y-57233904D01*
X156927620Y-57233904D02*
X156927620Y-56433904D01*
X157880001Y-57195809D02*
X157803810Y-57233904D01*
X157803810Y-57233904D02*
X157651429Y-57233904D01*
X157651429Y-57233904D02*
X157575239Y-57195809D01*
X157575239Y-57195809D02*
X157537143Y-57119619D01*
X157537143Y-57119619D02*
X157537143Y-56814857D01*
X157537143Y-56814857D02*
X157575239Y-56738666D01*
X157575239Y-56738666D02*
X157651429Y-56700571D01*
X157651429Y-56700571D02*
X157803810Y-56700571D01*
X157803810Y-56700571D02*
X157880001Y-56738666D01*
X157880001Y-56738666D02*
X157918096Y-56814857D01*
X157918096Y-56814857D02*
X157918096Y-56891047D01*
X157918096Y-56891047D02*
X157537143Y-56967238D01*
X158222857Y-57195809D02*
X158299048Y-57233904D01*
X158299048Y-57233904D02*
X158451429Y-57233904D01*
X158451429Y-57233904D02*
X158527619Y-57195809D01*
X158527619Y-57195809D02*
X158565715Y-57119619D01*
X158565715Y-57119619D02*
X158565715Y-57081523D01*
X158565715Y-57081523D02*
X158527619Y-57005333D01*
X158527619Y-57005333D02*
X158451429Y-56967238D01*
X158451429Y-56967238D02*
X158337143Y-56967238D01*
X158337143Y-56967238D02*
X158260953Y-56929142D01*
X158260953Y-56929142D02*
X158222857Y-56852952D01*
X158222857Y-56852952D02*
X158222857Y-56814857D01*
X158222857Y-56814857D02*
X158260953Y-56738666D01*
X158260953Y-56738666D02*
X158337143Y-56700571D01*
X158337143Y-56700571D02*
X158451429Y-56700571D01*
X158451429Y-56700571D02*
X158527619Y-56738666D01*
X159213334Y-57195809D02*
X159137143Y-57233904D01*
X159137143Y-57233904D02*
X158984762Y-57233904D01*
X158984762Y-57233904D02*
X158908572Y-57195809D01*
X158908572Y-57195809D02*
X158870476Y-57119619D01*
X158870476Y-57119619D02*
X158870476Y-56814857D01*
X158870476Y-56814857D02*
X158908572Y-56738666D01*
X158908572Y-56738666D02*
X158984762Y-56700571D01*
X158984762Y-56700571D02*
X159137143Y-56700571D01*
X159137143Y-56700571D02*
X159213334Y-56738666D01*
X159213334Y-56738666D02*
X159251429Y-56814857D01*
X159251429Y-56814857D02*
X159251429Y-56891047D01*
X159251429Y-56891047D02*
X158870476Y-56967238D01*
X159937143Y-56700571D02*
X159937143Y-57233904D01*
X159594286Y-56700571D02*
X159594286Y-57119619D01*
X159594286Y-57119619D02*
X159632381Y-57195809D01*
X159632381Y-57195809D02*
X159708571Y-57233904D01*
X159708571Y-57233904D02*
X159822857Y-57233904D01*
X159822857Y-57233904D02*
X159899048Y-57195809D01*
X159899048Y-57195809D02*
X159937143Y-57157714D01*
X160318096Y-57233904D02*
X160318096Y-56700571D01*
X160318096Y-56852952D02*
X160356191Y-56776761D01*
X160356191Y-56776761D02*
X160394286Y-56738666D01*
X160394286Y-56738666D02*
X160470477Y-56700571D01*
X160470477Y-56700571D02*
X160546667Y-56700571D01*
X148919998Y-58110857D02*
X149186664Y-58110857D01*
X149300950Y-58529904D02*
X148919998Y-58529904D01*
X148919998Y-58529904D02*
X148919998Y-57729904D01*
X148919998Y-57729904D02*
X149300950Y-57729904D01*
X149643808Y-58529904D02*
X149643808Y-57996571D01*
X149643808Y-58072761D02*
X149681903Y-58034666D01*
X149681903Y-58034666D02*
X149758093Y-57996571D01*
X149758093Y-57996571D02*
X149872379Y-57996571D01*
X149872379Y-57996571D02*
X149948570Y-58034666D01*
X149948570Y-58034666D02*
X149986665Y-58110857D01*
X149986665Y-58110857D02*
X149986665Y-58529904D01*
X149986665Y-58110857D02*
X150024760Y-58034666D01*
X150024760Y-58034666D02*
X150100951Y-57996571D01*
X150100951Y-57996571D02*
X150215236Y-57996571D01*
X150215236Y-57996571D02*
X150291427Y-58034666D01*
X150291427Y-58034666D02*
X150329522Y-58110857D01*
X150329522Y-58110857D02*
X150329522Y-58529904D01*
X150710475Y-58529904D02*
X150710475Y-57729904D01*
X150710475Y-58034666D02*
X150786665Y-57996571D01*
X150786665Y-57996571D02*
X150939046Y-57996571D01*
X150939046Y-57996571D02*
X151015237Y-58034666D01*
X151015237Y-58034666D02*
X151053332Y-58072761D01*
X151053332Y-58072761D02*
X151091427Y-58148952D01*
X151091427Y-58148952D02*
X151091427Y-58377523D01*
X151091427Y-58377523D02*
X151053332Y-58453714D01*
X151053332Y-58453714D02*
X151015237Y-58491809D01*
X151015237Y-58491809D02*
X150939046Y-58529904D01*
X150939046Y-58529904D02*
X150786665Y-58529904D01*
X150786665Y-58529904D02*
X150710475Y-58491809D01*
X151739047Y-58491809D02*
X151662856Y-58529904D01*
X151662856Y-58529904D02*
X151510475Y-58529904D01*
X151510475Y-58529904D02*
X151434285Y-58491809D01*
X151434285Y-58491809D02*
X151396189Y-58415619D01*
X151396189Y-58415619D02*
X151396189Y-58110857D01*
X151396189Y-58110857D02*
X151434285Y-58034666D01*
X151434285Y-58034666D02*
X151510475Y-57996571D01*
X151510475Y-57996571D02*
X151662856Y-57996571D01*
X151662856Y-57996571D02*
X151739047Y-58034666D01*
X151739047Y-58034666D02*
X151777142Y-58110857D01*
X151777142Y-58110857D02*
X151777142Y-58187047D01*
X151777142Y-58187047D02*
X151396189Y-58263238D01*
X152462856Y-58529904D02*
X152462856Y-57729904D01*
X152462856Y-58491809D02*
X152386665Y-58529904D01*
X152386665Y-58529904D02*
X152234284Y-58529904D01*
X152234284Y-58529904D02*
X152158094Y-58491809D01*
X152158094Y-58491809D02*
X152119999Y-58453714D01*
X152119999Y-58453714D02*
X152081903Y-58377523D01*
X152081903Y-58377523D02*
X152081903Y-58148952D01*
X152081903Y-58148952D02*
X152119999Y-58072761D01*
X152119999Y-58072761D02*
X152158094Y-58034666D01*
X152158094Y-58034666D02*
X152234284Y-57996571D01*
X152234284Y-57996571D02*
X152386665Y-57996571D01*
X152386665Y-57996571D02*
X152462856Y-58034666D01*
X153186666Y-58529904D02*
X153186666Y-57729904D01*
X153186666Y-58491809D02*
X153110475Y-58529904D01*
X153110475Y-58529904D02*
X152958094Y-58529904D01*
X152958094Y-58529904D02*
X152881904Y-58491809D01*
X152881904Y-58491809D02*
X152843809Y-58453714D01*
X152843809Y-58453714D02*
X152805713Y-58377523D01*
X152805713Y-58377523D02*
X152805713Y-58148952D01*
X152805713Y-58148952D02*
X152843809Y-58072761D01*
X152843809Y-58072761D02*
X152881904Y-58034666D01*
X152881904Y-58034666D02*
X152958094Y-57996571D01*
X152958094Y-57996571D02*
X153110475Y-57996571D01*
X153110475Y-57996571D02*
X153186666Y-58034666D01*
X153872381Y-58491809D02*
X153796190Y-58529904D01*
X153796190Y-58529904D02*
X153643809Y-58529904D01*
X153643809Y-58529904D02*
X153567619Y-58491809D01*
X153567619Y-58491809D02*
X153529523Y-58415619D01*
X153529523Y-58415619D02*
X153529523Y-58110857D01*
X153529523Y-58110857D02*
X153567619Y-58034666D01*
X153567619Y-58034666D02*
X153643809Y-57996571D01*
X153643809Y-57996571D02*
X153796190Y-57996571D01*
X153796190Y-57996571D02*
X153872381Y-58034666D01*
X153872381Y-58034666D02*
X153910476Y-58110857D01*
X153910476Y-58110857D02*
X153910476Y-58187047D01*
X153910476Y-58187047D02*
X153529523Y-58263238D01*
X154596190Y-58529904D02*
X154596190Y-57729904D01*
X154596190Y-58491809D02*
X154519999Y-58529904D01*
X154519999Y-58529904D02*
X154367618Y-58529904D01*
X154367618Y-58529904D02*
X154291428Y-58491809D01*
X154291428Y-58491809D02*
X154253333Y-58453714D01*
X154253333Y-58453714D02*
X154215237Y-58377523D01*
X154215237Y-58377523D02*
X154215237Y-58148952D01*
X154215237Y-58148952D02*
X154253333Y-58072761D01*
X154253333Y-58072761D02*
X154291428Y-58034666D01*
X154291428Y-58034666D02*
X154367618Y-57996571D01*
X154367618Y-57996571D02*
X154519999Y-57996571D01*
X154519999Y-57996571D02*
X154596190Y-58034666D01*
X155419047Y-58491809D02*
X155533333Y-58529904D01*
X155533333Y-58529904D02*
X155723809Y-58529904D01*
X155723809Y-58529904D02*
X155800000Y-58491809D01*
X155800000Y-58491809D02*
X155838095Y-58453714D01*
X155838095Y-58453714D02*
X155876190Y-58377523D01*
X155876190Y-58377523D02*
X155876190Y-58301333D01*
X155876190Y-58301333D02*
X155838095Y-58225142D01*
X155838095Y-58225142D02*
X155800000Y-58187047D01*
X155800000Y-58187047D02*
X155723809Y-58148952D01*
X155723809Y-58148952D02*
X155571428Y-58110857D01*
X155571428Y-58110857D02*
X155495238Y-58072761D01*
X155495238Y-58072761D02*
X155457143Y-58034666D01*
X155457143Y-58034666D02*
X155419047Y-57958476D01*
X155419047Y-57958476D02*
X155419047Y-57882285D01*
X155419047Y-57882285D02*
X155457143Y-57806095D01*
X155457143Y-57806095D02*
X155495238Y-57768000D01*
X155495238Y-57768000D02*
X155571428Y-57729904D01*
X155571428Y-57729904D02*
X155761905Y-57729904D01*
X155761905Y-57729904D02*
X155876190Y-57768000D01*
X156142857Y-57996571D02*
X156333333Y-58529904D01*
X156523810Y-57996571D02*
X156333333Y-58529904D01*
X156333333Y-58529904D02*
X156257143Y-58720380D01*
X156257143Y-58720380D02*
X156219048Y-58758476D01*
X156219048Y-58758476D02*
X156142857Y-58796571D01*
X156790476Y-58491809D02*
X156866667Y-58529904D01*
X156866667Y-58529904D02*
X157019048Y-58529904D01*
X157019048Y-58529904D02*
X157095238Y-58491809D01*
X157095238Y-58491809D02*
X157133334Y-58415619D01*
X157133334Y-58415619D02*
X157133334Y-58377523D01*
X157133334Y-58377523D02*
X157095238Y-58301333D01*
X157095238Y-58301333D02*
X157019048Y-58263238D01*
X157019048Y-58263238D02*
X156904762Y-58263238D01*
X156904762Y-58263238D02*
X156828572Y-58225142D01*
X156828572Y-58225142D02*
X156790476Y-58148952D01*
X156790476Y-58148952D02*
X156790476Y-58110857D01*
X156790476Y-58110857D02*
X156828572Y-58034666D01*
X156828572Y-58034666D02*
X156904762Y-57996571D01*
X156904762Y-57996571D02*
X157019048Y-57996571D01*
X157019048Y-57996571D02*
X157095238Y-58034666D01*
X157361905Y-57996571D02*
X157666667Y-57996571D01*
X157476191Y-57729904D02*
X157476191Y-58415619D01*
X157476191Y-58415619D02*
X157514286Y-58491809D01*
X157514286Y-58491809D02*
X157590476Y-58529904D01*
X157590476Y-58529904D02*
X157666667Y-58529904D01*
X158238096Y-58491809D02*
X158161905Y-58529904D01*
X158161905Y-58529904D02*
X158009524Y-58529904D01*
X158009524Y-58529904D02*
X157933334Y-58491809D01*
X157933334Y-58491809D02*
X157895238Y-58415619D01*
X157895238Y-58415619D02*
X157895238Y-58110857D01*
X157895238Y-58110857D02*
X157933334Y-58034666D01*
X157933334Y-58034666D02*
X158009524Y-57996571D01*
X158009524Y-57996571D02*
X158161905Y-57996571D01*
X158161905Y-57996571D02*
X158238096Y-58034666D01*
X158238096Y-58034666D02*
X158276191Y-58110857D01*
X158276191Y-58110857D02*
X158276191Y-58187047D01*
X158276191Y-58187047D02*
X157895238Y-58263238D01*
X158619048Y-58529904D02*
X158619048Y-57996571D01*
X158619048Y-58072761D02*
X158657143Y-58034666D01*
X158657143Y-58034666D02*
X158733333Y-57996571D01*
X158733333Y-57996571D02*
X158847619Y-57996571D01*
X158847619Y-57996571D02*
X158923810Y-58034666D01*
X158923810Y-58034666D02*
X158961905Y-58110857D01*
X158961905Y-58110857D02*
X158961905Y-58529904D01*
X158961905Y-58110857D02*
X159000000Y-58034666D01*
X159000000Y-58034666D02*
X159076191Y-57996571D01*
X159076191Y-57996571D02*
X159190476Y-57996571D01*
X159190476Y-57996571D02*
X159266667Y-58034666D01*
X159266667Y-58034666D02*
X159304762Y-58110857D01*
X159304762Y-58110857D02*
X159304762Y-58529904D01*
X159647619Y-58491809D02*
X159723810Y-58529904D01*
X159723810Y-58529904D02*
X159876191Y-58529904D01*
X159876191Y-58529904D02*
X159952381Y-58491809D01*
X159952381Y-58491809D02*
X159990477Y-58415619D01*
X159990477Y-58415619D02*
X159990477Y-58377523D01*
X159990477Y-58377523D02*
X159952381Y-58301333D01*
X159952381Y-58301333D02*
X159876191Y-58263238D01*
X159876191Y-58263238D02*
X159761905Y-58263238D01*
X159761905Y-58263238D02*
X159685715Y-58225142D01*
X159685715Y-58225142D02*
X159647619Y-58148952D01*
X159647619Y-58148952D02*
X159647619Y-58110857D01*
X159647619Y-58110857D02*
X159685715Y-58034666D01*
X159685715Y-58034666D02*
X159761905Y-57996571D01*
X159761905Y-57996571D02*
X159876191Y-57996571D01*
X159876191Y-57996571D02*
X159952381Y-58034666D01*
X160775238Y-57806095D02*
X160813334Y-57768000D01*
X160813334Y-57768000D02*
X160889524Y-57729904D01*
X160889524Y-57729904D02*
X161080000Y-57729904D01*
X161080000Y-57729904D02*
X161156191Y-57768000D01*
X161156191Y-57768000D02*
X161194286Y-57806095D01*
X161194286Y-57806095D02*
X161232381Y-57882285D01*
X161232381Y-57882285D02*
X161232381Y-57958476D01*
X161232381Y-57958476D02*
X161194286Y-58072761D01*
X161194286Y-58072761D02*
X160737143Y-58529904D01*
X160737143Y-58529904D02*
X161232381Y-58529904D01*
X161727620Y-57729904D02*
X161803810Y-57729904D01*
X161803810Y-57729904D02*
X161880001Y-57768000D01*
X161880001Y-57768000D02*
X161918096Y-57806095D01*
X161918096Y-57806095D02*
X161956191Y-57882285D01*
X161956191Y-57882285D02*
X161994286Y-58034666D01*
X161994286Y-58034666D02*
X161994286Y-58225142D01*
X161994286Y-58225142D02*
X161956191Y-58377523D01*
X161956191Y-58377523D02*
X161918096Y-58453714D01*
X161918096Y-58453714D02*
X161880001Y-58491809D01*
X161880001Y-58491809D02*
X161803810Y-58529904D01*
X161803810Y-58529904D02*
X161727620Y-58529904D01*
X161727620Y-58529904D02*
X161651429Y-58491809D01*
X161651429Y-58491809D02*
X161613334Y-58453714D01*
X161613334Y-58453714D02*
X161575239Y-58377523D01*
X161575239Y-58377523D02*
X161537143Y-58225142D01*
X161537143Y-58225142D02*
X161537143Y-58034666D01*
X161537143Y-58034666D02*
X161575239Y-57882285D01*
X161575239Y-57882285D02*
X161613334Y-57806095D01*
X161613334Y-57806095D02*
X161651429Y-57768000D01*
X161651429Y-57768000D02*
X161727620Y-57729904D01*
X162299048Y-57806095D02*
X162337144Y-57768000D01*
X162337144Y-57768000D02*
X162413334Y-57729904D01*
X162413334Y-57729904D02*
X162603810Y-57729904D01*
X162603810Y-57729904D02*
X162680001Y-57768000D01*
X162680001Y-57768000D02*
X162718096Y-57806095D01*
X162718096Y-57806095D02*
X162756191Y-57882285D01*
X162756191Y-57882285D02*
X162756191Y-57958476D01*
X162756191Y-57958476D02*
X162718096Y-58072761D01*
X162718096Y-58072761D02*
X162260953Y-58529904D01*
X162260953Y-58529904D02*
X162756191Y-58529904D01*
X163022858Y-57729904D02*
X163518096Y-57729904D01*
X163518096Y-57729904D02*
X163251430Y-58034666D01*
X163251430Y-58034666D02*
X163365715Y-58034666D01*
X163365715Y-58034666D02*
X163441906Y-58072761D01*
X163441906Y-58072761D02*
X163480001Y-58110857D01*
X163480001Y-58110857D02*
X163518096Y-58187047D01*
X163518096Y-58187047D02*
X163518096Y-58377523D01*
X163518096Y-58377523D02*
X163480001Y-58453714D01*
X163480001Y-58453714D02*
X163441906Y-58491809D01*
X163441906Y-58491809D02*
X163365715Y-58529904D01*
X163365715Y-58529904D02*
X163137144Y-58529904D01*
X163137144Y-58529904D02*
X163060953Y-58491809D01*
X163060953Y-58491809D02*
X163022858Y-58453714D01*
X152836190Y-59406857D02*
X152569524Y-59406857D01*
X152569524Y-59825904D02*
X152569524Y-59025904D01*
X152569524Y-59025904D02*
X152950476Y-59025904D01*
X153255238Y-59825904D02*
X153255238Y-59292571D01*
X153255238Y-59025904D02*
X153217142Y-59064000D01*
X153217142Y-59064000D02*
X153255238Y-59102095D01*
X153255238Y-59102095D02*
X153293333Y-59064000D01*
X153293333Y-59064000D02*
X153255238Y-59025904D01*
X153255238Y-59025904D02*
X153255238Y-59102095D01*
X153636190Y-59292571D02*
X153636190Y-59825904D01*
X153636190Y-59368761D02*
X153674285Y-59330666D01*
X153674285Y-59330666D02*
X153750475Y-59292571D01*
X153750475Y-59292571D02*
X153864761Y-59292571D01*
X153864761Y-59292571D02*
X153940952Y-59330666D01*
X153940952Y-59330666D02*
X153979047Y-59406857D01*
X153979047Y-59406857D02*
X153979047Y-59825904D01*
X154702857Y-59825904D02*
X154702857Y-59406857D01*
X154702857Y-59406857D02*
X154664762Y-59330666D01*
X154664762Y-59330666D02*
X154588571Y-59292571D01*
X154588571Y-59292571D02*
X154436190Y-59292571D01*
X154436190Y-59292571D02*
X154360000Y-59330666D01*
X154702857Y-59787809D02*
X154626666Y-59825904D01*
X154626666Y-59825904D02*
X154436190Y-59825904D01*
X154436190Y-59825904D02*
X154360000Y-59787809D01*
X154360000Y-59787809D02*
X154321904Y-59711619D01*
X154321904Y-59711619D02*
X154321904Y-59635428D01*
X154321904Y-59635428D02*
X154360000Y-59559238D01*
X154360000Y-59559238D02*
X154436190Y-59521142D01*
X154436190Y-59521142D02*
X154626666Y-59521142D01*
X154626666Y-59521142D02*
X154702857Y-59483047D01*
X155198095Y-59825904D02*
X155121905Y-59787809D01*
X155121905Y-59787809D02*
X155083810Y-59711619D01*
X155083810Y-59711619D02*
X155083810Y-59025904D01*
X155982858Y-59825904D02*
X155982858Y-59025904D01*
X155982858Y-59025904D02*
X156287620Y-59025904D01*
X156287620Y-59025904D02*
X156363810Y-59064000D01*
X156363810Y-59064000D02*
X156401905Y-59102095D01*
X156401905Y-59102095D02*
X156440001Y-59178285D01*
X156440001Y-59178285D02*
X156440001Y-59292571D01*
X156440001Y-59292571D02*
X156401905Y-59368761D01*
X156401905Y-59368761D02*
X156363810Y-59406857D01*
X156363810Y-59406857D02*
X156287620Y-59444952D01*
X156287620Y-59444952D02*
X155982858Y-59444952D01*
X156782858Y-59825904D02*
X156782858Y-59292571D01*
X156782858Y-59444952D02*
X156820953Y-59368761D01*
X156820953Y-59368761D02*
X156859048Y-59330666D01*
X156859048Y-59330666D02*
X156935239Y-59292571D01*
X156935239Y-59292571D02*
X157011429Y-59292571D01*
X157392381Y-59825904D02*
X157316191Y-59787809D01*
X157316191Y-59787809D02*
X157278096Y-59749714D01*
X157278096Y-59749714D02*
X157240000Y-59673523D01*
X157240000Y-59673523D02*
X157240000Y-59444952D01*
X157240000Y-59444952D02*
X157278096Y-59368761D01*
X157278096Y-59368761D02*
X157316191Y-59330666D01*
X157316191Y-59330666D02*
X157392381Y-59292571D01*
X157392381Y-59292571D02*
X157506667Y-59292571D01*
X157506667Y-59292571D02*
X157582858Y-59330666D01*
X157582858Y-59330666D02*
X157620953Y-59368761D01*
X157620953Y-59368761D02*
X157659048Y-59444952D01*
X157659048Y-59444952D02*
X157659048Y-59673523D01*
X157659048Y-59673523D02*
X157620953Y-59749714D01*
X157620953Y-59749714D02*
X157582858Y-59787809D01*
X157582858Y-59787809D02*
X157506667Y-59825904D01*
X157506667Y-59825904D02*
X157392381Y-59825904D01*
X158001906Y-59292571D02*
X158001906Y-59978285D01*
X158001906Y-59978285D02*
X157963810Y-60054476D01*
X157963810Y-60054476D02*
X157887620Y-60092571D01*
X157887620Y-60092571D02*
X157849525Y-60092571D01*
X158001906Y-59025904D02*
X157963810Y-59064000D01*
X157963810Y-59064000D02*
X158001906Y-59102095D01*
X158001906Y-59102095D02*
X158040001Y-59064000D01*
X158040001Y-59064000D02*
X158001906Y-59025904D01*
X158001906Y-59025904D02*
X158001906Y-59102095D01*
X158687620Y-59787809D02*
X158611429Y-59825904D01*
X158611429Y-59825904D02*
X158459048Y-59825904D01*
X158459048Y-59825904D02*
X158382858Y-59787809D01*
X158382858Y-59787809D02*
X158344762Y-59711619D01*
X158344762Y-59711619D02*
X158344762Y-59406857D01*
X158344762Y-59406857D02*
X158382858Y-59330666D01*
X158382858Y-59330666D02*
X158459048Y-59292571D01*
X158459048Y-59292571D02*
X158611429Y-59292571D01*
X158611429Y-59292571D02*
X158687620Y-59330666D01*
X158687620Y-59330666D02*
X158725715Y-59406857D01*
X158725715Y-59406857D02*
X158725715Y-59483047D01*
X158725715Y-59483047D02*
X158344762Y-59559238D01*
X159411429Y-59787809D02*
X159335238Y-59825904D01*
X159335238Y-59825904D02*
X159182857Y-59825904D01*
X159182857Y-59825904D02*
X159106667Y-59787809D01*
X159106667Y-59787809D02*
X159068572Y-59749714D01*
X159068572Y-59749714D02*
X159030476Y-59673523D01*
X159030476Y-59673523D02*
X159030476Y-59444952D01*
X159030476Y-59444952D02*
X159068572Y-59368761D01*
X159068572Y-59368761D02*
X159106667Y-59330666D01*
X159106667Y-59330666D02*
X159182857Y-59292571D01*
X159182857Y-59292571D02*
X159335238Y-59292571D01*
X159335238Y-59292571D02*
X159411429Y-59330666D01*
X159640000Y-59292571D02*
X159944762Y-59292571D01*
X159754286Y-59025904D02*
X159754286Y-59711619D01*
X159754286Y-59711619D02*
X159792381Y-59787809D01*
X159792381Y-59787809D02*
X159868571Y-59825904D01*
X159868571Y-59825904D02*
X159944762Y-59825904D01*
X148290476Y-85634761D02*
X148433333Y-85682380D01*
X148433333Y-85682380D02*
X148671428Y-85682380D01*
X148671428Y-85682380D02*
X148766666Y-85634761D01*
X148766666Y-85634761D02*
X148814285Y-85587142D01*
X148814285Y-85587142D02*
X148861904Y-85491904D01*
X148861904Y-85491904D02*
X148861904Y-85396666D01*
X148861904Y-85396666D02*
X148814285Y-85301428D01*
X148814285Y-85301428D02*
X148766666Y-85253809D01*
X148766666Y-85253809D02*
X148671428Y-85206190D01*
X148671428Y-85206190D02*
X148480952Y-85158571D01*
X148480952Y-85158571D02*
X148385714Y-85110952D01*
X148385714Y-85110952D02*
X148338095Y-85063333D01*
X148338095Y-85063333D02*
X148290476Y-84968095D01*
X148290476Y-84968095D02*
X148290476Y-84872857D01*
X148290476Y-84872857D02*
X148338095Y-84777619D01*
X148338095Y-84777619D02*
X148385714Y-84730000D01*
X148385714Y-84730000D02*
X148480952Y-84682380D01*
X148480952Y-84682380D02*
X148719047Y-84682380D01*
X148719047Y-84682380D02*
X148861904Y-84730000D01*
X149147619Y-85015714D02*
X149528571Y-85015714D01*
X149290476Y-84682380D02*
X149290476Y-85539523D01*
X149290476Y-85539523D02*
X149338095Y-85634761D01*
X149338095Y-85634761D02*
X149433333Y-85682380D01*
X149433333Y-85682380D02*
X149528571Y-85682380D01*
X150004762Y-85682380D02*
X149909524Y-85634761D01*
X149909524Y-85634761D02*
X149861905Y-85587142D01*
X149861905Y-85587142D02*
X149814286Y-85491904D01*
X149814286Y-85491904D02*
X149814286Y-85206190D01*
X149814286Y-85206190D02*
X149861905Y-85110952D01*
X149861905Y-85110952D02*
X149909524Y-85063333D01*
X149909524Y-85063333D02*
X150004762Y-85015714D01*
X150004762Y-85015714D02*
X150147619Y-85015714D01*
X150147619Y-85015714D02*
X150242857Y-85063333D01*
X150242857Y-85063333D02*
X150290476Y-85110952D01*
X150290476Y-85110952D02*
X150338095Y-85206190D01*
X150338095Y-85206190D02*
X150338095Y-85491904D01*
X150338095Y-85491904D02*
X150290476Y-85587142D01*
X150290476Y-85587142D02*
X150242857Y-85634761D01*
X150242857Y-85634761D02*
X150147619Y-85682380D01*
X150147619Y-85682380D02*
X150004762Y-85682380D01*
X150766667Y-85015714D02*
X150766667Y-86015714D01*
X150766667Y-85063333D02*
X150861905Y-85015714D01*
X150861905Y-85015714D02*
X151052381Y-85015714D01*
X151052381Y-85015714D02*
X151147619Y-85063333D01*
X151147619Y-85063333D02*
X151195238Y-85110952D01*
X151195238Y-85110952D02*
X151242857Y-85206190D01*
X151242857Y-85206190D02*
X151242857Y-85491904D01*
X151242857Y-85491904D02*
X151195238Y-85587142D01*
X151195238Y-85587142D02*
X151147619Y-85634761D01*
X151147619Y-85634761D02*
X151052381Y-85682380D01*
X151052381Y-85682380D02*
X150861905Y-85682380D01*
X150861905Y-85682380D02*
X150766667Y-85634761D01*
X148090476Y-74234761D02*
X148233333Y-74282380D01*
X148233333Y-74282380D02*
X148471428Y-74282380D01*
X148471428Y-74282380D02*
X148566666Y-74234761D01*
X148566666Y-74234761D02*
X148614285Y-74187142D01*
X148614285Y-74187142D02*
X148661904Y-74091904D01*
X148661904Y-74091904D02*
X148661904Y-73996666D01*
X148661904Y-73996666D02*
X148614285Y-73901428D01*
X148614285Y-73901428D02*
X148566666Y-73853809D01*
X148566666Y-73853809D02*
X148471428Y-73806190D01*
X148471428Y-73806190D02*
X148280952Y-73758571D01*
X148280952Y-73758571D02*
X148185714Y-73710952D01*
X148185714Y-73710952D02*
X148138095Y-73663333D01*
X148138095Y-73663333D02*
X148090476Y-73568095D01*
X148090476Y-73568095D02*
X148090476Y-73472857D01*
X148090476Y-73472857D02*
X148138095Y-73377619D01*
X148138095Y-73377619D02*
X148185714Y-73330000D01*
X148185714Y-73330000D02*
X148280952Y-73282380D01*
X148280952Y-73282380D02*
X148519047Y-73282380D01*
X148519047Y-73282380D02*
X148661904Y-73330000D01*
X149233333Y-74282380D02*
X149138095Y-74234761D01*
X149138095Y-74234761D02*
X149090476Y-74139523D01*
X149090476Y-74139523D02*
X149090476Y-73282380D01*
X149757143Y-74282380D02*
X149661905Y-74234761D01*
X149661905Y-74234761D02*
X149614286Y-74187142D01*
X149614286Y-74187142D02*
X149566667Y-74091904D01*
X149566667Y-74091904D02*
X149566667Y-73806190D01*
X149566667Y-73806190D02*
X149614286Y-73710952D01*
X149614286Y-73710952D02*
X149661905Y-73663333D01*
X149661905Y-73663333D02*
X149757143Y-73615714D01*
X149757143Y-73615714D02*
X149900000Y-73615714D01*
X149900000Y-73615714D02*
X149995238Y-73663333D01*
X149995238Y-73663333D02*
X150042857Y-73710952D01*
X150042857Y-73710952D02*
X150090476Y-73806190D01*
X150090476Y-73806190D02*
X150090476Y-74091904D01*
X150090476Y-74091904D02*
X150042857Y-74187142D01*
X150042857Y-74187142D02*
X149995238Y-74234761D01*
X149995238Y-74234761D02*
X149900000Y-74282380D01*
X149900000Y-74282380D02*
X149757143Y-74282380D01*
X150423810Y-73615714D02*
X150614286Y-74282380D01*
X150614286Y-74282380D02*
X150804762Y-73806190D01*
X150804762Y-73806190D02*
X150995238Y-74282380D01*
X150995238Y-74282380D02*
X151185714Y-73615714D01*
X152609523Y-101587142D02*
X152561904Y-101634761D01*
X152561904Y-101634761D02*
X152419047Y-101682380D01*
X152419047Y-101682380D02*
X152323809Y-101682380D01*
X152323809Y-101682380D02*
X152180952Y-101634761D01*
X152180952Y-101634761D02*
X152085714Y-101539523D01*
X152085714Y-101539523D02*
X152038095Y-101444285D01*
X152038095Y-101444285D02*
X151990476Y-101253809D01*
X151990476Y-101253809D02*
X151990476Y-101110952D01*
X151990476Y-101110952D02*
X152038095Y-100920476D01*
X152038095Y-100920476D02*
X152085714Y-100825238D01*
X152085714Y-100825238D02*
X152180952Y-100730000D01*
X152180952Y-100730000D02*
X152323809Y-100682380D01*
X152323809Y-100682380D02*
X152419047Y-100682380D01*
X152419047Y-100682380D02*
X152561904Y-100730000D01*
X152561904Y-100730000D02*
X152609523Y-100777619D01*
X153038095Y-101682380D02*
X153038095Y-101015714D01*
X153038095Y-101206190D02*
X153085714Y-101110952D01*
X153085714Y-101110952D02*
X153133333Y-101063333D01*
X153133333Y-101063333D02*
X153228571Y-101015714D01*
X153228571Y-101015714D02*
X153323809Y-101015714D01*
X153800000Y-101682380D02*
X153704762Y-101634761D01*
X153704762Y-101634761D02*
X153657143Y-101587142D01*
X153657143Y-101587142D02*
X153609524Y-101491904D01*
X153609524Y-101491904D02*
X153609524Y-101206190D01*
X153609524Y-101206190D02*
X153657143Y-101110952D01*
X153657143Y-101110952D02*
X153704762Y-101063333D01*
X153704762Y-101063333D02*
X153800000Y-101015714D01*
X153800000Y-101015714D02*
X153942857Y-101015714D01*
X153942857Y-101015714D02*
X154038095Y-101063333D01*
X154038095Y-101063333D02*
X154085714Y-101110952D01*
X154085714Y-101110952D02*
X154133333Y-101206190D01*
X154133333Y-101206190D02*
X154133333Y-101491904D01*
X154133333Y-101491904D02*
X154085714Y-101587142D01*
X154085714Y-101587142D02*
X154038095Y-101634761D01*
X154038095Y-101634761D02*
X153942857Y-101682380D01*
X153942857Y-101682380D02*
X153800000Y-101682380D01*
X154514286Y-101634761D02*
X154609524Y-101682380D01*
X154609524Y-101682380D02*
X154800000Y-101682380D01*
X154800000Y-101682380D02*
X154895238Y-101634761D01*
X154895238Y-101634761D02*
X154942857Y-101539523D01*
X154942857Y-101539523D02*
X154942857Y-101491904D01*
X154942857Y-101491904D02*
X154895238Y-101396666D01*
X154895238Y-101396666D02*
X154800000Y-101349047D01*
X154800000Y-101349047D02*
X154657143Y-101349047D01*
X154657143Y-101349047D02*
X154561905Y-101301428D01*
X154561905Y-101301428D02*
X154514286Y-101206190D01*
X154514286Y-101206190D02*
X154514286Y-101158571D01*
X154514286Y-101158571D02*
X154561905Y-101063333D01*
X154561905Y-101063333D02*
X154657143Y-101015714D01*
X154657143Y-101015714D02*
X154800000Y-101015714D01*
X154800000Y-101015714D02*
X154895238Y-101063333D01*
X155323810Y-101634761D02*
X155419048Y-101682380D01*
X155419048Y-101682380D02*
X155609524Y-101682380D01*
X155609524Y-101682380D02*
X155704762Y-101634761D01*
X155704762Y-101634761D02*
X155752381Y-101539523D01*
X155752381Y-101539523D02*
X155752381Y-101491904D01*
X155752381Y-101491904D02*
X155704762Y-101396666D01*
X155704762Y-101396666D02*
X155609524Y-101349047D01*
X155609524Y-101349047D02*
X155466667Y-101349047D01*
X155466667Y-101349047D02*
X155371429Y-101301428D01*
X155371429Y-101301428D02*
X155323810Y-101206190D01*
X155323810Y-101206190D02*
X155323810Y-101158571D01*
X155323810Y-101158571D02*
X155371429Y-101063333D01*
X155371429Y-101063333D02*
X155466667Y-101015714D01*
X155466667Y-101015714D02*
X155609524Y-101015714D01*
X155609524Y-101015714D02*
X155704762Y-101063333D01*
X121676190Y-122325904D02*
X121942857Y-123125904D01*
X121942857Y-123125904D02*
X122209523Y-122325904D01*
X122780952Y-123087809D02*
X122704761Y-123125904D01*
X122704761Y-123125904D02*
X122552380Y-123125904D01*
X122552380Y-123125904D02*
X122476190Y-123087809D01*
X122476190Y-123087809D02*
X122438094Y-123011619D01*
X122438094Y-123011619D02*
X122438094Y-122706857D01*
X122438094Y-122706857D02*
X122476190Y-122630666D01*
X122476190Y-122630666D02*
X122552380Y-122592571D01*
X122552380Y-122592571D02*
X122704761Y-122592571D01*
X122704761Y-122592571D02*
X122780952Y-122630666D01*
X122780952Y-122630666D02*
X122819047Y-122706857D01*
X122819047Y-122706857D02*
X122819047Y-122783047D01*
X122819047Y-122783047D02*
X122438094Y-122859238D01*
X123161904Y-123125904D02*
X123161904Y-122592571D01*
X123161904Y-122744952D02*
X123199999Y-122668761D01*
X123199999Y-122668761D02*
X123238094Y-122630666D01*
X123238094Y-122630666D02*
X123314285Y-122592571D01*
X123314285Y-122592571D02*
X123390475Y-122592571D01*
X123619046Y-123087809D02*
X123695237Y-123125904D01*
X123695237Y-123125904D02*
X123847618Y-123125904D01*
X123847618Y-123125904D02*
X123923808Y-123087809D01*
X123923808Y-123087809D02*
X123961904Y-123011619D01*
X123961904Y-123011619D02*
X123961904Y-122973523D01*
X123961904Y-122973523D02*
X123923808Y-122897333D01*
X123923808Y-122897333D02*
X123847618Y-122859238D01*
X123847618Y-122859238D02*
X123733332Y-122859238D01*
X123733332Y-122859238D02*
X123657142Y-122821142D01*
X123657142Y-122821142D02*
X123619046Y-122744952D01*
X123619046Y-122744952D02*
X123619046Y-122706857D01*
X123619046Y-122706857D02*
X123657142Y-122630666D01*
X123657142Y-122630666D02*
X123733332Y-122592571D01*
X123733332Y-122592571D02*
X123847618Y-122592571D01*
X123847618Y-122592571D02*
X123923808Y-122630666D01*
X124304761Y-123125904D02*
X124304761Y-122592571D01*
X124304761Y-122325904D02*
X124266665Y-122364000D01*
X124266665Y-122364000D02*
X124304761Y-122402095D01*
X124304761Y-122402095D02*
X124342856Y-122364000D01*
X124342856Y-122364000D02*
X124304761Y-122325904D01*
X124304761Y-122325904D02*
X124304761Y-122402095D01*
X124799998Y-123125904D02*
X124723808Y-123087809D01*
X124723808Y-123087809D02*
X124685713Y-123049714D01*
X124685713Y-123049714D02*
X124647617Y-122973523D01*
X124647617Y-122973523D02*
X124647617Y-122744952D01*
X124647617Y-122744952D02*
X124685713Y-122668761D01*
X124685713Y-122668761D02*
X124723808Y-122630666D01*
X124723808Y-122630666D02*
X124799998Y-122592571D01*
X124799998Y-122592571D02*
X124914284Y-122592571D01*
X124914284Y-122592571D02*
X124990475Y-122630666D01*
X124990475Y-122630666D02*
X125028570Y-122668761D01*
X125028570Y-122668761D02*
X125066665Y-122744952D01*
X125066665Y-122744952D02*
X125066665Y-122973523D01*
X125066665Y-122973523D02*
X125028570Y-123049714D01*
X125028570Y-123049714D02*
X124990475Y-123087809D01*
X124990475Y-123087809D02*
X124914284Y-123125904D01*
X124914284Y-123125904D02*
X124799998Y-123125904D01*
X125409523Y-122592571D02*
X125409523Y-123125904D01*
X125409523Y-122668761D02*
X125447618Y-122630666D01*
X125447618Y-122630666D02*
X125523808Y-122592571D01*
X125523808Y-122592571D02*
X125638094Y-122592571D01*
X125638094Y-122592571D02*
X125714285Y-122630666D01*
X125714285Y-122630666D02*
X125752380Y-122706857D01*
X125752380Y-122706857D02*
X125752380Y-123125904D01*
X127032380Y-123125904D02*
X126575237Y-123125904D01*
X126803809Y-123125904D02*
X126803809Y-122325904D01*
X126803809Y-122325904D02*
X126727618Y-122440190D01*
X126727618Y-122440190D02*
X126651428Y-122516380D01*
X126651428Y-122516380D02*
X126575237Y-122554476D01*
X127375238Y-123049714D02*
X127413333Y-123087809D01*
X127413333Y-123087809D02*
X127375238Y-123125904D01*
X127375238Y-123125904D02*
X127337142Y-123087809D01*
X127337142Y-123087809D02*
X127375238Y-123049714D01*
X127375238Y-123049714D02*
X127375238Y-123125904D01*
X127908571Y-122325904D02*
X127984761Y-122325904D01*
X127984761Y-122325904D02*
X128060952Y-122364000D01*
X128060952Y-122364000D02*
X128099047Y-122402095D01*
X128099047Y-122402095D02*
X128137142Y-122478285D01*
X128137142Y-122478285D02*
X128175237Y-122630666D01*
X128175237Y-122630666D02*
X128175237Y-122821142D01*
X128175237Y-122821142D02*
X128137142Y-122973523D01*
X128137142Y-122973523D02*
X128099047Y-123049714D01*
X128099047Y-123049714D02*
X128060952Y-123087809D01*
X128060952Y-123087809D02*
X127984761Y-123125904D01*
X127984761Y-123125904D02*
X127908571Y-123125904D01*
X127908571Y-123125904D02*
X127832380Y-123087809D01*
X127832380Y-123087809D02*
X127794285Y-123049714D01*
X127794285Y-123049714D02*
X127756190Y-122973523D01*
X127756190Y-122973523D02*
X127718094Y-122821142D01*
X127718094Y-122821142D02*
X127718094Y-122630666D01*
X127718094Y-122630666D02*
X127756190Y-122478285D01*
X127756190Y-122478285D02*
X127794285Y-122402095D01*
X127794285Y-122402095D02*
X127832380Y-122364000D01*
X127832380Y-122364000D02*
X127908571Y-122325904D01*
X148861904Y-62330000D02*
X148766666Y-62282380D01*
X148766666Y-62282380D02*
X148623809Y-62282380D01*
X148623809Y-62282380D02*
X148480952Y-62330000D01*
X148480952Y-62330000D02*
X148385714Y-62425238D01*
X148385714Y-62425238D02*
X148338095Y-62520476D01*
X148338095Y-62520476D02*
X148290476Y-62710952D01*
X148290476Y-62710952D02*
X148290476Y-62853809D01*
X148290476Y-62853809D02*
X148338095Y-63044285D01*
X148338095Y-63044285D02*
X148385714Y-63139523D01*
X148385714Y-63139523D02*
X148480952Y-63234761D01*
X148480952Y-63234761D02*
X148623809Y-63282380D01*
X148623809Y-63282380D02*
X148719047Y-63282380D01*
X148719047Y-63282380D02*
X148861904Y-63234761D01*
X148861904Y-63234761D02*
X148909523Y-63187142D01*
X148909523Y-63187142D02*
X148909523Y-62853809D01*
X148909523Y-62853809D02*
X148719047Y-62853809D01*
X149480952Y-63282380D02*
X149385714Y-63234761D01*
X149385714Y-63234761D02*
X149338095Y-63187142D01*
X149338095Y-63187142D02*
X149290476Y-63091904D01*
X149290476Y-63091904D02*
X149290476Y-62806190D01*
X149290476Y-62806190D02*
X149338095Y-62710952D01*
X149338095Y-62710952D02*
X149385714Y-62663333D01*
X149385714Y-62663333D02*
X149480952Y-62615714D01*
X149480952Y-62615714D02*
X149623809Y-62615714D01*
X149623809Y-62615714D02*
X149719047Y-62663333D01*
X149719047Y-62663333D02*
X149766666Y-62710952D01*
X149766666Y-62710952D02*
X149814285Y-62806190D01*
X149814285Y-62806190D02*
X149814285Y-63091904D01*
X149814285Y-63091904D02*
X149766666Y-63187142D01*
X149766666Y-63187142D02*
X149719047Y-63234761D01*
X149719047Y-63234761D02*
X149623809Y-63282380D01*
X149623809Y-63282380D02*
X149480952Y-63282380D01*
%TO.C,D1*%
X139361905Y-60767380D02*
X139361905Y-59767380D01*
X139361905Y-59767380D02*
X139600000Y-59767380D01*
X139600000Y-59767380D02*
X139742857Y-59815000D01*
X139742857Y-59815000D02*
X139838095Y-59910238D01*
X139838095Y-59910238D02*
X139885714Y-60005476D01*
X139885714Y-60005476D02*
X139933333Y-60195952D01*
X139933333Y-60195952D02*
X139933333Y-60338809D01*
X139933333Y-60338809D02*
X139885714Y-60529285D01*
X139885714Y-60529285D02*
X139838095Y-60624523D01*
X139838095Y-60624523D02*
X139742857Y-60719761D01*
X139742857Y-60719761D02*
X139600000Y-60767380D01*
X139600000Y-60767380D02*
X139361905Y-60767380D01*
X140885714Y-60767380D02*
X140314286Y-60767380D01*
X140600000Y-60767380D02*
X140600000Y-59767380D01*
X140600000Y-59767380D02*
X140504762Y-59910238D01*
X140504762Y-59910238D02*
X140409524Y-60005476D01*
X140409524Y-60005476D02*
X140314286Y-60053095D01*
%TO.C,D2*%
X139061905Y-71467380D02*
X139061905Y-70467380D01*
X139061905Y-70467380D02*
X139300000Y-70467380D01*
X139300000Y-70467380D02*
X139442857Y-70515000D01*
X139442857Y-70515000D02*
X139538095Y-70610238D01*
X139538095Y-70610238D02*
X139585714Y-70705476D01*
X139585714Y-70705476D02*
X139633333Y-70895952D01*
X139633333Y-70895952D02*
X139633333Y-71038809D01*
X139633333Y-71038809D02*
X139585714Y-71229285D01*
X139585714Y-71229285D02*
X139538095Y-71324523D01*
X139538095Y-71324523D02*
X139442857Y-71419761D01*
X139442857Y-71419761D02*
X139300000Y-71467380D01*
X139300000Y-71467380D02*
X139061905Y-71467380D01*
X140014286Y-70562619D02*
X140061905Y-70515000D01*
X140061905Y-70515000D02*
X140157143Y-70467380D01*
X140157143Y-70467380D02*
X140395238Y-70467380D01*
X140395238Y-70467380D02*
X140490476Y-70515000D01*
X140490476Y-70515000D02*
X140538095Y-70562619D01*
X140538095Y-70562619D02*
X140585714Y-70657857D01*
X140585714Y-70657857D02*
X140585714Y-70753095D01*
X140585714Y-70753095D02*
X140538095Y-70895952D01*
X140538095Y-70895952D02*
X139966667Y-71467380D01*
X139966667Y-71467380D02*
X140585714Y-71467380D01*
%TO.C,D3*%
X139261905Y-82667380D02*
X139261905Y-81667380D01*
X139261905Y-81667380D02*
X139500000Y-81667380D01*
X139500000Y-81667380D02*
X139642857Y-81715000D01*
X139642857Y-81715000D02*
X139738095Y-81810238D01*
X139738095Y-81810238D02*
X139785714Y-81905476D01*
X139785714Y-81905476D02*
X139833333Y-82095952D01*
X139833333Y-82095952D02*
X139833333Y-82238809D01*
X139833333Y-82238809D02*
X139785714Y-82429285D01*
X139785714Y-82429285D02*
X139738095Y-82524523D01*
X139738095Y-82524523D02*
X139642857Y-82619761D01*
X139642857Y-82619761D02*
X139500000Y-82667380D01*
X139500000Y-82667380D02*
X139261905Y-82667380D01*
X140166667Y-81667380D02*
X140785714Y-81667380D01*
X140785714Y-81667380D02*
X140452381Y-82048333D01*
X140452381Y-82048333D02*
X140595238Y-82048333D01*
X140595238Y-82048333D02*
X140690476Y-82095952D01*
X140690476Y-82095952D02*
X140738095Y-82143571D01*
X140738095Y-82143571D02*
X140785714Y-82238809D01*
X140785714Y-82238809D02*
X140785714Y-82476904D01*
X140785714Y-82476904D02*
X140738095Y-82572142D01*
X140738095Y-82572142D02*
X140690476Y-82619761D01*
X140690476Y-82619761D02*
X140595238Y-82667380D01*
X140595238Y-82667380D02*
X140309524Y-82667380D01*
X140309524Y-82667380D02*
X140214286Y-82619761D01*
X140214286Y-82619761D02*
X140166667Y-82572142D01*
%TO.C,R3*%
X139533333Y-88367380D02*
X139200000Y-87891190D01*
X138961905Y-88367380D02*
X138961905Y-87367380D01*
X138961905Y-87367380D02*
X139342857Y-87367380D01*
X139342857Y-87367380D02*
X139438095Y-87415000D01*
X139438095Y-87415000D02*
X139485714Y-87462619D01*
X139485714Y-87462619D02*
X139533333Y-87557857D01*
X139533333Y-87557857D02*
X139533333Y-87700714D01*
X139533333Y-87700714D02*
X139485714Y-87795952D01*
X139485714Y-87795952D02*
X139438095Y-87843571D01*
X139438095Y-87843571D02*
X139342857Y-87891190D01*
X139342857Y-87891190D02*
X138961905Y-87891190D01*
X139866667Y-87367380D02*
X140485714Y-87367380D01*
X140485714Y-87367380D02*
X140152381Y-87748333D01*
X140152381Y-87748333D02*
X140295238Y-87748333D01*
X140295238Y-87748333D02*
X140390476Y-87795952D01*
X140390476Y-87795952D02*
X140438095Y-87843571D01*
X140438095Y-87843571D02*
X140485714Y-87938809D01*
X140485714Y-87938809D02*
X140485714Y-88176904D01*
X140485714Y-88176904D02*
X140438095Y-88272142D01*
X140438095Y-88272142D02*
X140390476Y-88319761D01*
X140390476Y-88319761D02*
X140295238Y-88367380D01*
X140295238Y-88367380D02*
X140009524Y-88367380D01*
X140009524Y-88367380D02*
X139914286Y-88319761D01*
X139914286Y-88319761D02*
X139866667Y-88272142D01*
%TO.C,SW1*%
X130266667Y-111169761D02*
X130409524Y-111217380D01*
X130409524Y-111217380D02*
X130647619Y-111217380D01*
X130647619Y-111217380D02*
X130742857Y-111169761D01*
X130742857Y-111169761D02*
X130790476Y-111122142D01*
X130790476Y-111122142D02*
X130838095Y-111026904D01*
X130838095Y-111026904D02*
X130838095Y-110931666D01*
X130838095Y-110931666D02*
X130790476Y-110836428D01*
X130790476Y-110836428D02*
X130742857Y-110788809D01*
X130742857Y-110788809D02*
X130647619Y-110741190D01*
X130647619Y-110741190D02*
X130457143Y-110693571D01*
X130457143Y-110693571D02*
X130361905Y-110645952D01*
X130361905Y-110645952D02*
X130314286Y-110598333D01*
X130314286Y-110598333D02*
X130266667Y-110503095D01*
X130266667Y-110503095D02*
X130266667Y-110407857D01*
X130266667Y-110407857D02*
X130314286Y-110312619D01*
X130314286Y-110312619D02*
X130361905Y-110265000D01*
X130361905Y-110265000D02*
X130457143Y-110217380D01*
X130457143Y-110217380D02*
X130695238Y-110217380D01*
X130695238Y-110217380D02*
X130838095Y-110265000D01*
X131171429Y-110217380D02*
X131409524Y-111217380D01*
X131409524Y-111217380D02*
X131600000Y-110503095D01*
X131600000Y-110503095D02*
X131790476Y-111217380D01*
X131790476Y-111217380D02*
X132028572Y-110217380D01*
X132933333Y-111217380D02*
X132361905Y-111217380D01*
X132647619Y-111217380D02*
X132647619Y-110217380D01*
X132647619Y-110217380D02*
X132552381Y-110360238D01*
X132552381Y-110360238D02*
X132457143Y-110455476D01*
X132457143Y-110455476D02*
X132361905Y-110503095D01*
%TO.C,LS1*%
X162857142Y-117167380D02*
X162380952Y-117167380D01*
X162380952Y-117167380D02*
X162380952Y-116167380D01*
X163142857Y-117119761D02*
X163285714Y-117167380D01*
X163285714Y-117167380D02*
X163523809Y-117167380D01*
X163523809Y-117167380D02*
X163619047Y-117119761D01*
X163619047Y-117119761D02*
X163666666Y-117072142D01*
X163666666Y-117072142D02*
X163714285Y-116976904D01*
X163714285Y-116976904D02*
X163714285Y-116881666D01*
X163714285Y-116881666D02*
X163666666Y-116786428D01*
X163666666Y-116786428D02*
X163619047Y-116738809D01*
X163619047Y-116738809D02*
X163523809Y-116691190D01*
X163523809Y-116691190D02*
X163333333Y-116643571D01*
X163333333Y-116643571D02*
X163238095Y-116595952D01*
X163238095Y-116595952D02*
X163190476Y-116548333D01*
X163190476Y-116548333D02*
X163142857Y-116453095D01*
X163142857Y-116453095D02*
X163142857Y-116357857D01*
X163142857Y-116357857D02*
X163190476Y-116262619D01*
X163190476Y-116262619D02*
X163238095Y-116215000D01*
X163238095Y-116215000D02*
X163333333Y-116167380D01*
X163333333Y-116167380D02*
X163571428Y-116167380D01*
X163571428Y-116167380D02*
X163714285Y-116215000D01*
X164666666Y-117167380D02*
X164095238Y-117167380D01*
X164380952Y-117167380D02*
X164380952Y-116167380D01*
X164380952Y-116167380D02*
X164285714Y-116310238D01*
X164285714Y-116310238D02*
X164190476Y-116405476D01*
X164190476Y-116405476D02*
X164095238Y-116453095D01*
X160229048Y-115126428D02*
X160990953Y-115126428D01*
X160610000Y-115507380D02*
X160610000Y-114745476D01*
%TO.C,R5*%
X157733333Y-123767380D02*
X157400000Y-123291190D01*
X157161905Y-123767380D02*
X157161905Y-122767380D01*
X157161905Y-122767380D02*
X157542857Y-122767380D01*
X157542857Y-122767380D02*
X157638095Y-122815000D01*
X157638095Y-122815000D02*
X157685714Y-122862619D01*
X157685714Y-122862619D02*
X157733333Y-122957857D01*
X157733333Y-122957857D02*
X157733333Y-123100714D01*
X157733333Y-123100714D02*
X157685714Y-123195952D01*
X157685714Y-123195952D02*
X157638095Y-123243571D01*
X157638095Y-123243571D02*
X157542857Y-123291190D01*
X157542857Y-123291190D02*
X157161905Y-123291190D01*
X158638095Y-122767380D02*
X158161905Y-122767380D01*
X158161905Y-122767380D02*
X158114286Y-123243571D01*
X158114286Y-123243571D02*
X158161905Y-123195952D01*
X158161905Y-123195952D02*
X158257143Y-123148333D01*
X158257143Y-123148333D02*
X158495238Y-123148333D01*
X158495238Y-123148333D02*
X158590476Y-123195952D01*
X158590476Y-123195952D02*
X158638095Y-123243571D01*
X158638095Y-123243571D02*
X158685714Y-123338809D01*
X158685714Y-123338809D02*
X158685714Y-123576904D01*
X158685714Y-123576904D02*
X158638095Y-123672142D01*
X158638095Y-123672142D02*
X158590476Y-123719761D01*
X158590476Y-123719761D02*
X158495238Y-123767380D01*
X158495238Y-123767380D02*
X158257143Y-123767380D01*
X158257143Y-123767380D02*
X158161905Y-123719761D01*
X158161905Y-123719761D02*
X158114286Y-123672142D01*
%TO.C,D4*%
X158791905Y-97407380D02*
X158791905Y-96407380D01*
X158791905Y-96407380D02*
X159030000Y-96407380D01*
X159030000Y-96407380D02*
X159172857Y-96455000D01*
X159172857Y-96455000D02*
X159268095Y-96550238D01*
X159268095Y-96550238D02*
X159315714Y-96645476D01*
X159315714Y-96645476D02*
X159363333Y-96835952D01*
X159363333Y-96835952D02*
X159363333Y-96978809D01*
X159363333Y-96978809D02*
X159315714Y-97169285D01*
X159315714Y-97169285D02*
X159268095Y-97264523D01*
X159268095Y-97264523D02*
X159172857Y-97359761D01*
X159172857Y-97359761D02*
X159030000Y-97407380D01*
X159030000Y-97407380D02*
X158791905Y-97407380D01*
X160220476Y-96740714D02*
X160220476Y-97407380D01*
X159982381Y-96359761D02*
X159744286Y-97074047D01*
X159744286Y-97074047D02*
X160363333Y-97074047D01*
%TO.C,R2*%
X139433333Y-77367380D02*
X139100000Y-76891190D01*
X138861905Y-77367380D02*
X138861905Y-76367380D01*
X138861905Y-76367380D02*
X139242857Y-76367380D01*
X139242857Y-76367380D02*
X139338095Y-76415000D01*
X139338095Y-76415000D02*
X139385714Y-76462619D01*
X139385714Y-76462619D02*
X139433333Y-76557857D01*
X139433333Y-76557857D02*
X139433333Y-76700714D01*
X139433333Y-76700714D02*
X139385714Y-76795952D01*
X139385714Y-76795952D02*
X139338095Y-76843571D01*
X139338095Y-76843571D02*
X139242857Y-76891190D01*
X139242857Y-76891190D02*
X138861905Y-76891190D01*
X139814286Y-76462619D02*
X139861905Y-76415000D01*
X139861905Y-76415000D02*
X139957143Y-76367380D01*
X139957143Y-76367380D02*
X140195238Y-76367380D01*
X140195238Y-76367380D02*
X140290476Y-76415000D01*
X140290476Y-76415000D02*
X140338095Y-76462619D01*
X140338095Y-76462619D02*
X140385714Y-76557857D01*
X140385714Y-76557857D02*
X140385714Y-76653095D01*
X140385714Y-76653095D02*
X140338095Y-76795952D01*
X140338095Y-76795952D02*
X139766667Y-77367380D01*
X139766667Y-77367380D02*
X140385714Y-77367380D01*
%TO.C,R1*%
X139033333Y-66467380D02*
X138700000Y-65991190D01*
X138461905Y-66467380D02*
X138461905Y-65467380D01*
X138461905Y-65467380D02*
X138842857Y-65467380D01*
X138842857Y-65467380D02*
X138938095Y-65515000D01*
X138938095Y-65515000D02*
X138985714Y-65562619D01*
X138985714Y-65562619D02*
X139033333Y-65657857D01*
X139033333Y-65657857D02*
X139033333Y-65800714D01*
X139033333Y-65800714D02*
X138985714Y-65895952D01*
X138985714Y-65895952D02*
X138938095Y-65943571D01*
X138938095Y-65943571D02*
X138842857Y-65991190D01*
X138842857Y-65991190D02*
X138461905Y-65991190D01*
X139985714Y-66467380D02*
X139414286Y-66467380D01*
X139700000Y-66467380D02*
X139700000Y-65467380D01*
X139700000Y-65467380D02*
X139604762Y-65610238D01*
X139604762Y-65610238D02*
X139509524Y-65705476D01*
X139509524Y-65705476D02*
X139414286Y-65753095D01*
%TO.C,R4*%
X142853333Y-115197380D02*
X142520000Y-114721190D01*
X142281905Y-115197380D02*
X142281905Y-114197380D01*
X142281905Y-114197380D02*
X142662857Y-114197380D01*
X142662857Y-114197380D02*
X142758095Y-114245000D01*
X142758095Y-114245000D02*
X142805714Y-114292619D01*
X142805714Y-114292619D02*
X142853333Y-114387857D01*
X142853333Y-114387857D02*
X142853333Y-114530714D01*
X142853333Y-114530714D02*
X142805714Y-114625952D01*
X142805714Y-114625952D02*
X142758095Y-114673571D01*
X142758095Y-114673571D02*
X142662857Y-114721190D01*
X142662857Y-114721190D02*
X142281905Y-114721190D01*
X143710476Y-114530714D02*
X143710476Y-115197380D01*
X143472381Y-114149761D02*
X143234286Y-114864047D01*
X143234286Y-114864047D02*
X143853333Y-114864047D01*
D10*
%TO.C,J2*%
X166282400Y-57806200D02*
X166282400Y-121426200D01*
X166282400Y-57806200D02*
X168882400Y-57806200D01*
X166282400Y-121426200D02*
X171482400Y-121426200D01*
X168882400Y-57806200D02*
X168882400Y-60406200D01*
X168882400Y-60406200D02*
X171482400Y-60406200D01*
X170152400Y-57806200D02*
X171482400Y-57806200D01*
X171482400Y-57806200D02*
X171482400Y-59136200D01*
X171482400Y-60406200D02*
X171482400Y-121426200D01*
%TO.C,D1*%
X141670000Y-61455000D02*
X141670000Y-64545000D01*
X147219999Y-63000462D02*
G75*
G03*
X141670001Y-61455170I-2989999J462D01*
G01*
X141670000Y-64544830D02*
G75*
G03*
X147220000Y-62999538I2560000J1544830D01*
G01*
X146730000Y-63000000D02*
G75*
G03*
X146730000Y-63000000I-2500000J0D01*
G01*
%TO.C,D2*%
X141635000Y-72255000D02*
X141635000Y-75345000D01*
X147184999Y-73800462D02*
G75*
G03*
X141635001Y-72255170I-2989999J462D01*
G01*
X141635000Y-75344830D02*
G75*
G03*
X147185000Y-73799538I2560000J1544830D01*
G01*
X146695000Y-73800000D02*
G75*
G03*
X146695000Y-73800000I-2500000J0D01*
G01*
%TO.C,D3*%
X141770000Y-83355000D02*
X141770000Y-86445000D01*
X147319999Y-84900462D02*
G75*
G03*
X141770001Y-83355170I-2989999J462D01*
G01*
X141770000Y-86444830D02*
G75*
G03*
X147320000Y-84899538I2560000J1544830D01*
G01*
X146830000Y-84900000D02*
G75*
G03*
X146830000Y-84900000I-2500000J0D01*
G01*
%TO.C,R3*%
X137460000Y-90300000D02*
X138230000Y-90300000D01*
X138230000Y-88930000D02*
X138230000Y-91670000D01*
X138230000Y-91670000D02*
X144770000Y-91670000D01*
X144770000Y-88930000D02*
X138230000Y-88930000D01*
X144770000Y-91670000D02*
X144770000Y-88930000D01*
X145540000Y-90300000D02*
X144770000Y-90300000D01*
%TO.C,SW1*%
X128100000Y-114350000D02*
X128100000Y-115850000D01*
X129350000Y-118350000D02*
X133850000Y-118350000D01*
X133850000Y-111850000D02*
X129350000Y-111850000D01*
X135100000Y-115850000D02*
X135100000Y-114350000D01*
%TO.C,LS1*%
X162900000Y-112600000D02*
G75*
G03*
X162900000Y-112600000I-6100000J0D01*
G01*
%TO.C,J1*%
X115492400Y-57786200D02*
X115492400Y-121406200D01*
X115492400Y-57786200D02*
X118092400Y-57786200D01*
X115492400Y-121406200D02*
X120692400Y-121406200D01*
X118092400Y-57786200D02*
X118092400Y-60386200D01*
X118092400Y-60386200D02*
X120692400Y-60386200D01*
X119362400Y-57786200D02*
X120692400Y-57786200D01*
X120692400Y-57786200D02*
X120692400Y-59116200D01*
X120692400Y-60386200D02*
X120692400Y-121406200D01*
%TO.C,R5*%
X153780000Y-121100000D02*
X154550000Y-121100000D01*
X154550000Y-119730000D02*
X154550000Y-122470000D01*
X154550000Y-122470000D02*
X161090000Y-122470000D01*
X161090000Y-119730000D02*
X154550000Y-119730000D01*
X161090000Y-122470000D02*
X161090000Y-119730000D01*
X161860000Y-121100000D02*
X161090000Y-121100000D01*
%TO.C,D4*%
X156970000Y-99455000D02*
X156970000Y-102545000D01*
X162519999Y-101000462D02*
G75*
G03*
X156970001Y-99455170I-2989999J462D01*
G01*
X156970000Y-102544830D02*
G75*
G03*
X162520000Y-100999538I2560000J1544830D01*
G01*
X162030000Y-101000000D02*
G75*
G03*
X162030000Y-101000000I-2500000J0D01*
G01*
%TO.C,R2*%
X137380000Y-79200000D02*
X138150000Y-79200000D01*
X138150000Y-77830000D02*
X138150000Y-80570000D01*
X138150000Y-80570000D02*
X144690000Y-80570000D01*
X144690000Y-77830000D02*
X138150000Y-77830000D01*
X144690000Y-80570000D02*
X144690000Y-77830000D01*
X145460000Y-79200000D02*
X144690000Y-79200000D01*
%TO.C,R1*%
X137080000Y-68300000D02*
X137850000Y-68300000D01*
X137850000Y-66930000D02*
X137850000Y-69670000D01*
X137850000Y-69670000D02*
X144390000Y-69670000D01*
X144390000Y-66930000D02*
X137850000Y-66930000D01*
X144390000Y-69670000D02*
X144390000Y-66930000D01*
X145160000Y-68300000D02*
X144390000Y-68300000D01*
%TO.C,R4*%
X138980000Y-117200000D02*
X139750000Y-117200000D01*
X139750000Y-115830000D02*
X139750000Y-118570000D01*
X139750000Y-118570000D02*
X146290000Y-118570000D01*
X146290000Y-115830000D02*
X139750000Y-115830000D01*
X146290000Y-118570000D02*
X146290000Y-115830000D01*
X147060000Y-117200000D02*
X146290000Y-117200000D01*
%TD*%
M02*
