%TF.GenerationSoftware,KiCad,Pcbnew,(7.0.0-0)*%
%TF.CreationDate,2023-05-30T21:51:57-06:00*%
%TF.ProjectId,Phase D PCB,50686173-6520-4442-9050-43422e6b6963,rev?*%
%TF.SameCoordinates,Original*%
%TF.FileFunction,Copper,L1,Top*%
%TF.FilePolarity,Positive*%
%FSLAX46Y46*%
G04 Gerber Fmt 4.6, Leading zero omitted, Abs format (unit mm)*
G04 Created by KiCad (PCBNEW (7.0.0-0)) date 2023-05-30 21:51:57*
%MOMM*%
%LPD*%
G01*
G04 APERTURE LIST*
%TA.AperFunction,ComponentPad*%
%ADD10R,1.700000X1.700000*%
%TD*%
%TA.AperFunction,ComponentPad*%
%ADD11O,1.700000X1.700000*%
%TD*%
%TA.AperFunction,ComponentPad*%
%ADD12R,1.800000X1.800000*%
%TD*%
%TA.AperFunction,ComponentPad*%
%ADD13C,1.800000*%
%TD*%
%TA.AperFunction,ComponentPad*%
%ADD14C,1.600000*%
%TD*%
%TA.AperFunction,ComponentPad*%
%ADD15O,1.600000X1.600000*%
%TD*%
%TA.AperFunction,ComponentPad*%
%ADD16C,2.000000*%
%TD*%
%TA.AperFunction,ComponentPad*%
%ADD17R,2.000000X2.000000*%
%TD*%
%TA.AperFunction,ViaPad*%
%ADD18C,0.800000*%
%TD*%
%TA.AperFunction,Conductor*%
%ADD19C,0.250000*%
%TD*%
%TA.AperFunction,Conductor*%
%ADD20C,0.203200*%
%TD*%
G04 APERTURE END LIST*
D10*
%TO.P,J2,1,Pin_1*%
%TO.N,GND*%
X170152399Y-59136199D03*
D11*
%TO.P,J2,2,Pin_2*%
X167612399Y-59136199D03*
%TO.P,J2,3,Pin_3*%
%TO.N,+5V*%
X170152399Y-61676199D03*
%TO.P,J2,4,Pin_4*%
X167612399Y-61676199D03*
%TO.P,J2,5,Pin_5*%
%TO.N,+3V0*%
X170152399Y-64216199D03*
%TO.P,J2,6,Pin_6*%
X167612399Y-64216199D03*
%TO.P,J2,7,Pin_7*%
%TO.N,unconnected-(J2-Pin_7-Pad7)*%
X170152399Y-66756199D03*
%TO.P,J2,8,Pin_8*%
%TO.N,unconnected-(J2-Pin_8-Pad8)*%
X167612399Y-66756199D03*
%TO.P,J2,9,Pin_9*%
%TO.N,unconnected-(J2-Pin_9-Pad9)*%
X170152399Y-69296199D03*
%TO.P,J2,10,Pin_10*%
%TO.N,unconnected-(J2-Pin_10-Pad10)*%
X167612399Y-69296199D03*
%TO.P,J2,11,Pin_11*%
%TO.N,unconnected-(J2-Pin_11-Pad11)*%
X170152399Y-71836199D03*
%TO.P,J2,12,Pin_12*%
%TO.N,unconnected-(J2-Pin_12-Pad12)*%
X167612399Y-71836199D03*
%TO.P,J2,13,Pin_13*%
%TO.N,unconnected-(J2-Pin_13-Pad13)*%
X170152399Y-74376199D03*
%TO.P,J2,14,Pin_14*%
%TO.N,unconnected-(J2-Pin_14-Pad14)*%
X167612399Y-74376199D03*
%TO.P,J2,15,Pin_15*%
%TO.N,unconnected-(J2-Pin_15-Pad15)*%
X170152399Y-76916199D03*
%TO.P,J2,16,Pin_16*%
%TO.N,unconnected-(J2-Pin_16-Pad16)*%
X167612399Y-76916199D03*
%TO.P,J2,17,Pin_17*%
%TO.N,unconnected-(J2-Pin_17-Pad17)*%
X170152399Y-79456199D03*
%TO.P,J2,18,Pin_18*%
%TO.N,unconnected-(J2-Pin_18-Pad18)*%
X167612399Y-79456199D03*
%TO.P,J2,19,Pin_19*%
%TO.N,unconnected-(J2-Pin_19-Pad19)*%
X170152399Y-81996199D03*
%TO.P,J2,20,Pin_20*%
%TO.N,unconnected-(J2-Pin_20-Pad20)*%
X167612399Y-81996199D03*
%TO.P,J2,21,Pin_21*%
%TO.N,unconnected-(J2-Pin_21-Pad21)*%
X170152399Y-84536199D03*
%TO.P,J2,22,Pin_22*%
%TO.N,unconnected-(J2-Pin_22-Pad22)*%
X167612399Y-84536199D03*
%TO.P,J2,23,Pin_23*%
%TO.N,unconnected-(J2-Pin_23-Pad23)*%
X170152399Y-87076199D03*
%TO.P,J2,24,Pin_24*%
%TO.N,unconnected-(J2-Pin_24-Pad24)*%
X167612399Y-87076199D03*
%TO.P,J2,25,Pin_25*%
%TO.N,unconnected-(J2-Pin_25-Pad25)*%
X170152399Y-89616199D03*
%TO.P,J2,26,Pin_26*%
%TO.N,unconnected-(J2-Pin_26-Pad26)*%
X167612399Y-89616199D03*
%TO.P,J2,27,Pin_27*%
%TO.N,unconnected-(J2-Pin_27-Pad27)*%
X170152399Y-92156199D03*
%TO.P,J2,28,Pin_28*%
%TO.N,unconnected-(J2-Pin_28-Pad28)*%
X167612399Y-92156199D03*
%TO.P,J2,29,Pin_29*%
%TO.N,unconnected-(J2-Pin_29-Pad29)*%
X170152399Y-94696199D03*
%TO.P,J2,30,Pin_30*%
%TO.N,unconnected-(J2-Pin_30-Pad30)*%
X167612399Y-94696199D03*
%TO.P,J2,31,Pin_31*%
%TO.N,unconnected-(J2-Pin_31-Pad31)*%
X170152399Y-97236199D03*
%TO.P,J2,32,Pin_32*%
%TO.N,unconnected-(J2-Pin_32-Pad32)*%
X167612399Y-97236199D03*
%TO.P,J2,33,Pin_33*%
%TO.N,unconnected-(J2-Pin_33-Pad33)*%
X170152399Y-99776199D03*
%TO.P,J2,34,Pin_34*%
%TO.N,unconnected-(J2-Pin_34-Pad34)*%
X167612399Y-99776199D03*
%TO.P,J2,35,Pin_35*%
%TO.N,unconnected-(J2-Pin_35-Pad35)*%
X170152399Y-102316199D03*
%TO.P,J2,36,Pin_36*%
%TO.N,unconnected-(J2-Pin_36-Pad36)*%
X167612399Y-102316199D03*
%TO.P,J2,37,Pin_37*%
%TO.N,unconnected-(J2-Pin_37-Pad37)*%
X170152399Y-104856199D03*
%TO.P,J2,38,Pin_38*%
%TO.N,unconnected-(J2-Pin_38-Pad38)*%
X167612399Y-104856199D03*
%TO.P,J2,39,Pin_39*%
%TO.N,unconnected-(J2-Pin_39-Pad39)*%
X170152399Y-107396199D03*
%TO.P,J2,40,Pin_40*%
%TO.N,unconnected-(J2-Pin_40-Pad40)*%
X167612399Y-107396199D03*
%TO.P,J2,41,Pin_41*%
%TO.N,unconnected-(J2-Pin_41-Pad41)*%
X170152399Y-109936199D03*
%TO.P,J2,42,Pin_42*%
%TO.N,unconnected-(J2-Pin_42-Pad42)*%
X167612399Y-109936199D03*
%TO.P,J2,43,Pin_43*%
%TO.N,unconnected-(J2-Pin_43-Pad43)*%
X170152399Y-112476199D03*
%TO.P,J2,44,Pin_44*%
%TO.N,unconnected-(J2-Pin_44-Pad44)*%
X167612399Y-112476199D03*
%TO.P,J2,45,Pin_45*%
%TO.N,unconnected-(J2-Pin_45-Pad45)*%
X170152399Y-115016199D03*
%TO.P,J2,46,Pin_46*%
%TO.N,unconnected-(J2-Pin_46-Pad46)*%
X167612399Y-115016199D03*
%TO.P,J2,47,Pin_47*%
%TO.N,unconnected-(J2-Pin_47-Pad47)*%
X170152399Y-117556199D03*
%TO.P,J2,48,Pin_48*%
%TO.N,unconnected-(J2-Pin_48-Pad48)*%
X167612399Y-117556199D03*
%TO.P,J2,49,Pin_49*%
%TO.N,GND*%
X170152399Y-120096199D03*
%TO.P,J2,50,Pin_50*%
X167612399Y-120096199D03*
%TD*%
D12*
%TO.P,D1,1,K*%
%TO.N,GND*%
X142959999Y-62999999D03*
D13*
%TO.P,D1,2,A*%
%TO.N,Net-(D1-A)*%
X145500000Y-63000000D03*
%TD*%
D12*
%TO.P,D2,1,K*%
%TO.N,GND*%
X142924999Y-73799999D03*
D13*
%TO.P,D2,2,A*%
%TO.N,Net-(D2-A)*%
X145465000Y-73800000D03*
%TD*%
D12*
%TO.P,D3,1,K*%
%TO.N,GND*%
X143059999Y-84899999D03*
D13*
%TO.P,D3,2,A*%
%TO.N,Net-(D3-A)*%
X145600000Y-84900000D03*
%TD*%
D14*
%TO.P,R3,1*%
%TO.N,Red_LED*%
X136420000Y-90300000D03*
D15*
%TO.P,R3,2*%
%TO.N,Net-(D3-A)*%
X146579999Y-90299999D03*
%TD*%
D16*
%TO.P,SW1,1,1*%
%TO.N,+3V0*%
X128350000Y-112850000D03*
X134850000Y-112850000D03*
%TO.P,SW1,2,2*%
%TO.N,Switch*%
X128350000Y-117350000D03*
X134850000Y-117350000D03*
%TD*%
D17*
%TO.P,LS1,1,1*%
%TO.N,Buzzer{slash}LED*%
X160599999Y-112599999D03*
D16*
%TO.P,LS1,2,2*%
%TO.N,Net-(D4-K)*%
X153000000Y-112600000D03*
%TD*%
D10*
%TO.P,J1,1,Pin_1*%
%TO.N,GND*%
X119362399Y-59116199D03*
D11*
%TO.P,J1,2,Pin_2*%
X116822399Y-59116199D03*
%TO.P,J1,3,Pin_3*%
%TO.N,unconnected-(J1-Pin_3-Pad3)*%
X119362399Y-61656199D03*
%TO.P,J1,4,Pin_4*%
%TO.N,unconnected-(J1-Pin_4-Pad4)*%
X116822399Y-61656199D03*
%TO.P,J1,5,Pin_5*%
%TO.N,unconnected-(J1-Pin_5-Pad5)*%
X119362399Y-64196199D03*
%TO.P,J1,6,Pin_6*%
%TO.N,GND*%
X116822399Y-64196199D03*
%TO.P,J1,7,Pin_7*%
%TO.N,unconnected-(J1-Pin_7-Pad7)*%
X119362399Y-66736199D03*
%TO.P,J1,8,Pin_8*%
%TO.N,unconnected-(J1-Pin_8-Pad8)*%
X116822399Y-66736199D03*
%TO.P,J1,9,Pin_9*%
%TO.N,unconnected-(J1-Pin_9-Pad9)*%
X119362399Y-69276199D03*
%TO.P,J1,10,Pin_10*%
%TO.N,unconnected-(J1-Pin_10-Pad10)*%
X116822399Y-69276199D03*
%TO.P,J1,11,Pin_11*%
%TO.N,unconnected-(J1-Pin_11-Pad11)*%
X119362399Y-71816199D03*
%TO.P,J1,12,Pin_12*%
%TO.N,unconnected-(J1-Pin_12-Pad12)*%
X116822399Y-71816199D03*
%TO.P,J1,13,Pin_13*%
%TO.N,unconnected-(J1-Pin_13-Pad13)*%
X119362399Y-74356199D03*
%TO.P,J1,14,Pin_14*%
%TO.N,unconnected-(J1-Pin_14-Pad14)*%
X116822399Y-74356199D03*
%TO.P,J1,15,Pin_15*%
%TO.N,Green_LED*%
X119362399Y-76896199D03*
%TO.P,J1,16,Pin_16*%
%TO.N,Yellow_LED*%
X116822399Y-76896199D03*
%TO.P,J1,17,Pin_17*%
%TO.N,Red_LED*%
X119362399Y-79436199D03*
%TO.P,J1,18,Pin_18*%
%TO.N,Switch*%
X116822399Y-79436199D03*
%TO.P,J1,19,Pin_19*%
%TO.N,unconnected-(J1-Pin_19-Pad19)*%
X119362399Y-81976199D03*
%TO.P,J1,20,Pin_20*%
%TO.N,Buzzer{slash}LED*%
X116822399Y-81976199D03*
%TO.P,J1,21,Pin_21*%
%TO.N,unconnected-(J1-Pin_21-Pad21)*%
X119362399Y-84516199D03*
%TO.P,J1,22,Pin_22*%
%TO.N,unconnected-(J1-Pin_22-Pad22)*%
X116822399Y-84516199D03*
%TO.P,J1,23,Pin_23*%
%TO.N,unconnected-(J1-Pin_23-Pad23)*%
X119362399Y-87056199D03*
%TO.P,J1,24,Pin_24*%
%TO.N,GND*%
X116822399Y-87056199D03*
%TO.P,J1,25,Pin_25*%
%TO.N,unconnected-(J1-Pin_25-Pad25)*%
X119362399Y-89596199D03*
%TO.P,J1,26,Pin_26*%
%TO.N,unconnected-(J1-Pin_26-Pad26)*%
X116822399Y-89596199D03*
%TO.P,J1,27,Pin_27*%
%TO.N,unconnected-(J1-Pin_27-Pad27)*%
X119362399Y-92136199D03*
%TO.P,J1,28,Pin_28*%
%TO.N,unconnected-(J1-Pin_28-Pad28)*%
X116822399Y-92136199D03*
%TO.P,J1,29,Pin_29*%
%TO.N,unconnected-(J1-Pin_29-Pad29)*%
X119362399Y-94676199D03*
%TO.P,J1,30,Pin_30*%
%TO.N,unconnected-(J1-Pin_30-Pad30)*%
X116822399Y-94676199D03*
%TO.P,J1,31,Pin_31*%
%TO.N,unconnected-(J1-Pin_31-Pad31)*%
X119362399Y-97216199D03*
%TO.P,J1,32,Pin_32*%
%TO.N,unconnected-(J1-Pin_32-Pad32)*%
X116822399Y-97216199D03*
%TO.P,J1,33,Pin_33*%
%TO.N,unconnected-(J1-Pin_33-Pad33)*%
X119362399Y-99756199D03*
%TO.P,J1,34,Pin_34*%
%TO.N,unconnected-(J1-Pin_34-Pad34)*%
X116822399Y-99756199D03*
%TO.P,J1,35,Pin_35*%
%TO.N,unconnected-(J1-Pin_35-Pad35)*%
X119362399Y-102296199D03*
%TO.P,J1,36,Pin_36*%
%TO.N,unconnected-(J1-Pin_36-Pad36)*%
X116822399Y-102296199D03*
%TO.P,J1,37,Pin_37*%
%TO.N,unconnected-(J1-Pin_37-Pad37)*%
X119362399Y-104836199D03*
%TO.P,J1,38,Pin_38*%
%TO.N,unconnected-(J1-Pin_38-Pad38)*%
X116822399Y-104836199D03*
%TO.P,J1,39,Pin_39*%
%TO.N,unconnected-(J1-Pin_39-Pad39)*%
X119362399Y-107376199D03*
%TO.P,J1,40,Pin_40*%
%TO.N,unconnected-(J1-Pin_40-Pad40)*%
X116822399Y-107376199D03*
%TO.P,J1,41,Pin_41*%
%TO.N,unconnected-(J1-Pin_41-Pad41)*%
X119362399Y-109916199D03*
%TO.P,J1,42,Pin_42*%
%TO.N,unconnected-(J1-Pin_42-Pad42)*%
X116822399Y-109916199D03*
%TO.P,J1,43,Pin_43*%
%TO.N,unconnected-(J1-Pin_43-Pad43)*%
X119362399Y-112456199D03*
%TO.P,J1,44,Pin_44*%
%TO.N,unconnected-(J1-Pin_44-Pad44)*%
X116822399Y-112456199D03*
%TO.P,J1,45,Pin_45*%
%TO.N,unconnected-(J1-Pin_45-Pad45)*%
X119362399Y-114996199D03*
%TO.P,J1,46,Pin_46*%
%TO.N,unconnected-(J1-Pin_46-Pad46)*%
X116822399Y-114996199D03*
%TO.P,J1,47,Pin_47*%
%TO.N,unconnected-(J1-Pin_47-Pad47)*%
X119362399Y-117536199D03*
%TO.P,J1,48,Pin_48*%
%TO.N,unconnected-(J1-Pin_48-Pad48)*%
X116822399Y-117536199D03*
%TO.P,J1,49,Pin_49*%
%TO.N,GND*%
X119362399Y-120076199D03*
%TO.P,J1,50,Pin_50*%
X116822399Y-120076199D03*
%TD*%
D14*
%TO.P,R5,1*%
%TO.N,Net-(D4-K)*%
X152740000Y-121100000D03*
D15*
%TO.P,R5,2*%
%TO.N,GND*%
X162899999Y-121099999D03*
%TD*%
D12*
%TO.P,D4,1,K*%
%TO.N,Net-(D4-K)*%
X158259999Y-100999999D03*
D13*
%TO.P,D4,2,A*%
%TO.N,Buzzer{slash}LED*%
X160800000Y-101000000D03*
%TD*%
D14*
%TO.P,R2,1*%
%TO.N,Yellow_LED*%
X136340000Y-79200000D03*
D15*
%TO.P,R2,2*%
%TO.N,Net-(D2-A)*%
X146499999Y-79199999D03*
%TD*%
D14*
%TO.P,R1,1*%
%TO.N,Green_LED*%
X136040000Y-68300000D03*
D15*
%TO.P,R1,2*%
%TO.N,Net-(D1-A)*%
X146199999Y-68299999D03*
%TD*%
D14*
%TO.P,R4,1*%
%TO.N,Switch*%
X137940000Y-117200000D03*
D15*
%TO.P,R4,2*%
%TO.N,GND*%
X148099999Y-117199999D03*
%TD*%
D18*
%TO.N,GND*%
X148100000Y-114500000D03*
X162900000Y-118500000D03*
X140200000Y-63100000D03*
X140200000Y-85000000D03*
X140000000Y-73900000D03*
%TO.N,+3V0*%
X152100000Y-94600000D03*
X146700000Y-98200000D03*
%TO.N,Buzzer{slash}LED*%
X122000000Y-88500000D03*
X125000000Y-92100000D03*
%TD*%
D19*
%TO.N,Net-(D3-A)*%
X145600000Y-84900000D02*
X145600000Y-89320000D01*
X145600000Y-89320000D02*
X146580000Y-90300000D01*
%TO.N,Net-(D2-A)*%
X145465000Y-73800000D02*
X145465000Y-78165000D01*
X145465000Y-78165000D02*
X146500000Y-79200000D01*
%TO.N,Net-(D1-A)*%
X145500000Y-63000000D02*
X145500000Y-67600000D01*
X145500000Y-67600000D02*
X146200000Y-68300000D01*
%TO.N,GND*%
X142960000Y-63000000D02*
X140300000Y-63000000D01*
X140300000Y-63000000D02*
X140200000Y-63100000D01*
X140100000Y-73800000D02*
X140000000Y-73900000D01*
X148100000Y-117200000D02*
X148100000Y-114500000D01*
X143060000Y-84900000D02*
X140300000Y-84900000D01*
X162900000Y-121100000D02*
X162900000Y-118500000D01*
X142925000Y-73800000D02*
X140100000Y-73800000D01*
X140300000Y-84900000D02*
X140200000Y-85000000D01*
%TO.N,Net-(D4-K)*%
X153000000Y-112600000D02*
X153000000Y-120840000D01*
X158260000Y-107340000D02*
X153000000Y-112600000D01*
X158260000Y-101000000D02*
X158260000Y-107340000D01*
X153000000Y-120840000D02*
X152740000Y-121100000D01*
%TO.N,+3V0*%
X146700000Y-98200000D02*
X134850000Y-110050000D01*
X160870699Y-64216200D02*
X167612400Y-64216200D01*
X152100000Y-72986899D02*
X160870699Y-64216200D01*
X134850000Y-110050000D02*
X134850000Y-112850000D01*
X152100000Y-94600000D02*
X152100000Y-72986899D01*
%TO.N,Buzzer{slash}LED*%
X118875699Y-88231200D02*
X117997400Y-87352901D01*
X160800000Y-112400000D02*
X160600000Y-112600000D01*
X121731200Y-88231200D02*
X118875699Y-88231200D01*
X122000000Y-88500000D02*
X121731200Y-88231200D01*
X156300000Y-96500000D02*
X160800000Y-101000000D01*
X125000000Y-92100000D02*
X130400000Y-92100000D01*
X117997400Y-83151200D02*
X116822400Y-81976200D01*
X117997400Y-87352901D02*
X117997400Y-83151200D01*
X134800000Y-96500000D02*
X156300000Y-96500000D01*
X130400000Y-92100000D02*
X134800000Y-96500000D01*
X160800000Y-101000000D02*
X160800000Y-112400000D01*
D20*
%TO.N,unconnected-(J1-Pin_14-Pad14)*%
X116822400Y-74356200D02*
X116822400Y-74879600D01*
X116822400Y-74356200D02*
X116822400Y-74752600D01*
D19*
%TO.N,Green_LED*%
X127443800Y-76896200D02*
X136040000Y-68300000D01*
X119362400Y-76896200D02*
X127443800Y-76896200D01*
%TO.N,Yellow_LED*%
X116822400Y-76896200D02*
X117997400Y-78071200D01*
X135211200Y-78071200D02*
X136340000Y-79200000D01*
X117997400Y-78071200D02*
X135211200Y-78071200D01*
%TO.N,Red_LED*%
X119362400Y-79436200D02*
X125556200Y-79436200D01*
X125556200Y-79436200D02*
X136420000Y-90300000D01*
%TO.N,Switch*%
X118000000Y-82275501D02*
X118000000Y-80613800D01*
X128350000Y-117350000D02*
X122900000Y-111900000D01*
X134850000Y-117350000D02*
X137790000Y-117350000D01*
X120300000Y-83300000D02*
X119024499Y-83300000D01*
X119024499Y-83300000D02*
X118000000Y-82275501D01*
X137790000Y-117350000D02*
X137940000Y-117200000D01*
X122900000Y-111900000D02*
X122900000Y-85900000D01*
X118000000Y-80613800D02*
X116822400Y-79436200D01*
X122900000Y-85900000D02*
X120300000Y-83300000D01*
%TD*%
M02*
