%TF.GenerationSoftware,KiCad,Pcbnew,(7.0.0-0)*%
%TF.CreationDate,2023-04-13T00:16:08-06:00*%
%TF.ProjectId,Phase A - PCB,50686173-6520-4412-902d-205043422e6b,rev?*%
%TF.SameCoordinates,Original*%
%TF.FileFunction,Drillmap*%
%TF.FilePolarity,Positive*%
%FSLAX45Y45*%
G04 Gerber Fmt 4.5, Leading zero omitted, Abs format (unit mm)*
G04 Created by KiCad (PCBNEW (7.0.0-0)) date 2023-04-13 00:16:08*
%MOMM*%
%LPD*%
G01*
G04 APERTURE LIST*
%ADD10C,0.150000*%
%ADD11C,0.200000*%
%ADD12C,0.080000*%
%ADD13C,0.090000*%
%ADD14C,0.100000*%
%ADD15C,0.110000*%
G04 APERTURE END LIST*
D10*
X12214500Y-11961500D02*
G75*
G03*
X12341500Y-12088500I127000J0D01*
G01*
X12214500Y-11961500D02*
X12214500Y-2817500D01*
X17421500Y-12088500D02*
X12341500Y-12088500D01*
X17548500Y-2817500D02*
X17548500Y-11961500D01*
X12341500Y-2690500D02*
X17421500Y-2690500D01*
X12341500Y-2690500D02*
G75*
G03*
X12214500Y-2817500I0J-127000D01*
G01*
X17548500Y-2817500D02*
G75*
G03*
X17421500Y-2690500I-127000J0D01*
G01*
X17421500Y-12088500D02*
G75*
G03*
X17548500Y-11961500I0J127000D01*
G01*
D11*
D12*
X12809500Y-10397500D02*
X12889500Y-10477500D01*
X12889500Y-10397500D02*
X12809500Y-10477500D01*
X13063500Y-7730500D02*
X13143500Y-7810500D01*
X13143500Y-7730500D02*
X13063500Y-7810500D01*
X13372500Y-5127000D02*
X13452500Y-5207000D01*
X13452500Y-5127000D02*
X13372500Y-5207000D01*
X13372500Y-6143000D02*
X13452500Y-6223000D01*
X13452500Y-6143000D02*
X13372500Y-6223000D01*
X13570500Y-8555000D02*
X13650500Y-8635000D01*
X13650500Y-8555000D02*
X13570500Y-8635000D01*
X13570500Y-9317000D02*
X13650500Y-9397000D01*
X13650500Y-9317000D02*
X13570500Y-9397000D01*
X13777500Y-5127000D02*
X13857500Y-5207000D01*
X13857500Y-5127000D02*
X13777500Y-5207000D01*
X13777500Y-6143000D02*
X13857500Y-6223000D01*
X13857500Y-6143000D02*
X13777500Y-6223000D01*
X13824500Y-8555000D02*
X13904500Y-8635000D01*
X13904500Y-8555000D02*
X13824500Y-8635000D01*
X13824500Y-9317000D02*
X13904500Y-9397000D01*
X13904500Y-9317000D02*
X13824500Y-9397000D01*
X13825500Y-10397500D02*
X13905500Y-10477500D01*
X13905500Y-10397500D02*
X13825500Y-10477500D01*
X14078500Y-8555000D02*
X14158500Y-8635000D01*
X14158500Y-8555000D02*
X14078500Y-8635000D01*
X14078500Y-9317000D02*
X14158500Y-9397000D01*
X14158500Y-9317000D02*
X14078500Y-9397000D01*
X14079500Y-7730500D02*
X14159500Y-7810500D01*
X14159500Y-7730500D02*
X14079500Y-7810500D01*
X14079500Y-10016500D02*
X14159500Y-10096500D01*
X14159500Y-10016500D02*
X14079500Y-10096500D01*
X14182500Y-5127000D02*
X14262500Y-5207000D01*
X14262500Y-5127000D02*
X14182500Y-5207000D01*
X14182500Y-6143000D02*
X14262500Y-6223000D01*
X14262500Y-6143000D02*
X14182500Y-6223000D01*
X14332500Y-8555000D02*
X14412500Y-8635000D01*
X14412500Y-8555000D02*
X14332500Y-8635000D01*
X14332500Y-9317000D02*
X14412500Y-9397000D01*
X14412500Y-9317000D02*
X14332500Y-9397000D01*
X14460500Y-7730500D02*
X14540500Y-7810500D01*
X14540500Y-7730500D02*
X14460500Y-7810500D01*
X14586500Y-8555000D02*
X14666500Y-8635000D01*
X14666500Y-8555000D02*
X14586500Y-8635000D01*
X14586500Y-9317000D02*
X14666500Y-9397000D01*
X14666500Y-9317000D02*
X14586500Y-9397000D01*
X14587500Y-5127000D02*
X14667500Y-5207000D01*
X14667500Y-5127000D02*
X14587500Y-5207000D01*
X14587500Y-6143000D02*
X14667500Y-6223000D01*
X14667500Y-6143000D02*
X14587500Y-6223000D01*
X14840500Y-8555000D02*
X14920500Y-8635000D01*
X14920500Y-8555000D02*
X14840500Y-8635000D01*
X14840500Y-9317000D02*
X14920500Y-9397000D01*
X14920500Y-9317000D02*
X14840500Y-9397000D01*
X15094500Y-8555000D02*
X15174500Y-8635000D01*
X15174500Y-8555000D02*
X15094500Y-8635000D01*
X15094500Y-9317000D02*
X15174500Y-9397000D01*
X15174500Y-9317000D02*
X15094500Y-9397000D01*
X15095500Y-5127000D02*
X15175500Y-5207000D01*
X15175500Y-5127000D02*
X15095500Y-5207000D01*
X15095500Y-6143000D02*
X15175500Y-6223000D01*
X15175500Y-6143000D02*
X15095500Y-6223000D01*
X15095500Y-10016500D02*
X15175500Y-10096500D01*
X15175500Y-10016500D02*
X15095500Y-10096500D01*
X15348500Y-8555000D02*
X15428500Y-8635000D01*
X15428500Y-8555000D02*
X15348500Y-8635000D01*
X15348500Y-9317000D02*
X15428500Y-9397000D01*
X15428500Y-9317000D02*
X15348500Y-9397000D01*
X15476500Y-7730500D02*
X15556500Y-7810500D01*
X15556500Y-7730500D02*
X15476500Y-7810500D01*
X15555500Y-5127000D02*
X15635500Y-5207000D01*
X15635500Y-5127000D02*
X15555500Y-5207000D01*
X15555500Y-6143000D02*
X15635500Y-6223000D01*
X15635500Y-6143000D02*
X15555500Y-6223000D01*
X15960500Y-5127000D02*
X16040500Y-5207000D01*
X16040500Y-5127000D02*
X15960500Y-5207000D01*
X15960500Y-6143000D02*
X16040500Y-6223000D01*
X16040500Y-6143000D02*
X15960500Y-6223000D01*
X16365500Y-5127000D02*
X16445500Y-5207000D01*
X16445500Y-5127000D02*
X16365500Y-5207000D01*
X16365500Y-6143000D02*
X16445500Y-6223000D01*
X16445500Y-6143000D02*
X16365500Y-6223000D01*
D13*
X13466500Y-6945000D02*
G75*
G03*
X13466500Y-6945000I-45000J0D01*
G01*
X13720500Y-6945000D02*
G75*
G03*
X13720500Y-6945000I-45000J0D01*
G01*
X14736000Y-6945000D02*
G75*
G03*
X14736000Y-6945000I-45000J0D01*
G01*
X14990000Y-6945000D02*
G75*
G03*
X14990000Y-6945000I-45000J0D01*
G01*
D14*
X12468500Y-5688500D02*
X12468500Y-5788500D01*
X12418500Y-5738500D02*
X12518500Y-5738500D01*
X12468500Y-5942500D02*
X12468500Y-6042500D01*
X12418500Y-5992500D02*
X12518500Y-5992500D01*
X12468500Y-6196500D02*
X12468500Y-6296500D01*
X12418500Y-6246500D02*
X12518500Y-6246500D01*
X12468500Y-6450500D02*
X12468500Y-6550500D01*
X12418500Y-6500500D02*
X12518500Y-6500500D01*
X12468500Y-6704500D02*
X12468500Y-6804500D01*
X12418500Y-6754500D02*
X12518500Y-6754500D01*
X12468500Y-6958500D02*
X12468500Y-7058500D01*
X12418500Y-7008500D02*
X12518500Y-7008500D01*
X12468500Y-7212500D02*
X12468500Y-7312500D01*
X12418500Y-7262500D02*
X12518500Y-7262500D01*
X12468500Y-7466500D02*
X12468500Y-7566500D01*
X12418500Y-7516500D02*
X12518500Y-7516500D01*
X12468500Y-7872900D02*
X12468500Y-7972900D01*
X12418500Y-7922900D02*
X12518500Y-7922900D01*
X12468500Y-8126900D02*
X12468500Y-8226900D01*
X12418500Y-8176900D02*
X12518500Y-8176900D01*
X12468500Y-8380900D02*
X12468500Y-8480900D01*
X12418500Y-8430900D02*
X12518500Y-8430900D01*
X12468500Y-8634900D02*
X12468500Y-8734900D01*
X12418500Y-8684900D02*
X12518500Y-8684900D01*
X12468500Y-8888900D02*
X12468500Y-8988900D01*
X12418500Y-8938900D02*
X12518500Y-8938900D01*
X12468500Y-9142900D02*
X12468500Y-9242900D01*
X12418500Y-9192900D02*
X12518500Y-9192900D01*
X12468500Y-9396900D02*
X12468500Y-9496900D01*
X12418500Y-9446900D02*
X12518500Y-9446900D01*
X12468500Y-9650900D02*
X12468500Y-9750900D01*
X12418500Y-9700900D02*
X12518500Y-9700900D01*
X12468500Y-9904900D02*
X12468500Y-10004900D01*
X12418500Y-9954900D02*
X12518500Y-9954900D01*
X12468500Y-10158900D02*
X12468500Y-10258900D01*
X12418500Y-10208900D02*
X12518500Y-10208900D01*
X14246500Y-3021500D02*
X14246500Y-3121500D01*
X14196500Y-3071500D02*
X14296500Y-3071500D01*
X14246500Y-4545500D02*
X14246500Y-4645500D01*
X14196500Y-4595500D02*
X14296500Y-4595500D01*
X14500500Y-3021500D02*
X14500500Y-3121500D01*
X14450500Y-3071500D02*
X14550500Y-3071500D01*
X14500500Y-4545500D02*
X14500500Y-4645500D01*
X14450500Y-4595500D02*
X14550500Y-4595500D01*
X14754500Y-3021500D02*
X14754500Y-3121500D01*
X14704500Y-3071500D02*
X14804500Y-3071500D01*
X14754500Y-4545500D02*
X14754500Y-4645500D01*
X14704500Y-4595500D02*
X14804500Y-4595500D01*
X15008500Y-3021500D02*
X15008500Y-3121500D01*
X14958500Y-3071500D02*
X15058500Y-3071500D01*
X15008500Y-4545500D02*
X15008500Y-4645500D01*
X14958500Y-4595500D02*
X15058500Y-4595500D01*
X15262500Y-3021500D02*
X15262500Y-3121500D01*
X15212500Y-3071500D02*
X15312500Y-3071500D01*
X15262500Y-4545500D02*
X15262500Y-4645500D01*
X15212500Y-4595500D02*
X15312500Y-4595500D01*
X15516500Y-3021500D02*
X15516500Y-3121500D01*
X15466500Y-3071500D02*
X15566500Y-3071500D01*
X15516500Y-4545500D02*
X15516500Y-4645500D01*
X15466500Y-4595500D02*
X15566500Y-4595500D01*
X16350000Y-10078000D02*
X16350000Y-10178000D01*
X16300000Y-10128000D02*
X16400000Y-10128000D01*
X16350000Y-10838000D02*
X16350000Y-10938000D01*
X16300000Y-10888000D02*
X16400000Y-10888000D01*
X17294500Y-5688500D02*
X17294500Y-5788500D01*
X17244500Y-5738500D02*
X17344500Y-5738500D01*
X17294500Y-5942500D02*
X17294500Y-6042500D01*
X17244500Y-5992500D02*
X17344500Y-5992500D01*
X17294500Y-6196500D02*
X17294500Y-6296500D01*
X17244500Y-6246500D02*
X17344500Y-6246500D01*
X17294500Y-6450500D02*
X17294500Y-6550500D01*
X17244500Y-6500500D02*
X17344500Y-6500500D01*
X17294500Y-6704500D02*
X17294500Y-6804500D01*
X17244500Y-6754500D02*
X17344500Y-6754500D01*
X17294500Y-6958500D02*
X17294500Y-7058500D01*
X17244500Y-7008500D02*
X17344500Y-7008500D01*
X17294500Y-7466500D02*
X17294500Y-7566500D01*
X17244500Y-7516500D02*
X17344500Y-7516500D01*
X17294500Y-7720500D02*
X17294500Y-7820500D01*
X17244500Y-7770500D02*
X17344500Y-7770500D01*
X17294500Y-7974500D02*
X17294500Y-8074500D01*
X17244500Y-8024500D02*
X17344500Y-8024500D01*
X17294500Y-8228500D02*
X17294500Y-8328500D01*
X17244500Y-8278500D02*
X17344500Y-8278500D01*
X17294500Y-8482500D02*
X17294500Y-8582500D01*
X17244500Y-8532500D02*
X17344500Y-8532500D01*
X17294500Y-8736500D02*
X17294500Y-8836500D01*
X17244500Y-8786500D02*
X17344500Y-8786500D01*
X17294500Y-8990500D02*
X17294500Y-9090500D01*
X17244500Y-9040500D02*
X17344500Y-9040500D01*
X17294500Y-9244500D02*
X17294500Y-9344500D01*
X17244500Y-9294500D02*
X17344500Y-9294500D01*
D15*
X12753891Y-11203891D02*
X12753891Y-11126109D01*
X12676109Y-11126109D01*
X12676109Y-11203891D01*
X12753891Y-11203891D01*
X12753891Y-11653891D02*
X12753891Y-11576109D01*
X12676109Y-11576109D01*
X12676109Y-11653891D01*
X12753891Y-11653891D01*
X13403891Y-11203891D02*
X13403891Y-11126109D01*
X13326109Y-11126109D01*
X13326109Y-11203891D01*
X13403891Y-11203891D01*
X13403891Y-11653891D02*
X13403891Y-11576109D01*
X13326109Y-11576109D01*
X13326109Y-11653891D01*
X13403891Y-11653891D01*
X14023891Y-11203891D02*
X14023891Y-11126109D01*
X13946109Y-11126109D01*
X13946109Y-11203891D01*
X14023891Y-11203891D01*
X14023891Y-11653891D02*
X14023891Y-11576109D01*
X13946109Y-11576109D01*
X13946109Y-11653891D01*
X14023891Y-11653891D01*
X14673891Y-11203891D02*
X14673891Y-11126109D01*
X14596109Y-11126109D01*
X14596109Y-11203891D01*
X14673891Y-11203891D01*
X14673891Y-11653891D02*
X14673891Y-11576109D01*
X14596109Y-11576109D01*
X14596109Y-11653891D01*
X14673891Y-11653891D01*
D11*
X12454619Y-12389476D02*
X12454619Y-12189476D01*
X12454619Y-12189476D02*
X12502238Y-12189476D01*
X12502238Y-12189476D02*
X12530809Y-12199000D01*
X12530809Y-12199000D02*
X12549857Y-12218048D01*
X12549857Y-12218048D02*
X12559381Y-12237095D01*
X12559381Y-12237095D02*
X12568905Y-12275190D01*
X12568905Y-12275190D02*
X12568905Y-12303762D01*
X12568905Y-12303762D02*
X12559381Y-12341857D01*
X12559381Y-12341857D02*
X12549857Y-12360905D01*
X12549857Y-12360905D02*
X12530809Y-12379952D01*
X12530809Y-12379952D02*
X12502238Y-12389476D01*
X12502238Y-12389476D02*
X12454619Y-12389476D01*
X12654619Y-12389476D02*
X12654619Y-12256143D01*
X12654619Y-12294238D02*
X12664143Y-12275190D01*
X12664143Y-12275190D02*
X12673667Y-12265667D01*
X12673667Y-12265667D02*
X12692714Y-12256143D01*
X12692714Y-12256143D02*
X12711762Y-12256143D01*
X12778428Y-12389476D02*
X12778428Y-12256143D01*
X12778428Y-12189476D02*
X12768905Y-12199000D01*
X12768905Y-12199000D02*
X12778428Y-12208524D01*
X12778428Y-12208524D02*
X12787952Y-12199000D01*
X12787952Y-12199000D02*
X12778428Y-12189476D01*
X12778428Y-12189476D02*
X12778428Y-12208524D01*
X12902238Y-12389476D02*
X12883190Y-12379952D01*
X12883190Y-12379952D02*
X12873667Y-12360905D01*
X12873667Y-12360905D02*
X12873667Y-12189476D01*
X13007000Y-12389476D02*
X12987952Y-12379952D01*
X12987952Y-12379952D02*
X12978428Y-12360905D01*
X12978428Y-12360905D02*
X12978428Y-12189476D01*
X13203190Y-12389476D02*
X13203190Y-12189476D01*
X13203190Y-12189476D02*
X13269857Y-12332333D01*
X13269857Y-12332333D02*
X13336524Y-12189476D01*
X13336524Y-12189476D02*
X13336524Y-12389476D01*
X13517476Y-12389476D02*
X13517476Y-12284714D01*
X13517476Y-12284714D02*
X13507952Y-12265667D01*
X13507952Y-12265667D02*
X13488905Y-12256143D01*
X13488905Y-12256143D02*
X13450809Y-12256143D01*
X13450809Y-12256143D02*
X13431762Y-12265667D01*
X13517476Y-12379952D02*
X13498428Y-12389476D01*
X13498428Y-12389476D02*
X13450809Y-12389476D01*
X13450809Y-12389476D02*
X13431762Y-12379952D01*
X13431762Y-12379952D02*
X13422238Y-12360905D01*
X13422238Y-12360905D02*
X13422238Y-12341857D01*
X13422238Y-12341857D02*
X13431762Y-12322809D01*
X13431762Y-12322809D02*
X13450809Y-12313286D01*
X13450809Y-12313286D02*
X13498428Y-12313286D01*
X13498428Y-12313286D02*
X13517476Y-12303762D01*
X13612714Y-12256143D02*
X13612714Y-12456143D01*
X13612714Y-12265667D02*
X13631762Y-12256143D01*
X13631762Y-12256143D02*
X13669857Y-12256143D01*
X13669857Y-12256143D02*
X13688905Y-12265667D01*
X13688905Y-12265667D02*
X13698428Y-12275190D01*
X13698428Y-12275190D02*
X13707952Y-12294238D01*
X13707952Y-12294238D02*
X13707952Y-12351381D01*
X13707952Y-12351381D02*
X13698428Y-12370428D01*
X13698428Y-12370428D02*
X13688905Y-12379952D01*
X13688905Y-12379952D02*
X13669857Y-12389476D01*
X13669857Y-12389476D02*
X13631762Y-12389476D01*
X13631762Y-12389476D02*
X13612714Y-12379952D01*
X13793667Y-12370428D02*
X13803190Y-12379952D01*
X13803190Y-12379952D02*
X13793667Y-12389476D01*
X13793667Y-12389476D02*
X13784143Y-12379952D01*
X13784143Y-12379952D02*
X13793667Y-12370428D01*
X13793667Y-12370428D02*
X13793667Y-12389476D01*
X13793667Y-12265667D02*
X13803190Y-12275190D01*
X13803190Y-12275190D02*
X13793667Y-12284714D01*
X13793667Y-12284714D02*
X13784143Y-12275190D01*
X13784143Y-12275190D02*
X13793667Y-12265667D01*
X13793667Y-12265667D02*
X13793667Y-12284714D01*
D12*
X12127000Y-12696000D02*
X12207000Y-12776000D01*
X12207000Y-12696000D02*
X12127000Y-12776000D01*
D11*
X12492714Y-12609476D02*
X12511762Y-12609476D01*
X12511762Y-12609476D02*
X12530809Y-12619000D01*
X12530809Y-12619000D02*
X12540333Y-12628524D01*
X12540333Y-12628524D02*
X12549857Y-12647571D01*
X12549857Y-12647571D02*
X12559381Y-12685667D01*
X12559381Y-12685667D02*
X12559381Y-12733286D01*
X12559381Y-12733286D02*
X12549857Y-12771381D01*
X12549857Y-12771381D02*
X12540333Y-12790428D01*
X12540333Y-12790428D02*
X12530809Y-12799952D01*
X12530809Y-12799952D02*
X12511762Y-12809476D01*
X12511762Y-12809476D02*
X12492714Y-12809476D01*
X12492714Y-12809476D02*
X12473667Y-12799952D01*
X12473667Y-12799952D02*
X12464143Y-12790428D01*
X12464143Y-12790428D02*
X12454619Y-12771381D01*
X12454619Y-12771381D02*
X12445095Y-12733286D01*
X12445095Y-12733286D02*
X12445095Y-12685667D01*
X12445095Y-12685667D02*
X12454619Y-12647571D01*
X12454619Y-12647571D02*
X12464143Y-12628524D01*
X12464143Y-12628524D02*
X12473667Y-12619000D01*
X12473667Y-12619000D02*
X12492714Y-12609476D01*
X12645095Y-12790428D02*
X12654619Y-12799952D01*
X12654619Y-12799952D02*
X12645095Y-12809476D01*
X12645095Y-12809476D02*
X12635571Y-12799952D01*
X12635571Y-12799952D02*
X12645095Y-12790428D01*
X12645095Y-12790428D02*
X12645095Y-12809476D01*
X12768905Y-12695190D02*
X12749857Y-12685667D01*
X12749857Y-12685667D02*
X12740333Y-12676143D01*
X12740333Y-12676143D02*
X12730809Y-12657095D01*
X12730809Y-12657095D02*
X12730809Y-12647571D01*
X12730809Y-12647571D02*
X12740333Y-12628524D01*
X12740333Y-12628524D02*
X12749857Y-12619000D01*
X12749857Y-12619000D02*
X12768905Y-12609476D01*
X12768905Y-12609476D02*
X12807000Y-12609476D01*
X12807000Y-12609476D02*
X12826048Y-12619000D01*
X12826048Y-12619000D02*
X12835571Y-12628524D01*
X12835571Y-12628524D02*
X12845095Y-12647571D01*
X12845095Y-12647571D02*
X12845095Y-12657095D01*
X12845095Y-12657095D02*
X12835571Y-12676143D01*
X12835571Y-12676143D02*
X12826048Y-12685667D01*
X12826048Y-12685667D02*
X12807000Y-12695190D01*
X12807000Y-12695190D02*
X12768905Y-12695190D01*
X12768905Y-12695190D02*
X12749857Y-12704714D01*
X12749857Y-12704714D02*
X12740333Y-12714238D01*
X12740333Y-12714238D02*
X12730809Y-12733286D01*
X12730809Y-12733286D02*
X12730809Y-12771381D01*
X12730809Y-12771381D02*
X12740333Y-12790428D01*
X12740333Y-12790428D02*
X12749857Y-12799952D01*
X12749857Y-12799952D02*
X12768905Y-12809476D01*
X12768905Y-12809476D02*
X12807000Y-12809476D01*
X12807000Y-12809476D02*
X12826048Y-12799952D01*
X12826048Y-12799952D02*
X12835571Y-12790428D01*
X12835571Y-12790428D02*
X12845095Y-12771381D01*
X12845095Y-12771381D02*
X12845095Y-12733286D01*
X12845095Y-12733286D02*
X12835571Y-12714238D01*
X12835571Y-12714238D02*
X12826048Y-12704714D01*
X12826048Y-12704714D02*
X12807000Y-12695190D01*
X12968905Y-12609476D02*
X12987952Y-12609476D01*
X12987952Y-12609476D02*
X13007000Y-12619000D01*
X13007000Y-12619000D02*
X13016524Y-12628524D01*
X13016524Y-12628524D02*
X13026048Y-12647571D01*
X13026048Y-12647571D02*
X13035571Y-12685667D01*
X13035571Y-12685667D02*
X13035571Y-12733286D01*
X13035571Y-12733286D02*
X13026048Y-12771381D01*
X13026048Y-12771381D02*
X13016524Y-12790428D01*
X13016524Y-12790428D02*
X13007000Y-12799952D01*
X13007000Y-12799952D02*
X12987952Y-12809476D01*
X12987952Y-12809476D02*
X12968905Y-12809476D01*
X12968905Y-12809476D02*
X12949857Y-12799952D01*
X12949857Y-12799952D02*
X12940333Y-12790428D01*
X12940333Y-12790428D02*
X12930809Y-12771381D01*
X12930809Y-12771381D02*
X12921286Y-12733286D01*
X12921286Y-12733286D02*
X12921286Y-12685667D01*
X12921286Y-12685667D02*
X12930809Y-12647571D01*
X12930809Y-12647571D02*
X12940333Y-12628524D01*
X12940333Y-12628524D02*
X12949857Y-12619000D01*
X12949857Y-12619000D02*
X12968905Y-12609476D01*
X13159381Y-12609476D02*
X13178429Y-12609476D01*
X13178429Y-12609476D02*
X13197476Y-12619000D01*
X13197476Y-12619000D02*
X13207000Y-12628524D01*
X13207000Y-12628524D02*
X13216524Y-12647571D01*
X13216524Y-12647571D02*
X13226048Y-12685667D01*
X13226048Y-12685667D02*
X13226048Y-12733286D01*
X13226048Y-12733286D02*
X13216524Y-12771381D01*
X13216524Y-12771381D02*
X13207000Y-12790428D01*
X13207000Y-12790428D02*
X13197476Y-12799952D01*
X13197476Y-12799952D02*
X13178429Y-12809476D01*
X13178429Y-12809476D02*
X13159381Y-12809476D01*
X13159381Y-12809476D02*
X13140333Y-12799952D01*
X13140333Y-12799952D02*
X13130809Y-12790428D01*
X13130809Y-12790428D02*
X13121286Y-12771381D01*
X13121286Y-12771381D02*
X13111762Y-12733286D01*
X13111762Y-12733286D02*
X13111762Y-12685667D01*
X13111762Y-12685667D02*
X13121286Y-12647571D01*
X13121286Y-12647571D02*
X13130809Y-12628524D01*
X13130809Y-12628524D02*
X13140333Y-12619000D01*
X13140333Y-12619000D02*
X13159381Y-12609476D01*
X13311762Y-12809476D02*
X13311762Y-12676143D01*
X13311762Y-12695190D02*
X13321286Y-12685667D01*
X13321286Y-12685667D02*
X13340333Y-12676143D01*
X13340333Y-12676143D02*
X13368905Y-12676143D01*
X13368905Y-12676143D02*
X13387952Y-12685667D01*
X13387952Y-12685667D02*
X13397476Y-12704714D01*
X13397476Y-12704714D02*
X13397476Y-12809476D01*
X13397476Y-12704714D02*
X13407000Y-12685667D01*
X13407000Y-12685667D02*
X13426048Y-12676143D01*
X13426048Y-12676143D02*
X13454619Y-12676143D01*
X13454619Y-12676143D02*
X13473667Y-12685667D01*
X13473667Y-12685667D02*
X13483190Y-12704714D01*
X13483190Y-12704714D02*
X13483190Y-12809476D01*
X13578429Y-12809476D02*
X13578429Y-12676143D01*
X13578429Y-12695190D02*
X13587952Y-12685667D01*
X13587952Y-12685667D02*
X13607000Y-12676143D01*
X13607000Y-12676143D02*
X13635571Y-12676143D01*
X13635571Y-12676143D02*
X13654619Y-12685667D01*
X13654619Y-12685667D02*
X13664143Y-12704714D01*
X13664143Y-12704714D02*
X13664143Y-12809476D01*
X13664143Y-12704714D02*
X13673667Y-12685667D01*
X13673667Y-12685667D02*
X13692714Y-12676143D01*
X13692714Y-12676143D02*
X13721286Y-12676143D01*
X13721286Y-12676143D02*
X13740333Y-12685667D01*
X13740333Y-12685667D02*
X13749857Y-12704714D01*
X13749857Y-12704714D02*
X13749857Y-12809476D01*
X14107952Y-12599952D02*
X13936524Y-12857095D01*
X14332714Y-12609476D02*
X14351762Y-12609476D01*
X14351762Y-12609476D02*
X14370810Y-12619000D01*
X14370810Y-12619000D02*
X14380333Y-12628524D01*
X14380333Y-12628524D02*
X14389857Y-12647571D01*
X14389857Y-12647571D02*
X14399381Y-12685667D01*
X14399381Y-12685667D02*
X14399381Y-12733286D01*
X14399381Y-12733286D02*
X14389857Y-12771381D01*
X14389857Y-12771381D02*
X14380333Y-12790428D01*
X14380333Y-12790428D02*
X14370810Y-12799952D01*
X14370810Y-12799952D02*
X14351762Y-12809476D01*
X14351762Y-12809476D02*
X14332714Y-12809476D01*
X14332714Y-12809476D02*
X14313667Y-12799952D01*
X14313667Y-12799952D02*
X14304143Y-12790428D01*
X14304143Y-12790428D02*
X14294619Y-12771381D01*
X14294619Y-12771381D02*
X14285095Y-12733286D01*
X14285095Y-12733286D02*
X14285095Y-12685667D01*
X14285095Y-12685667D02*
X14294619Y-12647571D01*
X14294619Y-12647571D02*
X14304143Y-12628524D01*
X14304143Y-12628524D02*
X14313667Y-12619000D01*
X14313667Y-12619000D02*
X14332714Y-12609476D01*
X14485095Y-12790428D02*
X14494619Y-12799952D01*
X14494619Y-12799952D02*
X14485095Y-12809476D01*
X14485095Y-12809476D02*
X14475571Y-12799952D01*
X14475571Y-12799952D02*
X14485095Y-12790428D01*
X14485095Y-12790428D02*
X14485095Y-12809476D01*
X14618429Y-12609476D02*
X14637476Y-12609476D01*
X14637476Y-12609476D02*
X14656524Y-12619000D01*
X14656524Y-12619000D02*
X14666048Y-12628524D01*
X14666048Y-12628524D02*
X14675571Y-12647571D01*
X14675571Y-12647571D02*
X14685095Y-12685667D01*
X14685095Y-12685667D02*
X14685095Y-12733286D01*
X14685095Y-12733286D02*
X14675571Y-12771381D01*
X14675571Y-12771381D02*
X14666048Y-12790428D01*
X14666048Y-12790428D02*
X14656524Y-12799952D01*
X14656524Y-12799952D02*
X14637476Y-12809476D01*
X14637476Y-12809476D02*
X14618429Y-12809476D01*
X14618429Y-12809476D02*
X14599381Y-12799952D01*
X14599381Y-12799952D02*
X14589857Y-12790428D01*
X14589857Y-12790428D02*
X14580333Y-12771381D01*
X14580333Y-12771381D02*
X14570810Y-12733286D01*
X14570810Y-12733286D02*
X14570810Y-12685667D01*
X14570810Y-12685667D02*
X14580333Y-12647571D01*
X14580333Y-12647571D02*
X14589857Y-12628524D01*
X14589857Y-12628524D02*
X14599381Y-12619000D01*
X14599381Y-12619000D02*
X14618429Y-12609476D01*
X14751762Y-12609476D02*
X14875571Y-12609476D01*
X14875571Y-12609476D02*
X14808905Y-12685667D01*
X14808905Y-12685667D02*
X14837476Y-12685667D01*
X14837476Y-12685667D02*
X14856524Y-12695190D01*
X14856524Y-12695190D02*
X14866048Y-12704714D01*
X14866048Y-12704714D02*
X14875571Y-12723762D01*
X14875571Y-12723762D02*
X14875571Y-12771381D01*
X14875571Y-12771381D02*
X14866048Y-12790428D01*
X14866048Y-12790428D02*
X14856524Y-12799952D01*
X14856524Y-12799952D02*
X14837476Y-12809476D01*
X14837476Y-12809476D02*
X14780333Y-12809476D01*
X14780333Y-12809476D02*
X14761286Y-12799952D01*
X14761286Y-12799952D02*
X14751762Y-12790428D01*
X15066048Y-12809476D02*
X14951762Y-12809476D01*
X15008905Y-12809476D02*
X15008905Y-12609476D01*
X15008905Y-12609476D02*
X14989857Y-12638048D01*
X14989857Y-12638048D02*
X14970810Y-12657095D01*
X14970810Y-12657095D02*
X14951762Y-12666619D01*
X15247000Y-12609476D02*
X15151762Y-12609476D01*
X15151762Y-12609476D02*
X15142238Y-12704714D01*
X15142238Y-12704714D02*
X15151762Y-12695190D01*
X15151762Y-12695190D02*
X15170810Y-12685667D01*
X15170810Y-12685667D02*
X15218429Y-12685667D01*
X15218429Y-12685667D02*
X15237476Y-12695190D01*
X15237476Y-12695190D02*
X15247000Y-12704714D01*
X15247000Y-12704714D02*
X15256524Y-12723762D01*
X15256524Y-12723762D02*
X15256524Y-12771381D01*
X15256524Y-12771381D02*
X15247000Y-12790428D01*
X15247000Y-12790428D02*
X15237476Y-12799952D01*
X15237476Y-12799952D02*
X15218429Y-12809476D01*
X15218429Y-12809476D02*
X15170810Y-12809476D01*
X15170810Y-12809476D02*
X15151762Y-12799952D01*
X15151762Y-12799952D02*
X15142238Y-12790428D01*
X15332714Y-12609476D02*
X15332714Y-12647571D01*
X15408905Y-12609476D02*
X15408905Y-12647571D01*
X15671762Y-12885667D02*
X15662238Y-12876143D01*
X15662238Y-12876143D02*
X15643191Y-12847571D01*
X15643191Y-12847571D02*
X15633667Y-12828524D01*
X15633667Y-12828524D02*
X15624143Y-12799952D01*
X15624143Y-12799952D02*
X15614619Y-12752333D01*
X15614619Y-12752333D02*
X15614619Y-12714238D01*
X15614619Y-12714238D02*
X15624143Y-12666619D01*
X15624143Y-12666619D02*
X15633667Y-12638048D01*
X15633667Y-12638048D02*
X15643191Y-12619000D01*
X15643191Y-12619000D02*
X15662238Y-12590428D01*
X15662238Y-12590428D02*
X15671762Y-12580905D01*
X15833667Y-12676143D02*
X15833667Y-12809476D01*
X15786048Y-12599952D02*
X15738429Y-12742809D01*
X15738429Y-12742809D02*
X15862238Y-12742809D01*
X15976524Y-12609476D02*
X15995572Y-12609476D01*
X15995572Y-12609476D02*
X16014619Y-12619000D01*
X16014619Y-12619000D02*
X16024143Y-12628524D01*
X16024143Y-12628524D02*
X16033667Y-12647571D01*
X16033667Y-12647571D02*
X16043191Y-12685667D01*
X16043191Y-12685667D02*
X16043191Y-12733286D01*
X16043191Y-12733286D02*
X16033667Y-12771381D01*
X16033667Y-12771381D02*
X16024143Y-12790428D01*
X16024143Y-12790428D02*
X16014619Y-12799952D01*
X16014619Y-12799952D02*
X15995572Y-12809476D01*
X15995572Y-12809476D02*
X15976524Y-12809476D01*
X15976524Y-12809476D02*
X15957476Y-12799952D01*
X15957476Y-12799952D02*
X15947952Y-12790428D01*
X15947952Y-12790428D02*
X15938429Y-12771381D01*
X15938429Y-12771381D02*
X15928905Y-12733286D01*
X15928905Y-12733286D02*
X15928905Y-12685667D01*
X15928905Y-12685667D02*
X15938429Y-12647571D01*
X15938429Y-12647571D02*
X15947952Y-12628524D01*
X15947952Y-12628524D02*
X15957476Y-12619000D01*
X15957476Y-12619000D02*
X15976524Y-12609476D01*
X16248905Y-12809476D02*
X16248905Y-12609476D01*
X16334619Y-12809476D02*
X16334619Y-12704714D01*
X16334619Y-12704714D02*
X16325095Y-12685667D01*
X16325095Y-12685667D02*
X16306048Y-12676143D01*
X16306048Y-12676143D02*
X16277476Y-12676143D01*
X16277476Y-12676143D02*
X16258429Y-12685667D01*
X16258429Y-12685667D02*
X16248905Y-12695190D01*
X16458429Y-12809476D02*
X16439381Y-12799952D01*
X16439381Y-12799952D02*
X16429857Y-12790428D01*
X16429857Y-12790428D02*
X16420333Y-12771381D01*
X16420333Y-12771381D02*
X16420333Y-12714238D01*
X16420333Y-12714238D02*
X16429857Y-12695190D01*
X16429857Y-12695190D02*
X16439381Y-12685667D01*
X16439381Y-12685667D02*
X16458429Y-12676143D01*
X16458429Y-12676143D02*
X16487000Y-12676143D01*
X16487000Y-12676143D02*
X16506048Y-12685667D01*
X16506048Y-12685667D02*
X16515572Y-12695190D01*
X16515572Y-12695190D02*
X16525095Y-12714238D01*
X16525095Y-12714238D02*
X16525095Y-12771381D01*
X16525095Y-12771381D02*
X16515572Y-12790428D01*
X16515572Y-12790428D02*
X16506048Y-12799952D01*
X16506048Y-12799952D02*
X16487000Y-12809476D01*
X16487000Y-12809476D02*
X16458429Y-12809476D01*
X16639381Y-12809476D02*
X16620333Y-12799952D01*
X16620333Y-12799952D02*
X16610810Y-12780905D01*
X16610810Y-12780905D02*
X16610810Y-12609476D01*
X16791762Y-12799952D02*
X16772714Y-12809476D01*
X16772714Y-12809476D02*
X16734619Y-12809476D01*
X16734619Y-12809476D02*
X16715572Y-12799952D01*
X16715572Y-12799952D02*
X16706048Y-12780905D01*
X16706048Y-12780905D02*
X16706048Y-12704714D01*
X16706048Y-12704714D02*
X16715572Y-12685667D01*
X16715572Y-12685667D02*
X16734619Y-12676143D01*
X16734619Y-12676143D02*
X16772714Y-12676143D01*
X16772714Y-12676143D02*
X16791762Y-12685667D01*
X16791762Y-12685667D02*
X16801286Y-12704714D01*
X16801286Y-12704714D02*
X16801286Y-12723762D01*
X16801286Y-12723762D02*
X16706048Y-12742809D01*
X16877476Y-12799952D02*
X16896524Y-12809476D01*
X16896524Y-12809476D02*
X16934619Y-12809476D01*
X16934619Y-12809476D02*
X16953667Y-12799952D01*
X16953667Y-12799952D02*
X16963191Y-12780905D01*
X16963191Y-12780905D02*
X16963191Y-12771381D01*
X16963191Y-12771381D02*
X16953667Y-12752333D01*
X16953667Y-12752333D02*
X16934619Y-12742809D01*
X16934619Y-12742809D02*
X16906048Y-12742809D01*
X16906048Y-12742809D02*
X16887000Y-12733286D01*
X16887000Y-12733286D02*
X16877476Y-12714238D01*
X16877476Y-12714238D02*
X16877476Y-12704714D01*
X16877476Y-12704714D02*
X16887000Y-12685667D01*
X16887000Y-12685667D02*
X16906048Y-12676143D01*
X16906048Y-12676143D02*
X16934619Y-12676143D01*
X16934619Y-12676143D02*
X16953667Y-12685667D01*
X17029857Y-12885667D02*
X17039381Y-12876143D01*
X17039381Y-12876143D02*
X17058429Y-12847571D01*
X17058429Y-12847571D02*
X17067953Y-12828524D01*
X17067953Y-12828524D02*
X17077476Y-12799952D01*
X17077476Y-12799952D02*
X17087000Y-12752333D01*
X17087000Y-12752333D02*
X17087000Y-12714238D01*
X17087000Y-12714238D02*
X17077476Y-12666619D01*
X17077476Y-12666619D02*
X17067953Y-12638048D01*
X17067953Y-12638048D02*
X17058429Y-12619000D01*
X17058429Y-12619000D02*
X17039381Y-12590428D01*
X17039381Y-12590428D02*
X17029857Y-12580905D01*
D13*
X12207000Y-13000000D02*
G75*
G03*
X12207000Y-13000000I-45000J0D01*
G01*
D11*
X12492714Y-12873476D02*
X12511762Y-12873476D01*
X12511762Y-12873476D02*
X12530809Y-12883000D01*
X12530809Y-12883000D02*
X12540333Y-12892524D01*
X12540333Y-12892524D02*
X12549857Y-12911571D01*
X12549857Y-12911571D02*
X12559381Y-12949667D01*
X12559381Y-12949667D02*
X12559381Y-12997286D01*
X12559381Y-12997286D02*
X12549857Y-13035381D01*
X12549857Y-13035381D02*
X12540333Y-13054428D01*
X12540333Y-13054428D02*
X12530809Y-13063952D01*
X12530809Y-13063952D02*
X12511762Y-13073476D01*
X12511762Y-13073476D02*
X12492714Y-13073476D01*
X12492714Y-13073476D02*
X12473667Y-13063952D01*
X12473667Y-13063952D02*
X12464143Y-13054428D01*
X12464143Y-13054428D02*
X12454619Y-13035381D01*
X12454619Y-13035381D02*
X12445095Y-12997286D01*
X12445095Y-12997286D02*
X12445095Y-12949667D01*
X12445095Y-12949667D02*
X12454619Y-12911571D01*
X12454619Y-12911571D02*
X12464143Y-12892524D01*
X12464143Y-12892524D02*
X12473667Y-12883000D01*
X12473667Y-12883000D02*
X12492714Y-12873476D01*
X12645095Y-13054428D02*
X12654619Y-13063952D01*
X12654619Y-13063952D02*
X12645095Y-13073476D01*
X12645095Y-13073476D02*
X12635571Y-13063952D01*
X12635571Y-13063952D02*
X12645095Y-13054428D01*
X12645095Y-13054428D02*
X12645095Y-13073476D01*
X12749857Y-13073476D02*
X12787952Y-13073476D01*
X12787952Y-13073476D02*
X12807000Y-13063952D01*
X12807000Y-13063952D02*
X12816524Y-13054428D01*
X12816524Y-13054428D02*
X12835571Y-13025857D01*
X12835571Y-13025857D02*
X12845095Y-12987762D01*
X12845095Y-12987762D02*
X12845095Y-12911571D01*
X12845095Y-12911571D02*
X12835571Y-12892524D01*
X12835571Y-12892524D02*
X12826048Y-12883000D01*
X12826048Y-12883000D02*
X12807000Y-12873476D01*
X12807000Y-12873476D02*
X12768905Y-12873476D01*
X12768905Y-12873476D02*
X12749857Y-12883000D01*
X12749857Y-12883000D02*
X12740333Y-12892524D01*
X12740333Y-12892524D02*
X12730809Y-12911571D01*
X12730809Y-12911571D02*
X12730809Y-12959190D01*
X12730809Y-12959190D02*
X12740333Y-12978238D01*
X12740333Y-12978238D02*
X12749857Y-12987762D01*
X12749857Y-12987762D02*
X12768905Y-12997286D01*
X12768905Y-12997286D02*
X12807000Y-12997286D01*
X12807000Y-12997286D02*
X12826048Y-12987762D01*
X12826048Y-12987762D02*
X12835571Y-12978238D01*
X12835571Y-12978238D02*
X12845095Y-12959190D01*
X12968905Y-12873476D02*
X12987952Y-12873476D01*
X12987952Y-12873476D02*
X13007000Y-12883000D01*
X13007000Y-12883000D02*
X13016524Y-12892524D01*
X13016524Y-12892524D02*
X13026048Y-12911571D01*
X13026048Y-12911571D02*
X13035571Y-12949667D01*
X13035571Y-12949667D02*
X13035571Y-12997286D01*
X13035571Y-12997286D02*
X13026048Y-13035381D01*
X13026048Y-13035381D02*
X13016524Y-13054428D01*
X13016524Y-13054428D02*
X13007000Y-13063952D01*
X13007000Y-13063952D02*
X12987952Y-13073476D01*
X12987952Y-13073476D02*
X12968905Y-13073476D01*
X12968905Y-13073476D02*
X12949857Y-13063952D01*
X12949857Y-13063952D02*
X12940333Y-13054428D01*
X12940333Y-13054428D02*
X12930809Y-13035381D01*
X12930809Y-13035381D02*
X12921286Y-12997286D01*
X12921286Y-12997286D02*
X12921286Y-12949667D01*
X12921286Y-12949667D02*
X12930809Y-12911571D01*
X12930809Y-12911571D02*
X12940333Y-12892524D01*
X12940333Y-12892524D02*
X12949857Y-12883000D01*
X12949857Y-12883000D02*
X12968905Y-12873476D01*
X13159381Y-12873476D02*
X13178429Y-12873476D01*
X13178429Y-12873476D02*
X13197476Y-12883000D01*
X13197476Y-12883000D02*
X13207000Y-12892524D01*
X13207000Y-12892524D02*
X13216524Y-12911571D01*
X13216524Y-12911571D02*
X13226048Y-12949667D01*
X13226048Y-12949667D02*
X13226048Y-12997286D01*
X13226048Y-12997286D02*
X13216524Y-13035381D01*
X13216524Y-13035381D02*
X13207000Y-13054428D01*
X13207000Y-13054428D02*
X13197476Y-13063952D01*
X13197476Y-13063952D02*
X13178429Y-13073476D01*
X13178429Y-13073476D02*
X13159381Y-13073476D01*
X13159381Y-13073476D02*
X13140333Y-13063952D01*
X13140333Y-13063952D02*
X13130809Y-13054428D01*
X13130809Y-13054428D02*
X13121286Y-13035381D01*
X13121286Y-13035381D02*
X13111762Y-12997286D01*
X13111762Y-12997286D02*
X13111762Y-12949667D01*
X13111762Y-12949667D02*
X13121286Y-12911571D01*
X13121286Y-12911571D02*
X13130809Y-12892524D01*
X13130809Y-12892524D02*
X13140333Y-12883000D01*
X13140333Y-12883000D02*
X13159381Y-12873476D01*
X13311762Y-13073476D02*
X13311762Y-12940143D01*
X13311762Y-12959190D02*
X13321286Y-12949667D01*
X13321286Y-12949667D02*
X13340333Y-12940143D01*
X13340333Y-12940143D02*
X13368905Y-12940143D01*
X13368905Y-12940143D02*
X13387952Y-12949667D01*
X13387952Y-12949667D02*
X13397476Y-12968714D01*
X13397476Y-12968714D02*
X13397476Y-13073476D01*
X13397476Y-12968714D02*
X13407000Y-12949667D01*
X13407000Y-12949667D02*
X13426048Y-12940143D01*
X13426048Y-12940143D02*
X13454619Y-12940143D01*
X13454619Y-12940143D02*
X13473667Y-12949667D01*
X13473667Y-12949667D02*
X13483190Y-12968714D01*
X13483190Y-12968714D02*
X13483190Y-13073476D01*
X13578429Y-13073476D02*
X13578429Y-12940143D01*
X13578429Y-12959190D02*
X13587952Y-12949667D01*
X13587952Y-12949667D02*
X13607000Y-12940143D01*
X13607000Y-12940143D02*
X13635571Y-12940143D01*
X13635571Y-12940143D02*
X13654619Y-12949667D01*
X13654619Y-12949667D02*
X13664143Y-12968714D01*
X13664143Y-12968714D02*
X13664143Y-13073476D01*
X13664143Y-12968714D02*
X13673667Y-12949667D01*
X13673667Y-12949667D02*
X13692714Y-12940143D01*
X13692714Y-12940143D02*
X13721286Y-12940143D01*
X13721286Y-12940143D02*
X13740333Y-12949667D01*
X13740333Y-12949667D02*
X13749857Y-12968714D01*
X13749857Y-12968714D02*
X13749857Y-13073476D01*
X14107952Y-12863952D02*
X13936524Y-13121095D01*
X14332714Y-12873476D02*
X14351762Y-12873476D01*
X14351762Y-12873476D02*
X14370810Y-12883000D01*
X14370810Y-12883000D02*
X14380333Y-12892524D01*
X14380333Y-12892524D02*
X14389857Y-12911571D01*
X14389857Y-12911571D02*
X14399381Y-12949667D01*
X14399381Y-12949667D02*
X14399381Y-12997286D01*
X14399381Y-12997286D02*
X14389857Y-13035381D01*
X14389857Y-13035381D02*
X14380333Y-13054428D01*
X14380333Y-13054428D02*
X14370810Y-13063952D01*
X14370810Y-13063952D02*
X14351762Y-13073476D01*
X14351762Y-13073476D02*
X14332714Y-13073476D01*
X14332714Y-13073476D02*
X14313667Y-13063952D01*
X14313667Y-13063952D02*
X14304143Y-13054428D01*
X14304143Y-13054428D02*
X14294619Y-13035381D01*
X14294619Y-13035381D02*
X14285095Y-12997286D01*
X14285095Y-12997286D02*
X14285095Y-12949667D01*
X14285095Y-12949667D02*
X14294619Y-12911571D01*
X14294619Y-12911571D02*
X14304143Y-12892524D01*
X14304143Y-12892524D02*
X14313667Y-12883000D01*
X14313667Y-12883000D02*
X14332714Y-12873476D01*
X14485095Y-13054428D02*
X14494619Y-13063952D01*
X14494619Y-13063952D02*
X14485095Y-13073476D01*
X14485095Y-13073476D02*
X14475571Y-13063952D01*
X14475571Y-13063952D02*
X14485095Y-13054428D01*
X14485095Y-13054428D02*
X14485095Y-13073476D01*
X14618429Y-12873476D02*
X14637476Y-12873476D01*
X14637476Y-12873476D02*
X14656524Y-12883000D01*
X14656524Y-12883000D02*
X14666048Y-12892524D01*
X14666048Y-12892524D02*
X14675571Y-12911571D01*
X14675571Y-12911571D02*
X14685095Y-12949667D01*
X14685095Y-12949667D02*
X14685095Y-12997286D01*
X14685095Y-12997286D02*
X14675571Y-13035381D01*
X14675571Y-13035381D02*
X14666048Y-13054428D01*
X14666048Y-13054428D02*
X14656524Y-13063952D01*
X14656524Y-13063952D02*
X14637476Y-13073476D01*
X14637476Y-13073476D02*
X14618429Y-13073476D01*
X14618429Y-13073476D02*
X14599381Y-13063952D01*
X14599381Y-13063952D02*
X14589857Y-13054428D01*
X14589857Y-13054428D02*
X14580333Y-13035381D01*
X14580333Y-13035381D02*
X14570810Y-12997286D01*
X14570810Y-12997286D02*
X14570810Y-12949667D01*
X14570810Y-12949667D02*
X14580333Y-12911571D01*
X14580333Y-12911571D02*
X14589857Y-12892524D01*
X14589857Y-12892524D02*
X14599381Y-12883000D01*
X14599381Y-12883000D02*
X14618429Y-12873476D01*
X14751762Y-12873476D02*
X14875571Y-12873476D01*
X14875571Y-12873476D02*
X14808905Y-12949667D01*
X14808905Y-12949667D02*
X14837476Y-12949667D01*
X14837476Y-12949667D02*
X14856524Y-12959190D01*
X14856524Y-12959190D02*
X14866048Y-12968714D01*
X14866048Y-12968714D02*
X14875571Y-12987762D01*
X14875571Y-12987762D02*
X14875571Y-13035381D01*
X14875571Y-13035381D02*
X14866048Y-13054428D01*
X14866048Y-13054428D02*
X14856524Y-13063952D01*
X14856524Y-13063952D02*
X14837476Y-13073476D01*
X14837476Y-13073476D02*
X14780333Y-13073476D01*
X14780333Y-13073476D02*
X14761286Y-13063952D01*
X14761286Y-13063952D02*
X14751762Y-13054428D01*
X15056524Y-12873476D02*
X14961286Y-12873476D01*
X14961286Y-12873476D02*
X14951762Y-12968714D01*
X14951762Y-12968714D02*
X14961286Y-12959190D01*
X14961286Y-12959190D02*
X14980333Y-12949667D01*
X14980333Y-12949667D02*
X15027952Y-12949667D01*
X15027952Y-12949667D02*
X15047000Y-12959190D01*
X15047000Y-12959190D02*
X15056524Y-12968714D01*
X15056524Y-12968714D02*
X15066048Y-12987762D01*
X15066048Y-12987762D02*
X15066048Y-13035381D01*
X15066048Y-13035381D02*
X15056524Y-13054428D01*
X15056524Y-13054428D02*
X15047000Y-13063952D01*
X15047000Y-13063952D02*
X15027952Y-13073476D01*
X15027952Y-13073476D02*
X14980333Y-13073476D01*
X14980333Y-13073476D02*
X14961286Y-13063952D01*
X14961286Y-13063952D02*
X14951762Y-13054428D01*
X15237476Y-12940143D02*
X15237476Y-13073476D01*
X15189857Y-12863952D02*
X15142238Y-13006809D01*
X15142238Y-13006809D02*
X15266048Y-13006809D01*
X15332714Y-12873476D02*
X15332714Y-12911571D01*
X15408905Y-12873476D02*
X15408905Y-12911571D01*
X15671762Y-13149667D02*
X15662238Y-13140143D01*
X15662238Y-13140143D02*
X15643191Y-13111571D01*
X15643191Y-13111571D02*
X15633667Y-13092524D01*
X15633667Y-13092524D02*
X15624143Y-13063952D01*
X15624143Y-13063952D02*
X15614619Y-13016333D01*
X15614619Y-13016333D02*
X15614619Y-12978238D01*
X15614619Y-12978238D02*
X15624143Y-12930619D01*
X15624143Y-12930619D02*
X15633667Y-12902048D01*
X15633667Y-12902048D02*
X15643191Y-12883000D01*
X15643191Y-12883000D02*
X15662238Y-12854428D01*
X15662238Y-12854428D02*
X15671762Y-12844905D01*
X15833667Y-12940143D02*
X15833667Y-13073476D01*
X15786048Y-12863952D02*
X15738429Y-13006809D01*
X15738429Y-13006809D02*
X15862238Y-13006809D01*
X16058429Y-13073476D02*
X16058429Y-12873476D01*
X16144143Y-13073476D02*
X16144143Y-12968714D01*
X16144143Y-12968714D02*
X16134619Y-12949667D01*
X16134619Y-12949667D02*
X16115572Y-12940143D01*
X16115572Y-12940143D02*
X16087000Y-12940143D01*
X16087000Y-12940143D02*
X16067952Y-12949667D01*
X16067952Y-12949667D02*
X16058429Y-12959190D01*
X16267952Y-13073476D02*
X16248905Y-13063952D01*
X16248905Y-13063952D02*
X16239381Y-13054428D01*
X16239381Y-13054428D02*
X16229857Y-13035381D01*
X16229857Y-13035381D02*
X16229857Y-12978238D01*
X16229857Y-12978238D02*
X16239381Y-12959190D01*
X16239381Y-12959190D02*
X16248905Y-12949667D01*
X16248905Y-12949667D02*
X16267952Y-12940143D01*
X16267952Y-12940143D02*
X16296524Y-12940143D01*
X16296524Y-12940143D02*
X16315572Y-12949667D01*
X16315572Y-12949667D02*
X16325095Y-12959190D01*
X16325095Y-12959190D02*
X16334619Y-12978238D01*
X16334619Y-12978238D02*
X16334619Y-13035381D01*
X16334619Y-13035381D02*
X16325095Y-13054428D01*
X16325095Y-13054428D02*
X16315572Y-13063952D01*
X16315572Y-13063952D02*
X16296524Y-13073476D01*
X16296524Y-13073476D02*
X16267952Y-13073476D01*
X16448905Y-13073476D02*
X16429857Y-13063952D01*
X16429857Y-13063952D02*
X16420333Y-13044905D01*
X16420333Y-13044905D02*
X16420333Y-12873476D01*
X16601286Y-13063952D02*
X16582238Y-13073476D01*
X16582238Y-13073476D02*
X16544143Y-13073476D01*
X16544143Y-13073476D02*
X16525095Y-13063952D01*
X16525095Y-13063952D02*
X16515572Y-13044905D01*
X16515572Y-13044905D02*
X16515572Y-12968714D01*
X16515572Y-12968714D02*
X16525095Y-12949667D01*
X16525095Y-12949667D02*
X16544143Y-12940143D01*
X16544143Y-12940143D02*
X16582238Y-12940143D01*
X16582238Y-12940143D02*
X16601286Y-12949667D01*
X16601286Y-12949667D02*
X16610810Y-12968714D01*
X16610810Y-12968714D02*
X16610810Y-12987762D01*
X16610810Y-12987762D02*
X16515572Y-13006809D01*
X16687000Y-13063952D02*
X16706048Y-13073476D01*
X16706048Y-13073476D02*
X16744143Y-13073476D01*
X16744143Y-13073476D02*
X16763191Y-13063952D01*
X16763191Y-13063952D02*
X16772714Y-13044905D01*
X16772714Y-13044905D02*
X16772714Y-13035381D01*
X16772714Y-13035381D02*
X16763191Y-13016333D01*
X16763191Y-13016333D02*
X16744143Y-13006809D01*
X16744143Y-13006809D02*
X16715572Y-13006809D01*
X16715572Y-13006809D02*
X16696524Y-12997286D01*
X16696524Y-12997286D02*
X16687000Y-12978238D01*
X16687000Y-12978238D02*
X16687000Y-12968714D01*
X16687000Y-12968714D02*
X16696524Y-12949667D01*
X16696524Y-12949667D02*
X16715572Y-12940143D01*
X16715572Y-12940143D02*
X16744143Y-12940143D01*
X16744143Y-12940143D02*
X16763191Y-12949667D01*
X16839381Y-13149667D02*
X16848905Y-13140143D01*
X16848905Y-13140143D02*
X16867953Y-13111571D01*
X16867953Y-13111571D02*
X16877476Y-13092524D01*
X16877476Y-13092524D02*
X16887000Y-13063952D01*
X16887000Y-13063952D02*
X16896524Y-13016333D01*
X16896524Y-13016333D02*
X16896524Y-12978238D01*
X16896524Y-12978238D02*
X16887000Y-12930619D01*
X16887000Y-12930619D02*
X16877476Y-12902048D01*
X16877476Y-12902048D02*
X16867953Y-12883000D01*
X16867953Y-12883000D02*
X16848905Y-12854428D01*
X16848905Y-12854428D02*
X16839381Y-12844905D01*
D14*
X12157000Y-13214000D02*
X12157000Y-13314000D01*
X12107000Y-13264000D02*
X12207000Y-13264000D01*
D11*
X12559381Y-13337476D02*
X12445095Y-13337476D01*
X12502238Y-13337476D02*
X12502238Y-13137476D01*
X12502238Y-13137476D02*
X12483190Y-13166048D01*
X12483190Y-13166048D02*
X12464143Y-13185095D01*
X12464143Y-13185095D02*
X12445095Y-13194619D01*
X12645095Y-13318428D02*
X12654619Y-13327952D01*
X12654619Y-13327952D02*
X12645095Y-13337476D01*
X12645095Y-13337476D02*
X12635571Y-13327952D01*
X12635571Y-13327952D02*
X12645095Y-13318428D01*
X12645095Y-13318428D02*
X12645095Y-13337476D01*
X12778428Y-13137476D02*
X12797476Y-13137476D01*
X12797476Y-13137476D02*
X12816524Y-13147000D01*
X12816524Y-13147000D02*
X12826048Y-13156524D01*
X12826048Y-13156524D02*
X12835571Y-13175571D01*
X12835571Y-13175571D02*
X12845095Y-13213667D01*
X12845095Y-13213667D02*
X12845095Y-13261286D01*
X12845095Y-13261286D02*
X12835571Y-13299381D01*
X12835571Y-13299381D02*
X12826048Y-13318428D01*
X12826048Y-13318428D02*
X12816524Y-13327952D01*
X12816524Y-13327952D02*
X12797476Y-13337476D01*
X12797476Y-13337476D02*
X12778428Y-13337476D01*
X12778428Y-13337476D02*
X12759381Y-13327952D01*
X12759381Y-13327952D02*
X12749857Y-13318428D01*
X12749857Y-13318428D02*
X12740333Y-13299381D01*
X12740333Y-13299381D02*
X12730809Y-13261286D01*
X12730809Y-13261286D02*
X12730809Y-13213667D01*
X12730809Y-13213667D02*
X12740333Y-13175571D01*
X12740333Y-13175571D02*
X12749857Y-13156524D01*
X12749857Y-13156524D02*
X12759381Y-13147000D01*
X12759381Y-13147000D02*
X12778428Y-13137476D01*
X12968905Y-13137476D02*
X12987952Y-13137476D01*
X12987952Y-13137476D02*
X13007000Y-13147000D01*
X13007000Y-13147000D02*
X13016524Y-13156524D01*
X13016524Y-13156524D02*
X13026048Y-13175571D01*
X13026048Y-13175571D02*
X13035571Y-13213667D01*
X13035571Y-13213667D02*
X13035571Y-13261286D01*
X13035571Y-13261286D02*
X13026048Y-13299381D01*
X13026048Y-13299381D02*
X13016524Y-13318428D01*
X13016524Y-13318428D02*
X13007000Y-13327952D01*
X13007000Y-13327952D02*
X12987952Y-13337476D01*
X12987952Y-13337476D02*
X12968905Y-13337476D01*
X12968905Y-13337476D02*
X12949857Y-13327952D01*
X12949857Y-13327952D02*
X12940333Y-13318428D01*
X12940333Y-13318428D02*
X12930809Y-13299381D01*
X12930809Y-13299381D02*
X12921286Y-13261286D01*
X12921286Y-13261286D02*
X12921286Y-13213667D01*
X12921286Y-13213667D02*
X12930809Y-13175571D01*
X12930809Y-13175571D02*
X12940333Y-13156524D01*
X12940333Y-13156524D02*
X12949857Y-13147000D01*
X12949857Y-13147000D02*
X12968905Y-13137476D01*
X13159381Y-13137476D02*
X13178429Y-13137476D01*
X13178429Y-13137476D02*
X13197476Y-13147000D01*
X13197476Y-13147000D02*
X13207000Y-13156524D01*
X13207000Y-13156524D02*
X13216524Y-13175571D01*
X13216524Y-13175571D02*
X13226048Y-13213667D01*
X13226048Y-13213667D02*
X13226048Y-13261286D01*
X13226048Y-13261286D02*
X13216524Y-13299381D01*
X13216524Y-13299381D02*
X13207000Y-13318428D01*
X13207000Y-13318428D02*
X13197476Y-13327952D01*
X13197476Y-13327952D02*
X13178429Y-13337476D01*
X13178429Y-13337476D02*
X13159381Y-13337476D01*
X13159381Y-13337476D02*
X13140333Y-13327952D01*
X13140333Y-13327952D02*
X13130809Y-13318428D01*
X13130809Y-13318428D02*
X13121286Y-13299381D01*
X13121286Y-13299381D02*
X13111762Y-13261286D01*
X13111762Y-13261286D02*
X13111762Y-13213667D01*
X13111762Y-13213667D02*
X13121286Y-13175571D01*
X13121286Y-13175571D02*
X13130809Y-13156524D01*
X13130809Y-13156524D02*
X13140333Y-13147000D01*
X13140333Y-13147000D02*
X13159381Y-13137476D01*
X13311762Y-13337476D02*
X13311762Y-13204143D01*
X13311762Y-13223190D02*
X13321286Y-13213667D01*
X13321286Y-13213667D02*
X13340333Y-13204143D01*
X13340333Y-13204143D02*
X13368905Y-13204143D01*
X13368905Y-13204143D02*
X13387952Y-13213667D01*
X13387952Y-13213667D02*
X13397476Y-13232714D01*
X13397476Y-13232714D02*
X13397476Y-13337476D01*
X13397476Y-13232714D02*
X13407000Y-13213667D01*
X13407000Y-13213667D02*
X13426048Y-13204143D01*
X13426048Y-13204143D02*
X13454619Y-13204143D01*
X13454619Y-13204143D02*
X13473667Y-13213667D01*
X13473667Y-13213667D02*
X13483190Y-13232714D01*
X13483190Y-13232714D02*
X13483190Y-13337476D01*
X13578429Y-13337476D02*
X13578429Y-13204143D01*
X13578429Y-13223190D02*
X13587952Y-13213667D01*
X13587952Y-13213667D02*
X13607000Y-13204143D01*
X13607000Y-13204143D02*
X13635571Y-13204143D01*
X13635571Y-13204143D02*
X13654619Y-13213667D01*
X13654619Y-13213667D02*
X13664143Y-13232714D01*
X13664143Y-13232714D02*
X13664143Y-13337476D01*
X13664143Y-13232714D02*
X13673667Y-13213667D01*
X13673667Y-13213667D02*
X13692714Y-13204143D01*
X13692714Y-13204143D02*
X13721286Y-13204143D01*
X13721286Y-13204143D02*
X13740333Y-13213667D01*
X13740333Y-13213667D02*
X13749857Y-13232714D01*
X13749857Y-13232714D02*
X13749857Y-13337476D01*
X14107952Y-13127952D02*
X13936524Y-13385095D01*
X14332714Y-13137476D02*
X14351762Y-13137476D01*
X14351762Y-13137476D02*
X14370810Y-13147000D01*
X14370810Y-13147000D02*
X14380333Y-13156524D01*
X14380333Y-13156524D02*
X14389857Y-13175571D01*
X14389857Y-13175571D02*
X14399381Y-13213667D01*
X14399381Y-13213667D02*
X14399381Y-13261286D01*
X14399381Y-13261286D02*
X14389857Y-13299381D01*
X14389857Y-13299381D02*
X14380333Y-13318428D01*
X14380333Y-13318428D02*
X14370810Y-13327952D01*
X14370810Y-13327952D02*
X14351762Y-13337476D01*
X14351762Y-13337476D02*
X14332714Y-13337476D01*
X14332714Y-13337476D02*
X14313667Y-13327952D01*
X14313667Y-13327952D02*
X14304143Y-13318428D01*
X14304143Y-13318428D02*
X14294619Y-13299381D01*
X14294619Y-13299381D02*
X14285095Y-13261286D01*
X14285095Y-13261286D02*
X14285095Y-13213667D01*
X14285095Y-13213667D02*
X14294619Y-13175571D01*
X14294619Y-13175571D02*
X14304143Y-13156524D01*
X14304143Y-13156524D02*
X14313667Y-13147000D01*
X14313667Y-13147000D02*
X14332714Y-13137476D01*
X14485095Y-13318428D02*
X14494619Y-13327952D01*
X14494619Y-13327952D02*
X14485095Y-13337476D01*
X14485095Y-13337476D02*
X14475571Y-13327952D01*
X14475571Y-13327952D02*
X14485095Y-13318428D01*
X14485095Y-13318428D02*
X14485095Y-13337476D01*
X14618429Y-13137476D02*
X14637476Y-13137476D01*
X14637476Y-13137476D02*
X14656524Y-13147000D01*
X14656524Y-13147000D02*
X14666048Y-13156524D01*
X14666048Y-13156524D02*
X14675571Y-13175571D01*
X14675571Y-13175571D02*
X14685095Y-13213667D01*
X14685095Y-13213667D02*
X14685095Y-13261286D01*
X14685095Y-13261286D02*
X14675571Y-13299381D01*
X14675571Y-13299381D02*
X14666048Y-13318428D01*
X14666048Y-13318428D02*
X14656524Y-13327952D01*
X14656524Y-13327952D02*
X14637476Y-13337476D01*
X14637476Y-13337476D02*
X14618429Y-13337476D01*
X14618429Y-13337476D02*
X14599381Y-13327952D01*
X14599381Y-13327952D02*
X14589857Y-13318428D01*
X14589857Y-13318428D02*
X14580333Y-13299381D01*
X14580333Y-13299381D02*
X14570810Y-13261286D01*
X14570810Y-13261286D02*
X14570810Y-13213667D01*
X14570810Y-13213667D02*
X14580333Y-13175571D01*
X14580333Y-13175571D02*
X14589857Y-13156524D01*
X14589857Y-13156524D02*
X14599381Y-13147000D01*
X14599381Y-13147000D02*
X14618429Y-13137476D01*
X14751762Y-13137476D02*
X14875571Y-13137476D01*
X14875571Y-13137476D02*
X14808905Y-13213667D01*
X14808905Y-13213667D02*
X14837476Y-13213667D01*
X14837476Y-13213667D02*
X14856524Y-13223190D01*
X14856524Y-13223190D02*
X14866048Y-13232714D01*
X14866048Y-13232714D02*
X14875571Y-13251762D01*
X14875571Y-13251762D02*
X14875571Y-13299381D01*
X14875571Y-13299381D02*
X14866048Y-13318428D01*
X14866048Y-13318428D02*
X14856524Y-13327952D01*
X14856524Y-13327952D02*
X14837476Y-13337476D01*
X14837476Y-13337476D02*
X14780333Y-13337476D01*
X14780333Y-13337476D02*
X14761286Y-13327952D01*
X14761286Y-13327952D02*
X14751762Y-13318428D01*
X14970810Y-13337476D02*
X15008905Y-13337476D01*
X15008905Y-13337476D02*
X15027952Y-13327952D01*
X15027952Y-13327952D02*
X15037476Y-13318428D01*
X15037476Y-13318428D02*
X15056524Y-13289857D01*
X15056524Y-13289857D02*
X15066048Y-13251762D01*
X15066048Y-13251762D02*
X15066048Y-13175571D01*
X15066048Y-13175571D02*
X15056524Y-13156524D01*
X15056524Y-13156524D02*
X15047000Y-13147000D01*
X15047000Y-13147000D02*
X15027952Y-13137476D01*
X15027952Y-13137476D02*
X14989857Y-13137476D01*
X14989857Y-13137476D02*
X14970810Y-13147000D01*
X14970810Y-13147000D02*
X14961286Y-13156524D01*
X14961286Y-13156524D02*
X14951762Y-13175571D01*
X14951762Y-13175571D02*
X14951762Y-13223190D01*
X14951762Y-13223190D02*
X14961286Y-13242238D01*
X14961286Y-13242238D02*
X14970810Y-13251762D01*
X14970810Y-13251762D02*
X14989857Y-13261286D01*
X14989857Y-13261286D02*
X15027952Y-13261286D01*
X15027952Y-13261286D02*
X15047000Y-13251762D01*
X15047000Y-13251762D02*
X15056524Y-13242238D01*
X15056524Y-13242238D02*
X15066048Y-13223190D01*
X15237476Y-13204143D02*
X15237476Y-13337476D01*
X15189857Y-13127952D02*
X15142238Y-13270809D01*
X15142238Y-13270809D02*
X15266048Y-13270809D01*
X15332714Y-13137476D02*
X15332714Y-13175571D01*
X15408905Y-13137476D02*
X15408905Y-13175571D01*
X15671762Y-13413667D02*
X15662238Y-13404143D01*
X15662238Y-13404143D02*
X15643191Y-13375571D01*
X15643191Y-13375571D02*
X15633667Y-13356524D01*
X15633667Y-13356524D02*
X15624143Y-13327952D01*
X15624143Y-13327952D02*
X15614619Y-13280333D01*
X15614619Y-13280333D02*
X15614619Y-13242238D01*
X15614619Y-13242238D02*
X15624143Y-13194619D01*
X15624143Y-13194619D02*
X15633667Y-13166048D01*
X15633667Y-13166048D02*
X15643191Y-13147000D01*
X15643191Y-13147000D02*
X15662238Y-13118428D01*
X15662238Y-13118428D02*
X15671762Y-13108905D01*
X15833667Y-13204143D02*
X15833667Y-13337476D01*
X15786048Y-13127952D02*
X15738429Y-13270809D01*
X15738429Y-13270809D02*
X15862238Y-13270809D01*
X16024143Y-13137476D02*
X15986048Y-13137476D01*
X15986048Y-13137476D02*
X15967000Y-13147000D01*
X15967000Y-13147000D02*
X15957476Y-13156524D01*
X15957476Y-13156524D02*
X15938429Y-13185095D01*
X15938429Y-13185095D02*
X15928905Y-13223190D01*
X15928905Y-13223190D02*
X15928905Y-13299381D01*
X15928905Y-13299381D02*
X15938429Y-13318428D01*
X15938429Y-13318428D02*
X15947952Y-13327952D01*
X15947952Y-13327952D02*
X15967000Y-13337476D01*
X15967000Y-13337476D02*
X16005095Y-13337476D01*
X16005095Y-13337476D02*
X16024143Y-13327952D01*
X16024143Y-13327952D02*
X16033667Y-13318428D01*
X16033667Y-13318428D02*
X16043191Y-13299381D01*
X16043191Y-13299381D02*
X16043191Y-13251762D01*
X16043191Y-13251762D02*
X16033667Y-13232714D01*
X16033667Y-13232714D02*
X16024143Y-13223190D01*
X16024143Y-13223190D02*
X16005095Y-13213667D01*
X16005095Y-13213667D02*
X15967000Y-13213667D01*
X15967000Y-13213667D02*
X15947952Y-13223190D01*
X15947952Y-13223190D02*
X15938429Y-13232714D01*
X15938429Y-13232714D02*
X15928905Y-13251762D01*
X16248905Y-13337476D02*
X16248905Y-13137476D01*
X16334619Y-13337476D02*
X16334619Y-13232714D01*
X16334619Y-13232714D02*
X16325095Y-13213667D01*
X16325095Y-13213667D02*
X16306048Y-13204143D01*
X16306048Y-13204143D02*
X16277476Y-13204143D01*
X16277476Y-13204143D02*
X16258429Y-13213667D01*
X16258429Y-13213667D02*
X16248905Y-13223190D01*
X16458429Y-13337476D02*
X16439381Y-13327952D01*
X16439381Y-13327952D02*
X16429857Y-13318428D01*
X16429857Y-13318428D02*
X16420333Y-13299381D01*
X16420333Y-13299381D02*
X16420333Y-13242238D01*
X16420333Y-13242238D02*
X16429857Y-13223190D01*
X16429857Y-13223190D02*
X16439381Y-13213667D01*
X16439381Y-13213667D02*
X16458429Y-13204143D01*
X16458429Y-13204143D02*
X16487000Y-13204143D01*
X16487000Y-13204143D02*
X16506048Y-13213667D01*
X16506048Y-13213667D02*
X16515572Y-13223190D01*
X16515572Y-13223190D02*
X16525095Y-13242238D01*
X16525095Y-13242238D02*
X16525095Y-13299381D01*
X16525095Y-13299381D02*
X16515572Y-13318428D01*
X16515572Y-13318428D02*
X16506048Y-13327952D01*
X16506048Y-13327952D02*
X16487000Y-13337476D01*
X16487000Y-13337476D02*
X16458429Y-13337476D01*
X16639381Y-13337476D02*
X16620333Y-13327952D01*
X16620333Y-13327952D02*
X16610810Y-13308905D01*
X16610810Y-13308905D02*
X16610810Y-13137476D01*
X16791762Y-13327952D02*
X16772714Y-13337476D01*
X16772714Y-13337476D02*
X16734619Y-13337476D01*
X16734619Y-13337476D02*
X16715572Y-13327952D01*
X16715572Y-13327952D02*
X16706048Y-13308905D01*
X16706048Y-13308905D02*
X16706048Y-13232714D01*
X16706048Y-13232714D02*
X16715572Y-13213667D01*
X16715572Y-13213667D02*
X16734619Y-13204143D01*
X16734619Y-13204143D02*
X16772714Y-13204143D01*
X16772714Y-13204143D02*
X16791762Y-13213667D01*
X16791762Y-13213667D02*
X16801286Y-13232714D01*
X16801286Y-13232714D02*
X16801286Y-13251762D01*
X16801286Y-13251762D02*
X16706048Y-13270809D01*
X16877476Y-13327952D02*
X16896524Y-13337476D01*
X16896524Y-13337476D02*
X16934619Y-13337476D01*
X16934619Y-13337476D02*
X16953667Y-13327952D01*
X16953667Y-13327952D02*
X16963191Y-13308905D01*
X16963191Y-13308905D02*
X16963191Y-13299381D01*
X16963191Y-13299381D02*
X16953667Y-13280333D01*
X16953667Y-13280333D02*
X16934619Y-13270809D01*
X16934619Y-13270809D02*
X16906048Y-13270809D01*
X16906048Y-13270809D02*
X16887000Y-13261286D01*
X16887000Y-13261286D02*
X16877476Y-13242238D01*
X16877476Y-13242238D02*
X16877476Y-13232714D01*
X16877476Y-13232714D02*
X16887000Y-13213667D01*
X16887000Y-13213667D02*
X16906048Y-13204143D01*
X16906048Y-13204143D02*
X16934619Y-13204143D01*
X16934619Y-13204143D02*
X16953667Y-13213667D01*
X17029857Y-13413667D02*
X17039381Y-13404143D01*
X17039381Y-13404143D02*
X17058429Y-13375571D01*
X17058429Y-13375571D02*
X17067953Y-13356524D01*
X17067953Y-13356524D02*
X17077476Y-13327952D01*
X17077476Y-13327952D02*
X17087000Y-13280333D01*
X17087000Y-13280333D02*
X17087000Y-13242238D01*
X17087000Y-13242238D02*
X17077476Y-13194619D01*
X17077476Y-13194619D02*
X17067953Y-13166048D01*
X17067953Y-13166048D02*
X17058429Y-13147000D01*
X17058429Y-13147000D02*
X17039381Y-13118428D01*
X17039381Y-13118428D02*
X17029857Y-13108905D01*
D15*
X12190891Y-13566891D02*
X12190891Y-13489109D01*
X12113109Y-13489109D01*
X12113109Y-13566891D01*
X12190891Y-13566891D01*
D11*
X12559381Y-13601476D02*
X12445095Y-13601476D01*
X12502238Y-13601476D02*
X12502238Y-13401476D01*
X12502238Y-13401476D02*
X12483190Y-13430048D01*
X12483190Y-13430048D02*
X12464143Y-13449095D01*
X12464143Y-13449095D02*
X12445095Y-13458619D01*
X12645095Y-13582428D02*
X12654619Y-13591952D01*
X12654619Y-13591952D02*
X12645095Y-13601476D01*
X12645095Y-13601476D02*
X12635571Y-13591952D01*
X12635571Y-13591952D02*
X12645095Y-13582428D01*
X12645095Y-13582428D02*
X12645095Y-13601476D01*
X12845095Y-13601476D02*
X12730809Y-13601476D01*
X12787952Y-13601476D02*
X12787952Y-13401476D01*
X12787952Y-13401476D02*
X12768905Y-13430048D01*
X12768905Y-13430048D02*
X12749857Y-13449095D01*
X12749857Y-13449095D02*
X12730809Y-13458619D01*
X12968905Y-13401476D02*
X12987952Y-13401476D01*
X12987952Y-13401476D02*
X13007000Y-13411000D01*
X13007000Y-13411000D02*
X13016524Y-13420524D01*
X13016524Y-13420524D02*
X13026048Y-13439571D01*
X13026048Y-13439571D02*
X13035571Y-13477667D01*
X13035571Y-13477667D02*
X13035571Y-13525286D01*
X13035571Y-13525286D02*
X13026048Y-13563381D01*
X13026048Y-13563381D02*
X13016524Y-13582428D01*
X13016524Y-13582428D02*
X13007000Y-13591952D01*
X13007000Y-13591952D02*
X12987952Y-13601476D01*
X12987952Y-13601476D02*
X12968905Y-13601476D01*
X12968905Y-13601476D02*
X12949857Y-13591952D01*
X12949857Y-13591952D02*
X12940333Y-13582428D01*
X12940333Y-13582428D02*
X12930809Y-13563381D01*
X12930809Y-13563381D02*
X12921286Y-13525286D01*
X12921286Y-13525286D02*
X12921286Y-13477667D01*
X12921286Y-13477667D02*
X12930809Y-13439571D01*
X12930809Y-13439571D02*
X12940333Y-13420524D01*
X12940333Y-13420524D02*
X12949857Y-13411000D01*
X12949857Y-13411000D02*
X12968905Y-13401476D01*
X13159381Y-13401476D02*
X13178429Y-13401476D01*
X13178429Y-13401476D02*
X13197476Y-13411000D01*
X13197476Y-13411000D02*
X13207000Y-13420524D01*
X13207000Y-13420524D02*
X13216524Y-13439571D01*
X13216524Y-13439571D02*
X13226048Y-13477667D01*
X13226048Y-13477667D02*
X13226048Y-13525286D01*
X13226048Y-13525286D02*
X13216524Y-13563381D01*
X13216524Y-13563381D02*
X13207000Y-13582428D01*
X13207000Y-13582428D02*
X13197476Y-13591952D01*
X13197476Y-13591952D02*
X13178429Y-13601476D01*
X13178429Y-13601476D02*
X13159381Y-13601476D01*
X13159381Y-13601476D02*
X13140333Y-13591952D01*
X13140333Y-13591952D02*
X13130809Y-13582428D01*
X13130809Y-13582428D02*
X13121286Y-13563381D01*
X13121286Y-13563381D02*
X13111762Y-13525286D01*
X13111762Y-13525286D02*
X13111762Y-13477667D01*
X13111762Y-13477667D02*
X13121286Y-13439571D01*
X13121286Y-13439571D02*
X13130809Y-13420524D01*
X13130809Y-13420524D02*
X13140333Y-13411000D01*
X13140333Y-13411000D02*
X13159381Y-13401476D01*
X13311762Y-13601476D02*
X13311762Y-13468143D01*
X13311762Y-13487190D02*
X13321286Y-13477667D01*
X13321286Y-13477667D02*
X13340333Y-13468143D01*
X13340333Y-13468143D02*
X13368905Y-13468143D01*
X13368905Y-13468143D02*
X13387952Y-13477667D01*
X13387952Y-13477667D02*
X13397476Y-13496714D01*
X13397476Y-13496714D02*
X13397476Y-13601476D01*
X13397476Y-13496714D02*
X13407000Y-13477667D01*
X13407000Y-13477667D02*
X13426048Y-13468143D01*
X13426048Y-13468143D02*
X13454619Y-13468143D01*
X13454619Y-13468143D02*
X13473667Y-13477667D01*
X13473667Y-13477667D02*
X13483190Y-13496714D01*
X13483190Y-13496714D02*
X13483190Y-13601476D01*
X13578429Y-13601476D02*
X13578429Y-13468143D01*
X13578429Y-13487190D02*
X13587952Y-13477667D01*
X13587952Y-13477667D02*
X13607000Y-13468143D01*
X13607000Y-13468143D02*
X13635571Y-13468143D01*
X13635571Y-13468143D02*
X13654619Y-13477667D01*
X13654619Y-13477667D02*
X13664143Y-13496714D01*
X13664143Y-13496714D02*
X13664143Y-13601476D01*
X13664143Y-13496714D02*
X13673667Y-13477667D01*
X13673667Y-13477667D02*
X13692714Y-13468143D01*
X13692714Y-13468143D02*
X13721286Y-13468143D01*
X13721286Y-13468143D02*
X13740333Y-13477667D01*
X13740333Y-13477667D02*
X13749857Y-13496714D01*
X13749857Y-13496714D02*
X13749857Y-13601476D01*
X14107952Y-13391952D02*
X13936524Y-13649095D01*
X14332714Y-13401476D02*
X14351762Y-13401476D01*
X14351762Y-13401476D02*
X14370810Y-13411000D01*
X14370810Y-13411000D02*
X14380333Y-13420524D01*
X14380333Y-13420524D02*
X14389857Y-13439571D01*
X14389857Y-13439571D02*
X14399381Y-13477667D01*
X14399381Y-13477667D02*
X14399381Y-13525286D01*
X14399381Y-13525286D02*
X14389857Y-13563381D01*
X14389857Y-13563381D02*
X14380333Y-13582428D01*
X14380333Y-13582428D02*
X14370810Y-13591952D01*
X14370810Y-13591952D02*
X14351762Y-13601476D01*
X14351762Y-13601476D02*
X14332714Y-13601476D01*
X14332714Y-13601476D02*
X14313667Y-13591952D01*
X14313667Y-13591952D02*
X14304143Y-13582428D01*
X14304143Y-13582428D02*
X14294619Y-13563381D01*
X14294619Y-13563381D02*
X14285095Y-13525286D01*
X14285095Y-13525286D02*
X14285095Y-13477667D01*
X14285095Y-13477667D02*
X14294619Y-13439571D01*
X14294619Y-13439571D02*
X14304143Y-13420524D01*
X14304143Y-13420524D02*
X14313667Y-13411000D01*
X14313667Y-13411000D02*
X14332714Y-13401476D01*
X14485095Y-13582428D02*
X14494619Y-13591952D01*
X14494619Y-13591952D02*
X14485095Y-13601476D01*
X14485095Y-13601476D02*
X14475571Y-13591952D01*
X14475571Y-13591952D02*
X14485095Y-13582428D01*
X14485095Y-13582428D02*
X14485095Y-13601476D01*
X14618429Y-13401476D02*
X14637476Y-13401476D01*
X14637476Y-13401476D02*
X14656524Y-13411000D01*
X14656524Y-13411000D02*
X14666048Y-13420524D01*
X14666048Y-13420524D02*
X14675571Y-13439571D01*
X14675571Y-13439571D02*
X14685095Y-13477667D01*
X14685095Y-13477667D02*
X14685095Y-13525286D01*
X14685095Y-13525286D02*
X14675571Y-13563381D01*
X14675571Y-13563381D02*
X14666048Y-13582428D01*
X14666048Y-13582428D02*
X14656524Y-13591952D01*
X14656524Y-13591952D02*
X14637476Y-13601476D01*
X14637476Y-13601476D02*
X14618429Y-13601476D01*
X14618429Y-13601476D02*
X14599381Y-13591952D01*
X14599381Y-13591952D02*
X14589857Y-13582428D01*
X14589857Y-13582428D02*
X14580333Y-13563381D01*
X14580333Y-13563381D02*
X14570810Y-13525286D01*
X14570810Y-13525286D02*
X14570810Y-13477667D01*
X14570810Y-13477667D02*
X14580333Y-13439571D01*
X14580333Y-13439571D02*
X14589857Y-13420524D01*
X14589857Y-13420524D02*
X14599381Y-13411000D01*
X14599381Y-13411000D02*
X14618429Y-13401476D01*
X14856524Y-13468143D02*
X14856524Y-13601476D01*
X14808905Y-13391952D02*
X14761286Y-13534809D01*
X14761286Y-13534809D02*
X14885095Y-13534809D01*
X14942238Y-13401476D02*
X15066048Y-13401476D01*
X15066048Y-13401476D02*
X14999381Y-13477667D01*
X14999381Y-13477667D02*
X15027952Y-13477667D01*
X15027952Y-13477667D02*
X15047000Y-13487190D01*
X15047000Y-13487190D02*
X15056524Y-13496714D01*
X15056524Y-13496714D02*
X15066048Y-13515762D01*
X15066048Y-13515762D02*
X15066048Y-13563381D01*
X15066048Y-13563381D02*
X15056524Y-13582428D01*
X15056524Y-13582428D02*
X15047000Y-13591952D01*
X15047000Y-13591952D02*
X15027952Y-13601476D01*
X15027952Y-13601476D02*
X14970810Y-13601476D01*
X14970810Y-13601476D02*
X14951762Y-13591952D01*
X14951762Y-13591952D02*
X14942238Y-13582428D01*
X15132714Y-13401476D02*
X15256524Y-13401476D01*
X15256524Y-13401476D02*
X15189857Y-13477667D01*
X15189857Y-13477667D02*
X15218429Y-13477667D01*
X15218429Y-13477667D02*
X15237476Y-13487190D01*
X15237476Y-13487190D02*
X15247000Y-13496714D01*
X15247000Y-13496714D02*
X15256524Y-13515762D01*
X15256524Y-13515762D02*
X15256524Y-13563381D01*
X15256524Y-13563381D02*
X15247000Y-13582428D01*
X15247000Y-13582428D02*
X15237476Y-13591952D01*
X15237476Y-13591952D02*
X15218429Y-13601476D01*
X15218429Y-13601476D02*
X15161286Y-13601476D01*
X15161286Y-13601476D02*
X15142238Y-13591952D01*
X15142238Y-13591952D02*
X15132714Y-13582428D01*
X15332714Y-13401476D02*
X15332714Y-13439571D01*
X15408905Y-13401476D02*
X15408905Y-13439571D01*
X15671762Y-13677667D02*
X15662238Y-13668143D01*
X15662238Y-13668143D02*
X15643191Y-13639571D01*
X15643191Y-13639571D02*
X15633667Y-13620524D01*
X15633667Y-13620524D02*
X15624143Y-13591952D01*
X15624143Y-13591952D02*
X15614619Y-13544333D01*
X15614619Y-13544333D02*
X15614619Y-13506238D01*
X15614619Y-13506238D02*
X15624143Y-13458619D01*
X15624143Y-13458619D02*
X15633667Y-13430048D01*
X15633667Y-13430048D02*
X15643191Y-13411000D01*
X15643191Y-13411000D02*
X15662238Y-13382428D01*
X15662238Y-13382428D02*
X15671762Y-13372905D01*
X15776524Y-13487190D02*
X15757476Y-13477667D01*
X15757476Y-13477667D02*
X15747952Y-13468143D01*
X15747952Y-13468143D02*
X15738429Y-13449095D01*
X15738429Y-13449095D02*
X15738429Y-13439571D01*
X15738429Y-13439571D02*
X15747952Y-13420524D01*
X15747952Y-13420524D02*
X15757476Y-13411000D01*
X15757476Y-13411000D02*
X15776524Y-13401476D01*
X15776524Y-13401476D02*
X15814619Y-13401476D01*
X15814619Y-13401476D02*
X15833667Y-13411000D01*
X15833667Y-13411000D02*
X15843191Y-13420524D01*
X15843191Y-13420524D02*
X15852714Y-13439571D01*
X15852714Y-13439571D02*
X15852714Y-13449095D01*
X15852714Y-13449095D02*
X15843191Y-13468143D01*
X15843191Y-13468143D02*
X15833667Y-13477667D01*
X15833667Y-13477667D02*
X15814619Y-13487190D01*
X15814619Y-13487190D02*
X15776524Y-13487190D01*
X15776524Y-13487190D02*
X15757476Y-13496714D01*
X15757476Y-13496714D02*
X15747952Y-13506238D01*
X15747952Y-13506238D02*
X15738429Y-13525286D01*
X15738429Y-13525286D02*
X15738429Y-13563381D01*
X15738429Y-13563381D02*
X15747952Y-13582428D01*
X15747952Y-13582428D02*
X15757476Y-13591952D01*
X15757476Y-13591952D02*
X15776524Y-13601476D01*
X15776524Y-13601476D02*
X15814619Y-13601476D01*
X15814619Y-13601476D02*
X15833667Y-13591952D01*
X15833667Y-13591952D02*
X15843191Y-13582428D01*
X15843191Y-13582428D02*
X15852714Y-13563381D01*
X15852714Y-13563381D02*
X15852714Y-13525286D01*
X15852714Y-13525286D02*
X15843191Y-13506238D01*
X15843191Y-13506238D02*
X15833667Y-13496714D01*
X15833667Y-13496714D02*
X15814619Y-13487190D01*
X16058429Y-13601476D02*
X16058429Y-13401476D01*
X16144143Y-13601476D02*
X16144143Y-13496714D01*
X16144143Y-13496714D02*
X16134619Y-13477667D01*
X16134619Y-13477667D02*
X16115572Y-13468143D01*
X16115572Y-13468143D02*
X16087000Y-13468143D01*
X16087000Y-13468143D02*
X16067952Y-13477667D01*
X16067952Y-13477667D02*
X16058429Y-13487190D01*
X16267952Y-13601476D02*
X16248905Y-13591952D01*
X16248905Y-13591952D02*
X16239381Y-13582428D01*
X16239381Y-13582428D02*
X16229857Y-13563381D01*
X16229857Y-13563381D02*
X16229857Y-13506238D01*
X16229857Y-13506238D02*
X16239381Y-13487190D01*
X16239381Y-13487190D02*
X16248905Y-13477667D01*
X16248905Y-13477667D02*
X16267952Y-13468143D01*
X16267952Y-13468143D02*
X16296524Y-13468143D01*
X16296524Y-13468143D02*
X16315572Y-13477667D01*
X16315572Y-13477667D02*
X16325095Y-13487190D01*
X16325095Y-13487190D02*
X16334619Y-13506238D01*
X16334619Y-13506238D02*
X16334619Y-13563381D01*
X16334619Y-13563381D02*
X16325095Y-13582428D01*
X16325095Y-13582428D02*
X16315572Y-13591952D01*
X16315572Y-13591952D02*
X16296524Y-13601476D01*
X16296524Y-13601476D02*
X16267952Y-13601476D01*
X16448905Y-13601476D02*
X16429857Y-13591952D01*
X16429857Y-13591952D02*
X16420333Y-13572905D01*
X16420333Y-13572905D02*
X16420333Y-13401476D01*
X16601286Y-13591952D02*
X16582238Y-13601476D01*
X16582238Y-13601476D02*
X16544143Y-13601476D01*
X16544143Y-13601476D02*
X16525095Y-13591952D01*
X16525095Y-13591952D02*
X16515572Y-13572905D01*
X16515572Y-13572905D02*
X16515572Y-13496714D01*
X16515572Y-13496714D02*
X16525095Y-13477667D01*
X16525095Y-13477667D02*
X16544143Y-13468143D01*
X16544143Y-13468143D02*
X16582238Y-13468143D01*
X16582238Y-13468143D02*
X16601286Y-13477667D01*
X16601286Y-13477667D02*
X16610810Y-13496714D01*
X16610810Y-13496714D02*
X16610810Y-13515762D01*
X16610810Y-13515762D02*
X16515572Y-13534809D01*
X16687000Y-13591952D02*
X16706048Y-13601476D01*
X16706048Y-13601476D02*
X16744143Y-13601476D01*
X16744143Y-13601476D02*
X16763191Y-13591952D01*
X16763191Y-13591952D02*
X16772714Y-13572905D01*
X16772714Y-13572905D02*
X16772714Y-13563381D01*
X16772714Y-13563381D02*
X16763191Y-13544333D01*
X16763191Y-13544333D02*
X16744143Y-13534809D01*
X16744143Y-13534809D02*
X16715572Y-13534809D01*
X16715572Y-13534809D02*
X16696524Y-13525286D01*
X16696524Y-13525286D02*
X16687000Y-13506238D01*
X16687000Y-13506238D02*
X16687000Y-13496714D01*
X16687000Y-13496714D02*
X16696524Y-13477667D01*
X16696524Y-13477667D02*
X16715572Y-13468143D01*
X16715572Y-13468143D02*
X16744143Y-13468143D01*
X16744143Y-13468143D02*
X16763191Y-13477667D01*
X16839381Y-13677667D02*
X16848905Y-13668143D01*
X16848905Y-13668143D02*
X16867953Y-13639571D01*
X16867953Y-13639571D02*
X16877476Y-13620524D01*
X16877476Y-13620524D02*
X16887000Y-13591952D01*
X16887000Y-13591952D02*
X16896524Y-13544333D01*
X16896524Y-13544333D02*
X16896524Y-13506238D01*
X16896524Y-13506238D02*
X16887000Y-13458619D01*
X16887000Y-13458619D02*
X16877476Y-13430048D01*
X16877476Y-13430048D02*
X16867953Y-13411000D01*
X16867953Y-13411000D02*
X16848905Y-13382428D01*
X16848905Y-13382428D02*
X16839381Y-13372905D01*
M02*
