%TF.GenerationSoftware,KiCad,Pcbnew,(7.0.0-0)*%
%TF.CreationDate,2023-04-13T00:16:45-06:00*%
%TF.ProjectId,Phase A - PCB,50686173-6520-4412-902d-205043422e6b,rev?*%
%TF.SameCoordinates,Original*%
%TF.FileFunction,Legend,Top*%
%TF.FilePolarity,Positive*%
%FSLAX46Y46*%
G04 Gerber Fmt 4.6, Leading zero omitted, Abs format (unit mm)*
G04 Created by KiCad (PCBNEW (7.0.0-0)) date 2023-04-13 00:16:45*
%MOMM*%
%LPD*%
G01*
G04 APERTURE LIST*
%ADD10C,0.150000*%
%ADD11C,0.120000*%
G04 APERTURE END LIST*
D10*
X149735714Y-117409857D02*
X149735714Y-116209857D01*
X150421428Y-117409857D02*
X149907142Y-116724142D01*
X150421428Y-116209857D02*
X149735714Y-116895571D01*
X150935714Y-117409857D02*
X150935714Y-116609857D01*
X150935714Y-116209857D02*
X150878571Y-116267000D01*
X150878571Y-116267000D02*
X150935714Y-116324142D01*
X150935714Y-116324142D02*
X150992857Y-116267000D01*
X150992857Y-116267000D02*
X150935714Y-116209857D01*
X150935714Y-116209857D02*
X150935714Y-116324142D01*
X151335714Y-116609857D02*
X151792857Y-116609857D01*
X151507143Y-116209857D02*
X151507143Y-117238428D01*
X151507143Y-117238428D02*
X151564286Y-117352714D01*
X151564286Y-117352714D02*
X151678571Y-117409857D01*
X151678571Y-117409857D02*
X151792857Y-117409857D01*
X152707143Y-117352714D02*
X152592857Y-117409857D01*
X152592857Y-117409857D02*
X152364285Y-117409857D01*
X152364285Y-117409857D02*
X152250000Y-117352714D01*
X152250000Y-117352714D02*
X152192857Y-117295571D01*
X152192857Y-117295571D02*
X152135714Y-117181285D01*
X152135714Y-117181285D02*
X152135714Y-116838428D01*
X152135714Y-116838428D02*
X152192857Y-116724142D01*
X152192857Y-116724142D02*
X152250000Y-116667000D01*
X152250000Y-116667000D02*
X152364285Y-116609857D01*
X152364285Y-116609857D02*
X152592857Y-116609857D01*
X152592857Y-116609857D02*
X152707143Y-116667000D01*
X153221428Y-117409857D02*
X153221428Y-116209857D01*
X153735714Y-117409857D02*
X153735714Y-116781285D01*
X153735714Y-116781285D02*
X153678571Y-116667000D01*
X153678571Y-116667000D02*
X153564285Y-116609857D01*
X153564285Y-116609857D02*
X153392856Y-116609857D01*
X153392856Y-116609857D02*
X153278571Y-116667000D01*
X153278571Y-116667000D02*
X153221428Y-116724142D01*
X154764285Y-117352714D02*
X154649999Y-117409857D01*
X154649999Y-117409857D02*
X154421428Y-117409857D01*
X154421428Y-117409857D02*
X154307142Y-117352714D01*
X154307142Y-117352714D02*
X154249999Y-117238428D01*
X154249999Y-117238428D02*
X154249999Y-116781285D01*
X154249999Y-116781285D02*
X154307142Y-116667000D01*
X154307142Y-116667000D02*
X154421428Y-116609857D01*
X154421428Y-116609857D02*
X154649999Y-116609857D01*
X154649999Y-116609857D02*
X154764285Y-116667000D01*
X154764285Y-116667000D02*
X154821428Y-116781285D01*
X154821428Y-116781285D02*
X154821428Y-116895571D01*
X154821428Y-116895571D02*
X154249999Y-117009857D01*
X155335713Y-116609857D02*
X155335713Y-117409857D01*
X155335713Y-116724142D02*
X155392856Y-116667000D01*
X155392856Y-116667000D02*
X155507141Y-116609857D01*
X155507141Y-116609857D02*
X155678570Y-116609857D01*
X155678570Y-116609857D02*
X155792856Y-116667000D01*
X155792856Y-116667000D02*
X155849999Y-116781285D01*
X155849999Y-116781285D02*
X155849999Y-117409857D01*
X156969998Y-116209857D02*
X157655713Y-116209857D01*
X157312855Y-117409857D02*
X157312855Y-116209857D01*
X158055713Y-117409857D02*
X158055713Y-116609857D01*
X158055713Y-116209857D02*
X157998570Y-116267000D01*
X157998570Y-116267000D02*
X158055713Y-116324142D01*
X158055713Y-116324142D02*
X158112856Y-116267000D01*
X158112856Y-116267000D02*
X158055713Y-116209857D01*
X158055713Y-116209857D02*
X158055713Y-116324142D01*
X158627142Y-117409857D02*
X158627142Y-116609857D01*
X158627142Y-116724142D02*
X158684285Y-116667000D01*
X158684285Y-116667000D02*
X158798570Y-116609857D01*
X158798570Y-116609857D02*
X158969999Y-116609857D01*
X158969999Y-116609857D02*
X159084285Y-116667000D01*
X159084285Y-116667000D02*
X159141428Y-116781285D01*
X159141428Y-116781285D02*
X159141428Y-117409857D01*
X159141428Y-116781285D02*
X159198570Y-116667000D01*
X159198570Y-116667000D02*
X159312856Y-116609857D01*
X159312856Y-116609857D02*
X159484285Y-116609857D01*
X159484285Y-116609857D02*
X159598570Y-116667000D01*
X159598570Y-116667000D02*
X159655713Y-116781285D01*
X159655713Y-116781285D02*
X159655713Y-117409857D01*
X160684285Y-117352714D02*
X160569999Y-117409857D01*
X160569999Y-117409857D02*
X160341428Y-117409857D01*
X160341428Y-117409857D02*
X160227142Y-117352714D01*
X160227142Y-117352714D02*
X160169999Y-117238428D01*
X160169999Y-117238428D02*
X160169999Y-116781285D01*
X160169999Y-116781285D02*
X160227142Y-116667000D01*
X160227142Y-116667000D02*
X160341428Y-116609857D01*
X160341428Y-116609857D02*
X160569999Y-116609857D01*
X160569999Y-116609857D02*
X160684285Y-116667000D01*
X160684285Y-116667000D02*
X160741428Y-116781285D01*
X160741428Y-116781285D02*
X160741428Y-116895571D01*
X160741428Y-116895571D02*
X160169999Y-117009857D01*
X161255713Y-117409857D02*
X161255713Y-116609857D01*
X161255713Y-116838428D02*
X161312856Y-116724142D01*
X161312856Y-116724142D02*
X161369999Y-116667000D01*
X161369999Y-116667000D02*
X161484284Y-116609857D01*
X161484284Y-116609857D02*
X161598570Y-116609857D01*
X149564285Y-118153857D02*
X149964285Y-119353857D01*
X149964285Y-119353857D02*
X150364285Y-118153857D01*
X151221428Y-119296714D02*
X151107142Y-119353857D01*
X151107142Y-119353857D02*
X150878571Y-119353857D01*
X150878571Y-119353857D02*
X150764285Y-119296714D01*
X150764285Y-119296714D02*
X150707142Y-119182428D01*
X150707142Y-119182428D02*
X150707142Y-118725285D01*
X150707142Y-118725285D02*
X150764285Y-118611000D01*
X150764285Y-118611000D02*
X150878571Y-118553857D01*
X150878571Y-118553857D02*
X151107142Y-118553857D01*
X151107142Y-118553857D02*
X151221428Y-118611000D01*
X151221428Y-118611000D02*
X151278571Y-118725285D01*
X151278571Y-118725285D02*
X151278571Y-118839571D01*
X151278571Y-118839571D02*
X150707142Y-118953857D01*
X151792856Y-119353857D02*
X151792856Y-118553857D01*
X151792856Y-118782428D02*
X151849999Y-118668142D01*
X151849999Y-118668142D02*
X151907142Y-118611000D01*
X151907142Y-118611000D02*
X152021427Y-118553857D01*
X152021427Y-118553857D02*
X152135713Y-118553857D01*
X152478570Y-119296714D02*
X152592856Y-119353857D01*
X152592856Y-119353857D02*
X152821427Y-119353857D01*
X152821427Y-119353857D02*
X152935713Y-119296714D01*
X152935713Y-119296714D02*
X152992856Y-119182428D01*
X152992856Y-119182428D02*
X152992856Y-119125285D01*
X152992856Y-119125285D02*
X152935713Y-119011000D01*
X152935713Y-119011000D02*
X152821427Y-118953857D01*
X152821427Y-118953857D02*
X152649999Y-118953857D01*
X152649999Y-118953857D02*
X152535713Y-118896714D01*
X152535713Y-118896714D02*
X152478570Y-118782428D01*
X152478570Y-118782428D02*
X152478570Y-118725285D01*
X152478570Y-118725285D02*
X152535713Y-118611000D01*
X152535713Y-118611000D02*
X152649999Y-118553857D01*
X152649999Y-118553857D02*
X152821427Y-118553857D01*
X152821427Y-118553857D02*
X152935713Y-118611000D01*
X153507142Y-119353857D02*
X153507142Y-118553857D01*
X153507142Y-118153857D02*
X153449999Y-118211000D01*
X153449999Y-118211000D02*
X153507142Y-118268142D01*
X153507142Y-118268142D02*
X153564285Y-118211000D01*
X153564285Y-118211000D02*
X153507142Y-118153857D01*
X153507142Y-118153857D02*
X153507142Y-118268142D01*
X154249999Y-119353857D02*
X154135714Y-119296714D01*
X154135714Y-119296714D02*
X154078571Y-119239571D01*
X154078571Y-119239571D02*
X154021428Y-119125285D01*
X154021428Y-119125285D02*
X154021428Y-118782428D01*
X154021428Y-118782428D02*
X154078571Y-118668142D01*
X154078571Y-118668142D02*
X154135714Y-118611000D01*
X154135714Y-118611000D02*
X154249999Y-118553857D01*
X154249999Y-118553857D02*
X154421428Y-118553857D01*
X154421428Y-118553857D02*
X154535714Y-118611000D01*
X154535714Y-118611000D02*
X154592857Y-118668142D01*
X154592857Y-118668142D02*
X154649999Y-118782428D01*
X154649999Y-118782428D02*
X154649999Y-119125285D01*
X154649999Y-119125285D02*
X154592857Y-119239571D01*
X154592857Y-119239571D02*
X154535714Y-119296714D01*
X154535714Y-119296714D02*
X154421428Y-119353857D01*
X154421428Y-119353857D02*
X154249999Y-119353857D01*
X155164285Y-118553857D02*
X155164285Y-119353857D01*
X155164285Y-118668142D02*
X155221428Y-118611000D01*
X155221428Y-118611000D02*
X155335713Y-118553857D01*
X155335713Y-118553857D02*
X155507142Y-118553857D01*
X155507142Y-118553857D02*
X155621428Y-118611000D01*
X155621428Y-118611000D02*
X155678571Y-118725285D01*
X155678571Y-118725285D02*
X155678571Y-119353857D01*
X157598570Y-119353857D02*
X156912856Y-119353857D01*
X157255713Y-119353857D02*
X157255713Y-118153857D01*
X157255713Y-118153857D02*
X157141427Y-118325285D01*
X157141427Y-118325285D02*
X157027142Y-118439571D01*
X157027142Y-118439571D02*
X156912856Y-118496714D01*
X158112856Y-119239571D02*
X158169999Y-119296714D01*
X158169999Y-119296714D02*
X158112856Y-119353857D01*
X158112856Y-119353857D02*
X158055713Y-119296714D01*
X158055713Y-119296714D02*
X158112856Y-119239571D01*
X158112856Y-119239571D02*
X158112856Y-119353857D01*
X158912856Y-118153857D02*
X159027142Y-118153857D01*
X159027142Y-118153857D02*
X159141428Y-118211000D01*
X159141428Y-118211000D02*
X159198571Y-118268142D01*
X159198571Y-118268142D02*
X159255713Y-118382428D01*
X159255713Y-118382428D02*
X159312856Y-118611000D01*
X159312856Y-118611000D02*
X159312856Y-118896714D01*
X159312856Y-118896714D02*
X159255713Y-119125285D01*
X159255713Y-119125285D02*
X159198571Y-119239571D01*
X159198571Y-119239571D02*
X159141428Y-119296714D01*
X159141428Y-119296714D02*
X159027142Y-119353857D01*
X159027142Y-119353857D02*
X158912856Y-119353857D01*
X158912856Y-119353857D02*
X158798571Y-119296714D01*
X158798571Y-119296714D02*
X158741428Y-119239571D01*
X158741428Y-119239571D02*
X158684285Y-119125285D01*
X158684285Y-119125285D02*
X158627142Y-118896714D01*
X158627142Y-118896714D02*
X158627142Y-118611000D01*
X158627142Y-118611000D02*
X158684285Y-118382428D01*
X158684285Y-118382428D02*
X158741428Y-118268142D01*
X158741428Y-118268142D02*
X158798571Y-118211000D01*
X158798571Y-118211000D02*
X158912856Y-118153857D01*
X126780476Y-109189761D02*
X126923333Y-109237380D01*
X126923333Y-109237380D02*
X127161428Y-109237380D01*
X127161428Y-109237380D02*
X127256666Y-109189761D01*
X127256666Y-109189761D02*
X127304285Y-109142142D01*
X127304285Y-109142142D02*
X127351904Y-109046904D01*
X127351904Y-109046904D02*
X127351904Y-108951666D01*
X127351904Y-108951666D02*
X127304285Y-108856428D01*
X127304285Y-108856428D02*
X127256666Y-108808809D01*
X127256666Y-108808809D02*
X127161428Y-108761190D01*
X127161428Y-108761190D02*
X126970952Y-108713571D01*
X126970952Y-108713571D02*
X126875714Y-108665952D01*
X126875714Y-108665952D02*
X126828095Y-108618333D01*
X126828095Y-108618333D02*
X126780476Y-108523095D01*
X126780476Y-108523095D02*
X126780476Y-108427857D01*
X126780476Y-108427857D02*
X126828095Y-108332619D01*
X126828095Y-108332619D02*
X126875714Y-108285000D01*
X126875714Y-108285000D02*
X126970952Y-108237380D01*
X126970952Y-108237380D02*
X127209047Y-108237380D01*
X127209047Y-108237380D02*
X127351904Y-108285000D01*
X127637619Y-108570714D02*
X128018571Y-108570714D01*
X127780476Y-108237380D02*
X127780476Y-109094523D01*
X127780476Y-109094523D02*
X127828095Y-109189761D01*
X127828095Y-109189761D02*
X127923333Y-109237380D01*
X127923333Y-109237380D02*
X128018571Y-109237380D01*
X128780476Y-109237380D02*
X128780476Y-108713571D01*
X128780476Y-108713571D02*
X128732857Y-108618333D01*
X128732857Y-108618333D02*
X128637619Y-108570714D01*
X128637619Y-108570714D02*
X128447143Y-108570714D01*
X128447143Y-108570714D02*
X128351905Y-108618333D01*
X128780476Y-109189761D02*
X128685238Y-109237380D01*
X128685238Y-109237380D02*
X128447143Y-109237380D01*
X128447143Y-109237380D02*
X128351905Y-109189761D01*
X128351905Y-109189761D02*
X128304286Y-109094523D01*
X128304286Y-109094523D02*
X128304286Y-108999285D01*
X128304286Y-108999285D02*
X128351905Y-108904047D01*
X128351905Y-108904047D02*
X128447143Y-108856428D01*
X128447143Y-108856428D02*
X128685238Y-108856428D01*
X128685238Y-108856428D02*
X128780476Y-108808809D01*
X129256667Y-109237380D02*
X129256667Y-108570714D01*
X129256667Y-108761190D02*
X129304286Y-108665952D01*
X129304286Y-108665952D02*
X129351905Y-108618333D01*
X129351905Y-108618333D02*
X129447143Y-108570714D01*
X129447143Y-108570714D02*
X129542381Y-108570714D01*
X129732858Y-108570714D02*
X130113810Y-108570714D01*
X129875715Y-108237380D02*
X129875715Y-109094523D01*
X129875715Y-109094523D02*
X129923334Y-109189761D01*
X129923334Y-109189761D02*
X130018572Y-109237380D01*
X130018572Y-109237380D02*
X130113810Y-109237380D01*
X131161429Y-108189761D02*
X130304287Y-109475476D01*
X131447144Y-109189761D02*
X131590001Y-109237380D01*
X131590001Y-109237380D02*
X131828096Y-109237380D01*
X131828096Y-109237380D02*
X131923334Y-109189761D01*
X131923334Y-109189761D02*
X131970953Y-109142142D01*
X131970953Y-109142142D02*
X132018572Y-109046904D01*
X132018572Y-109046904D02*
X132018572Y-108951666D01*
X132018572Y-108951666D02*
X131970953Y-108856428D01*
X131970953Y-108856428D02*
X131923334Y-108808809D01*
X131923334Y-108808809D02*
X131828096Y-108761190D01*
X131828096Y-108761190D02*
X131637620Y-108713571D01*
X131637620Y-108713571D02*
X131542382Y-108665952D01*
X131542382Y-108665952D02*
X131494763Y-108618333D01*
X131494763Y-108618333D02*
X131447144Y-108523095D01*
X131447144Y-108523095D02*
X131447144Y-108427857D01*
X131447144Y-108427857D02*
X131494763Y-108332619D01*
X131494763Y-108332619D02*
X131542382Y-108285000D01*
X131542382Y-108285000D02*
X131637620Y-108237380D01*
X131637620Y-108237380D02*
X131875715Y-108237380D01*
X131875715Y-108237380D02*
X132018572Y-108285000D01*
X132304287Y-108570714D02*
X132685239Y-108570714D01*
X132447144Y-108237380D02*
X132447144Y-109094523D01*
X132447144Y-109094523D02*
X132494763Y-109189761D01*
X132494763Y-109189761D02*
X132590001Y-109237380D01*
X132590001Y-109237380D02*
X132685239Y-109237380D01*
X133161430Y-109237380D02*
X133066192Y-109189761D01*
X133066192Y-109189761D02*
X133018573Y-109142142D01*
X133018573Y-109142142D02*
X132970954Y-109046904D01*
X132970954Y-109046904D02*
X132970954Y-108761190D01*
X132970954Y-108761190D02*
X133018573Y-108665952D01*
X133018573Y-108665952D02*
X133066192Y-108618333D01*
X133066192Y-108618333D02*
X133161430Y-108570714D01*
X133161430Y-108570714D02*
X133304287Y-108570714D01*
X133304287Y-108570714D02*
X133399525Y-108618333D01*
X133399525Y-108618333D02*
X133447144Y-108665952D01*
X133447144Y-108665952D02*
X133494763Y-108761190D01*
X133494763Y-108761190D02*
X133494763Y-109046904D01*
X133494763Y-109046904D02*
X133447144Y-109142142D01*
X133447144Y-109142142D02*
X133399525Y-109189761D01*
X133399525Y-109189761D02*
X133304287Y-109237380D01*
X133304287Y-109237380D02*
X133161430Y-109237380D01*
X133923335Y-108570714D02*
X133923335Y-109570714D01*
X133923335Y-108618333D02*
X134018573Y-108570714D01*
X134018573Y-108570714D02*
X134209049Y-108570714D01*
X134209049Y-108570714D02*
X134304287Y-108618333D01*
X134304287Y-108618333D02*
X134351906Y-108665952D01*
X134351906Y-108665952D02*
X134399525Y-108761190D01*
X134399525Y-108761190D02*
X134399525Y-109046904D01*
X134399525Y-109046904D02*
X134351906Y-109142142D01*
X134351906Y-109142142D02*
X134304287Y-109189761D01*
X134304287Y-109189761D02*
X134209049Y-109237380D01*
X134209049Y-109237380D02*
X134018573Y-109237380D01*
X134018573Y-109237380D02*
X133923335Y-109189761D01*
X139480476Y-109189761D02*
X139623333Y-109237380D01*
X139623333Y-109237380D02*
X139861428Y-109237380D01*
X139861428Y-109237380D02*
X139956666Y-109189761D01*
X139956666Y-109189761D02*
X140004285Y-109142142D01*
X140004285Y-109142142D02*
X140051904Y-109046904D01*
X140051904Y-109046904D02*
X140051904Y-108951666D01*
X140051904Y-108951666D02*
X140004285Y-108856428D01*
X140004285Y-108856428D02*
X139956666Y-108808809D01*
X139956666Y-108808809D02*
X139861428Y-108761190D01*
X139861428Y-108761190D02*
X139670952Y-108713571D01*
X139670952Y-108713571D02*
X139575714Y-108665952D01*
X139575714Y-108665952D02*
X139528095Y-108618333D01*
X139528095Y-108618333D02*
X139480476Y-108523095D01*
X139480476Y-108523095D02*
X139480476Y-108427857D01*
X139480476Y-108427857D02*
X139528095Y-108332619D01*
X139528095Y-108332619D02*
X139575714Y-108285000D01*
X139575714Y-108285000D02*
X139670952Y-108237380D01*
X139670952Y-108237380D02*
X139909047Y-108237380D01*
X139909047Y-108237380D02*
X140051904Y-108285000D01*
X140861428Y-109189761D02*
X140766190Y-109237380D01*
X140766190Y-109237380D02*
X140575714Y-109237380D01*
X140575714Y-109237380D02*
X140480476Y-109189761D01*
X140480476Y-109189761D02*
X140432857Y-109094523D01*
X140432857Y-109094523D02*
X140432857Y-108713571D01*
X140432857Y-108713571D02*
X140480476Y-108618333D01*
X140480476Y-108618333D02*
X140575714Y-108570714D01*
X140575714Y-108570714D02*
X140766190Y-108570714D01*
X140766190Y-108570714D02*
X140861428Y-108618333D01*
X140861428Y-108618333D02*
X140909047Y-108713571D01*
X140909047Y-108713571D02*
X140909047Y-108808809D01*
X140909047Y-108808809D02*
X140432857Y-108904047D01*
X141194762Y-108570714D02*
X141575714Y-108570714D01*
X141337619Y-108237380D02*
X141337619Y-109094523D01*
X141337619Y-109094523D02*
X141385238Y-109189761D01*
X141385238Y-109189761D02*
X141480476Y-109237380D01*
X141480476Y-109237380D02*
X141575714Y-109237380D01*
X142623333Y-108189761D02*
X141766191Y-109475476D01*
X143528095Y-109237380D02*
X143194762Y-108761190D01*
X142956667Y-109237380D02*
X142956667Y-108237380D01*
X142956667Y-108237380D02*
X143337619Y-108237380D01*
X143337619Y-108237380D02*
X143432857Y-108285000D01*
X143432857Y-108285000D02*
X143480476Y-108332619D01*
X143480476Y-108332619D02*
X143528095Y-108427857D01*
X143528095Y-108427857D02*
X143528095Y-108570714D01*
X143528095Y-108570714D02*
X143480476Y-108665952D01*
X143480476Y-108665952D02*
X143432857Y-108713571D01*
X143432857Y-108713571D02*
X143337619Y-108761190D01*
X143337619Y-108761190D02*
X142956667Y-108761190D01*
X144337619Y-109189761D02*
X144242381Y-109237380D01*
X144242381Y-109237380D02*
X144051905Y-109237380D01*
X144051905Y-109237380D02*
X143956667Y-109189761D01*
X143956667Y-109189761D02*
X143909048Y-109094523D01*
X143909048Y-109094523D02*
X143909048Y-108713571D01*
X143909048Y-108713571D02*
X143956667Y-108618333D01*
X143956667Y-108618333D02*
X144051905Y-108570714D01*
X144051905Y-108570714D02*
X144242381Y-108570714D01*
X144242381Y-108570714D02*
X144337619Y-108618333D01*
X144337619Y-108618333D02*
X144385238Y-108713571D01*
X144385238Y-108713571D02*
X144385238Y-108808809D01*
X144385238Y-108808809D02*
X143909048Y-108904047D01*
X144766191Y-109189761D02*
X144861429Y-109237380D01*
X144861429Y-109237380D02*
X145051905Y-109237380D01*
X145051905Y-109237380D02*
X145147143Y-109189761D01*
X145147143Y-109189761D02*
X145194762Y-109094523D01*
X145194762Y-109094523D02*
X145194762Y-109046904D01*
X145194762Y-109046904D02*
X145147143Y-108951666D01*
X145147143Y-108951666D02*
X145051905Y-108904047D01*
X145051905Y-108904047D02*
X144909048Y-108904047D01*
X144909048Y-108904047D02*
X144813810Y-108856428D01*
X144813810Y-108856428D02*
X144766191Y-108761190D01*
X144766191Y-108761190D02*
X144766191Y-108713571D01*
X144766191Y-108713571D02*
X144813810Y-108618333D01*
X144813810Y-108618333D02*
X144909048Y-108570714D01*
X144909048Y-108570714D02*
X145051905Y-108570714D01*
X145051905Y-108570714D02*
X145147143Y-108618333D01*
X146004286Y-109189761D02*
X145909048Y-109237380D01*
X145909048Y-109237380D02*
X145718572Y-109237380D01*
X145718572Y-109237380D02*
X145623334Y-109189761D01*
X145623334Y-109189761D02*
X145575715Y-109094523D01*
X145575715Y-109094523D02*
X145575715Y-108713571D01*
X145575715Y-108713571D02*
X145623334Y-108618333D01*
X145623334Y-108618333D02*
X145718572Y-108570714D01*
X145718572Y-108570714D02*
X145909048Y-108570714D01*
X145909048Y-108570714D02*
X146004286Y-108618333D01*
X146004286Y-108618333D02*
X146051905Y-108713571D01*
X146051905Y-108713571D02*
X146051905Y-108808809D01*
X146051905Y-108808809D02*
X145575715Y-108904047D01*
X146337620Y-108570714D02*
X146718572Y-108570714D01*
X146480477Y-108237380D02*
X146480477Y-109094523D01*
X146480477Y-109094523D02*
X146528096Y-109189761D01*
X146528096Y-109189761D02*
X146623334Y-109237380D01*
X146623334Y-109237380D02*
X146718572Y-109237380D01*
X163705714Y-114876285D02*
X164105714Y-114876285D01*
X164277142Y-115504857D02*
X163705714Y-115504857D01*
X163705714Y-115504857D02*
X163705714Y-114304857D01*
X163705714Y-114304857D02*
X164277142Y-114304857D01*
X164791428Y-115504857D02*
X164791428Y-114704857D01*
X164791428Y-114819142D02*
X164848571Y-114762000D01*
X164848571Y-114762000D02*
X164962856Y-114704857D01*
X164962856Y-114704857D02*
X165134285Y-114704857D01*
X165134285Y-114704857D02*
X165248571Y-114762000D01*
X165248571Y-114762000D02*
X165305714Y-114876285D01*
X165305714Y-114876285D02*
X165305714Y-115504857D01*
X165305714Y-114876285D02*
X165362856Y-114762000D01*
X165362856Y-114762000D02*
X165477142Y-114704857D01*
X165477142Y-114704857D02*
X165648571Y-114704857D01*
X165648571Y-114704857D02*
X165762856Y-114762000D01*
X165762856Y-114762000D02*
X165819999Y-114876285D01*
X165819999Y-114876285D02*
X165819999Y-115504857D01*
X166391428Y-115504857D02*
X166391428Y-114304857D01*
X166391428Y-114762000D02*
X166505714Y-114704857D01*
X166505714Y-114704857D02*
X166734285Y-114704857D01*
X166734285Y-114704857D02*
X166848571Y-114762000D01*
X166848571Y-114762000D02*
X166905714Y-114819142D01*
X166905714Y-114819142D02*
X166962856Y-114933428D01*
X166962856Y-114933428D02*
X166962856Y-115276285D01*
X166962856Y-115276285D02*
X166905714Y-115390571D01*
X166905714Y-115390571D02*
X166848571Y-115447714D01*
X166848571Y-115447714D02*
X166734285Y-115504857D01*
X166734285Y-115504857D02*
X166505714Y-115504857D01*
X166505714Y-115504857D02*
X166391428Y-115447714D01*
X167934285Y-115447714D02*
X167819999Y-115504857D01*
X167819999Y-115504857D02*
X167591428Y-115504857D01*
X167591428Y-115504857D02*
X167477142Y-115447714D01*
X167477142Y-115447714D02*
X167419999Y-115333428D01*
X167419999Y-115333428D02*
X167419999Y-114876285D01*
X167419999Y-114876285D02*
X167477142Y-114762000D01*
X167477142Y-114762000D02*
X167591428Y-114704857D01*
X167591428Y-114704857D02*
X167819999Y-114704857D01*
X167819999Y-114704857D02*
X167934285Y-114762000D01*
X167934285Y-114762000D02*
X167991428Y-114876285D01*
X167991428Y-114876285D02*
X167991428Y-114990571D01*
X167991428Y-114990571D02*
X167419999Y-115104857D01*
X169019999Y-115504857D02*
X169019999Y-114304857D01*
X169019999Y-115447714D02*
X168905713Y-115504857D01*
X168905713Y-115504857D02*
X168677141Y-115504857D01*
X168677141Y-115504857D02*
X168562856Y-115447714D01*
X168562856Y-115447714D02*
X168505713Y-115390571D01*
X168505713Y-115390571D02*
X168448570Y-115276285D01*
X168448570Y-115276285D02*
X168448570Y-114933428D01*
X168448570Y-114933428D02*
X168505713Y-114819142D01*
X168505713Y-114819142D02*
X168562856Y-114762000D01*
X168562856Y-114762000D02*
X168677141Y-114704857D01*
X168677141Y-114704857D02*
X168905713Y-114704857D01*
X168905713Y-114704857D02*
X169019999Y-114762000D01*
X170105713Y-115504857D02*
X170105713Y-114304857D01*
X170105713Y-115447714D02*
X169991427Y-115504857D01*
X169991427Y-115504857D02*
X169762855Y-115504857D01*
X169762855Y-115504857D02*
X169648570Y-115447714D01*
X169648570Y-115447714D02*
X169591427Y-115390571D01*
X169591427Y-115390571D02*
X169534284Y-115276285D01*
X169534284Y-115276285D02*
X169534284Y-114933428D01*
X169534284Y-114933428D02*
X169591427Y-114819142D01*
X169591427Y-114819142D02*
X169648570Y-114762000D01*
X169648570Y-114762000D02*
X169762855Y-114704857D01*
X169762855Y-114704857D02*
X169991427Y-114704857D01*
X169991427Y-114704857D02*
X170105713Y-114762000D01*
X171134284Y-115447714D02*
X171019998Y-115504857D01*
X171019998Y-115504857D02*
X170791427Y-115504857D01*
X170791427Y-115504857D02*
X170677141Y-115447714D01*
X170677141Y-115447714D02*
X170619998Y-115333428D01*
X170619998Y-115333428D02*
X170619998Y-114876285D01*
X170619998Y-114876285D02*
X170677141Y-114762000D01*
X170677141Y-114762000D02*
X170791427Y-114704857D01*
X170791427Y-114704857D02*
X171019998Y-114704857D01*
X171019998Y-114704857D02*
X171134284Y-114762000D01*
X171134284Y-114762000D02*
X171191427Y-114876285D01*
X171191427Y-114876285D02*
X171191427Y-114990571D01*
X171191427Y-114990571D02*
X170619998Y-115104857D01*
X172219998Y-115504857D02*
X172219998Y-114304857D01*
X172219998Y-115447714D02*
X172105712Y-115504857D01*
X172105712Y-115504857D02*
X171877140Y-115504857D01*
X171877140Y-115504857D02*
X171762855Y-115447714D01*
X171762855Y-115447714D02*
X171705712Y-115390571D01*
X171705712Y-115390571D02*
X171648569Y-115276285D01*
X171648569Y-115276285D02*
X171648569Y-114933428D01*
X171648569Y-114933428D02*
X171705712Y-114819142D01*
X171705712Y-114819142D02*
X171762855Y-114762000D01*
X171762855Y-114762000D02*
X171877140Y-114704857D01*
X171877140Y-114704857D02*
X172105712Y-114704857D01*
X172105712Y-114704857D02*
X172219998Y-114762000D01*
X163648571Y-117391714D02*
X163820000Y-117448857D01*
X163820000Y-117448857D02*
X164105714Y-117448857D01*
X164105714Y-117448857D02*
X164220000Y-117391714D01*
X164220000Y-117391714D02*
X164277142Y-117334571D01*
X164277142Y-117334571D02*
X164334285Y-117220285D01*
X164334285Y-117220285D02*
X164334285Y-117106000D01*
X164334285Y-117106000D02*
X164277142Y-116991714D01*
X164277142Y-116991714D02*
X164220000Y-116934571D01*
X164220000Y-116934571D02*
X164105714Y-116877428D01*
X164105714Y-116877428D02*
X163877142Y-116820285D01*
X163877142Y-116820285D02*
X163762857Y-116763142D01*
X163762857Y-116763142D02*
X163705714Y-116706000D01*
X163705714Y-116706000D02*
X163648571Y-116591714D01*
X163648571Y-116591714D02*
X163648571Y-116477428D01*
X163648571Y-116477428D02*
X163705714Y-116363142D01*
X163705714Y-116363142D02*
X163762857Y-116306000D01*
X163762857Y-116306000D02*
X163877142Y-116248857D01*
X163877142Y-116248857D02*
X164162857Y-116248857D01*
X164162857Y-116248857D02*
X164334285Y-116306000D01*
X164734285Y-116648857D02*
X165019999Y-117448857D01*
X165305714Y-116648857D02*
X165019999Y-117448857D01*
X165019999Y-117448857D02*
X164905714Y-117734571D01*
X164905714Y-117734571D02*
X164848571Y-117791714D01*
X164848571Y-117791714D02*
X164734285Y-117848857D01*
X165705714Y-117391714D02*
X165820000Y-117448857D01*
X165820000Y-117448857D02*
X166048571Y-117448857D01*
X166048571Y-117448857D02*
X166162857Y-117391714D01*
X166162857Y-117391714D02*
X166220000Y-117277428D01*
X166220000Y-117277428D02*
X166220000Y-117220285D01*
X166220000Y-117220285D02*
X166162857Y-117106000D01*
X166162857Y-117106000D02*
X166048571Y-117048857D01*
X166048571Y-117048857D02*
X165877143Y-117048857D01*
X165877143Y-117048857D02*
X165762857Y-116991714D01*
X165762857Y-116991714D02*
X165705714Y-116877428D01*
X165705714Y-116877428D02*
X165705714Y-116820285D01*
X165705714Y-116820285D02*
X165762857Y-116706000D01*
X165762857Y-116706000D02*
X165877143Y-116648857D01*
X165877143Y-116648857D02*
X166048571Y-116648857D01*
X166048571Y-116648857D02*
X166162857Y-116706000D01*
X166562857Y-116648857D02*
X167020000Y-116648857D01*
X166734286Y-116248857D02*
X166734286Y-117277428D01*
X166734286Y-117277428D02*
X166791429Y-117391714D01*
X166791429Y-117391714D02*
X166905714Y-117448857D01*
X166905714Y-117448857D02*
X167020000Y-117448857D01*
X167877143Y-117391714D02*
X167762857Y-117448857D01*
X167762857Y-117448857D02*
X167534286Y-117448857D01*
X167534286Y-117448857D02*
X167420000Y-117391714D01*
X167420000Y-117391714D02*
X167362857Y-117277428D01*
X167362857Y-117277428D02*
X167362857Y-116820285D01*
X167362857Y-116820285D02*
X167420000Y-116706000D01*
X167420000Y-116706000D02*
X167534286Y-116648857D01*
X167534286Y-116648857D02*
X167762857Y-116648857D01*
X167762857Y-116648857D02*
X167877143Y-116706000D01*
X167877143Y-116706000D02*
X167934286Y-116820285D01*
X167934286Y-116820285D02*
X167934286Y-116934571D01*
X167934286Y-116934571D02*
X167362857Y-117048857D01*
X168448571Y-117448857D02*
X168448571Y-116648857D01*
X168448571Y-116763142D02*
X168505714Y-116706000D01*
X168505714Y-116706000D02*
X168619999Y-116648857D01*
X168619999Y-116648857D02*
X168791428Y-116648857D01*
X168791428Y-116648857D02*
X168905714Y-116706000D01*
X168905714Y-116706000D02*
X168962857Y-116820285D01*
X168962857Y-116820285D02*
X168962857Y-117448857D01*
X168962857Y-116820285D02*
X169019999Y-116706000D01*
X169019999Y-116706000D02*
X169134285Y-116648857D01*
X169134285Y-116648857D02*
X169305714Y-116648857D01*
X169305714Y-116648857D02*
X169419999Y-116706000D01*
X169419999Y-116706000D02*
X169477142Y-116820285D01*
X169477142Y-116820285D02*
X169477142Y-117448857D01*
X169991428Y-117391714D02*
X170105714Y-117448857D01*
X170105714Y-117448857D02*
X170334285Y-117448857D01*
X170334285Y-117448857D02*
X170448571Y-117391714D01*
X170448571Y-117391714D02*
X170505714Y-117277428D01*
X170505714Y-117277428D02*
X170505714Y-117220285D01*
X170505714Y-117220285D02*
X170448571Y-117106000D01*
X170448571Y-117106000D02*
X170334285Y-117048857D01*
X170334285Y-117048857D02*
X170162857Y-117048857D01*
X170162857Y-117048857D02*
X170048571Y-116991714D01*
X170048571Y-116991714D02*
X169991428Y-116877428D01*
X169991428Y-116877428D02*
X169991428Y-116820285D01*
X169991428Y-116820285D02*
X170048571Y-116706000D01*
X170048571Y-116706000D02*
X170162857Y-116648857D01*
X170162857Y-116648857D02*
X170334285Y-116648857D01*
X170334285Y-116648857D02*
X170448571Y-116706000D01*
X163705714Y-119353857D02*
X163705714Y-118153857D01*
X163705714Y-118153857D02*
X164105714Y-119011000D01*
X164105714Y-119011000D02*
X164505714Y-118153857D01*
X164505714Y-118153857D02*
X164505714Y-119353857D01*
X165591429Y-119353857D02*
X165591429Y-118725285D01*
X165591429Y-118725285D02*
X165534286Y-118611000D01*
X165534286Y-118611000D02*
X165420000Y-118553857D01*
X165420000Y-118553857D02*
X165191429Y-118553857D01*
X165191429Y-118553857D02*
X165077143Y-118611000D01*
X165591429Y-119296714D02*
X165477143Y-119353857D01*
X165477143Y-119353857D02*
X165191429Y-119353857D01*
X165191429Y-119353857D02*
X165077143Y-119296714D01*
X165077143Y-119296714D02*
X165020000Y-119182428D01*
X165020000Y-119182428D02*
X165020000Y-119068142D01*
X165020000Y-119068142D02*
X165077143Y-118953857D01*
X165077143Y-118953857D02*
X165191429Y-118896714D01*
X165191429Y-118896714D02*
X165477143Y-118896714D01*
X165477143Y-118896714D02*
X165591429Y-118839571D01*
X166162857Y-119353857D02*
X166162857Y-118553857D01*
X166162857Y-118782428D02*
X166220000Y-118668142D01*
X166220000Y-118668142D02*
X166277143Y-118611000D01*
X166277143Y-118611000D02*
X166391428Y-118553857D01*
X166391428Y-118553857D02*
X166505714Y-118553857D01*
X167420000Y-119296714D02*
X167305714Y-119353857D01*
X167305714Y-119353857D02*
X167077142Y-119353857D01*
X167077142Y-119353857D02*
X166962857Y-119296714D01*
X166962857Y-119296714D02*
X166905714Y-119239571D01*
X166905714Y-119239571D02*
X166848571Y-119125285D01*
X166848571Y-119125285D02*
X166848571Y-118782428D01*
X166848571Y-118782428D02*
X166905714Y-118668142D01*
X166905714Y-118668142D02*
X166962857Y-118611000D01*
X166962857Y-118611000D02*
X167077142Y-118553857D01*
X167077142Y-118553857D02*
X167305714Y-118553857D01*
X167305714Y-118553857D02*
X167420000Y-118611000D01*
X167934285Y-119353857D02*
X167934285Y-118153857D01*
X168448571Y-119353857D02*
X168448571Y-118725285D01*
X168448571Y-118725285D02*
X168391428Y-118611000D01*
X168391428Y-118611000D02*
X168277142Y-118553857D01*
X168277142Y-118553857D02*
X168105713Y-118553857D01*
X168105713Y-118553857D02*
X167991428Y-118611000D01*
X167991428Y-118611000D02*
X167934285Y-118668142D01*
X169682856Y-118268142D02*
X169739999Y-118211000D01*
X169739999Y-118211000D02*
X169854285Y-118153857D01*
X169854285Y-118153857D02*
X170139999Y-118153857D01*
X170139999Y-118153857D02*
X170254285Y-118211000D01*
X170254285Y-118211000D02*
X170311427Y-118268142D01*
X170311427Y-118268142D02*
X170368570Y-118382428D01*
X170368570Y-118382428D02*
X170368570Y-118496714D01*
X170368570Y-118496714D02*
X170311427Y-118668142D01*
X170311427Y-118668142D02*
X169625713Y-119353857D01*
X169625713Y-119353857D02*
X170368570Y-119353857D01*
X171111427Y-118153857D02*
X171225713Y-118153857D01*
X171225713Y-118153857D02*
X171339999Y-118211000D01*
X171339999Y-118211000D02*
X171397142Y-118268142D01*
X171397142Y-118268142D02*
X171454284Y-118382428D01*
X171454284Y-118382428D02*
X171511427Y-118611000D01*
X171511427Y-118611000D02*
X171511427Y-118896714D01*
X171511427Y-118896714D02*
X171454284Y-119125285D01*
X171454284Y-119125285D02*
X171397142Y-119239571D01*
X171397142Y-119239571D02*
X171339999Y-119296714D01*
X171339999Y-119296714D02*
X171225713Y-119353857D01*
X171225713Y-119353857D02*
X171111427Y-119353857D01*
X171111427Y-119353857D02*
X170997142Y-119296714D01*
X170997142Y-119296714D02*
X170939999Y-119239571D01*
X170939999Y-119239571D02*
X170882856Y-119125285D01*
X170882856Y-119125285D02*
X170825713Y-118896714D01*
X170825713Y-118896714D02*
X170825713Y-118611000D01*
X170825713Y-118611000D02*
X170882856Y-118382428D01*
X170882856Y-118382428D02*
X170939999Y-118268142D01*
X170939999Y-118268142D02*
X170997142Y-118211000D01*
X170997142Y-118211000D02*
X171111427Y-118153857D01*
X171968570Y-118268142D02*
X172025713Y-118211000D01*
X172025713Y-118211000D02*
X172139999Y-118153857D01*
X172139999Y-118153857D02*
X172425713Y-118153857D01*
X172425713Y-118153857D02*
X172539999Y-118211000D01*
X172539999Y-118211000D02*
X172597141Y-118268142D01*
X172597141Y-118268142D02*
X172654284Y-118382428D01*
X172654284Y-118382428D02*
X172654284Y-118496714D01*
X172654284Y-118496714D02*
X172597141Y-118668142D01*
X172597141Y-118668142D02*
X171911427Y-119353857D01*
X171911427Y-119353857D02*
X172654284Y-119353857D01*
X173054284Y-118153857D02*
X173797141Y-118153857D01*
X173797141Y-118153857D02*
X173397141Y-118611000D01*
X173397141Y-118611000D02*
X173568570Y-118611000D01*
X173568570Y-118611000D02*
X173682856Y-118668142D01*
X173682856Y-118668142D02*
X173739998Y-118725285D01*
X173739998Y-118725285D02*
X173797141Y-118839571D01*
X173797141Y-118839571D02*
X173797141Y-119125285D01*
X173797141Y-119125285D02*
X173739998Y-119239571D01*
X173739998Y-119239571D02*
X173682856Y-119296714D01*
X173682856Y-119296714D02*
X173568570Y-119353857D01*
X173568570Y-119353857D02*
X173225713Y-119353857D01*
X173225713Y-119353857D02*
X173111427Y-119296714D01*
X173111427Y-119296714D02*
X173054284Y-119239571D01*
%TO.C,R3*%
X133408333Y-102202380D02*
X133075000Y-101726190D01*
X132836905Y-102202380D02*
X132836905Y-101202380D01*
X132836905Y-101202380D02*
X133217857Y-101202380D01*
X133217857Y-101202380D02*
X133313095Y-101250000D01*
X133313095Y-101250000D02*
X133360714Y-101297619D01*
X133360714Y-101297619D02*
X133408333Y-101392857D01*
X133408333Y-101392857D02*
X133408333Y-101535714D01*
X133408333Y-101535714D02*
X133360714Y-101630952D01*
X133360714Y-101630952D02*
X133313095Y-101678571D01*
X133313095Y-101678571D02*
X133217857Y-101726190D01*
X133217857Y-101726190D02*
X132836905Y-101726190D01*
X133741667Y-101202380D02*
X134360714Y-101202380D01*
X134360714Y-101202380D02*
X134027381Y-101583333D01*
X134027381Y-101583333D02*
X134170238Y-101583333D01*
X134170238Y-101583333D02*
X134265476Y-101630952D01*
X134265476Y-101630952D02*
X134313095Y-101678571D01*
X134313095Y-101678571D02*
X134360714Y-101773809D01*
X134360714Y-101773809D02*
X134360714Y-102011904D01*
X134360714Y-102011904D02*
X134313095Y-102107142D01*
X134313095Y-102107142D02*
X134265476Y-102154761D01*
X134265476Y-102154761D02*
X134170238Y-102202380D01*
X134170238Y-102202380D02*
X133884524Y-102202380D01*
X133884524Y-102202380D02*
X133789286Y-102154761D01*
X133789286Y-102154761D02*
X133741667Y-102107142D01*
%TO.C,R10*%
X153952380Y-57392857D02*
X153476190Y-57726190D01*
X153952380Y-57964285D02*
X152952380Y-57964285D01*
X152952380Y-57964285D02*
X152952380Y-57583333D01*
X152952380Y-57583333D02*
X153000000Y-57488095D01*
X153000000Y-57488095D02*
X153047619Y-57440476D01*
X153047619Y-57440476D02*
X153142857Y-57392857D01*
X153142857Y-57392857D02*
X153285714Y-57392857D01*
X153285714Y-57392857D02*
X153380952Y-57440476D01*
X153380952Y-57440476D02*
X153428571Y-57488095D01*
X153428571Y-57488095D02*
X153476190Y-57583333D01*
X153476190Y-57583333D02*
X153476190Y-57964285D01*
X153952380Y-56440476D02*
X153952380Y-57011904D01*
X153952380Y-56726190D02*
X152952380Y-56726190D01*
X152952380Y-56726190D02*
X153095238Y-56821428D01*
X153095238Y-56821428D02*
X153190476Y-56916666D01*
X153190476Y-56916666D02*
X153238095Y-57011904D01*
X152952380Y-55821428D02*
X152952380Y-55726190D01*
X152952380Y-55726190D02*
X153000000Y-55630952D01*
X153000000Y-55630952D02*
X153047619Y-55583333D01*
X153047619Y-55583333D02*
X153142857Y-55535714D01*
X153142857Y-55535714D02*
X153333333Y-55488095D01*
X153333333Y-55488095D02*
X153571428Y-55488095D01*
X153571428Y-55488095D02*
X153761904Y-55535714D01*
X153761904Y-55535714D02*
X153857142Y-55583333D01*
X153857142Y-55583333D02*
X153904761Y-55630952D01*
X153904761Y-55630952D02*
X153952380Y-55726190D01*
X153952380Y-55726190D02*
X153952380Y-55821428D01*
X153952380Y-55821428D02*
X153904761Y-55916666D01*
X153904761Y-55916666D02*
X153857142Y-55964285D01*
X153857142Y-55964285D02*
X153761904Y-56011904D01*
X153761904Y-56011904D02*
X153571428Y-56059523D01*
X153571428Y-56059523D02*
X153333333Y-56059523D01*
X153333333Y-56059523D02*
X153142857Y-56011904D01*
X153142857Y-56011904D02*
X153047619Y-55964285D01*
X153047619Y-55964285D02*
X153000000Y-55916666D01*
X153000000Y-55916666D02*
X152952380Y-55821428D01*
%TO.C,R12*%
X162052380Y-57392857D02*
X161576190Y-57726190D01*
X162052380Y-57964285D02*
X161052380Y-57964285D01*
X161052380Y-57964285D02*
X161052380Y-57583333D01*
X161052380Y-57583333D02*
X161100000Y-57488095D01*
X161100000Y-57488095D02*
X161147619Y-57440476D01*
X161147619Y-57440476D02*
X161242857Y-57392857D01*
X161242857Y-57392857D02*
X161385714Y-57392857D01*
X161385714Y-57392857D02*
X161480952Y-57440476D01*
X161480952Y-57440476D02*
X161528571Y-57488095D01*
X161528571Y-57488095D02*
X161576190Y-57583333D01*
X161576190Y-57583333D02*
X161576190Y-57964285D01*
X162052380Y-56440476D02*
X162052380Y-57011904D01*
X162052380Y-56726190D02*
X161052380Y-56726190D01*
X161052380Y-56726190D02*
X161195238Y-56821428D01*
X161195238Y-56821428D02*
X161290476Y-56916666D01*
X161290476Y-56916666D02*
X161338095Y-57011904D01*
X161147619Y-56059523D02*
X161100000Y-56011904D01*
X161100000Y-56011904D02*
X161052380Y-55916666D01*
X161052380Y-55916666D02*
X161052380Y-55678571D01*
X161052380Y-55678571D02*
X161100000Y-55583333D01*
X161100000Y-55583333D02*
X161147619Y-55535714D01*
X161147619Y-55535714D02*
X161242857Y-55488095D01*
X161242857Y-55488095D02*
X161338095Y-55488095D01*
X161338095Y-55488095D02*
X161480952Y-55535714D01*
X161480952Y-55535714D02*
X162052380Y-56107142D01*
X162052380Y-56107142D02*
X162052380Y-55488095D01*
%TO.C,U2*%
X121522380Y-47116904D02*
X122331904Y-47116904D01*
X122331904Y-47116904D02*
X122427142Y-47069285D01*
X122427142Y-47069285D02*
X122474761Y-47021666D01*
X122474761Y-47021666D02*
X122522380Y-46926428D01*
X122522380Y-46926428D02*
X122522380Y-46735952D01*
X122522380Y-46735952D02*
X122474761Y-46640714D01*
X122474761Y-46640714D02*
X122427142Y-46593095D01*
X122427142Y-46593095D02*
X122331904Y-46545476D01*
X122331904Y-46545476D02*
X121522380Y-46545476D01*
X121617619Y-46116904D02*
X121570000Y-46069285D01*
X121570000Y-46069285D02*
X121522380Y-45974047D01*
X121522380Y-45974047D02*
X121522380Y-45735952D01*
X121522380Y-45735952D02*
X121570000Y-45640714D01*
X121570000Y-45640714D02*
X121617619Y-45593095D01*
X121617619Y-45593095D02*
X121712857Y-45545476D01*
X121712857Y-45545476D02*
X121808095Y-45545476D01*
X121808095Y-45545476D02*
X121950952Y-45593095D01*
X121950952Y-45593095D02*
X122522380Y-46164523D01*
X122522380Y-46164523D02*
X122522380Y-45545476D01*
%TO.C,D2*%
X147446905Y-66007380D02*
X147446905Y-65007380D01*
X147446905Y-65007380D02*
X147685000Y-65007380D01*
X147685000Y-65007380D02*
X147827857Y-65055000D01*
X147827857Y-65055000D02*
X147923095Y-65150238D01*
X147923095Y-65150238D02*
X147970714Y-65245476D01*
X147970714Y-65245476D02*
X148018333Y-65435952D01*
X148018333Y-65435952D02*
X148018333Y-65578809D01*
X148018333Y-65578809D02*
X147970714Y-65769285D01*
X147970714Y-65769285D02*
X147923095Y-65864523D01*
X147923095Y-65864523D02*
X147827857Y-65959761D01*
X147827857Y-65959761D02*
X147685000Y-66007380D01*
X147685000Y-66007380D02*
X147446905Y-66007380D01*
X148399286Y-65102619D02*
X148446905Y-65055000D01*
X148446905Y-65055000D02*
X148542143Y-65007380D01*
X148542143Y-65007380D02*
X148780238Y-65007380D01*
X148780238Y-65007380D02*
X148875476Y-65055000D01*
X148875476Y-65055000D02*
X148923095Y-65102619D01*
X148923095Y-65102619D02*
X148970714Y-65197857D01*
X148970714Y-65197857D02*
X148970714Y-65293095D01*
X148970714Y-65293095D02*
X148923095Y-65435952D01*
X148923095Y-65435952D02*
X148351667Y-66007380D01*
X148351667Y-66007380D02*
X148970714Y-66007380D01*
%TO.C,R9*%
X149352380Y-56916666D02*
X148876190Y-57249999D01*
X149352380Y-57488094D02*
X148352380Y-57488094D01*
X148352380Y-57488094D02*
X148352380Y-57107142D01*
X148352380Y-57107142D02*
X148400000Y-57011904D01*
X148400000Y-57011904D02*
X148447619Y-56964285D01*
X148447619Y-56964285D02*
X148542857Y-56916666D01*
X148542857Y-56916666D02*
X148685714Y-56916666D01*
X148685714Y-56916666D02*
X148780952Y-56964285D01*
X148780952Y-56964285D02*
X148828571Y-57011904D01*
X148828571Y-57011904D02*
X148876190Y-57107142D01*
X148876190Y-57107142D02*
X148876190Y-57488094D01*
X149352380Y-56440475D02*
X149352380Y-56249999D01*
X149352380Y-56249999D02*
X149304761Y-56154761D01*
X149304761Y-56154761D02*
X149257142Y-56107142D01*
X149257142Y-56107142D02*
X149114285Y-56011904D01*
X149114285Y-56011904D02*
X148923809Y-55964285D01*
X148923809Y-55964285D02*
X148542857Y-55964285D01*
X148542857Y-55964285D02*
X148447619Y-56011904D01*
X148447619Y-56011904D02*
X148400000Y-56059523D01*
X148400000Y-56059523D02*
X148352380Y-56154761D01*
X148352380Y-56154761D02*
X148352380Y-56345237D01*
X148352380Y-56345237D02*
X148400000Y-56440475D01*
X148400000Y-56440475D02*
X148447619Y-56488094D01*
X148447619Y-56488094D02*
X148542857Y-56535713D01*
X148542857Y-56535713D02*
X148780952Y-56535713D01*
X148780952Y-56535713D02*
X148876190Y-56488094D01*
X148876190Y-56488094D02*
X148923809Y-56440475D01*
X148923809Y-56440475D02*
X148971428Y-56345237D01*
X148971428Y-56345237D02*
X148971428Y-56154761D01*
X148971428Y-56154761D02*
X148923809Y-56059523D01*
X148923809Y-56059523D02*
X148876190Y-56011904D01*
X148876190Y-56011904D02*
X148780952Y-55964285D01*
%TO.C,U1*%
X133142380Y-90521904D02*
X133951904Y-90521904D01*
X133951904Y-90521904D02*
X134047142Y-90474285D01*
X134047142Y-90474285D02*
X134094761Y-90426666D01*
X134094761Y-90426666D02*
X134142380Y-90331428D01*
X134142380Y-90331428D02*
X134142380Y-90140952D01*
X134142380Y-90140952D02*
X134094761Y-90045714D01*
X134094761Y-90045714D02*
X134047142Y-89998095D01*
X134047142Y-89998095D02*
X133951904Y-89950476D01*
X133951904Y-89950476D02*
X133142380Y-89950476D01*
X134142380Y-88950476D02*
X134142380Y-89521904D01*
X134142380Y-89236190D02*
X133142380Y-89236190D01*
X133142380Y-89236190D02*
X133285238Y-89331428D01*
X133285238Y-89331428D02*
X133380476Y-89426666D01*
X133380476Y-89426666D02*
X133428095Y-89521904D01*
%TO.C,R2*%
X149918333Y-75702380D02*
X149585000Y-75226190D01*
X149346905Y-75702380D02*
X149346905Y-74702380D01*
X149346905Y-74702380D02*
X149727857Y-74702380D01*
X149727857Y-74702380D02*
X149823095Y-74750000D01*
X149823095Y-74750000D02*
X149870714Y-74797619D01*
X149870714Y-74797619D02*
X149918333Y-74892857D01*
X149918333Y-74892857D02*
X149918333Y-75035714D01*
X149918333Y-75035714D02*
X149870714Y-75130952D01*
X149870714Y-75130952D02*
X149823095Y-75178571D01*
X149823095Y-75178571D02*
X149727857Y-75226190D01*
X149727857Y-75226190D02*
X149346905Y-75226190D01*
X150299286Y-74797619D02*
X150346905Y-74750000D01*
X150346905Y-74750000D02*
X150442143Y-74702380D01*
X150442143Y-74702380D02*
X150680238Y-74702380D01*
X150680238Y-74702380D02*
X150775476Y-74750000D01*
X150775476Y-74750000D02*
X150823095Y-74797619D01*
X150823095Y-74797619D02*
X150870714Y-74892857D01*
X150870714Y-74892857D02*
X150870714Y-74988095D01*
X150870714Y-74988095D02*
X150823095Y-75130952D01*
X150823095Y-75130952D02*
X150251667Y-75702380D01*
X150251667Y-75702380D02*
X150870714Y-75702380D01*
%TO.C,R5*%
X132122380Y-56916666D02*
X131646190Y-57249999D01*
X132122380Y-57488094D02*
X131122380Y-57488094D01*
X131122380Y-57488094D02*
X131122380Y-57107142D01*
X131122380Y-57107142D02*
X131170000Y-57011904D01*
X131170000Y-57011904D02*
X131217619Y-56964285D01*
X131217619Y-56964285D02*
X131312857Y-56916666D01*
X131312857Y-56916666D02*
X131455714Y-56916666D01*
X131455714Y-56916666D02*
X131550952Y-56964285D01*
X131550952Y-56964285D02*
X131598571Y-57011904D01*
X131598571Y-57011904D02*
X131646190Y-57107142D01*
X131646190Y-57107142D02*
X131646190Y-57488094D01*
X131122380Y-56011904D02*
X131122380Y-56488094D01*
X131122380Y-56488094D02*
X131598571Y-56535713D01*
X131598571Y-56535713D02*
X131550952Y-56488094D01*
X131550952Y-56488094D02*
X131503333Y-56392856D01*
X131503333Y-56392856D02*
X131503333Y-56154761D01*
X131503333Y-56154761D02*
X131550952Y-56059523D01*
X131550952Y-56059523D02*
X131598571Y-56011904D01*
X131598571Y-56011904D02*
X131693809Y-55964285D01*
X131693809Y-55964285D02*
X131931904Y-55964285D01*
X131931904Y-55964285D02*
X132027142Y-56011904D01*
X132027142Y-56011904D02*
X132074761Y-56059523D01*
X132074761Y-56059523D02*
X132122380Y-56154761D01*
X132122380Y-56154761D02*
X132122380Y-56392856D01*
X132122380Y-56392856D02*
X132074761Y-56488094D01*
X132074761Y-56488094D02*
X132027142Y-56535713D01*
%TO.C,R11*%
X158002380Y-57392857D02*
X157526190Y-57726190D01*
X158002380Y-57964285D02*
X157002380Y-57964285D01*
X157002380Y-57964285D02*
X157002380Y-57583333D01*
X157002380Y-57583333D02*
X157050000Y-57488095D01*
X157050000Y-57488095D02*
X157097619Y-57440476D01*
X157097619Y-57440476D02*
X157192857Y-57392857D01*
X157192857Y-57392857D02*
X157335714Y-57392857D01*
X157335714Y-57392857D02*
X157430952Y-57440476D01*
X157430952Y-57440476D02*
X157478571Y-57488095D01*
X157478571Y-57488095D02*
X157526190Y-57583333D01*
X157526190Y-57583333D02*
X157526190Y-57964285D01*
X158002380Y-56440476D02*
X158002380Y-57011904D01*
X158002380Y-56726190D02*
X157002380Y-56726190D01*
X157002380Y-56726190D02*
X157145238Y-56821428D01*
X157145238Y-56821428D02*
X157240476Y-56916666D01*
X157240476Y-56916666D02*
X157288095Y-57011904D01*
X158002380Y-55488095D02*
X158002380Y-56059523D01*
X158002380Y-55773809D02*
X157002380Y-55773809D01*
X157002380Y-55773809D02*
X157145238Y-55869047D01*
X157145238Y-55869047D02*
X157240476Y-55964285D01*
X157240476Y-55964285D02*
X157288095Y-56059523D01*
%TO.C,D1*%
X134821905Y-66077380D02*
X134821905Y-65077380D01*
X134821905Y-65077380D02*
X135060000Y-65077380D01*
X135060000Y-65077380D02*
X135202857Y-65125000D01*
X135202857Y-65125000D02*
X135298095Y-65220238D01*
X135298095Y-65220238D02*
X135345714Y-65315476D01*
X135345714Y-65315476D02*
X135393333Y-65505952D01*
X135393333Y-65505952D02*
X135393333Y-65648809D01*
X135393333Y-65648809D02*
X135345714Y-65839285D01*
X135345714Y-65839285D02*
X135298095Y-65934523D01*
X135298095Y-65934523D02*
X135202857Y-66029761D01*
X135202857Y-66029761D02*
X135060000Y-66077380D01*
X135060000Y-66077380D02*
X134821905Y-66077380D01*
X136345714Y-66077380D02*
X135774286Y-66077380D01*
X136060000Y-66077380D02*
X136060000Y-65077380D01*
X136060000Y-65077380D02*
X135964762Y-65220238D01*
X135964762Y-65220238D02*
X135869524Y-65315476D01*
X135869524Y-65315476D02*
X135774286Y-65363095D01*
%TO.C,LS1*%
X162857142Y-97827380D02*
X162380952Y-97827380D01*
X162380952Y-97827380D02*
X162380952Y-96827380D01*
X163142857Y-97779761D02*
X163285714Y-97827380D01*
X163285714Y-97827380D02*
X163523809Y-97827380D01*
X163523809Y-97827380D02*
X163619047Y-97779761D01*
X163619047Y-97779761D02*
X163666666Y-97732142D01*
X163666666Y-97732142D02*
X163714285Y-97636904D01*
X163714285Y-97636904D02*
X163714285Y-97541666D01*
X163714285Y-97541666D02*
X163666666Y-97446428D01*
X163666666Y-97446428D02*
X163619047Y-97398809D01*
X163619047Y-97398809D02*
X163523809Y-97351190D01*
X163523809Y-97351190D02*
X163333333Y-97303571D01*
X163333333Y-97303571D02*
X163238095Y-97255952D01*
X163238095Y-97255952D02*
X163190476Y-97208333D01*
X163190476Y-97208333D02*
X163142857Y-97113095D01*
X163142857Y-97113095D02*
X163142857Y-97017857D01*
X163142857Y-97017857D02*
X163190476Y-96922619D01*
X163190476Y-96922619D02*
X163238095Y-96875000D01*
X163238095Y-96875000D02*
X163333333Y-96827380D01*
X163333333Y-96827380D02*
X163571428Y-96827380D01*
X163571428Y-96827380D02*
X163714285Y-96875000D01*
X164666666Y-97827380D02*
X164095238Y-97827380D01*
X164380952Y-97827380D02*
X164380952Y-96827380D01*
X164380952Y-96827380D02*
X164285714Y-96970238D01*
X164285714Y-96970238D02*
X164190476Y-97065476D01*
X164190476Y-97065476D02*
X164095238Y-97113095D01*
X160946428Y-109270951D02*
X160946428Y-108509047D01*
X161327380Y-108889999D02*
X160565476Y-108889999D01*
%TO.C,R6*%
X136172380Y-56916666D02*
X135696190Y-57249999D01*
X136172380Y-57488094D02*
X135172380Y-57488094D01*
X135172380Y-57488094D02*
X135172380Y-57107142D01*
X135172380Y-57107142D02*
X135220000Y-57011904D01*
X135220000Y-57011904D02*
X135267619Y-56964285D01*
X135267619Y-56964285D02*
X135362857Y-56916666D01*
X135362857Y-56916666D02*
X135505714Y-56916666D01*
X135505714Y-56916666D02*
X135600952Y-56964285D01*
X135600952Y-56964285D02*
X135648571Y-57011904D01*
X135648571Y-57011904D02*
X135696190Y-57107142D01*
X135696190Y-57107142D02*
X135696190Y-57488094D01*
X135172380Y-56059523D02*
X135172380Y-56249999D01*
X135172380Y-56249999D02*
X135220000Y-56345237D01*
X135220000Y-56345237D02*
X135267619Y-56392856D01*
X135267619Y-56392856D02*
X135410476Y-56488094D01*
X135410476Y-56488094D02*
X135600952Y-56535713D01*
X135600952Y-56535713D02*
X135981904Y-56535713D01*
X135981904Y-56535713D02*
X136077142Y-56488094D01*
X136077142Y-56488094D02*
X136124761Y-56440475D01*
X136124761Y-56440475D02*
X136172380Y-56345237D01*
X136172380Y-56345237D02*
X136172380Y-56154761D01*
X136172380Y-56154761D02*
X136124761Y-56059523D01*
X136124761Y-56059523D02*
X136077142Y-56011904D01*
X136077142Y-56011904D02*
X135981904Y-55964285D01*
X135981904Y-55964285D02*
X135743809Y-55964285D01*
X135743809Y-55964285D02*
X135648571Y-56011904D01*
X135648571Y-56011904D02*
X135600952Y-56059523D01*
X135600952Y-56059523D02*
X135553333Y-56154761D01*
X135553333Y-56154761D02*
X135553333Y-56345237D01*
X135553333Y-56345237D02*
X135600952Y-56440475D01*
X135600952Y-56440475D02*
X135648571Y-56488094D01*
X135648571Y-56488094D02*
X135743809Y-56535713D01*
%TO.C,R1*%
X135948333Y-75702380D02*
X135615000Y-75226190D01*
X135376905Y-75702380D02*
X135376905Y-74702380D01*
X135376905Y-74702380D02*
X135757857Y-74702380D01*
X135757857Y-74702380D02*
X135853095Y-74750000D01*
X135853095Y-74750000D02*
X135900714Y-74797619D01*
X135900714Y-74797619D02*
X135948333Y-74892857D01*
X135948333Y-74892857D02*
X135948333Y-75035714D01*
X135948333Y-75035714D02*
X135900714Y-75130952D01*
X135900714Y-75130952D02*
X135853095Y-75178571D01*
X135853095Y-75178571D02*
X135757857Y-75226190D01*
X135757857Y-75226190D02*
X135376905Y-75226190D01*
X136900714Y-75702380D02*
X136329286Y-75702380D01*
X136615000Y-75702380D02*
X136615000Y-74702380D01*
X136615000Y-74702380D02*
X136519762Y-74845238D01*
X136519762Y-74845238D02*
X136424524Y-74940476D01*
X136424524Y-74940476D02*
X136329286Y-74988095D01*
%TO.C,R8*%
X144272380Y-56916666D02*
X143796190Y-57249999D01*
X144272380Y-57488094D02*
X143272380Y-57488094D01*
X143272380Y-57488094D02*
X143272380Y-57107142D01*
X143272380Y-57107142D02*
X143320000Y-57011904D01*
X143320000Y-57011904D02*
X143367619Y-56964285D01*
X143367619Y-56964285D02*
X143462857Y-56916666D01*
X143462857Y-56916666D02*
X143605714Y-56916666D01*
X143605714Y-56916666D02*
X143700952Y-56964285D01*
X143700952Y-56964285D02*
X143748571Y-57011904D01*
X143748571Y-57011904D02*
X143796190Y-57107142D01*
X143796190Y-57107142D02*
X143796190Y-57488094D01*
X143700952Y-56345237D02*
X143653333Y-56440475D01*
X143653333Y-56440475D02*
X143605714Y-56488094D01*
X143605714Y-56488094D02*
X143510476Y-56535713D01*
X143510476Y-56535713D02*
X143462857Y-56535713D01*
X143462857Y-56535713D02*
X143367619Y-56488094D01*
X143367619Y-56488094D02*
X143320000Y-56440475D01*
X143320000Y-56440475D02*
X143272380Y-56345237D01*
X143272380Y-56345237D02*
X143272380Y-56154761D01*
X143272380Y-56154761D02*
X143320000Y-56059523D01*
X143320000Y-56059523D02*
X143367619Y-56011904D01*
X143367619Y-56011904D02*
X143462857Y-55964285D01*
X143462857Y-55964285D02*
X143510476Y-55964285D01*
X143510476Y-55964285D02*
X143605714Y-56011904D01*
X143605714Y-56011904D02*
X143653333Y-56059523D01*
X143653333Y-56059523D02*
X143700952Y-56154761D01*
X143700952Y-56154761D02*
X143700952Y-56345237D01*
X143700952Y-56345237D02*
X143748571Y-56440475D01*
X143748571Y-56440475D02*
X143796190Y-56488094D01*
X143796190Y-56488094D02*
X143891428Y-56535713D01*
X143891428Y-56535713D02*
X144081904Y-56535713D01*
X144081904Y-56535713D02*
X144177142Y-56488094D01*
X144177142Y-56488094D02*
X144224761Y-56440475D01*
X144224761Y-56440475D02*
X144272380Y-56345237D01*
X144272380Y-56345237D02*
X144272380Y-56154761D01*
X144272380Y-56154761D02*
X144224761Y-56059523D01*
X144224761Y-56059523D02*
X144177142Y-56011904D01*
X144177142Y-56011904D02*
X144081904Y-55964285D01*
X144081904Y-55964285D02*
X143891428Y-55964285D01*
X143891428Y-55964285D02*
X143796190Y-56011904D01*
X143796190Y-56011904D02*
X143748571Y-56059523D01*
X143748571Y-56059523D02*
X143700952Y-56154761D01*
%TO.C,R4*%
X146108333Y-98562380D02*
X145775000Y-98086190D01*
X145536905Y-98562380D02*
X145536905Y-97562380D01*
X145536905Y-97562380D02*
X145917857Y-97562380D01*
X145917857Y-97562380D02*
X146013095Y-97610000D01*
X146013095Y-97610000D02*
X146060714Y-97657619D01*
X146060714Y-97657619D02*
X146108333Y-97752857D01*
X146108333Y-97752857D02*
X146108333Y-97895714D01*
X146108333Y-97895714D02*
X146060714Y-97990952D01*
X146060714Y-97990952D02*
X146013095Y-98038571D01*
X146013095Y-98038571D02*
X145917857Y-98086190D01*
X145917857Y-98086190D02*
X145536905Y-98086190D01*
X146965476Y-97895714D02*
X146965476Y-98562380D01*
X146727381Y-97514761D02*
X146489286Y-98229047D01*
X146489286Y-98229047D02*
X147108333Y-98229047D01*
%TO.C,R7*%
X140222380Y-56916666D02*
X139746190Y-57249999D01*
X140222380Y-57488094D02*
X139222380Y-57488094D01*
X139222380Y-57488094D02*
X139222380Y-57107142D01*
X139222380Y-57107142D02*
X139270000Y-57011904D01*
X139270000Y-57011904D02*
X139317619Y-56964285D01*
X139317619Y-56964285D02*
X139412857Y-56916666D01*
X139412857Y-56916666D02*
X139555714Y-56916666D01*
X139555714Y-56916666D02*
X139650952Y-56964285D01*
X139650952Y-56964285D02*
X139698571Y-57011904D01*
X139698571Y-57011904D02*
X139746190Y-57107142D01*
X139746190Y-57107142D02*
X139746190Y-57488094D01*
X139222380Y-56583332D02*
X139222380Y-55916666D01*
X139222380Y-55916666D02*
X140222380Y-56345237D01*
D11*
%TO.C,J1*%
X174275000Y-91675000D02*
X174275000Y-73835000D01*
X174275000Y-91675000D02*
X171615000Y-91675000D01*
X174275000Y-73835000D02*
X171615000Y-73835000D01*
X172945000Y-94275000D02*
X171615000Y-94275000D01*
X171615000Y-94275000D02*
X171615000Y-92945000D01*
X171615000Y-91675000D02*
X171615000Y-73835000D01*
%TO.C,J3*%
X174275000Y-68815000D02*
X174275000Y-56055000D01*
X174275000Y-68815000D02*
X171615000Y-68815000D01*
X174275000Y-56055000D02*
X171615000Y-56055000D01*
X172945000Y-71415000D02*
X171615000Y-71415000D01*
X171615000Y-71415000D02*
X171615000Y-70085000D01*
X171615000Y-68815000D02*
X171615000Y-56055000D01*
%TO.C,J2*%
X126015000Y-100819000D02*
X126015000Y-77899000D01*
X126015000Y-100819000D02*
X123355000Y-100819000D01*
X126015000Y-77899000D02*
X123355000Y-77899000D01*
X124685000Y-103419000D02*
X123355000Y-103419000D01*
X123355000Y-103419000D02*
X123355000Y-102089000D01*
X123355000Y-100819000D02*
X123355000Y-77899000D01*
%TO.C,J4*%
X126015000Y-73895000D02*
X126015000Y-56055000D01*
X126015000Y-73895000D02*
X123355000Y-73895000D01*
X126015000Y-56055000D02*
X123355000Y-56055000D01*
X124685000Y-76495000D02*
X123355000Y-76495000D01*
X123355000Y-76495000D02*
X123355000Y-75165000D01*
X123355000Y-73895000D02*
X123355000Y-56055000D01*
%TO.C,R3*%
X129535000Y-104375000D02*
X130305000Y-104375000D01*
X130305000Y-103005000D02*
X130305000Y-105745000D01*
X130305000Y-105745000D02*
X136845000Y-105745000D01*
X136845000Y-103005000D02*
X130305000Y-103005000D01*
X136845000Y-105745000D02*
X136845000Y-103005000D01*
X137615000Y-104375000D02*
X136845000Y-104375000D01*
%TO.C,R10*%
X155955000Y-60790000D02*
X155955000Y-60020000D01*
X154585000Y-60020000D02*
X157325000Y-60020000D01*
X157325000Y-60020000D02*
X157325000Y-53480000D01*
X154585000Y-53480000D02*
X154585000Y-60020000D01*
X157325000Y-53480000D02*
X154585000Y-53480000D01*
X155955000Y-52710000D02*
X155955000Y-53480000D01*
%TO.C,R12*%
X164055000Y-60790000D02*
X164055000Y-60020000D01*
X162685000Y-60020000D02*
X165425000Y-60020000D01*
X165425000Y-60020000D02*
X165425000Y-53480000D01*
X162685000Y-53480000D02*
X162685000Y-60020000D01*
X165425000Y-53480000D02*
X162685000Y-53480000D01*
X164055000Y-52710000D02*
X164055000Y-53480000D01*
%TO.C,U2*%
X141465000Y-48335000D02*
X143465000Y-48335000D01*
X123545000Y-47955000D02*
X174085000Y-47955000D01*
X123545000Y-47955000D02*
X123545000Y-28715000D01*
X174085000Y-47955000D02*
X174085000Y-28715000D01*
X174085000Y-28715000D02*
X123545000Y-28715000D01*
%TO.C,D2*%
X145620000Y-67905000D02*
X145620000Y-70995000D01*
X151169999Y-69450462D02*
G75*
G03*
X145620001Y-67905170I-2989999J462D01*
G01*
X145620000Y-70994830D02*
G75*
G03*
X151170000Y-69449538I2560000J1544830D01*
G01*
X150680000Y-69450000D02*
G75*
G03*
X150680000Y-69450000I-2500000J0D01*
G01*
%TO.C,R9*%
X151355000Y-60790000D02*
X151355000Y-60020000D01*
X149985000Y-60020000D02*
X152725000Y-60020000D01*
X152725000Y-60020000D02*
X152725000Y-53480000D01*
X149985000Y-53480000D02*
X149985000Y-60020000D01*
X152725000Y-53480000D02*
X149985000Y-53480000D01*
X151355000Y-52710000D02*
X151355000Y-53480000D01*
%TO.C,U1*%
X134715000Y-94900000D02*
X155275000Y-94900000D01*
X155275000Y-94900000D02*
X155275000Y-84620000D01*
X134775000Y-92410000D02*
X155215000Y-92410000D01*
X155215000Y-92410000D02*
X155215000Y-87110000D01*
X134775000Y-90760000D02*
X134775000Y-92410000D01*
X134775000Y-87110000D02*
X134775000Y-88760000D01*
X155215000Y-87110000D02*
X134775000Y-87110000D01*
X134715000Y-84620000D02*
X134715000Y-94900000D01*
X155275000Y-84620000D02*
X134715000Y-84620000D01*
X134775000Y-90760000D02*
G75*
G03*
X134775000Y-88760000I0J1000000D01*
G01*
%TO.C,SW2*%
X146600000Y-114650000D02*
X146600000Y-113150000D01*
X145350000Y-110650000D02*
X140850000Y-110650000D01*
X140850000Y-117150000D02*
X145350000Y-117150000D01*
X139600000Y-113150000D02*
X139600000Y-114650000D01*
%TO.C,R2*%
X146045000Y-77705000D02*
X146815000Y-77705000D01*
X146815000Y-76335000D02*
X146815000Y-79075000D01*
X146815000Y-79075000D02*
X153355000Y-79075000D01*
X153355000Y-76335000D02*
X146815000Y-76335000D01*
X153355000Y-79075000D02*
X153355000Y-76335000D01*
X154125000Y-77705000D02*
X153355000Y-77705000D01*
%TO.C,R5*%
X134125000Y-60790000D02*
X134125000Y-60020000D01*
X132755000Y-60020000D02*
X135495000Y-60020000D01*
X135495000Y-60020000D02*
X135495000Y-53480000D01*
X132755000Y-53480000D02*
X132755000Y-60020000D01*
X135495000Y-53480000D02*
X132755000Y-53480000D01*
X134125000Y-52710000D02*
X134125000Y-53480000D01*
%TO.C,R11*%
X160005000Y-60790000D02*
X160005000Y-60020000D01*
X158635000Y-60020000D02*
X161375000Y-60020000D01*
X161375000Y-60020000D02*
X161375000Y-53480000D01*
X158635000Y-53480000D02*
X158635000Y-60020000D01*
X161375000Y-53480000D02*
X158635000Y-53480000D01*
X160005000Y-52710000D02*
X160005000Y-53480000D01*
%TO.C,D1*%
X138045000Y-70995000D02*
X138045000Y-67905000D01*
X132495001Y-69449538D02*
G75*
G03*
X138044999Y-70994830I2989999J-462D01*
G01*
X138045000Y-67905170D02*
G75*
G03*
X132495000Y-69450462I-2560000J-1544830D01*
G01*
X137985000Y-69450000D02*
G75*
G03*
X137985000Y-69450000I-2500000J0D01*
G01*
%TO.C,LS1*%
X169600000Y-105080000D02*
G75*
G03*
X169600000Y-105080000I-6100000J0D01*
G01*
%TO.C,R6*%
X138175000Y-60790000D02*
X138175000Y-60020000D01*
X136805000Y-60020000D02*
X139545000Y-60020000D01*
X139545000Y-60020000D02*
X139545000Y-53480000D01*
X136805000Y-53480000D02*
X136805000Y-60020000D01*
X139545000Y-53480000D02*
X136805000Y-53480000D01*
X138175000Y-52710000D02*
X138175000Y-53480000D01*
%TO.C,R1*%
X132075000Y-77705000D02*
X132845000Y-77705000D01*
X132845000Y-76335000D02*
X132845000Y-79075000D01*
X132845000Y-79075000D02*
X139385000Y-79075000D01*
X139385000Y-76335000D02*
X132845000Y-76335000D01*
X139385000Y-79075000D02*
X139385000Y-76335000D01*
X140155000Y-77705000D02*
X139385000Y-77705000D01*
%TO.C,Start/Stop*%
X133900000Y-114650000D02*
X133900000Y-113150000D01*
X132650000Y-110650000D02*
X128150000Y-110650000D01*
X128150000Y-117150000D02*
X132650000Y-117150000D01*
X126900000Y-113150000D02*
X126900000Y-114650000D01*
%TO.C,R8*%
X146275000Y-60790000D02*
X146275000Y-60020000D01*
X144905000Y-60020000D02*
X147645000Y-60020000D01*
X147645000Y-60020000D02*
X147645000Y-53480000D01*
X144905000Y-53480000D02*
X144905000Y-60020000D01*
X147645000Y-53480000D02*
X144905000Y-53480000D01*
X146275000Y-52710000D02*
X146275000Y-53480000D01*
%TO.C,R4*%
X142235000Y-100565000D02*
X143005000Y-100565000D01*
X143005000Y-99195000D02*
X143005000Y-101935000D01*
X143005000Y-101935000D02*
X149545000Y-101935000D01*
X149545000Y-99195000D02*
X143005000Y-99195000D01*
X149545000Y-101935000D02*
X149545000Y-99195000D01*
X150315000Y-100565000D02*
X149545000Y-100565000D01*
%TO.C,R7*%
X142225000Y-60790000D02*
X142225000Y-60020000D01*
X140855000Y-60020000D02*
X143595000Y-60020000D01*
X143595000Y-60020000D02*
X143595000Y-53480000D01*
X140855000Y-53480000D02*
X140855000Y-60020000D01*
X143595000Y-53480000D02*
X140855000Y-53480000D01*
X142225000Y-52710000D02*
X142225000Y-53480000D01*
%TD*%
M02*
