%TF.GenerationSoftware,KiCad,Pcbnew,(7.0.0-0)*%
%TF.CreationDate,2023-04-13T00:16:08-06:00*%
%TF.ProjectId,Phase A - PCB,50686173-6520-4412-902d-205043422e6b,rev?*%
%TF.SameCoordinates,Original*%
%TF.FileFunction,Drillmap*%
%TF.FilePolarity,Positive*%
%FSLAX45Y45*%
G04 Gerber Fmt 4.5, Leading zero omitted, Abs format (unit mm)*
G04 Created by KiCad (PCBNEW (7.0.0-0)) date 2023-04-13 00:16:08*
%MOMM*%
%LPD*%
G01*
G04 APERTURE LIST*
%ADD10C,0.150000*%
%ADD11C,0.200000*%
G04 APERTURE END LIST*
D10*
X12214500Y-11961500D02*
G75*
G03*
X12341500Y-12088500I127000J0D01*
G01*
X12214500Y-11961500D02*
X12214500Y-2817500D01*
X17421500Y-12088500D02*
X12341500Y-12088500D01*
X17548500Y-2817500D02*
X17548500Y-11961500D01*
X12341500Y-2690500D02*
X17421500Y-2690500D01*
X12341500Y-2690500D02*
G75*
G03*
X12214500Y-2817500I0J-127000D01*
G01*
X17548500Y-2817500D02*
G75*
G03*
X17421500Y-2690500I-127000J0D01*
G01*
X17421500Y-12088500D02*
G75*
G03*
X17548500Y-11961500I0J127000D01*
G01*
D11*
X12454619Y-12389476D02*
X12454619Y-12189476D01*
X12454619Y-12189476D02*
X12502238Y-12189476D01*
X12502238Y-12189476D02*
X12530809Y-12199000D01*
X12530809Y-12199000D02*
X12549857Y-12218048D01*
X12549857Y-12218048D02*
X12559381Y-12237095D01*
X12559381Y-12237095D02*
X12568905Y-12275190D01*
X12568905Y-12275190D02*
X12568905Y-12303762D01*
X12568905Y-12303762D02*
X12559381Y-12341857D01*
X12559381Y-12341857D02*
X12549857Y-12360905D01*
X12549857Y-12360905D02*
X12530809Y-12379952D01*
X12530809Y-12379952D02*
X12502238Y-12389476D01*
X12502238Y-12389476D02*
X12454619Y-12389476D01*
X12654619Y-12389476D02*
X12654619Y-12256143D01*
X12654619Y-12294238D02*
X12664143Y-12275190D01*
X12664143Y-12275190D02*
X12673667Y-12265667D01*
X12673667Y-12265667D02*
X12692714Y-12256143D01*
X12692714Y-12256143D02*
X12711762Y-12256143D01*
X12778428Y-12389476D02*
X12778428Y-12256143D01*
X12778428Y-12189476D02*
X12768905Y-12199000D01*
X12768905Y-12199000D02*
X12778428Y-12208524D01*
X12778428Y-12208524D02*
X12787952Y-12199000D01*
X12787952Y-12199000D02*
X12778428Y-12189476D01*
X12778428Y-12189476D02*
X12778428Y-12208524D01*
X12902238Y-12389476D02*
X12883190Y-12379952D01*
X12883190Y-12379952D02*
X12873667Y-12360905D01*
X12873667Y-12360905D02*
X12873667Y-12189476D01*
X13007000Y-12389476D02*
X12987952Y-12379952D01*
X12987952Y-12379952D02*
X12978428Y-12360905D01*
X12978428Y-12360905D02*
X12978428Y-12189476D01*
X13203190Y-12389476D02*
X13203190Y-12189476D01*
X13203190Y-12189476D02*
X13269857Y-12332333D01*
X13269857Y-12332333D02*
X13336524Y-12189476D01*
X13336524Y-12189476D02*
X13336524Y-12389476D01*
X13517476Y-12389476D02*
X13517476Y-12284714D01*
X13517476Y-12284714D02*
X13507952Y-12265667D01*
X13507952Y-12265667D02*
X13488905Y-12256143D01*
X13488905Y-12256143D02*
X13450809Y-12256143D01*
X13450809Y-12256143D02*
X13431762Y-12265667D01*
X13517476Y-12379952D02*
X13498428Y-12389476D01*
X13498428Y-12389476D02*
X13450809Y-12389476D01*
X13450809Y-12389476D02*
X13431762Y-12379952D01*
X13431762Y-12379952D02*
X13422238Y-12360905D01*
X13422238Y-12360905D02*
X13422238Y-12341857D01*
X13422238Y-12341857D02*
X13431762Y-12322809D01*
X13431762Y-12322809D02*
X13450809Y-12313286D01*
X13450809Y-12313286D02*
X13498428Y-12313286D01*
X13498428Y-12313286D02*
X13517476Y-12303762D01*
X13612714Y-12256143D02*
X13612714Y-12456143D01*
X13612714Y-12265667D02*
X13631762Y-12256143D01*
X13631762Y-12256143D02*
X13669857Y-12256143D01*
X13669857Y-12256143D02*
X13688905Y-12265667D01*
X13688905Y-12265667D02*
X13698428Y-12275190D01*
X13698428Y-12275190D02*
X13707952Y-12294238D01*
X13707952Y-12294238D02*
X13707952Y-12351381D01*
X13707952Y-12351381D02*
X13698428Y-12370428D01*
X13698428Y-12370428D02*
X13688905Y-12379952D01*
X13688905Y-12379952D02*
X13669857Y-12389476D01*
X13669857Y-12389476D02*
X13631762Y-12389476D01*
X13631762Y-12389476D02*
X13612714Y-12379952D01*
X13793667Y-12370428D02*
X13803190Y-12379952D01*
X13803190Y-12379952D02*
X13793667Y-12389476D01*
X13793667Y-12389476D02*
X13784143Y-12379952D01*
X13784143Y-12379952D02*
X13793667Y-12370428D01*
X13793667Y-12370428D02*
X13793667Y-12389476D01*
X13793667Y-12265667D02*
X13803190Y-12275190D01*
X13803190Y-12275190D02*
X13793667Y-12284714D01*
X13793667Y-12284714D02*
X13784143Y-12275190D01*
X13784143Y-12275190D02*
X13793667Y-12265667D01*
X13793667Y-12265667D02*
X13793667Y-12284714D01*
M02*
