M48
; DRILL file {KiCad (7.0.0-0)} date Thursday, April 13, 2023 at 12:16:05 AM
; FORMAT={-:-/ absolute / inch / decimal}
; #@! TF.CreationDate,2023-04-13T00:16:05-06:00
; #@! TF.GenerationSoftware,Kicad,Pcbnew,(7.0.0-0)
; #@! TF.FileFunction,Plated,1,2,PTH
FMAT,2
INCH
; #@! TA.AperFunction,Plated,PTH,ComponentDrill
T1C0.0315
; #@! TA.AperFunction,Plated,PTH,ComponentDrill
T2C0.0354
; #@! TA.AperFunction,Plated,PTH,ComponentDrill
T3C0.0394
; #@! TA.AperFunction,Plated,PTH,ComponentDrill
T4C0.0433
%
G90
G05
T1
X5.0589Y-4.1093
X5.1589Y-3.0593
X5.2805Y-2.0343
X5.2805Y-2.4343
X5.3585Y-3.3839
X5.3585Y-3.6839
X5.44Y-2.0343
X5.44Y-2.4343
X5.4585Y-3.3839
X5.4585Y-3.6839
X5.4589Y-4.1093
X5.5585Y-3.3839
X5.5585Y-3.6839
X5.5589Y-3.0593
X5.5589Y-3.9593
X5.5994Y-2.0343
X5.5994Y-2.4343
X5.6585Y-3.3839
X5.6585Y-3.6839
X5.7089Y-3.0593
X5.7585Y-3.3839
X5.7585Y-3.6839
X5.7589Y-2.0343
X5.7589Y-2.4343
X5.8585Y-3.3839
X5.8585Y-3.6839
X5.9585Y-3.3839
X5.9585Y-3.6839
X5.9589Y-2.0343
X5.9589Y-2.4343
X5.9589Y-3.9593
X6.0585Y-3.3839
X6.0585Y-3.6839
X6.1089Y-3.0593
X6.14Y-2.0343
X6.14Y-2.4343
X6.2994Y-2.0343
X6.2994Y-2.4343
X6.4589Y-2.0343
X6.4589Y-2.4343
T2
X5.2841Y-2.7343
X5.3841Y-2.7343
X5.7839Y-2.7343
X5.8839Y-2.7343
T3
X4.9089Y-2.2593
X4.9089Y-2.3593
X4.9089Y-2.4593
X4.9089Y-2.5593
X4.9089Y-2.6593
X4.9089Y-2.7593
X4.9089Y-2.8593
X4.9089Y-2.9593
X4.9089Y-3.1193
X4.9089Y-3.2193
X4.9089Y-3.3193
X4.9089Y-3.4193
X4.9089Y-3.5193
X4.9089Y-3.6193
X4.9089Y-3.7193
X4.9089Y-3.8193
X4.9089Y-3.9193
X4.9089Y-4.0193
X5.6089Y-1.2093
X5.6089Y-1.8093
X5.7089Y-1.2093
X5.7089Y-1.8093
X5.8089Y-1.2093
X5.8089Y-1.8093
X5.9089Y-1.2093
X5.9089Y-1.8093
X6.0089Y-1.2093
X6.0089Y-1.8093
X6.1089Y-1.2093
X6.1089Y-1.8093
X6.437Y-3.9874
X6.437Y-4.2866
X6.8089Y-2.2593
X6.8089Y-2.3593
X6.8089Y-2.4593
X6.8089Y-2.5593
X6.8089Y-2.6593
X6.8089Y-2.7593
X6.8089Y-2.9593
X6.8089Y-3.0593
X6.8089Y-3.1593
X6.8089Y-3.2593
X6.8089Y-3.3593
X6.8089Y-3.4593
X6.8089Y-3.5593
X6.8089Y-3.6593
T4
X5.0059Y-4.3957
X5.0059Y-4.5728
X5.2618Y-4.3957
X5.2618Y-4.5728
X5.5059Y-4.3957
X5.5059Y-4.5728
X5.7618Y-4.3957
X5.7618Y-4.5728
T0
M30
