%TF.GenerationSoftware,KiCad,Pcbnew,(7.0.0-0)*%
%TF.CreationDate,2023-04-13T00:16:45-06:00*%
%TF.ProjectId,Phase A - PCB,50686173-6520-4412-902d-205043422e6b,rev?*%
%TF.SameCoordinates,Original*%
%TF.FileFunction,Copper,L1,Top*%
%TF.FilePolarity,Positive*%
%FSLAX46Y46*%
G04 Gerber Fmt 4.6, Leading zero omitted, Abs format (unit mm)*
G04 Created by KiCad (PCBNEW (7.0.0-0)) date 2023-04-13 00:16:45*
%MOMM*%
%LPD*%
G01*
G04 APERTURE LIST*
%TA.AperFunction,ComponentPad*%
%ADD10R,1.700000X1.700000*%
%TD*%
%TA.AperFunction,ComponentPad*%
%ADD11O,1.700000X1.700000*%
%TD*%
%TA.AperFunction,ComponentPad*%
%ADD12C,1.600000*%
%TD*%
%TA.AperFunction,ComponentPad*%
%ADD13O,1.600000X1.600000*%
%TD*%
%TA.AperFunction,ComponentPad*%
%ADD14R,1.500000X1.500000*%
%TD*%
%TA.AperFunction,ComponentPad*%
%ADD15C,1.500000*%
%TD*%
%TA.AperFunction,ComponentPad*%
%ADD16R,1.800000X1.800000*%
%TD*%
%TA.AperFunction,ComponentPad*%
%ADD17C,1.800000*%
%TD*%
%TA.AperFunction,ComponentPad*%
%ADD18R,1.600000X1.600000*%
%TD*%
%TA.AperFunction,ComponentPad*%
%ADD19C,2.000000*%
%TD*%
%TA.AperFunction,ComponentPad*%
%ADD20R,2.000000X2.000000*%
%TD*%
G04 APERTURE END LIST*
D10*
%TO.P,J1,1,Pin_1*%
%TO.N,unconnected-(J1-Pin_1-Pad1)*%
X172944999Y-92944999D03*
D11*
%TO.P,J1,2,Pin_2*%
%TO.N,/IOREF*%
X172944999Y-90404999D03*
%TO.P,J1,3,Pin_3*%
%TO.N,/~{RESET}*%
X172944999Y-87864999D03*
%TO.P,J1,4,Pin_4*%
%TO.N,+3V3*%
X172944999Y-85324999D03*
%TO.P,J1,5,Pin_5*%
%TO.N,+5V*%
X172944999Y-82784999D03*
%TO.P,J1,6,Pin_6*%
%TO.N,GND*%
X172944999Y-80244999D03*
%TO.P,J1,7,Pin_7*%
X172944999Y-77704999D03*
%TO.P,J1,8,Pin_8*%
%TO.N,VCC*%
X172944999Y-75164999D03*
%TD*%
D10*
%TO.P,J3,1,Pin_1*%
%TO.N,/A0*%
X172944999Y-70084999D03*
D11*
%TO.P,J3,2,Pin_2*%
%TO.N,/A1*%
X172944999Y-67544999D03*
%TO.P,J3,3,Pin_3*%
%TO.N,/A2*%
X172944999Y-65004999D03*
%TO.P,J3,4,Pin_4*%
%TO.N,/A3*%
X172944999Y-62464999D03*
%TO.P,J3,5,Pin_5*%
%TO.N,/SDA{slash}A4*%
X172944999Y-59924999D03*
%TO.P,J3,6,Pin_6*%
%TO.N,/SCL{slash}A5*%
X172944999Y-57384999D03*
%TD*%
D10*
%TO.P,J2,1,Pin_1*%
%TO.N,/SCL{slash}A5*%
X124684999Y-102088999D03*
D11*
%TO.P,J2,2,Pin_2*%
%TO.N,/SDA{slash}A4*%
X124684999Y-99548999D03*
%TO.P,J2,3,Pin_3*%
%TO.N,/AREF*%
X124684999Y-97008999D03*
%TO.P,J2,4,Pin_4*%
%TO.N,GND*%
X124684999Y-94468999D03*
%TO.P,J2,5,Pin_5*%
%TO.N,Dig1*%
X124684999Y-91928999D03*
%TO.P,J2,6,Pin_6*%
%TO.N,Dig2*%
X124684999Y-89388999D03*
%TO.P,J2,7,Pin_7*%
%TO.N,Dig3*%
X124684999Y-86848999D03*
%TO.P,J2,8,Pin_8*%
%TO.N,Dig4*%
X124684999Y-84308999D03*
%TO.P,J2,9,Pin_9*%
%TO.N,DS*%
X124684999Y-81768999D03*
%TO.P,J2,10,Pin_10*%
%TO.N,ST_CP*%
X124684999Y-79228999D03*
%TD*%
D10*
%TO.P,J4,1,Pin_1*%
%TO.N,SH_CP*%
X124684999Y-75164999D03*
D11*
%TO.P,J4,2,Pin_2*%
%TO.N,BUZZER*%
X124684999Y-72624999D03*
%TO.P,J4,3,Pin_3*%
%TO.N,RED_LED*%
X124684999Y-70084999D03*
%TO.P,J4,4,Pin_4*%
%TO.N,GREEN_LED*%
X124684999Y-67544999D03*
%TO.P,J4,5,Pin_5*%
%TO.N,BUTTON_2*%
X124684999Y-65004999D03*
%TO.P,J4,6,Pin_6*%
%TO.N,BUTTON_1*%
X124684999Y-62464999D03*
%TO.P,J4,7,Pin_7*%
%TO.N,/TX{slash}1*%
X124684999Y-59924999D03*
%TO.P,J4,8,Pin_8*%
%TO.N,/RX{slash}0*%
X124684999Y-57384999D03*
%TD*%
D12*
%TO.P,R3,1*%
%TO.N,BUTTON_1*%
X128495000Y-104375000D03*
D13*
%TO.P,R3,2*%
%TO.N,GND*%
X138654999Y-104374999D03*
%TD*%
D12*
%TO.P,R10,1*%
%TO.N,f*%
X155955000Y-61830000D03*
D13*
%TO.P,R10,2*%
%TO.N,Net-(U2-f)*%
X155954999Y-51669999D03*
%TD*%
D12*
%TO.P,R12,1*%
%TO.N,dp*%
X164055000Y-61830000D03*
D13*
%TO.P,R12,2*%
%TO.N,Net-(U2-DPX)*%
X164054999Y-51669999D03*
%TD*%
D14*
%TO.P,U2,1,e*%
%TO.N,Net-(U2-e)*%
X142464999Y-45954999D03*
D15*
%TO.P,U2,2,d*%
%TO.N,Net-(U2-d)*%
X145005000Y-45955000D03*
%TO.P,U2,3,DPX*%
%TO.N,Net-(U2-DPX)*%
X147545000Y-45955000D03*
%TO.P,U2,4,c*%
%TO.N,Net-(U2-c)*%
X150085000Y-45955000D03*
%TO.P,U2,5,g*%
%TO.N,Net-(U2-g)*%
X152625000Y-45955000D03*
%TO.P,U2,6,CA4*%
%TO.N,Dig4*%
X155165000Y-45955000D03*
%TO.P,U2,7,b*%
%TO.N,Net-(U2-b)*%
X155165000Y-30715000D03*
%TO.P,U2,8,CA3*%
%TO.N,Dig3*%
X152625000Y-30715000D03*
%TO.P,U2,9,CA2*%
%TO.N,Dig2*%
X150085000Y-30715000D03*
%TO.P,U2,10,f*%
%TO.N,Net-(U2-f)*%
X147545000Y-30715000D03*
%TO.P,U2,11,a*%
%TO.N,Net-(U2-a)*%
X145005000Y-30715000D03*
%TO.P,U2,12,CA1*%
%TO.N,Dig1*%
X142465000Y-30715000D03*
%TD*%
D16*
%TO.P,D2,1,K*%
%TO.N,GND*%
X146909999Y-69449999D03*
D17*
%TO.P,D2,2,A*%
%TO.N,Net-(D2-A)*%
X149450000Y-69450000D03*
%TD*%
D12*
%TO.P,R9,1*%
%TO.N,e*%
X151355000Y-61830000D03*
D13*
%TO.P,R9,2*%
%TO.N,Net-(U2-e)*%
X151354999Y-51669999D03*
%TD*%
D18*
%TO.P,U1,1,QB*%
%TO.N,b*%
X136104999Y-93569999D03*
D13*
%TO.P,U1,2,QC*%
%TO.N,c*%
X138644999Y-93569999D03*
%TO.P,U1,3,QD*%
%TO.N,d*%
X141184999Y-93569999D03*
%TO.P,U1,4,QE*%
%TO.N,e*%
X143724999Y-93569999D03*
%TO.P,U1,5,QF*%
%TO.N,f*%
X146264999Y-93569999D03*
%TO.P,U1,6,QG*%
%TO.N,g*%
X148804999Y-93569999D03*
%TO.P,U1,7,QH*%
%TO.N,dp*%
X151344999Y-93569999D03*
%TO.P,U1,8,GND*%
%TO.N,GND*%
X153884999Y-93569999D03*
%TO.P,U1,9,QH'*%
%TO.N,unconnected-(U1-QH'-Pad9)*%
X153884999Y-85949999D03*
%TO.P,U1,10,~{SRCLR}*%
%TO.N,VCC*%
X151344999Y-85949999D03*
%TO.P,U1,11,SRCLK*%
%TO.N,SH_CP*%
X148804999Y-85949999D03*
%TO.P,U1,12,RCLK*%
%TO.N,ST_CP*%
X146264999Y-85949999D03*
%TO.P,U1,13,~{OE}*%
%TO.N,GND*%
X143724999Y-85949999D03*
%TO.P,U1,14,SER*%
%TO.N,DS*%
X141184999Y-85949999D03*
%TO.P,U1,15,QA*%
%TO.N,a*%
X138644999Y-85949999D03*
%TO.P,U1,16,VCC*%
%TO.N,VCC*%
X136104999Y-85949999D03*
%TD*%
D19*
%TO.P,SW2,1,1*%
%TO.N,VCC*%
X146350000Y-116150000D03*
X139850000Y-116150000D03*
%TO.P,SW2,2,2*%
%TO.N,BUTTON_2*%
X146350000Y-111650000D03*
X139850000Y-111650000D03*
%TD*%
D12*
%TO.P,R2,1*%
%TO.N,RED_LED*%
X145005000Y-77705000D03*
D13*
%TO.P,R2,2*%
%TO.N,Net-(D2-A)*%
X155164999Y-77704999D03*
%TD*%
D12*
%TO.P,R5,1*%
%TO.N,a*%
X134125000Y-61830000D03*
D13*
%TO.P,R5,2*%
%TO.N,Net-(U2-a)*%
X134124999Y-51669999D03*
%TD*%
D12*
%TO.P,R11,1*%
%TO.N,g*%
X160005000Y-61830000D03*
D13*
%TO.P,R11,2*%
%TO.N,Net-(U2-g)*%
X160004999Y-51669999D03*
%TD*%
D16*
%TO.P,D1,1,K*%
%TO.N,GND*%
X136754999Y-69449999D03*
D17*
%TO.P,D1,2,A*%
%TO.N,Net-(D1-A)*%
X134215000Y-69450000D03*
%TD*%
D20*
%TO.P,LS1,1,1*%
%TO.N,BUZZER*%
X163499999Y-108879999D03*
D19*
%TO.P,LS1,2,2*%
%TO.N,GND*%
X163500000Y-101280000D03*
%TD*%
D12*
%TO.P,R6,1*%
%TO.N,b*%
X138175000Y-61830000D03*
D13*
%TO.P,R6,2*%
%TO.N,Net-(U2-b)*%
X138174999Y-51669999D03*
%TD*%
D12*
%TO.P,R1,1*%
%TO.N,GREEN_LED*%
X131035000Y-77705000D03*
D13*
%TO.P,R1,2*%
%TO.N,Net-(D1-A)*%
X141194999Y-77704999D03*
%TD*%
D19*
%TO.P,Start/Stop,1,1*%
%TO.N,VCC*%
X133650000Y-116150000D03*
X127150000Y-116150000D03*
%TO.P,Start/Stop,2,2*%
%TO.N,BUTTON_1*%
X133650000Y-111650000D03*
X127150000Y-111650000D03*
%TD*%
D12*
%TO.P,R8,1*%
%TO.N,d*%
X146275000Y-61830000D03*
D13*
%TO.P,R8,2*%
%TO.N,Net-(U2-d)*%
X146274999Y-51669999D03*
%TD*%
D12*
%TO.P,R4,1*%
%TO.N,BUTTON_2*%
X141195000Y-100565000D03*
D13*
%TO.P,R4,2*%
%TO.N,GND*%
X151354999Y-100564999D03*
%TD*%
D12*
%TO.P,R7,1*%
%TO.N,c*%
X142225000Y-61830000D03*
D13*
%TO.P,R7,2*%
%TO.N,Net-(U2-c)*%
X142224999Y-51669999D03*
%TD*%
M02*
